solid ascii
  facet normal -9.801714e-002 -9.951847e-001 0.000000e+000
    outer loop
      vertex   -1.796186e+001 -7.275423e+000 0.000000e+000
      vertex   -1.796186e+001 -7.275423e+000 5.000000e+001
      vertex   -1.835204e+001 -7.236994e+000 0.000000e+000
    endloop
  endfacet
  facet normal -9.801714e-002 -9.951847e-001 0.000000e+000
    outer loop
      vertex   -1.835204e+001 -7.236994e+000 0.000000e+000
      vertex   -1.796186e+001 -7.275423e+000 5.000000e+001
      vertex   -1.835204e+001 -7.236994e+000 5.000000e+001
    endloop
  endfacet
  facet normal -2.902847e-001 -9.569403e-001 0.000000e+000
    outer loop
      vertex   -1.872723e+001 -7.123182e+000 0.000000e+000
      vertex   -1.835204e+001 -7.236994e+000 5.000000e+001
      vertex   -1.872723e+001 -7.123182e+000 5.000000e+001
    endloop
  endfacet
  facet normal -4.713967e-001 -8.819213e-001 0.000000e+000
    outer loop
      vertex   -1.907300e+001 -6.938362e+000 0.000000e+000
      vertex   -1.872723e+001 -7.123182e+000 5.000000e+001
      vertex   -1.907300e+001 -6.938362e+000 5.000000e+001
    endloop
  endfacet
  facet normal -6.343933e-001 -7.730105e-001 0.000000e+000
    outer loop
      vertex   -1.937608e+001 -6.689637e+000 0.000000e+000
      vertex   -1.907300e+001 -6.938362e+000 5.000000e+001
      vertex   -1.937608e+001 -6.689637e+000 5.000000e+001
    endloop
  endfacet
  facet normal -7.730105e-001 -6.343933e-001 0.000000e+000
    outer loop
      vertex   -1.962480e+001 -6.386564e+000 0.000000e+000
      vertex   -1.937608e+001 -6.689637e+000 5.000000e+001
      vertex   -1.962480e+001 -6.386564e+000 5.000000e+001
    endloop
  endfacet
  facet normal -8.819213e-001 -4.713967e-001 0.000000e+000
    outer loop
      vertex   -1.980962e+001 -6.040790e+000 0.000000e+000
      vertex   -1.962480e+001 -6.386564e+000 5.000000e+001
      vertex   -1.980962e+001 -6.040790e+000 5.000000e+001
    endloop
  endfacet
  facet normal -9.569403e-001 -2.902847e-001 0.000000e+000
    outer loop
      vertex   -1.992343e+001 -5.665604e+000 0.000000e+000
      vertex   -1.980962e+001 -6.040790e+000 5.000000e+001
      vertex   -1.992343e+001 -5.665604e+000 5.000000e+001
    endloop
  endfacet
  facet normal -9.951847e-001 -9.801714e-002 0.000000e+000
    outer loop
      vertex   -1.996186e+001 -5.275423e+000 0.000000e+000
      vertex   -1.992343e+001 -5.665604e+000 5.000000e+001
      vertex   -1.996186e+001 -5.275423e+000 5.000000e+001
    endloop
  endfacet
  facet normal -9.951847e-001 -9.801714e-002 0.000000e+000
    outer loop
      vertex   -1.996186e+001 -5.275423e+000 0.000000e+000
      vertex   -1.992343e+001 -5.665604e+000 0.000000e+000
      vertex   -1.992343e+001 -5.665604e+000 5.000000e+001
    endloop
  endfacet
  facet normal -2.902847e-001 -9.569403e-001 0.000000e+000
    outer loop
      vertex   -1.835204e+001 -7.236994e+000 0.000000e+000
      vertex   -1.835204e+001 -7.236994e+000 5.000000e+001
      vertex   -1.872723e+001 -7.123182e+000 0.000000e+000
    endloop
  endfacet
  facet normal -4.713967e-001 -8.819213e-001 0.000000e+000
    outer loop
      vertex   -1.872723e+001 -7.123182e+000 0.000000e+000
      vertex   -1.872723e+001 -7.123182e+000 5.000000e+001
      vertex   -1.907300e+001 -6.938362e+000 0.000000e+000
    endloop
  endfacet
  facet normal -6.343933e-001 -7.730105e-001 0.000000e+000
    outer loop
      vertex   -1.907300e+001 -6.938362e+000 0.000000e+000
      vertex   -1.907300e+001 -6.938362e+000 5.000000e+001
      vertex   -1.937608e+001 -6.689637e+000 0.000000e+000
    endloop
  endfacet
  facet normal -7.730105e-001 -6.343933e-001 0.000000e+000
    outer loop
      vertex   -1.937608e+001 -6.689637e+000 0.000000e+000
      vertex   -1.937608e+001 -6.689637e+000 5.000000e+001
      vertex   -1.962480e+001 -6.386564e+000 0.000000e+000
    endloop
  endfacet
  facet normal -8.819213e-001 -4.713967e-001 0.000000e+000
    outer loop
      vertex   -1.962480e+001 -6.386564e+000 0.000000e+000
      vertex   -1.962480e+001 -6.386564e+000 5.000000e+001
      vertex   -1.980962e+001 -6.040790e+000 0.000000e+000
    endloop
  endfacet
  facet normal -9.569403e-001 -2.902847e-001 0.000000e+000
    outer loop
      vertex   -1.980962e+001 -6.040790e+000 0.000000e+000
      vertex   -1.980962e+001 -6.040790e+000 5.000000e+001
      vertex   -1.992343e+001 -5.665604e+000 0.000000e+000
    endloop
  endfacet
  facet normal 1.315820e-016 -1.000000e+000 0.000000e+000
    outer loop
      vertex   -1.796186e+001 -7.275423e+000 5.000000e+001
      vertex   -1.796186e+001 -7.275423e+000 0.000000e+000
      vertex   9.038136e+000 -7.275423e+000 5.000000e+001
    endloop
  endfacet
  facet normal 1.315820e-016 -1.000000e+000 0.000000e+000
    outer loop
      vertex   9.038136e+000 -7.275423e+000 5.000000e+001
      vertex   -1.796186e+001 -7.275423e+000 0.000000e+000
      vertex   9.038136e+000 -7.275423e+000 0.000000e+000
    endloop
  endfacet
  facet normal -0.000000e+000 0.000000e+000 -1.000000e+000
    outer loop
      vertex   9.038136e+000 -7.275423e+000 0.000000e+000
      vertex   -1.796186e+001 -7.275423e+000 0.000000e+000
      vertex   9.428317e+000 -7.236994e+000 0.000000e+000
    endloop
  endfacet
  facet normal -0.000000e+000 0.000000e+000 -1.000000e+000
    outer loop
      vertex   9.428317e+000 -7.236994e+000 0.000000e+000
      vertex   -1.796186e+001 -7.275423e+000 0.000000e+000
      vertex   -1.835204e+001 -7.236994e+000 0.000000e+000
    endloop
  endfacet
  facet normal -0.000000e+000 0.000000e+000 -1.000000e+000
    outer loop
      vertex   9.803503e+000 -7.123182e+000 0.000000e+000
      vertex   -1.835204e+001 -7.236994e+000 0.000000e+000
      vertex   -1.872723e+001 -7.123182e+000 0.000000e+000
    endloop
  endfacet
  facet normal -0.000000e+000 0.000000e+000 -1.000000e+000
    outer loop
      vertex   1.103814e+001 -5.275423e+000 0.000000e+000
      vertex   -1.872723e+001 -7.123182e+000 0.000000e+000
      vertex   -1.996186e+001 -5.275423e+000 0.000000e+000
    endloop
  endfacet
  facet normal -0.000000e+000 0.000000e+000 -1.000000e+000
    outer loop
      vertex   1.103814e+001 1.272458e+001 0.000000e+000
      vertex   -1.996186e+001 -5.275423e+000 0.000000e+000
      vertex   -1.996186e+001 1.272458e+001 0.000000e+000
    endloop
  endfacet
  facet normal -0.000000e+000 0.000000e+000 -1.000000e+000
    outer loop
      vertex   9.038136e+000 1.472458e+001 0.000000e+000
      vertex   -1.996186e+001 1.272458e+001 0.000000e+000
      vertex   -1.796186e+001 1.472458e+001 0.000000e+000
    endloop
  endfacet
  facet normal -0.000000e+000 -0.000000e+000 -1.000000e+000
    outer loop
      vertex   9.038136e+000 1.472458e+001 0.000000e+000
      vertex   1.103814e+001 1.272458e+001 0.000000e+000
      vertex   -1.996186e+001 1.272458e+001 0.000000e+000
    endloop
  endfacet
  facet normal 0.000000e+000 0.000000e+000 -1.000000e+000
    outer loop
      vertex   9.038136e+000 1.472458e+001 0.000000e+000
      vertex   1.099971e+001 1.311476e+001 0.000000e+000
      vertex   1.103814e+001 1.272458e+001 0.000000e+000
    endloop
  endfacet
  facet normal 0.000000e+000 0.000000e+000 -1.000000e+000
    outer loop
      vertex   9.038136e+000 1.472458e+001 0.000000e+000
      vertex   1.088589e+001 1.348994e+001 0.000000e+000
      vertex   1.099971e+001 1.311476e+001 0.000000e+000
    endloop
  endfacet
  facet normal 0.000000e+000 0.000000e+000 -1.000000e+000
    outer loop
      vertex   9.038136e+000 1.472458e+001 0.000000e+000
      vertex   1.070108e+001 1.383572e+001 0.000000e+000
      vertex   1.088589e+001 1.348994e+001 0.000000e+000
    endloop
  endfacet
  facet normal 0.000000e+000 0.000000e+000 -1.000000e+000
    outer loop
      vertex   9.038136e+000 1.472458e+001 0.000000e+000
      vertex   1.045235e+001 1.413879e+001 0.000000e+000
      vertex   1.070108e+001 1.383572e+001 0.000000e+000
    endloop
  endfacet
  facet normal 0.000000e+000 0.000000e+000 -1.000000e+000
    outer loop
      vertex   9.038136e+000 1.472458e+001 0.000000e+000
      vertex   1.014928e+001 1.438752e+001 0.000000e+000
      vertex   1.045235e+001 1.413879e+001 0.000000e+000
    endloop
  endfacet
  facet normal 0.000000e+000 0.000000e+000 -1.000000e+000
    outer loop
      vertex   9.038136e+000 1.472458e+001 0.000000e+000
      vertex   9.803503e+000 1.457234e+001 0.000000e+000
      vertex   1.014928e+001 1.438752e+001 0.000000e+000
    endloop
  endfacet
  facet normal 0.000000e+000 0.000000e+000 -1.000000e+000
    outer loop
      vertex   9.038136e+000 1.472458e+001 0.000000e+000
      vertex   9.428317e+000 1.468615e+001 0.000000e+000
      vertex   9.803503e+000 1.457234e+001 0.000000e+000
    endloop
  endfacet
  facet normal -0.000000e+000 0.000000e+000 -1.000000e+000
    outer loop
      vertex   9.428317e+000 -7.236994e+000 0.000000e+000
      vertex   -1.835204e+001 -7.236994e+000 0.000000e+000
      vertex   9.803503e+000 -7.123182e+000 0.000000e+000
    endloop
  endfacet
  facet normal 0.000000e+000 0.000000e+000 -1.000000e+000
    outer loop
      vertex   -1.907300e+001 -6.938362e+000 0.000000e+000
      vertex   -1.937608e+001 -6.689637e+000 0.000000e+000
      vertex   -1.872723e+001 -7.123182e+000 0.000000e+000
    endloop
  endfacet
  facet normal 0.000000e+000 0.000000e+000 -1.000000e+000
    outer loop
      vertex   -1.872723e+001 -7.123182e+000 0.000000e+000
      vertex   -1.937608e+001 -6.689637e+000 0.000000e+000
      vertex   -1.962480e+001 -6.386564e+000 0.000000e+000
    endloop
  endfacet
  facet normal -0.000000e+000 -0.000000e+000 -1.000000e+000
    outer loop
      vertex   -1.980962e+001 -6.040790e+000 0.000000e+000
      vertex   -1.872723e+001 -7.123182e+000 0.000000e+000
      vertex   -1.962480e+001 -6.386564e+000 0.000000e+000
    endloop
  endfacet
  facet normal 0.000000e+000 0.000000e+000 -1.000000e+000
    outer loop
      vertex   -1.980962e+001 -6.040790e+000 0.000000e+000
      vertex   -1.992343e+001 -5.665604e+000 0.000000e+000
      vertex   -1.872723e+001 -7.123182e+000 0.000000e+000
    endloop
  endfacet
  facet normal 0.000000e+000 0.000000e+000 -1.000000e+000
    outer loop
      vertex   -1.872723e+001 -7.123182e+000 0.000000e+000
      vertex   -1.992343e+001 -5.665604e+000 0.000000e+000
      vertex   -1.996186e+001 -5.275423e+000 0.000000e+000
    endloop
  endfacet
  facet normal -0.000000e+000 0.000000e+000 -1.000000e+000
    outer loop
      vertex   1.103814e+001 -5.275423e+000 0.000000e+000
      vertex   -1.996186e+001 -5.275423e+000 0.000000e+000
      vertex   1.103814e+001 1.272458e+001 0.000000e+000
    endloop
  endfacet
  facet normal 0.000000e+000 0.000000e+000 -1.000000e+000
    outer loop
      vertex   -1.996186e+001 1.272458e+001 0.000000e+000
      vertex   -1.992343e+001 1.311476e+001 0.000000e+000
      vertex   -1.796186e+001 1.472458e+001 0.000000e+000
    endloop
  endfacet
  facet normal -0.000000e+000 0.000000e+000 -1.000000e+000
    outer loop
      vertex   -1.796186e+001 1.472458e+001 0.000000e+000
      vertex   -1.992343e+001 1.311476e+001 0.000000e+000
      vertex   -1.980962e+001 1.348994e+001 0.000000e+000
    endloop
  endfacet
  facet normal 0.000000e+000 -0.000000e+000 -1.000000e+000
    outer loop
      vertex   -1.962480e+001 1.383572e+001 0.000000e+000
      vertex   -1.796186e+001 1.472458e+001 0.000000e+000
      vertex   -1.980962e+001 1.348994e+001 0.000000e+000
    endloop
  endfacet
  facet normal 0.000000e+000 0.000000e+000 -1.000000e+000
    outer loop
      vertex   -1.962480e+001 1.383572e+001 0.000000e+000
      vertex   -1.937608e+001 1.413879e+001 0.000000e+000
      vertex   -1.796186e+001 1.472458e+001 0.000000e+000
    endloop
  endfacet
  facet normal -0.000000e+000 0.000000e+000 -1.000000e+000
    outer loop
      vertex   -1.796186e+001 1.472458e+001 0.000000e+000
      vertex   -1.937608e+001 1.413879e+001 0.000000e+000
      vertex   -1.907300e+001 1.438752e+001 0.000000e+000
    endloop
  endfacet
  facet normal 0.000000e+000 -0.000000e+000 -1.000000e+000
    outer loop
      vertex   -1.872723e+001 1.457234e+001 0.000000e+000
      vertex   -1.796186e+001 1.472458e+001 0.000000e+000
      vertex   -1.907300e+001 1.438752e+001 0.000000e+000
    endloop
  endfacet
  facet normal 0.000000e+000 0.000000e+000 -1.000000e+000
    outer loop
      vertex   -1.872723e+001 1.457234e+001 0.000000e+000
      vertex   -1.835204e+001 1.468615e+001 0.000000e+000
      vertex   -1.796186e+001 1.472458e+001 0.000000e+000
    endloop
  endfacet
  facet normal 0.000000e+000 -0.000000e+000 -1.000000e+000
    outer loop
      vertex   -1.872723e+001 -7.123182e+000 0.000000e+000
      vertex   1.103814e+001 -5.275423e+000 0.000000e+000
      vertex   9.803503e+000 -7.123182e+000 0.000000e+000
    endloop
  endfacet
  facet normal 0.000000e+000 -0.000000e+000 -1.000000e+000
    outer loop
      vertex   9.803503e+000 -7.123182e+000 0.000000e+000
      vertex   1.103814e+001 -5.275423e+000 0.000000e+000
      vertex   1.099971e+001 -5.665604e+000 0.000000e+000
    endloop
  endfacet
  facet normal -0.000000e+000 0.000000e+000 -1.000000e+000
    outer loop
      vertex   1.088589e+001 -6.040790e+000 0.000000e+000
      vertex   9.803503e+000 -7.123182e+000 0.000000e+000
      vertex   1.099971e+001 -5.665604e+000 0.000000e+000
    endloop
  endfacet
  facet normal 0.000000e+000 0.000000e+000 -1.000000e+000
    outer loop
      vertex   1.088589e+001 -6.040790e+000 0.000000e+000
      vertex   1.070108e+001 -6.386564e+000 0.000000e+000
      vertex   9.803503e+000 -7.123182e+000 0.000000e+000
    endloop
  endfacet
  facet normal 0.000000e+000 -0.000000e+000 -1.000000e+000
    outer loop
      vertex   9.803503e+000 -7.123182e+000 0.000000e+000
      vertex   1.070108e+001 -6.386564e+000 0.000000e+000
      vertex   1.045235e+001 -6.689637e+000 0.000000e+000
    endloop
  endfacet
  facet normal -0.000000e+000 0.000000e+000 -1.000000e+000
    outer loop
      vertex   1.014928e+001 -6.938362e+000 0.000000e+000
      vertex   9.803503e+000 -7.123182e+000 0.000000e+000
      vertex   1.045235e+001 -6.689637e+000 0.000000e+000
    endloop
  endfacet
  facet normal -9.951847e-001 9.801714e-002 0.000000e+000
    outer loop
      vertex   -1.996186e+001 1.272458e+001 0.000000e+000
      vertex   -1.996186e+001 1.272458e+001 5.000000e+001
      vertex   -1.992343e+001 1.311476e+001 0.000000e+000
    endloop
  endfacet
  facet normal -9.951847e-001 9.801714e-002 -3.539633e-018
    outer loop
      vertex   -1.992343e+001 1.311476e+001 0.000000e+000
      vertex   -1.996186e+001 1.272458e+001 5.000000e+001
      vertex   -1.992343e+001 1.311476e+001 5.000000e+001
    endloop
  endfacet
  facet normal -9.569403e-001 2.902847e-001 0.000000e+000
    outer loop
      vertex   -1.980962e+001 1.348994e+001 0.000000e+000
      vertex   -1.992343e+001 1.311476e+001 5.000000e+001
      vertex   -1.980962e+001 1.348994e+001 5.000000e+001
    endloop
  endfacet
  facet normal -8.819213e-001 4.713967e-001 0.000000e+000
    outer loop
      vertex   -1.962480e+001 1.383572e+001 0.000000e+000
      vertex   -1.980962e+001 1.348994e+001 5.000000e+001
      vertex   -1.962480e+001 1.383572e+001 5.000000e+001
    endloop
  endfacet
  facet normal -7.730105e-001 6.343933e-001 0.000000e+000
    outer loop
      vertex   -1.937608e+001 1.413879e+001 0.000000e+000
      vertex   -1.962480e+001 1.383572e+001 5.000000e+001
      vertex   -1.937608e+001 1.413879e+001 5.000000e+001
    endloop
  endfacet
  facet normal -6.343933e-001 7.730105e-001 0.000000e+000
    outer loop
      vertex   -1.907300e+001 1.438752e+001 0.000000e+000
      vertex   -1.937608e+001 1.413879e+001 5.000000e+001
      vertex   -1.907300e+001 1.438752e+001 5.000000e+001
    endloop
  endfacet
  facet normal -4.713967e-001 8.819213e-001 -3.398048e-017
    outer loop
      vertex   -1.872723e+001 1.457234e+001 0.000000e+000
      vertex   -1.907300e+001 1.438752e+001 5.000000e+001
      vertex   -1.872723e+001 1.457234e+001 5.000000e+001
    endloop
  endfacet
  facet normal -2.902847e-001 9.569403e-001 0.000000e+000
    outer loop
      vertex   -1.835204e+001 1.468615e+001 0.000000e+000
      vertex   -1.872723e+001 1.457234e+001 5.000000e+001
      vertex   -1.835204e+001 1.468615e+001 5.000000e+001
    endloop
  endfacet
  facet normal -9.801714e-002 9.951847e-001 0.000000e+000
    outer loop
      vertex   -1.796186e+001 1.472458e+001 0.000000e+000
      vertex   -1.835204e+001 1.468615e+001 5.000000e+001
      vertex   -1.796186e+001 1.472458e+001 5.000000e+001
    endloop
  endfacet
  facet normal -9.801714e-002 9.951847e-001 0.000000e+000
    outer loop
      vertex   -1.796186e+001 1.472458e+001 0.000000e+000
      vertex   -1.835204e+001 1.468615e+001 0.000000e+000
      vertex   -1.835204e+001 1.468615e+001 5.000000e+001
    endloop
  endfacet
  facet normal -9.569403e-001 2.902847e-001 -1.031298e-017
    outer loop
      vertex   -1.992343e+001 1.311476e+001 0.000000e+000
      vertex   -1.992343e+001 1.311476e+001 5.000000e+001
      vertex   -1.980962e+001 1.348994e+001 0.000000e+000
    endloop
  endfacet
  facet normal -8.819213e-001 4.713967e-001 0.000000e+000
    outer loop
      vertex   -1.980962e+001 1.348994e+001 0.000000e+000
      vertex   -1.980962e+001 1.348994e+001 5.000000e+001
      vertex   -1.962480e+001 1.383572e+001 0.000000e+000
    endloop
  endfacet
  facet normal -7.730105e-001 6.343933e-001 0.000000e+000
    outer loop
      vertex   -1.962480e+001 1.383572e+001 0.000000e+000
      vertex   -1.962480e+001 1.383572e+001 5.000000e+001
      vertex   -1.937608e+001 1.413879e+001 0.000000e+000
    endloop
  endfacet
  facet normal -6.343933e-001 7.730105e-001 0.000000e+000
    outer loop
      vertex   -1.937608e+001 1.413879e+001 0.000000e+000
      vertex   -1.937608e+001 1.413879e+001 5.000000e+001
      vertex   -1.907300e+001 1.438752e+001 0.000000e+000
    endloop
  endfacet
  facet normal -4.713967e-001 8.819213e-001 0.000000e+000
    outer loop
      vertex   -1.907300e+001 1.438752e+001 0.000000e+000
      vertex   -1.907300e+001 1.438752e+001 5.000000e+001
      vertex   -1.872723e+001 1.457234e+001 0.000000e+000
    endloop
  endfacet
  facet normal -2.902847e-001 9.569403e-001 -2.062597e-017
    outer loop
      vertex   -1.872723e+001 1.457234e+001 0.000000e+000
      vertex   -1.872723e+001 1.457234e+001 5.000000e+001
      vertex   -1.835204e+001 1.468615e+001 0.000000e+000
    endloop
  endfacet
  facet normal -0.000000e+000 1.000000e+000 0.000000e+000
    outer loop
      vertex   -1.796186e+001 1.472458e+001 0.000000e+000
      vertex   -1.796186e+001 1.472458e+001 5.000000e+001
      vertex   9.038136e+000 1.472458e+001 0.000000e+000
    endloop
  endfacet
  facet normal 0.000000e+000 1.000000e+000 -0.000000e+000
    outer loop
      vertex   9.038136e+000 1.472458e+001 0.000000e+000
      vertex   -1.796186e+001 1.472458e+001 5.000000e+001
      vertex   9.038136e+000 1.472458e+001 5.000000e+001
    endloop
  endfacet
  facet normal 9.801714e-002 9.951847e-001 -0.000000e+000
    outer loop
      vertex   9.038136e+000 1.472458e+001 0.000000e+000
      vertex   9.038136e+000 1.472458e+001 5.000000e+001
      vertex   9.428317e+000 1.468615e+001 0.000000e+000
    endloop
  endfacet
  facet normal 9.801714e-002 9.951847e-001 0.000000e+000
    outer loop
      vertex   9.428317e+000 1.468615e+001 0.000000e+000
      vertex   9.038136e+000 1.472458e+001 5.000000e+001
      vertex   9.428317e+000 1.468615e+001 5.000000e+001
    endloop
  endfacet
  facet normal 2.902847e-001 9.569403e-001 0.000000e+000
    outer loop
      vertex   9.803503e+000 1.457234e+001 0.000000e+000
      vertex   9.428317e+000 1.468615e+001 5.000000e+001
      vertex   9.803503e+000 1.457234e+001 5.000000e+001
    endloop
  endfacet
  facet normal 4.713967e-001 8.819213e-001 0.000000e+000
    outer loop
      vertex   1.014928e+001 1.438752e+001 0.000000e+000
      vertex   9.803503e+000 1.457234e+001 5.000000e+001
      vertex   1.014928e+001 1.438752e+001 5.000000e+001
    endloop
  endfacet
  facet normal 6.343933e-001 7.730105e-001 0.000000e+000
    outer loop
      vertex   1.045235e+001 1.413879e+001 0.000000e+000
      vertex   1.014928e+001 1.438752e+001 5.000000e+001
      vertex   1.045235e+001 1.413879e+001 5.000000e+001
    endloop
  endfacet
  facet normal 7.730105e-001 6.343933e-001 0.000000e+000
    outer loop
      vertex   1.070108e+001 1.383572e+001 0.000000e+000
      vertex   1.045235e+001 1.413879e+001 5.000000e+001
      vertex   1.070108e+001 1.383572e+001 5.000000e+001
    endloop
  endfacet
  facet normal 8.819213e-001 4.713967e-001 0.000000e+000
    outer loop
      vertex   1.088589e+001 1.348994e+001 0.000000e+000
      vertex   1.070108e+001 1.383572e+001 5.000000e+001
      vertex   1.088589e+001 1.348994e+001 5.000000e+001
    endloop
  endfacet
  facet normal 9.569403e-001 2.902847e-001 0.000000e+000
    outer loop
      vertex   1.099971e+001 1.311476e+001 0.000000e+000
      vertex   1.088589e+001 1.348994e+001 5.000000e+001
      vertex   1.099971e+001 1.311476e+001 5.000000e+001
    endloop
  endfacet
  facet normal 9.951847e-001 9.801714e-002 0.000000e+000
    outer loop
      vertex   1.103814e+001 1.272458e+001 0.000000e+000
      vertex   1.099971e+001 1.311476e+001 5.000000e+001
      vertex   1.103814e+001 1.272458e+001 5.000000e+001
    endloop
  endfacet
  facet normal 9.951847e-001 9.801714e-002 -0.000000e+000
    outer loop
      vertex   1.103814e+001 1.272458e+001 0.000000e+000
      vertex   1.099971e+001 1.311476e+001 0.000000e+000
      vertex   1.099971e+001 1.311476e+001 5.000000e+001
    endloop
  endfacet
  facet normal 2.902847e-001 9.569403e-001 -0.000000e+000
    outer loop
      vertex   9.428317e+000 1.468615e+001 0.000000e+000
      vertex   9.428317e+000 1.468615e+001 5.000000e+001
      vertex   9.803503e+000 1.457234e+001 0.000000e+000
    endloop
  endfacet
  facet normal 4.713967e-001 8.819213e-001 -0.000000e+000
    outer loop
      vertex   9.803503e+000 1.457234e+001 0.000000e+000
      vertex   9.803503e+000 1.457234e+001 5.000000e+001
      vertex   1.014928e+001 1.438752e+001 0.000000e+000
    endloop
  endfacet
  facet normal 6.343933e-001 7.730105e-001 -0.000000e+000
    outer loop
      vertex   1.014928e+001 1.438752e+001 0.000000e+000
      vertex   1.014928e+001 1.438752e+001 5.000000e+001
      vertex   1.045235e+001 1.413879e+001 0.000000e+000
    endloop
  endfacet
  facet normal 7.730105e-001 6.343933e-001 -0.000000e+000
    outer loop
      vertex   1.045235e+001 1.413879e+001 0.000000e+000
      vertex   1.045235e+001 1.413879e+001 5.000000e+001
      vertex   1.070108e+001 1.383572e+001 0.000000e+000
    endloop
  endfacet
  facet normal 8.819213e-001 4.713967e-001 -0.000000e+000
    outer loop
      vertex   1.070108e+001 1.383572e+001 0.000000e+000
      vertex   1.070108e+001 1.383572e+001 5.000000e+001
      vertex   1.088589e+001 1.348994e+001 0.000000e+000
    endloop
  endfacet
  facet normal 9.569403e-001 2.902847e-001 -0.000000e+000
    outer loop
      vertex   1.088589e+001 1.348994e+001 0.000000e+000
      vertex   1.088589e+001 1.348994e+001 5.000000e+001
      vertex   1.099971e+001 1.311476e+001 0.000000e+000
    endloop
  endfacet
  facet normal -9.951847e-001 9.801714e-002 3.682923e-017
    outer loop
      vertex   9.038136e+000 -3.275423e+000 5.000000e+001
      vertex   9.038136e+000 -3.275423e+000 2.000000e+000
      vertex   8.999706e+000 -3.665604e+000 5.000000e+001
    endloop
  endfacet
  facet normal -9.951847e-001 9.801714e-002 0.000000e+000
    outer loop
      vertex   8.999706e+000 -3.665604e+000 5.000000e+001
      vertex   9.038136e+000 -3.275423e+000 2.000000e+000
      vertex   8.999706e+000 -3.665604e+000 2.000000e+000
    endloop
  endfacet
  facet normal -9.569403e-001 2.902847e-001 0.000000e+000
    outer loop
      vertex   8.885895e+000 -4.040790e+000 5.000000e+001
      vertex   8.999706e+000 -3.665604e+000 2.000000e+000
      vertex   8.885895e+000 -4.040790e+000 2.000000e+000
    endloop
  endfacet
  facet normal -8.819213e-001 4.713967e-001 0.000000e+000
    outer loop
      vertex   8.701075e+000 -4.386564e+000 5.000000e+001
      vertex   8.885895e+000 -4.040790e+000 2.000000e+000
      vertex   8.701075e+000 -4.386564e+000 2.000000e+000
    endloop
  endfacet
  facet normal -7.730105e-001 6.343933e-001 0.000000e+000
    outer loop
      vertex   8.452349e+000 -4.689637e+000 5.000000e+001
      vertex   8.701075e+000 -4.386564e+000 2.000000e+000
      vertex   8.452349e+000 -4.689637e+000 2.000000e+000
    endloop
  endfacet
  facet normal -6.343933e-001 7.730105e-001 0.000000e+000
    outer loop
      vertex   8.149276e+000 -4.938362e+000 5.000000e+001
      vertex   8.452349e+000 -4.689637e+000 2.000000e+000
      vertex   8.149276e+000 -4.938362e+000 2.000000e+000
    endloop
  endfacet
  facet normal -4.713967e-001 8.819213e-001 0.000000e+000
    outer loop
      vertex   7.803503e+000 -5.123182e+000 5.000000e+001
      vertex   8.149276e+000 -4.938362e+000 2.000000e+000
      vertex   7.803503e+000 -5.123182e+000 2.000000e+000
    endloop
  endfacet
  facet normal -2.902847e-001 9.569403e-001 0.000000e+000
    outer loop
      vertex   7.428317e+000 -5.236994e+000 5.000000e+001
      vertex   7.803503e+000 -5.123182e+000 2.000000e+000
      vertex   7.428317e+000 -5.236994e+000 2.000000e+000
    endloop
  endfacet
  facet normal -9.801714e-002 9.951847e-001 0.000000e+000
    outer loop
      vertex   7.038136e+000 -5.275423e+000 5.000000e+001
      vertex   7.428317e+000 -5.236994e+000 2.000000e+000
      vertex   7.038136e+000 -5.275423e+000 2.000000e+000
    endloop
  endfacet
  facet normal -9.801714e-002 9.951847e-001 0.000000e+000
    outer loop
      vertex   7.038136e+000 -5.275423e+000 5.000000e+001
      vertex   7.428317e+000 -5.236994e+000 5.000000e+001
      vertex   7.428317e+000 -5.236994e+000 2.000000e+000
    endloop
  endfacet
  facet normal -9.569403e-001 2.902847e-001 0.000000e+000
    outer loop
      vertex   8.999706e+000 -3.665604e+000 5.000000e+001
      vertex   8.999706e+000 -3.665604e+000 2.000000e+000
      vertex   8.885895e+000 -4.040790e+000 5.000000e+001
    endloop
  endfacet
  facet normal -8.819213e-001 4.713967e-001 0.000000e+000
    outer loop
      vertex   8.885895e+000 -4.040790e+000 5.000000e+001
      vertex   8.885895e+000 -4.040790e+000 2.000000e+000
      vertex   8.701075e+000 -4.386564e+000 5.000000e+001
    endloop
  endfacet
  facet normal -7.730105e-001 6.343933e-001 0.000000e+000
    outer loop
      vertex   8.701075e+000 -4.386564e+000 5.000000e+001
      vertex   8.701075e+000 -4.386564e+000 2.000000e+000
      vertex   8.452349e+000 -4.689637e+000 5.000000e+001
    endloop
  endfacet
  facet normal -6.343933e-001 7.730105e-001 0.000000e+000
    outer loop
      vertex   8.452349e+000 -4.689637e+000 5.000000e+001
      vertex   8.452349e+000 -4.689637e+000 2.000000e+000
      vertex   8.149276e+000 -4.938362e+000 5.000000e+001
    endloop
  endfacet
  facet normal -4.713967e-001 8.819213e-001 0.000000e+000
    outer loop
      vertex   8.149276e+000 -4.938362e+000 5.000000e+001
      vertex   8.149276e+000 -4.938362e+000 2.000000e+000
      vertex   7.803503e+000 -5.123182e+000 5.000000e+001
    endloop
  endfacet
  facet normal -2.902847e-001 9.569403e-001 0.000000e+000
    outer loop
      vertex   7.803503e+000 -5.123182e+000 5.000000e+001
      vertex   7.803503e+000 -5.123182e+000 2.000000e+000
      vertex   7.428317e+000 -5.236994e+000 5.000000e+001
    endloop
  endfacet
  facet normal -3.089316e-016 1.000000e+000 0.000000e+000
    outer loop
      vertex   7.038136e+000 -5.275423e+000 5.000000e+001
      vertex   7.038136e+000 -5.275423e+000 2.000000e+000
      vertex   -1.596186e+001 -5.275423e+000 5.000000e+001
    endloop
  endfacet
  facet normal -2.703152e-016 1.000000e+000 1.850372e-017
    outer loop
      vertex   -1.596186e+001 -5.275423e+000 5.000000e+001
      vertex   7.038136e+000 -5.275423e+000 2.000000e+000
      vertex   -1.596186e+001 -5.275423e+000 2.000000e+000
    endloop
  endfacet
  facet normal 9.801714e-002 9.951847e-001 1.841462e-017
    outer loop
      vertex   -1.596186e+001 -5.275423e+000 5.000000e+001
      vertex   -1.596186e+001 -5.275423e+000 2.000000e+000
      vertex   -1.635204e+001 -5.236994e+000 5.000000e+001
    endloop
  endfacet
  facet normal 9.801714e-002 9.951847e-001 0.000000e+000
    outer loop
      vertex   -1.635204e+001 -5.236994e+000 5.000000e+001
      vertex   -1.596186e+001 -5.275423e+000 2.000000e+000
      vertex   -1.635204e+001 -5.236994e+000 2.000000e+000
    endloop
  endfacet
  facet normal 2.902847e-001 9.569403e-001 2.138528e-017
    outer loop
      vertex   -1.672723e+001 -5.123182e+000 5.000000e+001
      vertex   -1.635204e+001 -5.236994e+000 2.000000e+000
      vertex   -1.672723e+001 -5.123182e+000 2.000000e+000
    endloop
  endfacet
  facet normal 4.713967e-001 8.819213e-001 0.000000e+000
    outer loop
      vertex   -1.707300e+001 -4.938362e+000 5.000000e+001
      vertex   -1.672723e+001 -5.123182e+000 2.000000e+000
      vertex   -1.707300e+001 -4.938362e+000 2.000000e+000
    endloop
  endfacet
  facet normal 6.343933e-001 7.730105e-001 0.000000e+000
    outer loop
      vertex   -1.737608e+001 -4.689637e+000 5.000000e+001
      vertex   -1.707300e+001 -4.938362e+000 2.000000e+000
      vertex   -1.737608e+001 -4.689637e+000 2.000000e+000
    endloop
  endfacet
  facet normal 7.730105e-001 6.343933e-001 0.000000e+000
    outer loop
      vertex   -1.762480e+001 -4.386564e+000 5.000000e+001
      vertex   -1.737608e+001 -4.689637e+000 2.000000e+000
      vertex   -1.762480e+001 -4.386564e+000 2.000000e+000
    endloop
  endfacet
  facet normal 8.819213e-001 4.713967e-001 0.000000e+000
    outer loop
      vertex   -1.780962e+001 -4.040790e+000 5.000000e+001
      vertex   -1.762480e+001 -4.386564e+000 2.000000e+000
      vertex   -1.780962e+001 -4.040790e+000 2.000000e+000
    endloop
  endfacet
  facet normal 9.569403e-001 2.902847e-001 -2.949694e-018
    outer loop
      vertex   -1.792343e+001 -3.665604e+000 5.000000e+001
      vertex   -1.780962e+001 -4.040790e+000 2.000000e+000
      vertex   -1.792343e+001 -3.665604e+000 2.000000e+000
    endloop
  endfacet
  facet normal 9.951847e-001 9.801714e-002 -1.843559e-018
    outer loop
      vertex   -1.796186e+001 -3.275423e+000 5.000000e+001
      vertex   -1.792343e+001 -3.665604e+000 2.000000e+000
      vertex   -1.796186e+001 -3.275423e+000 2.000000e+000
    endloop
  endfacet
  facet normal 9.951847e-001 9.801714e-002 -9.068407e-019
    outer loop
      vertex   -1.796186e+001 -3.275423e+000 5.000000e+001
      vertex   -1.792343e+001 -3.665604e+000 5.000000e+001
      vertex   -1.792343e+001 -3.665604e+000 2.000000e+000
    endloop
  endfacet
  facet normal 2.902847e-001 9.569403e-001 0.000000e+000
    outer loop
      vertex   -1.635204e+001 -5.236994e+000 5.000000e+001
      vertex   -1.635204e+001 -5.236994e+000 2.000000e+000
      vertex   -1.672723e+001 -5.123182e+000 5.000000e+001
    endloop
  endfacet
  facet normal 4.713967e-001 8.819213e-001 3.489037e-017
    outer loop
      vertex   -1.672723e+001 -5.123182e+000 5.000000e+001
      vertex   -1.672723e+001 -5.123182e+000 2.000000e+000
      vertex   -1.707300e+001 -4.938362e+000 5.000000e+001
    endloop
  endfacet
  facet normal 6.343933e-001 7.730105e-001 0.000000e+000
    outer loop
      vertex   -1.707300e+001 -4.938362e+000 5.000000e+001
      vertex   -1.707300e+001 -4.938362e+000 2.000000e+000
      vertex   -1.737608e+001 -4.689637e+000 5.000000e+001
    endloop
  endfacet
  facet normal 7.730105e-001 6.343933e-001 0.000000e+000
    outer loop
      vertex   -1.737608e+001 -4.689637e+000 5.000000e+001
      vertex   -1.737608e+001 -4.689637e+000 2.000000e+000
      vertex   -1.762480e+001 -4.386564e+000 5.000000e+001
    endloop
  endfacet
  facet normal 8.819213e-001 4.713967e-001 0.000000e+000
    outer loop
      vertex   -1.762480e+001 -4.386564e+000 5.000000e+001
      vertex   -1.762480e+001 -4.386564e+000 2.000000e+000
      vertex   -1.780962e+001 -4.040790e+000 5.000000e+001
    endloop
  endfacet
  facet normal 9.569403e-001 2.902847e-001 0.000000e+000
    outer loop
      vertex   -1.780962e+001 -4.040790e+000 5.000000e+001
      vertex   -1.780962e+001 -4.040790e+000 2.000000e+000
      vertex   -1.792343e+001 -3.665604e+000 5.000000e+001
    endloop
  endfacet
  facet normal 1.000000e+000 -0.000000e+000 0.000000e+000
    outer loop
      vertex   -1.796186e+001 -3.275423e+000 5.000000e+001
      vertex   -1.796186e+001 -3.275423e+000 2.000000e+000
      vertex   -1.796186e+001 1.072458e+001 5.000000e+001
    endloop
  endfacet
  facet normal 1.000000e+000 -0.000000e+000 0.000000e+000
    outer loop
      vertex   -1.796186e+001 1.072458e+001 5.000000e+001
      vertex   -1.796186e+001 -3.275423e+000 2.000000e+000
      vertex   -1.796186e+001 1.072458e+001 2.000000e+000
    endloop
  endfacet
  facet normal 9.951847e-001 -9.801714e-002 0.000000e+000
    outer loop
      vertex   -1.796186e+001 1.072458e+001 5.000000e+001
      vertex   -1.796186e+001 1.072458e+001 2.000000e+000
      vertex   -1.792343e+001 1.111476e+001 5.000000e+001
    endloop
  endfacet
  facet normal 9.951847e-001 -9.801714e-002 0.000000e+000
    outer loop
      vertex   -1.792343e+001 1.111476e+001 5.000000e+001
      vertex   -1.796186e+001 1.072458e+001 2.000000e+000
      vertex   -1.792343e+001 1.111476e+001 2.000000e+000
    endloop
  endfacet
  facet normal 9.569403e-001 -2.902847e-001 0.000000e+000
    outer loop
      vertex   -1.780962e+001 1.148994e+001 5.000000e+001
      vertex   -1.792343e+001 1.111476e+001 2.000000e+000
      vertex   -1.780962e+001 1.148994e+001 2.000000e+000
    endloop
  endfacet
  facet normal 8.819213e-001 -4.713967e-001 0.000000e+000
    outer loop
      vertex   -1.762480e+001 1.183572e+001 5.000000e+001
      vertex   -1.780962e+001 1.148994e+001 2.000000e+000
      vertex   -1.762480e+001 1.183572e+001 2.000000e+000
    endloop
  endfacet
  facet normal 7.730105e-001 -6.343933e-001 5.751903e-017
    outer loop
      vertex   -1.737608e+001 1.213879e+001 5.000000e+001
      vertex   -1.762480e+001 1.183572e+001 2.000000e+000
      vertex   -1.737608e+001 1.213879e+001 2.000000e+000
    endloop
  endfacet
  facet normal 6.343933e-001 -7.730105e-001 2.875952e-017
    outer loop
      vertex   -1.707300e+001 1.238752e+001 5.000000e+001
      vertex   -1.737608e+001 1.213879e+001 2.000000e+000
      vertex   -1.707300e+001 1.238752e+001 2.000000e+000
    endloop
  endfacet
  facet normal 4.713967e-001 -8.819213e-001 0.000000e+000
    outer loop
      vertex   -1.672723e+001 1.257234e+001 5.000000e+001
      vertex   -1.707300e+001 1.238752e+001 2.000000e+000
      vertex   -1.672723e+001 1.257234e+001 2.000000e+000
    endloop
  endfacet
  facet normal 2.902847e-001 -9.569403e-001 0.000000e+000
    outer loop
      vertex   -1.635204e+001 1.268615e+001 5.000000e+001
      vertex   -1.672723e+001 1.257234e+001 2.000000e+000
      vertex   -1.635204e+001 1.268615e+001 2.000000e+000
    endloop
  endfacet
  facet normal 9.801714e-002 -9.951847e-001 3.687118e-018
    outer loop
      vertex   -1.596186e+001 1.272458e+001 5.000000e+001
      vertex   -1.635204e+001 1.268615e+001 2.000000e+000
      vertex   -1.596186e+001 1.272458e+001 2.000000e+000
    endloop
  endfacet
  facet normal 9.801714e-002 -9.951847e-001 0.000000e+000
    outer loop
      vertex   -1.596186e+001 1.272458e+001 5.000000e+001
      vertex   -1.635204e+001 1.268615e+001 5.000000e+001
      vertex   -1.635204e+001 1.268615e+001 2.000000e+000
    endloop
  endfacet
  facet normal 9.569403e-001 -2.902847e-001 0.000000e+000
    outer loop
      vertex   -1.792343e+001 1.111476e+001 5.000000e+001
      vertex   -1.792343e+001 1.111476e+001 2.000000e+000
      vertex   -1.780962e+001 1.148994e+001 5.000000e+001
    endloop
  endfacet
  facet normal 8.819213e-001 -4.713967e-001 0.000000e+000
    outer loop
      vertex   -1.780962e+001 1.148994e+001 5.000000e+001
      vertex   -1.780962e+001 1.148994e+001 2.000000e+000
      vertex   -1.762480e+001 1.183572e+001 5.000000e+001
    endloop
  endfacet
  facet normal 7.730105e-001 -6.343933e-001 0.000000e+000
    outer loop
      vertex   -1.762480e+001 1.183572e+001 5.000000e+001
      vertex   -1.762480e+001 1.183572e+001 2.000000e+000
      vertex   -1.737608e+001 1.213879e+001 5.000000e+001
    endloop
  endfacet
  facet normal 6.343933e-001 -7.730105e-001 4.695454e-017
    outer loop
      vertex   -1.737608e+001 1.213879e+001 5.000000e+001
      vertex   -1.737608e+001 1.213879e+001 2.000000e+000
      vertex   -1.707300e+001 1.238752e+001 5.000000e+001
    endloop
  endfacet
  facet normal 4.713967e-001 -8.819213e-001 3.263764e-017
    outer loop
      vertex   -1.707300e+001 1.238752e+001 5.000000e+001
      vertex   -1.707300e+001 1.238752e+001 2.000000e+000
      vertex   -1.672723e+001 1.257234e+001 5.000000e+001
    endloop
  endfacet
  facet normal 2.902847e-001 -9.569403e-001 0.000000e+000
    outer loop
      vertex   -1.672723e+001 1.257234e+001 5.000000e+001
      vertex   -1.672723e+001 1.257234e+001 2.000000e+000
      vertex   -1.635204e+001 1.268615e+001 5.000000e+001
    endloop
  endfacet
  facet normal 7.723291e-017 -1.000000e+000 2.858192e-033
    outer loop
      vertex   -1.596186e+001 1.272458e+001 5.000000e+001
      vertex   -1.596186e+001 1.272458e+001 2.000000e+000
      vertex   7.038136e+000 1.272458e+001 5.000000e+001
    endloop
  endfacet
  facet normal 1.544658e-016 -1.000000e+000 -3.700743e-017
    outer loop
      vertex   7.038136e+000 1.272458e+001 5.000000e+001
      vertex   -1.596186e+001 1.272458e+001 2.000000e+000
      vertex   7.038136e+000 1.272458e+001 2.000000e+000
    endloop
  endfacet
  facet normal -9.801714e-002 -9.951847e-001 -3.682923e-017
    outer loop
      vertex   7.038136e+000 1.272458e+001 5.000000e+001
      vertex   7.038136e+000 1.272458e+001 2.000000e+000
      vertex   7.428317e+000 1.268615e+001 5.000000e+001
    endloop
  endfacet
  facet normal -9.801714e-002 -9.951847e-001 0.000000e+000
    outer loop
      vertex   7.428317e+000 1.268615e+001 5.000000e+001
      vertex   7.038136e+000 1.272458e+001 2.000000e+000
      vertex   7.428317e+000 1.268615e+001 2.000000e+000
    endloop
  endfacet
  facet normal -2.902847e-001 -9.569403e-001 0.000000e+000
    outer loop
      vertex   7.803503e+000 1.257234e+001 5.000000e+001
      vertex   7.428317e+000 1.268615e+001 2.000000e+000
      vertex   7.803503e+000 1.257234e+001 2.000000e+000
    endloop
  endfacet
  facet normal -4.713967e-001 -8.819213e-001 0.000000e+000
    outer loop
      vertex   8.149276e+000 1.238752e+001 5.000000e+001
      vertex   7.803503e+000 1.257234e+001 2.000000e+000
      vertex   8.149276e+000 1.238752e+001 2.000000e+000
    endloop
  endfacet
  facet normal -6.343933e-001 -7.730105e-001 0.000000e+000
    outer loop
      vertex   8.452349e+000 1.213879e+001 5.000000e+001
      vertex   8.149276e+000 1.238752e+001 2.000000e+000
      vertex   8.452349e+000 1.213879e+001 2.000000e+000
    endloop
  endfacet
  facet normal -7.730105e-001 -6.343933e-001 0.000000e+000
    outer loop
      vertex   8.701075e+000 1.183572e+001 5.000000e+001
      vertex   8.452349e+000 1.213879e+001 2.000000e+000
      vertex   8.701075e+000 1.183572e+001 2.000000e+000
    endloop
  endfacet
  facet normal -8.819213e-001 -4.713967e-001 0.000000e+000
    outer loop
      vertex   8.885895e+000 1.148994e+001 5.000000e+001
      vertex   8.701075e+000 1.183572e+001 2.000000e+000
      vertex   8.885895e+000 1.148994e+001 2.000000e+000
    endloop
  endfacet
  facet normal -9.569403e-001 -2.902847e-001 0.000000e+000
    outer loop
      vertex   8.999706e+000 1.111476e+001 5.000000e+001
      vertex   8.885895e+000 1.148994e+001 2.000000e+000
      vertex   8.999706e+000 1.111476e+001 2.000000e+000
    endloop
  endfacet
  facet normal -9.951847e-001 -9.801714e-002 0.000000e+000
    outer loop
      vertex   9.038136e+000 1.072458e+001 5.000000e+001
      vertex   8.999706e+000 1.111476e+001 2.000000e+000
      vertex   9.038136e+000 1.072458e+001 2.000000e+000
    endloop
  endfacet
  facet normal -9.951847e-001 -9.801714e-002 -0.000000e+000
    outer loop
      vertex   9.038136e+000 1.072458e+001 5.000000e+001
      vertex   8.999706e+000 1.111476e+001 5.000000e+001
      vertex   8.999706e+000 1.111476e+001 2.000000e+000
    endloop
  endfacet
  facet normal -2.902847e-001 -9.569403e-001 -0.000000e+000
    outer loop
      vertex   7.428317e+000 1.268615e+001 5.000000e+001
      vertex   7.428317e+000 1.268615e+001 2.000000e+000
      vertex   7.803503e+000 1.257234e+001 5.000000e+001
    endloop
  endfacet
  facet normal -4.713967e-001 -8.819213e-001 -0.000000e+000
    outer loop
      vertex   7.803503e+000 1.257234e+001 5.000000e+001
      vertex   7.803503e+000 1.257234e+001 2.000000e+000
      vertex   8.149276e+000 1.238752e+001 5.000000e+001
    endloop
  endfacet
  facet normal -6.343933e-001 -7.730105e-001 -0.000000e+000
    outer loop
      vertex   8.149276e+000 1.238752e+001 5.000000e+001
      vertex   8.149276e+000 1.238752e+001 2.000000e+000
      vertex   8.452349e+000 1.213879e+001 5.000000e+001
    endloop
  endfacet
  facet normal -7.730105e-001 -6.343933e-001 -0.000000e+000
    outer loop
      vertex   8.452349e+000 1.213879e+001 5.000000e+001
      vertex   8.452349e+000 1.213879e+001 2.000000e+000
      vertex   8.701075e+000 1.183572e+001 5.000000e+001
    endloop
  endfacet
  facet normal -8.819213e-001 -4.713967e-001 -0.000000e+000
    outer loop
      vertex   8.701075e+000 1.183572e+001 5.000000e+001
      vertex   8.701075e+000 1.183572e+001 2.000000e+000
      vertex   8.885895e+000 1.148994e+001 5.000000e+001
    endloop
  endfacet
  facet normal -9.569403e-001 -2.902847e-001 -0.000000e+000
    outer loop
      vertex   8.885895e+000 1.148994e+001 5.000000e+001
      vertex   8.885895e+000 1.148994e+001 2.000000e+000
      vertex   8.999706e+000 1.111476e+001 5.000000e+001
    endloop
  endfacet
  facet normal -6.247505e-029 2.311193e-013 1.000000e+000
    outer loop
      vertex   -1.596186e+001 -5.275423e+000 2.000000e+000
      vertex   7.038136e+000 -5.275423e+000 2.000000e+000
      vertex   -1.635204e+001 -5.236994e+000 2.000000e+000
    endloop
  endfacet
  facet normal -5.179278e-029 2.311193e-013 1.000000e+000
    outer loop
      vertex   -1.635204e+001 -5.236994e+000 2.000000e+000
      vertex   7.038136e+000 -5.275423e+000 2.000000e+000
      vertex   7.428317e+000 -5.236994e+000 2.000000e+000
    endloop
  endfacet
  facet normal -0.000000e+000 0.000000e+000 1.000000e+000
    outer loop
      vertex   -1.672723e+001 -5.123182e+000 2.000000e+000
      vertex   7.428317e+000 -5.236994e+000 2.000000e+000
      vertex   7.803503e+000 -5.123182e+000 2.000000e+000
    endloop
  endfacet
  facet normal 1.201725e-030 -4.806787e-015 1.000000e+000
    outer loop
      vertex   -1.796186e+001 -3.275423e+000 2.000000e+000
      vertex   7.803503e+000 -5.123182e+000 2.000000e+000
      vertex   9.038136e+000 -3.275423e+000 2.000000e+000
    endloop
  endfacet
  facet normal -0.000000e+000 -0.000000e+000 1.000000e+000
    outer loop
      vertex   -1.796186e+001 1.072458e+001 2.000000e+000
      vertex   9.038136e+000 -3.275423e+000 2.000000e+000
      vertex   9.038136e+000 1.072458e+001 2.000000e+000
    endloop
  endfacet
  facet normal -0.000000e+000 -0.000000e+000 1.000000e+000
    outer loop
      vertex   -1.596186e+001 1.272458e+001 2.000000e+000
      vertex   9.038136e+000 1.072458e+001 2.000000e+000
      vertex   7.038136e+000 1.272458e+001 2.000000e+000
    endloop
  endfacet
  facet normal -0.000000e+000 0.000000e+000 1.000000e+000
    outer loop
      vertex   -1.596186e+001 1.272458e+001 2.000000e+000
      vertex   -1.796186e+001 1.072458e+001 2.000000e+000
      vertex   9.038136e+000 1.072458e+001 2.000000e+000
    endloop
  endfacet
  facet normal -2.525019e-014 2.525019e-014 1.000000e+000
    outer loop
      vertex   -1.596186e+001 1.272458e+001 2.000000e+000
      vertex   -1.792343e+001 1.111476e+001 2.000000e+000
      vertex   -1.796186e+001 1.072458e+001 2.000000e+000
    endloop
  endfacet
  facet normal -6.028754e-015 1.828802e-015 1.000000e+000
    outer loop
      vertex   -1.596186e+001 1.272458e+001 2.000000e+000
      vertex   -1.780962e+001 1.148994e+001 2.000000e+000
      vertex   -1.792343e+001 1.111476e+001 2.000000e+000
    endloop
  endfacet
  facet normal -7.477295e-015 3.996697e-015 1.000000e+000
    outer loop
      vertex   -1.596186e+001 1.272458e+001 2.000000e+000
      vertex   -1.762480e+001 1.183572e+001 2.000000e+000
      vertex   -1.780962e+001 1.148994e+001 2.000000e+000
    endloop
  endfacet
  facet normal -9.514793e-015 7.808589e-015 1.000000e+000
    outer loop
      vertex   -1.596186e+001 1.272458e+001 2.000000e+000
      vertex   -1.737608e+001 1.213879e+001 2.000000e+000
      vertex   -1.762480e+001 1.183572e+001 2.000000e+000
    endloop
  endfacet
  facet normal -1.268046e-014 1.545119e-014 1.000000e+000
    outer loop
      vertex   -1.596186e+001 1.272458e+001 2.000000e+000
      vertex   -1.707300e+001 1.238752e+001 2.000000e+000
      vertex   -1.737608e+001 1.213879e+001 2.000000e+000
    endloop
  endfacet
  facet normal -1.848277e-014 3.457882e-014 1.000000e+000
    outer loop
      vertex   -1.596186e+001 1.272458e+001 2.000000e+000
      vertex   -1.672723e+001 1.257234e+001 2.000000e+000
      vertex   -1.707300e+001 1.238752e+001 2.000000e+000
    endloop
  endfacet
  facet normal -3.370750e-014 1.111187e-013 1.000000e+000
    outer loop
      vertex   -1.596186e+001 1.272458e+001 2.000000e+000
      vertex   -1.635204e+001 1.268615e+001 2.000000e+000
      vertex   -1.672723e+001 1.257234e+001 2.000000e+000
    endloop
  endfacet
  facet normal 0.000000e+000 -0.000000e+000 1.000000e+000
    outer loop
      vertex   -1.635204e+001 -5.236994e+000 2.000000e+000
      vertex   7.428317e+000 -5.236994e+000 2.000000e+000
      vertex   -1.672723e+001 -5.123182e+000 2.000000e+000
    endloop
  endfacet
  facet normal 0.000000e+000 -0.000000e+000 1.000000e+000
    outer loop
      vertex   8.149276e+000 -4.938362e+000 2.000000e+000
      vertex   8.452349e+000 -4.689637e+000 2.000000e+000
      vertex   7.803503e+000 -5.123182e+000 2.000000e+000
    endloop
  endfacet
  facet normal 0.000000e+000 0.000000e+000 1.000000e+000
    outer loop
      vertex   7.803503e+000 -5.123182e+000 2.000000e+000
      vertex   8.452349e+000 -4.689637e+000 2.000000e+000
      vertex   8.701075e+000 -4.386564e+000 2.000000e+000
    endloop
  endfacet
  facet normal -0.000000e+000 0.000000e+000 1.000000e+000
    outer loop
      vertex   8.885895e+000 -4.040790e+000 2.000000e+000
      vertex   7.803503e+000 -5.123182e+000 2.000000e+000
      vertex   8.701075e+000 -4.386564e+000 2.000000e+000
    endloop
  endfacet
  facet normal 0.000000e+000 -0.000000e+000 1.000000e+000
    outer loop
      vertex   8.885895e+000 -4.040790e+000 2.000000e+000
      vertex   8.999706e+000 -3.665604e+000 2.000000e+000
      vertex   7.803503e+000 -5.123182e+000 2.000000e+000
    endloop
  endfacet
  facet normal 3.151988e-014 -2.586770e-014 1.000000e+000
    outer loop
      vertex   7.803503e+000 -5.123182e+000 2.000000e+000
      vertex   8.999706e+000 -3.665604e+000 2.000000e+000
      vertex   9.038136e+000 -3.275423e+000 2.000000e+000
    endloop
  endfacet
  facet normal 0.000000e+000 -0.000000e+000 1.000000e+000
    outer loop
      vertex   -1.796186e+001 -3.275423e+000 2.000000e+000
      vertex   9.038136e+000 -3.275423e+000 2.000000e+000
      vertex   -1.796186e+001 1.072458e+001 2.000000e+000
    endloop
  endfacet
  facet normal 2.525019e-014 2.525019e-014 1.000000e+000
    outer loop
      vertex   9.038136e+000 1.072458e+001 2.000000e+000
      vertex   8.999706e+000 1.111476e+001 2.000000e+000
      vertex   7.038136e+000 1.272458e+001 2.000000e+000
    endloop
  endfacet
  facet normal 6.028754e-015 1.828802e-015 1.000000e+000
    outer loop
      vertex   7.038136e+000 1.272458e+001 2.000000e+000
      vertex   8.999706e+000 1.111476e+001 2.000000e+000
      vertex   8.885895e+000 1.148994e+001 2.000000e+000
    endloop
  endfacet
  facet normal 7.477295e-015 3.996697e-015 1.000000e+000
    outer loop
      vertex   8.701075e+000 1.183572e+001 2.000000e+000
      vertex   7.038136e+000 1.272458e+001 2.000000e+000
      vertex   8.885895e+000 1.148994e+001 2.000000e+000
    endloop
  endfacet
  facet normal 9.514793e-015 7.808589e-015 1.000000e+000
    outer loop
      vertex   8.701075e+000 1.183572e+001 2.000000e+000
      vertex   8.452349e+000 1.213879e+001 2.000000e+000
      vertex   7.038136e+000 1.272458e+001 2.000000e+000
    endloop
  endfacet
  facet normal 1.268046e-014 1.545119e-014 1.000000e+000
    outer loop
      vertex   7.038136e+000 1.272458e+001 2.000000e+000
      vertex   8.452349e+000 1.213879e+001 2.000000e+000
      vertex   8.149276e+000 1.238752e+001 2.000000e+000
    endloop
  endfacet
  facet normal 1.848277e-014 3.457882e-014 1.000000e+000
    outer loop
      vertex   7.803503e+000 1.257234e+001 2.000000e+000
      vertex   7.038136e+000 1.272458e+001 2.000000e+000
      vertex   8.149276e+000 1.238752e+001 2.000000e+000
    endloop
  endfacet
  facet normal 3.370750e-014 1.111187e-013 1.000000e+000
    outer loop
      vertex   7.803503e+000 1.257234e+001 2.000000e+000
      vertex   7.428317e+000 1.268615e+001 2.000000e+000
      vertex   7.038136e+000 1.272458e+001 2.000000e+000
    endloop
  endfacet
  facet normal 1.183460e-030 -4.806787e-015 1.000000e+000
    outer loop
      vertex   7.803503e+000 -5.123182e+000 2.000000e+000
      vertex   -1.796186e+001 -3.275423e+000 2.000000e+000
      vertex   -1.672723e+001 -5.123182e+000 2.000000e+000
    endloop
  endfacet
  facet normal -3.151988e-014 -2.586770e-014 1.000000e+000
    outer loop
      vertex   -1.672723e+001 -5.123182e+000 2.000000e+000
      vertex   -1.796186e+001 -3.275423e+000 2.000000e+000
      vertex   -1.792343e+001 -3.665604e+000 2.000000e+000
    endloop
  endfacet
  facet normal -0.000000e+000 -0.000000e+000 1.000000e+000
    outer loop
      vertex   -1.780962e+001 -4.040790e+000 2.000000e+000
      vertex   -1.672723e+001 -5.123182e+000 2.000000e+000
      vertex   -1.792343e+001 -3.665604e+000 2.000000e+000
    endloop
  endfacet
  facet normal 0.000000e+000 0.000000e+000 1.000000e+000
    outer loop
      vertex   -1.780962e+001 -4.040790e+000 2.000000e+000
      vertex   -1.762480e+001 -4.386564e+000 2.000000e+000
      vertex   -1.672723e+001 -5.123182e+000 2.000000e+000
    endloop
  endfacet
  facet normal 0.000000e+000 0.000000e+000 1.000000e+000
    outer loop
      vertex   -1.672723e+001 -5.123182e+000 2.000000e+000
      vertex   -1.762480e+001 -4.386564e+000 2.000000e+000
      vertex   -1.737608e+001 -4.689637e+000 2.000000e+000
    endloop
  endfacet
  facet normal -0.000000e+000 -0.000000e+000 1.000000e+000
    outer loop
      vertex   -1.707300e+001 -4.938362e+000 2.000000e+000
      vertex   -1.672723e+001 -5.123182e+000 2.000000e+000
      vertex   -1.737608e+001 -4.689637e+000 2.000000e+000
    endloop
  endfacet
  facet normal 9.951847e-001 -9.801714e-002 0.000000e+000
    outer loop
      vertex   1.103814e+001 -5.275423e+000 0.000000e+000
      vertex   1.103814e+001 -5.275423e+000 5.000000e+001
      vertex   1.099971e+001 -5.665604e+000 0.000000e+000
    endloop
  endfacet
  facet normal 9.951847e-001 -9.801714e-002 0.000000e+000
    outer loop
      vertex   1.099971e+001 -5.665604e+000 0.000000e+000
      vertex   1.103814e+001 -5.275423e+000 5.000000e+001
      vertex   1.099971e+001 -5.665604e+000 5.000000e+001
    endloop
  endfacet
  facet normal 9.569403e-001 -2.902847e-001 0.000000e+000
    outer loop
      vertex   1.088589e+001 -6.040790e+000 0.000000e+000
      vertex   1.099971e+001 -5.665604e+000 5.000000e+001
      vertex   1.088589e+001 -6.040790e+000 5.000000e+001
    endloop
  endfacet
  facet normal 8.819213e-001 -4.713967e-001 0.000000e+000
    outer loop
      vertex   1.070108e+001 -6.386564e+000 0.000000e+000
      vertex   1.088589e+001 -6.040790e+000 5.000000e+001
      vertex   1.070108e+001 -6.386564e+000 5.000000e+001
    endloop
  endfacet
  facet normal 7.730105e-001 -6.343933e-001 0.000000e+000
    outer loop
      vertex   1.045235e+001 -6.689637e+000 0.000000e+000
      vertex   1.070108e+001 -6.386564e+000 5.000000e+001
      vertex   1.045235e+001 -6.689637e+000 5.000000e+001
    endloop
  endfacet
  facet normal 6.343933e-001 -7.730105e-001 0.000000e+000
    outer loop
      vertex   1.014928e+001 -6.938362e+000 0.000000e+000
      vertex   1.045235e+001 -6.689637e+000 5.000000e+001
      vertex   1.014928e+001 -6.938362e+000 5.000000e+001
    endloop
  endfacet
  facet normal 4.713967e-001 -8.819213e-001 0.000000e+000
    outer loop
      vertex   9.803503e+000 -7.123182e+000 0.000000e+000
      vertex   1.014928e+001 -6.938362e+000 5.000000e+001
      vertex   9.803503e+000 -7.123182e+000 5.000000e+001
    endloop
  endfacet
  facet normal 2.902847e-001 -9.569403e-001 0.000000e+000
    outer loop
      vertex   9.428317e+000 -7.236994e+000 0.000000e+000
      vertex   9.803503e+000 -7.123182e+000 5.000000e+001
      vertex   9.428317e+000 -7.236994e+000 5.000000e+001
    endloop
  endfacet
  facet normal 9.801714e-002 -9.951847e-001 0.000000e+000
    outer loop
      vertex   9.038136e+000 -7.275423e+000 0.000000e+000
      vertex   9.428317e+000 -7.236994e+000 5.000000e+001
      vertex   9.038136e+000 -7.275423e+000 5.000000e+001
    endloop
  endfacet
  facet normal 9.801714e-002 -9.951847e-001 0.000000e+000
    outer loop
      vertex   9.038136e+000 -7.275423e+000 0.000000e+000
      vertex   9.428317e+000 -7.236994e+000 0.000000e+000
      vertex   9.428317e+000 -7.236994e+000 5.000000e+001
    endloop
  endfacet
  facet normal 9.569403e-001 -2.902847e-001 0.000000e+000
    outer loop
      vertex   1.099971e+001 -5.665604e+000 0.000000e+000
      vertex   1.099971e+001 -5.665604e+000 5.000000e+001
      vertex   1.088589e+001 -6.040790e+000 0.000000e+000
    endloop
  endfacet
  facet normal 8.819213e-001 -4.713967e-001 0.000000e+000
    outer loop
      vertex   1.088589e+001 -6.040790e+000 0.000000e+000
      vertex   1.088589e+001 -6.040790e+000 5.000000e+001
      vertex   1.070108e+001 -6.386564e+000 0.000000e+000
    endloop
  endfacet
  facet normal 7.730105e-001 -6.343933e-001 0.000000e+000
    outer loop
      vertex   1.070108e+001 -6.386564e+000 0.000000e+000
      vertex   1.070108e+001 -6.386564e+000 5.000000e+001
      vertex   1.045235e+001 -6.689637e+000 0.000000e+000
    endloop
  endfacet
  facet normal 6.343933e-001 -7.730105e-001 0.000000e+000
    outer loop
      vertex   1.045235e+001 -6.689637e+000 0.000000e+000
      vertex   1.045235e+001 -6.689637e+000 5.000000e+001
      vertex   1.014928e+001 -6.938362e+000 0.000000e+000
    endloop
  endfacet
  facet normal 4.713967e-001 -8.819213e-001 0.000000e+000
    outer loop
      vertex   1.014928e+001 -6.938362e+000 0.000000e+000
      vertex   1.014928e+001 -6.938362e+000 5.000000e+001
      vertex   9.803503e+000 -7.123182e+000 0.000000e+000
    endloop
  endfacet
  facet normal 2.902847e-001 -9.569403e-001 0.000000e+000
    outer loop
      vertex   9.803503e+000 -7.123182e+000 0.000000e+000
      vertex   9.803503e+000 -7.123182e+000 5.000000e+001
      vertex   9.428317e+000 -7.236994e+000 0.000000e+000
    endloop
  endfacet
  facet normal -1.000000e+000 -2.537653e-016 3.700743e-017
    outer loop
      vertex   9.038136e+000 -3.275423e+000 2.000000e+000
      vertex   9.038136e+000 -3.275423e+000 5.000000e+001
      vertex   9.038136e+000 1.072458e+001 2.000000e+000
    endloop
  endfacet
  facet normal -1.000000e+000 -3.806479e-016 0.000000e+000
    outer loop
      vertex   9.038136e+000 1.072458e+001 2.000000e+000
      vertex   9.038136e+000 -3.275423e+000 5.000000e+001
      vertex   9.038136e+000 1.072458e+001 5.000000e+001
    endloop
  endfacet
  facet normal 1.000000e+000 1.973730e-016 -0.000000e+000
    outer loop
      vertex   1.103814e+001 1.272458e+001 0.000000e+000
      vertex   1.103814e+001 1.272458e+001 5.000000e+001
      vertex   1.103814e+001 -5.275423e+000 0.000000e+000
    endloop
  endfacet
  facet normal 1.000000e+000 1.973730e-016 0.000000e+000
    outer loop
      vertex   1.103814e+001 -5.275423e+000 0.000000e+000
      vertex   1.103814e+001 1.272458e+001 5.000000e+001
      vertex   1.103814e+001 -5.275423e+000 5.000000e+001
    endloop
  endfacet
  facet normal -1.000000e+000 0.000000e+000 0.000000e+000
    outer loop
      vertex   -1.996186e+001 -5.275423e+000 0.000000e+000
      vertex   -1.996186e+001 -5.275423e+000 5.000000e+001
      vertex   -1.996186e+001 1.272458e+001 0.000000e+000
    endloop
  endfacet
  facet normal -1.000000e+000 0.000000e+000 0.000000e+000
    outer loop
      vertex   -1.996186e+001 1.272458e+001 0.000000e+000
      vertex   -1.996186e+001 -5.275423e+000 5.000000e+001
      vertex   -1.996186e+001 1.272458e+001 5.000000e+001
    endloop
  endfacet
  facet normal 0.000000e+000 -0.000000e+000 1.000000e+000
    outer loop
      vertex   -1.992343e+001 -5.665604e+000 5.000000e+001
      vertex   -1.596186e+001 -5.275423e+000 5.000000e+001
      vertex   -1.996186e+001 -5.275423e+000 5.000000e+001
    endloop
  endfacet
  facet normal -0.000000e+000 0.000000e+000 1.000000e+000
    outer loop
      vertex   -1.992343e+001 -5.665604e+000 5.000000e+001
      vertex   -1.980962e+001 -6.040790e+000 5.000000e+001
      vertex   -1.596186e+001 -5.275423e+000 5.000000e+001
    endloop
  endfacet
  facet normal 0.000000e+000 0.000000e+000 1.000000e+000
    outer loop
      vertex   -1.596186e+001 -5.275423e+000 5.000000e+001
      vertex   -1.980962e+001 -6.040790e+000 5.000000e+001
      vertex   -1.962480e+001 -6.386564e+000 5.000000e+001
    endloop
  endfacet
  facet normal 0.000000e+000 -0.000000e+000 1.000000e+000
    outer loop
      vertex   -1.937608e+001 -6.689637e+000 5.000000e+001
      vertex   -1.596186e+001 -5.275423e+000 5.000000e+001
      vertex   -1.962480e+001 -6.386564e+000 5.000000e+001
    endloop
  endfacet
  facet normal -0.000000e+000 0.000000e+000 1.000000e+000
    outer loop
      vertex   -1.937608e+001 -6.689637e+000 5.000000e+001
      vertex   -1.907300e+001 -6.938362e+000 5.000000e+001
      vertex   -1.596186e+001 -5.275423e+000 5.000000e+001
    endloop
  endfacet
  facet normal 0.000000e+000 0.000000e+000 1.000000e+000
    outer loop
      vertex   -1.596186e+001 -5.275423e+000 5.000000e+001
      vertex   -1.907300e+001 -6.938362e+000 5.000000e+001
      vertex   -1.872723e+001 -7.123182e+000 5.000000e+001
    endloop
  endfacet
  facet normal 0.000000e+000 -0.000000e+000 1.000000e+000
    outer loop
      vertex   -1.835204e+001 -7.236994e+000 5.000000e+001
      vertex   -1.596186e+001 -5.275423e+000 5.000000e+001
      vertex   -1.872723e+001 -7.123182e+000 5.000000e+001
    endloop
  endfacet
  facet normal -0.000000e+000 0.000000e+000 1.000000e+000
    outer loop
      vertex   -1.835204e+001 -7.236994e+000 5.000000e+001
      vertex   -1.796186e+001 -7.275423e+000 5.000000e+001
      vertex   -1.596186e+001 -5.275423e+000 5.000000e+001
    endloop
  endfacet
  facet normal -0.000000e+000 0.000000e+000 1.000000e+000
    outer loop
      vertex   -1.596186e+001 -5.275423e+000 5.000000e+001
      vertex   -1.796186e+001 -7.275423e+000 5.000000e+001
      vertex   9.038136e+000 -7.275423e+000 5.000000e+001
    endloop
  endfacet
  facet normal -0.000000e+000 -0.000000e+000 1.000000e+000
    outer loop
      vertex   7.038136e+000 -5.275423e+000 5.000000e+001
      vertex   9.038136e+000 -7.275423e+000 5.000000e+001
      vertex   7.428317e+000 -5.236994e+000 5.000000e+001
    endloop
  endfacet
  facet normal 0.000000e+000 0.000000e+000 1.000000e+000
    outer loop
      vertex   7.038136e+000 -5.275423e+000 5.000000e+001
      vertex   -1.596186e+001 -5.275423e+000 5.000000e+001
      vertex   9.038136e+000 -7.275423e+000 5.000000e+001
    endloop
  endfacet
  facet normal -0.000000e+000 -0.000000e+000 1.000000e+000
    outer loop
      vertex   7.428317e+000 -5.236994e+000 5.000000e+001
      vertex   9.038136e+000 -7.275423e+000 5.000000e+001
      vertex   7.803503e+000 -5.123182e+000 5.000000e+001
    endloop
  endfacet
  facet normal -0.000000e+000 0.000000e+000 1.000000e+000
    outer loop
      vertex   7.803503e+000 -5.123182e+000 5.000000e+001
      vertex   9.038136e+000 -7.275423e+000 5.000000e+001
      vertex   9.428317e+000 -7.236994e+000 5.000000e+001
    endloop
  endfacet
  facet normal 0.000000e+000 0.000000e+000 1.000000e+000
    outer loop
      vertex   9.803503e+000 -7.123182e+000 5.000000e+001
      vertex   7.803503e+000 -5.123182e+000 5.000000e+001
      vertex   9.428317e+000 -7.236994e+000 5.000000e+001
    endloop
  endfacet
  facet normal 0.000000e+000 -0.000000e+000 1.000000e+000
    outer loop
      vertex   9.803503e+000 -7.123182e+000 5.000000e+001
      vertex   1.014928e+001 -6.938362e+000 5.000000e+001
      vertex   7.803503e+000 -5.123182e+000 5.000000e+001
    endloop
  endfacet
  facet normal -0.000000e+000 0.000000e+000 1.000000e+000
    outer loop
      vertex   7.803503e+000 -5.123182e+000 5.000000e+001
      vertex   1.014928e+001 -6.938362e+000 5.000000e+001
      vertex   1.045235e+001 -6.689637e+000 5.000000e+001
    endloop
  endfacet
  facet normal -0.000000e+000 0.000000e+000 1.000000e+000
    outer loop
      vertex   8.149276e+000 -4.938362e+000 5.000000e+001
      vertex   1.045235e+001 -6.689637e+000 5.000000e+001
      vertex   1.070108e+001 -6.386564e+000 5.000000e+001
    endloop
  endfacet
  facet normal 0.000000e+000 0.000000e+000 1.000000e+000
    outer loop
      vertex   1.088589e+001 -6.040790e+000 5.000000e+001
      vertex   8.149276e+000 -4.938362e+000 5.000000e+001
      vertex   1.070108e+001 -6.386564e+000 5.000000e+001
    endloop
  endfacet
  facet normal 0.000000e+000 -0.000000e+000 1.000000e+000
    outer loop
      vertex   1.088589e+001 -6.040790e+000 5.000000e+001
      vertex   1.099971e+001 -5.665604e+000 5.000000e+001
      vertex   8.149276e+000 -4.938362e+000 5.000000e+001
    endloop
  endfacet
  facet normal -0.000000e+000 -0.000000e+000 1.000000e+000
    outer loop
      vertex   8.149276e+000 -4.938362e+000 5.000000e+001
      vertex   1.099971e+001 -5.665604e+000 5.000000e+001
      vertex   8.452349e+000 -4.689637e+000 5.000000e+001
    endloop
  endfacet
  facet normal -0.000000e+000 0.000000e+000 1.000000e+000
    outer loop
      vertex   8.452349e+000 -4.689637e+000 5.000000e+001
      vertex   1.099971e+001 -5.665604e+000 5.000000e+001
      vertex   1.103814e+001 -5.275423e+000 5.000000e+001
    endloop
  endfacet
  facet normal -0.000000e+000 -0.000000e+000 1.000000e+000
    outer loop
      vertex   8.701075e+000 -4.386564e+000 5.000000e+001
      vertex   1.103814e+001 -5.275423e+000 5.000000e+001
      vertex   8.885895e+000 -4.040790e+000 5.000000e+001
    endloop
  endfacet
  facet normal 0.000000e+000 0.000000e+000 1.000000e+000
    outer loop
      vertex   8.701075e+000 -4.386564e+000 5.000000e+001
      vertex   8.452349e+000 -4.689637e+000 5.000000e+001
      vertex   1.103814e+001 -5.275423e+000 5.000000e+001
    endloop
  endfacet
  facet normal -0.000000e+000 -0.000000e+000 1.000000e+000
    outer loop
      vertex   7.803503e+000 -5.123182e+000 5.000000e+001
      vertex   1.045235e+001 -6.689637e+000 5.000000e+001
      vertex   8.149276e+000 -4.938362e+000 5.000000e+001
    endloop
  endfacet
  facet normal 0.000000e+000 0.000000e+000 1.000000e+000
    outer loop
      vertex   1.103814e+001 1.272458e+001 5.000000e+001
      vertex   9.038136e+000 1.072458e+001 5.000000e+001
      vertex   1.103814e+001 -5.275423e+000 5.000000e+001
    endloop
  endfacet
  facet normal 0.000000e+000 0.000000e+000 1.000000e+000
    outer loop
      vertex   1.103814e+001 1.272458e+001 5.000000e+001
      vertex   8.999706e+000 1.111476e+001 5.000000e+001
      vertex   9.038136e+000 1.072458e+001 5.000000e+001
    endloop
  endfacet
  facet normal 0.000000e+000 0.000000e+000 1.000000e+000
    outer loop
      vertex   1.103814e+001 1.272458e+001 5.000000e+001
      vertex   8.885895e+000 1.148994e+001 5.000000e+001
      vertex   8.999706e+000 1.111476e+001 5.000000e+001
    endloop
  endfacet
  facet normal 0.000000e+000 0.000000e+000 1.000000e+000
    outer loop
      vertex   1.103814e+001 1.272458e+001 5.000000e+001
      vertex   8.701075e+000 1.183572e+001 5.000000e+001
      vertex   8.885895e+000 1.148994e+001 5.000000e+001
    endloop
  endfacet
  facet normal 0.000000e+000 0.000000e+000 1.000000e+000
    outer loop
      vertex   1.103814e+001 1.272458e+001 5.000000e+001
      vertex   8.452349e+000 1.213879e+001 5.000000e+001
      vertex   8.701075e+000 1.183572e+001 5.000000e+001
    endloop
  endfacet
  facet normal 0.000000e+000 0.000000e+000 1.000000e+000
    outer loop
      vertex   1.103814e+001 1.272458e+001 5.000000e+001
      vertex   1.099971e+001 1.311476e+001 5.000000e+001
      vertex   8.452349e+000 1.213879e+001 5.000000e+001
    endloop
  endfacet
  facet normal 0.000000e+000 -0.000000e+000 1.000000e+000
    outer loop
      vertex   8.452349e+000 1.213879e+001 5.000000e+001
      vertex   1.099971e+001 1.311476e+001 5.000000e+001
      vertex   8.149276e+000 1.238752e+001 5.000000e+001
    endloop
  endfacet
  facet normal 0.000000e+000 -0.000000e+000 1.000000e+000
    outer loop
      vertex   8.149276e+000 1.238752e+001 5.000000e+001
      vertex   1.099971e+001 1.311476e+001 5.000000e+001
      vertex   7.803503e+000 1.257234e+001 5.000000e+001
    endloop
  endfacet
  facet normal 0.000000e+000 -0.000000e+000 1.000000e+000
    outer loop
      vertex   7.803503e+000 1.257234e+001 5.000000e+001
      vertex   1.099971e+001 1.311476e+001 5.000000e+001
      vertex   1.088589e+001 1.348994e+001 5.000000e+001
    endloop
  endfacet
  facet normal 0.000000e+000 -0.000000e+000 1.000000e+000
    outer loop
      vertex   7.428317e+000 1.268615e+001 5.000000e+001
      vertex   1.088589e+001 1.348994e+001 5.000000e+001
      vertex   1.070108e+001 1.383572e+001 5.000000e+001
    endloop
  endfacet
  facet normal -0.000000e+000 0.000000e+000 1.000000e+000
    outer loop
      vertex   1.045235e+001 1.413879e+001 5.000000e+001
      vertex   7.428317e+000 1.268615e+001 5.000000e+001
      vertex   1.070108e+001 1.383572e+001 5.000000e+001
    endloop
  endfacet
  facet normal 0.000000e+000 0.000000e+000 1.000000e+000
    outer loop
      vertex   1.045235e+001 1.413879e+001 5.000000e+001
      vertex   1.014928e+001 1.438752e+001 5.000000e+001
      vertex   7.428317e+000 1.268615e+001 5.000000e+001
    endloop
  endfacet
  facet normal 0.000000e+000 -0.000000e+000 1.000000e+000
    outer loop
      vertex   7.428317e+000 1.268615e+001 5.000000e+001
      vertex   1.014928e+001 1.438752e+001 5.000000e+001
      vertex   9.803503e+000 1.457234e+001 5.000000e+001
    endloop
  endfacet
  facet normal -0.000000e+000 0.000000e+000 1.000000e+000
    outer loop
      vertex   9.428317e+000 1.468615e+001 5.000000e+001
      vertex   7.428317e+000 1.268615e+001 5.000000e+001
      vertex   9.803503e+000 1.457234e+001 5.000000e+001
    endloop
  endfacet
  facet normal 0.000000e+000 0.000000e+000 1.000000e+000
    outer loop
      vertex   9.428317e+000 1.468615e+001 5.000000e+001
      vertex   9.038136e+000 1.472458e+001 5.000000e+001
      vertex   7.428317e+000 1.268615e+001 5.000000e+001
    endloop
  endfacet
  facet normal 0.000000e+000 -0.000000e+000 1.000000e+000
    outer loop
      vertex   7.428317e+000 1.268615e+001 5.000000e+001
      vertex   9.038136e+000 1.472458e+001 5.000000e+001
      vertex   7.038136e+000 1.272458e+001 5.000000e+001
    endloop
  endfacet
  facet normal 0.000000e+000 -0.000000e+000 1.000000e+000
    outer loop
      vertex   7.038136e+000 1.272458e+001 5.000000e+001
      vertex   9.038136e+000 1.472458e+001 5.000000e+001
      vertex   -1.796186e+001 1.472458e+001 5.000000e+001
    endloop
  endfacet
  facet normal 0.000000e+000 0.000000e+000 1.000000e+000
    outer loop
      vertex   -1.596186e+001 1.272458e+001 5.000000e+001
      vertex   -1.796186e+001 1.472458e+001 5.000000e+001
      vertex   -1.635204e+001 1.268615e+001 5.000000e+001
    endloop
  endfacet
  facet normal 0.000000e+000 -0.000000e+000 1.000000e+000
    outer loop
      vertex   -1.596186e+001 1.272458e+001 5.000000e+001
      vertex   7.038136e+000 1.272458e+001 5.000000e+001
      vertex   -1.796186e+001 1.472458e+001 5.000000e+001
    endloop
  endfacet
  facet normal 0.000000e+000 -0.000000e+000 1.000000e+000
    outer loop
      vertex   7.803503e+000 1.257234e+001 5.000000e+001
      vertex   1.088589e+001 1.348994e+001 5.000000e+001
      vertex   7.428317e+000 1.268615e+001 5.000000e+001
    endloop
  endfacet
  facet normal 0.000000e+000 0.000000e+000 1.000000e+000
    outer loop
      vertex   -1.635204e+001 1.268615e+001 5.000000e+001
      vertex   -1.796186e+001 1.472458e+001 5.000000e+001
      vertex   -1.672723e+001 1.257234e+001 5.000000e+001
    endloop
  endfacet
  facet normal 0.000000e+000 0.000000e+000 1.000000e+000
    outer loop
      vertex   -1.672723e+001 1.257234e+001 5.000000e+001
      vertex   -1.796186e+001 1.472458e+001 5.000000e+001
      vertex   -1.835204e+001 1.468615e+001 5.000000e+001
    endloop
  endfacet
  facet normal -0.000000e+000 -0.000000e+000 1.000000e+000
    outer loop
      vertex   -1.872723e+001 1.457234e+001 5.000000e+001
      vertex   -1.672723e+001 1.257234e+001 5.000000e+001
      vertex   -1.835204e+001 1.468615e+001 5.000000e+001
    endloop
  endfacet
  facet normal 0.000000e+000 0.000000e+000 1.000000e+000
    outer loop
      vertex   -1.872723e+001 1.457234e+001 5.000000e+001
      vertex   -1.907300e+001 1.438752e+001 5.000000e+001
      vertex   -1.672723e+001 1.257234e+001 5.000000e+001
    endloop
  endfacet
  facet normal 0.000000e+000 0.000000e+000 1.000000e+000
    outer loop
      vertex   -1.672723e+001 1.257234e+001 5.000000e+001
      vertex   -1.907300e+001 1.438752e+001 5.000000e+001
      vertex   -1.937608e+001 1.413879e+001 5.000000e+001
    endloop
  endfacet
  facet normal 0.000000e+000 0.000000e+000 1.000000e+000
    outer loop
      vertex   -1.707300e+001 1.238752e+001 5.000000e+001
      vertex   -1.937608e+001 1.413879e+001 5.000000e+001
      vertex   -1.962480e+001 1.383572e+001 5.000000e+001
    endloop
  endfacet
  facet normal -0.000000e+000 -0.000000e+000 1.000000e+000
    outer loop
      vertex   -1.980962e+001 1.348994e+001 5.000000e+001
      vertex   -1.707300e+001 1.238752e+001 5.000000e+001
      vertex   -1.962480e+001 1.383572e+001 5.000000e+001
    endloop
  endfacet
  facet normal 0.000000e+000 0.000000e+000 1.000000e+000
    outer loop
      vertex   -1.980962e+001 1.348994e+001 5.000000e+001
      vertex   -1.992343e+001 1.311476e+001 5.000000e+001
      vertex   -1.707300e+001 1.238752e+001 5.000000e+001
    endloop
  endfacet
  facet normal 0.000000e+000 0.000000e+000 1.000000e+000
    outer loop
      vertex   -1.707300e+001 1.238752e+001 5.000000e+001
      vertex   -1.992343e+001 1.311476e+001 5.000000e+001
      vertex   -1.737608e+001 1.213879e+001 5.000000e+001
    endloop
  endfacet
  facet normal 0.000000e+000 0.000000e+000 1.000000e+000
    outer loop
      vertex   -1.737608e+001 1.213879e+001 5.000000e+001
      vertex   -1.992343e+001 1.311476e+001 5.000000e+001
      vertex   -1.996186e+001 1.272458e+001 5.000000e+001
    endloop
  endfacet
  facet normal 0.000000e+000 0.000000e+000 1.000000e+000
    outer loop
      vertex   -1.762480e+001 1.183572e+001 5.000000e+001
      vertex   -1.996186e+001 1.272458e+001 5.000000e+001
      vertex   -1.780962e+001 1.148994e+001 5.000000e+001
    endloop
  endfacet
  facet normal 0.000000e+000 -0.000000e+000 1.000000e+000
    outer loop
      vertex   -1.762480e+001 1.183572e+001 5.000000e+001
      vertex   -1.737608e+001 1.213879e+001 5.000000e+001
      vertex   -1.996186e+001 1.272458e+001 5.000000e+001
    endloop
  endfacet
  facet normal 0.000000e+000 0.000000e+000 1.000000e+000
    outer loop
      vertex   -1.672723e+001 1.257234e+001 5.000000e+001
      vertex   -1.937608e+001 1.413879e+001 5.000000e+001
      vertex   -1.707300e+001 1.238752e+001 5.000000e+001
    endloop
  endfacet
  facet normal 0.000000e+000 -0.000000e+000 1.000000e+000
    outer loop
      vertex   -1.996186e+001 -5.275423e+000 5.000000e+001
      vertex   -1.796186e+001 1.072458e+001 5.000000e+001
      vertex   -1.996186e+001 1.272458e+001 5.000000e+001
    endloop
  endfacet
  facet normal 0.000000e+000 0.000000e+000 1.000000e+000
    outer loop
      vertex   -1.996186e+001 -5.275423e+000 5.000000e+001
      vertex   -1.796186e+001 -3.275423e+000 5.000000e+001
      vertex   -1.796186e+001 1.072458e+001 5.000000e+001
    endloop
  endfacet
  facet normal 0.000000e+000 -0.000000e+000 1.000000e+000
    outer loop
      vertex   -1.996186e+001 -5.275423e+000 5.000000e+001
      vertex   -1.792343e+001 -3.665604e+000 5.000000e+001
      vertex   -1.796186e+001 -3.275423e+000 5.000000e+001
    endloop
  endfacet
  facet normal 0.000000e+000 -0.000000e+000 1.000000e+000
    outer loop
      vertex   -1.996186e+001 -5.275423e+000 5.000000e+001
      vertex   -1.780962e+001 -4.040790e+000 5.000000e+001
      vertex   -1.792343e+001 -3.665604e+000 5.000000e+001
    endloop
  endfacet
  facet normal 0.000000e+000 -0.000000e+000 1.000000e+000
    outer loop
      vertex   -1.996186e+001 -5.275423e+000 5.000000e+001
      vertex   -1.762480e+001 -4.386564e+000 5.000000e+001
      vertex   -1.780962e+001 -4.040790e+000 5.000000e+001
    endloop
  endfacet
  facet normal 0.000000e+000 -0.000000e+000 1.000000e+000
    outer loop
      vertex   -1.996186e+001 -5.275423e+000 5.000000e+001
      vertex   -1.737608e+001 -4.689637e+000 5.000000e+001
      vertex   -1.762480e+001 -4.386564e+000 5.000000e+001
    endloop
  endfacet
  facet normal 0.000000e+000 -0.000000e+000 1.000000e+000
    outer loop
      vertex   -1.996186e+001 -5.275423e+000 5.000000e+001
      vertex   -1.707300e+001 -4.938362e+000 5.000000e+001
      vertex   -1.737608e+001 -4.689637e+000 5.000000e+001
    endloop
  endfacet
  facet normal 0.000000e+000 -0.000000e+000 1.000000e+000
    outer loop
      vertex   -1.996186e+001 -5.275423e+000 5.000000e+001
      vertex   -1.672723e+001 -5.123182e+000 5.000000e+001
      vertex   -1.707300e+001 -4.938362e+000 5.000000e+001
    endloop
  endfacet
  facet normal 0.000000e+000 -0.000000e+000 1.000000e+000
    outer loop
      vertex   -1.996186e+001 -5.275423e+000 5.000000e+001
      vertex   -1.635204e+001 -5.236994e+000 5.000000e+001
      vertex   -1.672723e+001 -5.123182e+000 5.000000e+001
    endloop
  endfacet
  facet normal -0.000000e+000 -0.000000e+000 1.000000e+000
    outer loop
      vertex   -1.996186e+001 -5.275423e+000 5.000000e+001
      vertex   -1.596186e+001 -5.275423e+000 5.000000e+001
      vertex   -1.635204e+001 -5.236994e+000 5.000000e+001
    endloop
  endfacet
  facet normal 0.000000e+000 0.000000e+000 1.000000e+000
    outer loop
      vertex   9.038136e+000 1.072458e+001 5.000000e+001
      vertex   9.038136e+000 -3.275423e+000 5.000000e+001
      vertex   1.103814e+001 -5.275423e+000 5.000000e+001
    endloop
  endfacet
  facet normal 0.000000e+000 0.000000e+000 1.000000e+000
    outer loop
      vertex   1.103814e+001 -5.275423e+000 5.000000e+001
      vertex   9.038136e+000 -3.275423e+000 5.000000e+001
      vertex   8.999706e+000 -3.665604e+000 5.000000e+001
    endloop
  endfacet
  facet normal -0.000000e+000 -0.000000e+000 1.000000e+000
    outer loop
      vertex   8.885895e+000 -4.040790e+000 5.000000e+001
      vertex   1.103814e+001 -5.275423e+000 5.000000e+001
      vertex   8.999706e+000 -3.665604e+000 5.000000e+001
    endloop
  endfacet
  facet normal 0.000000e+000 -0.000000e+000 1.000000e+000
    outer loop
      vertex   -1.796186e+001 1.072458e+001 5.000000e+001
      vertex   -1.792343e+001 1.111476e+001 5.000000e+001
      vertex   -1.996186e+001 1.272458e+001 5.000000e+001
    endloop
  endfacet
  facet normal -0.000000e+000 0.000000e+000 1.000000e+000
    outer loop
      vertex   -1.996186e+001 1.272458e+001 5.000000e+001
      vertex   -1.792343e+001 1.111476e+001 5.000000e+001
      vertex   -1.780962e+001 1.148994e+001 5.000000e+001
    endloop
  endfacet
endsolid