solid ascii
  facet normal -2.242146e-006 -8.944270e-001 -4.472139e-001
    outer loop
      vertex   5.000000e+001 3.829179e+001 7.236046e+000
      vertex   4.048944e+001 3.690984e+001 1.000000e+001
      vertex   4.412215e+001 4.190984e+001 -1.963632e-006
    endloop
  endfacet
  facet normal -8.506515e-001 -2.763928e-001 -4.472125e-001
    outer loop
      vertex   3.886486e+001 4.638198e+001 7.236049e+000
      vertex   4.412215e+001 4.190984e+001 -1.963632e-006
      vertex   4.048944e+001 3.690984e+001 1.000000e+001
    endloop
  endfacet
  facet normal -8.506515e-001 -2.763936e-001 -4.472121e-001
    outer loop
      vertex   3.886486e+001 4.638198e+001 7.236049e+000
      vertex   4.048943e+001 5.309017e+001 5.271401e-008
      vertex   4.412215e+001 4.190984e+001 -1.963632e-006
    endloop
  endfacet
  facet normal 1.670367e-007 1.295785e-007 -1.000000e+000
    outer loop
      vertex   5.000000e+001 5.000000e+001 6.649609e-008
      vertex   5.587784e+001 4.190984e+001 0.000000e+000
      vertex   4.412215e+001 4.190984e+001 -1.963632e-006
    endloop
  endfacet
  facet normal 6.713526e-008 2.021612e-007 -1.000000e+000
    outer loop
      vertex   5.000000e+001 5.000000e+001 6.649609e-008
      vertex   4.412215e+001 4.190984e+001 -1.963632e-006
      vertex   4.048943e+001 5.309017e+001 5.271401e-008
    endloop
  endfacet
  facet normal 7.470139e-008 -8.944263e-001 -4.472154e-001
    outer loop
      vertex   5.000000e+001 3.829179e+001 7.236046e+000
      vertex   4.412215e+001 4.190984e+001 -1.963632e-006
      vertex   5.587784e+001 4.190984e+001 0.000000e+000
    endloop
  endfacet
  facet normal 5.257319e-001 7.236070e-001 -4.472124e-001
    outer loop
      vertex   5.688190e+001 5.947212e+001 7.236066e+000
      vertex   5.951056e+001 5.309017e+001 3.312196e-006
      vertex   5.000000e+001 6.000000e+001 -1.068797e-006
    endloop
  endfacet
  facet normal -3.543876e-008 -1.135293e-007 -1.000000e+000
    outer loop
      vertex   5.000000e+001 5.000000e+001 6.649609e-008
      vertex   4.048943e+001 5.309017e+001 5.271401e-008
      vertex   5.000000e+001 6.000000e+001 -1.068797e-006
    endloop
  endfacet
  facet normal 3.781611e-007 -1.135295e-007 -1.000000e+000
    outer loop
      vertex   5.000000e+001 5.000000e+001 6.649609e-008
      vertex   5.000000e+001 6.000000e+001 -1.068797e-006
      vertex   5.951056e+001 5.309017e+001 3.312196e-006
    endloop
  endfacet
  facet normal 5.257319e-001 7.236070e-001 -4.472124e-001
    outer loop
      vertex   5.688190e+001 5.947212e+001 7.236066e+000
      vertex   5.000000e+001 6.000000e+001 -1.068797e-006
      vertex   5.000000e+001 6.618032e+001 1.000000e+001
    endloop
  endfacet
  facet normal -5.257314e-001 7.236074e-001 -4.472122e-001
    outer loop
      vertex   4.311811e+001 5.947213e+001 7.236053e+000
      vertex   5.000000e+001 6.618032e+001 1.000000e+001
      vertex   5.000000e+001 6.000000e+001 -1.068797e-006
    endloop
  endfacet
  facet normal -5.257315e-001 7.236072e-001 -4.472124e-001
    outer loop
      vertex   4.311811e+001 5.947213e+001 7.236053e+000
      vertex   5.000000e+001 6.000000e+001 -1.068797e-006
      vertex   4.048943e+001 5.309017e+001 5.271401e-008
    endloop
  endfacet
  facet normal 8.506507e-001 -2.763939e-001 -4.472133e-001
    outer loop
      vertex   6.113514e+001 4.638197e+001 7.236053e+000
      vertex   5.587784e+001 4.190984e+001 0.000000e+000
      vertex   5.951056e+001 5.309017e+001 3.312196e-006
    endloop
  endfacet
  facet normal 2.270678e-006 -8.944270e-001 -4.472140e-001
    outer loop
      vertex   5.000000e+001 3.829179e+001 7.236046e+000
      vertex   5.587784e+001 4.190984e+001 0.000000e+000
      vertex   5.951056e+001 3.690984e+001 1.000000e+001
    endloop
  endfacet
  facet normal 8.506507e-001 -2.763931e-001 -4.472138e-001
    outer loop
      vertex   6.113514e+001 4.638197e+001 7.236053e+000
      vertex   5.951056e+001 3.690984e+001 1.000000e+001
      vertex   5.587784e+001 4.190984e+001 0.000000e+000
    endloop
  endfacet
  facet normal 2.739352e-007 2.072448e-007 -1.000000e+000
    outer loop
      vertex   5.000000e+001 5.000000e+001 6.649609e-008
      vertex   5.951056e+001 5.309017e+001 3.312196e-006
      vertex   5.587784e+001 4.190984e+001 0.000000e+000
    endloop
  endfacet
  facet normal -8.506512e-001 -2.763940e-001 -4.472124e-001
    outer loop
      vertex   3.886486e+001 4.638198e+001 7.236049e+000
      vertex   3.461161e+001 5.499998e+001 9.999980e+000
      vertex   4.048943e+001 5.309017e+001 5.271401e-008
    endloop
  endfacet
  facet normal -5.257316e-001 7.236072e-001 -4.472123e-001
    outer loop
      vertex   4.311811e+001 5.947213e+001 7.236053e+000
      vertex   4.048943e+001 5.309017e+001 5.271401e-008
      vertex   3.461161e+001 5.499998e+001 9.999980e+000
    endloop
  endfacet
  facet normal 5.257317e-001 7.236070e-001 -4.472125e-001
    outer loop
      vertex   5.688190e+001 5.947212e+001 7.236066e+000
      vertex   6.538839e+001 5.499999e+001 9.999994e+000
      vertex   5.951056e+001 5.309017e+001 3.312196e-006
    endloop
  endfacet
  facet normal 8.506513e-001 -2.763931e-001 -4.472127e-001
    outer loop
      vertex   6.113514e+001 4.638197e+001 7.236053e+000
      vertex   5.951056e+001 5.309017e+001 3.312196e-006
      vertex   6.538839e+001 5.499999e+001 9.999994e+000
    endloop
  endfacet
  facet normal -8.506513e-001 2.763932e-001 4.472127e-001
    outer loop
      vertex   5.943384e+001 4.693476e+001 8.130466e+000
      vertex   5.805747e+001 5.261803e+001 2.000000e+000
      vertex   5.497979e+001 4.314590e+001 2.000000e+000
    endloop
  endfacet
  facet normal -8.506513e-001 2.763930e-001 4.472128e-001
    outer loop
      vertex   5.943384e+001 4.693476e+001 8.130466e+000
      vertex   5.497979e+001 4.314590e+001 2.000000e+000
      vertex   5.805745e+001 3.890987e+001 1.047208e+001
    endloop
  endfacet
  facet normal 5.257311e-001 -7.236074e-001 4.472126e-001
    outer loop
      vertex   4.416956e+001 5.802491e+001 8.130486e+000
      vertex   5.000000e+001 5.847213e+001 2.000000e+000
      vertex   5.000000e+001 6.370818e+001 1.047213e+001
    endloop
  endfacet
  facet normal -5.257318e-001 -7.236068e-001 4.472128e-001
    outer loop
      vertex   5.583044e+001 5.802491e+001 8.130490e+000
      vertex   5.000000e+001 5.847213e+001 2.000000e+000
      vertex   5.805747e+001 5.261803e+001 2.000000e+000
    endloop
  endfacet
  facet normal -5.257317e-001 -7.236069e-001 4.472127e-001
    outer loop
      vertex   5.583044e+001 5.802491e+001 8.130490e+000
      vertex   5.000000e+001 6.370818e+001 1.047213e+001
      vertex   5.000000e+001 5.847213e+001 2.000000e+000
    endloop
  endfacet
  facet normal 5.257311e-001 -7.236075e-001 4.472125e-001
    outer loop
      vertex   4.416956e+001 5.802491e+001 8.130486e+000
      vertex   4.194252e+001 5.261803e+001 2.000000e+000
      vertex   5.000000e+001 5.847213e+001 2.000000e+000
    endloop
  endfacet
  facet normal -5.257319e-001 -7.236068e-001 4.472127e-001
    outer loop
      vertex   5.583044e+001 5.802491e+001 8.130490e+000
      vertex   5.805747e+001 5.261803e+001 2.000000e+000
      vertex   6.303725e+001 5.423605e+001 1.047212e+001
    endloop
  endfacet
  facet normal 1.626605e-007 8.944275e-001 4.472129e-001
    outer loop
      vertex   5.000000e+001 4.008067e+001 8.130466e+000
      vertex   4.502020e+001 4.314590e+001 2.000000e+000
      vertex   4.194256e+001 3.890988e+001 1.047206e+001
    endloop
  endfacet
  facet normal 0.000000e+000 0.000000e+000 1.000000e+000
    outer loop
      vertex   5.000000e+001 5.000000e+001 2.000000e+000
      vertex   4.194252e+001 5.261803e+001 2.000000e+000
      vertex   4.502020e+001 4.314590e+001 2.000000e+000
    endloop
  endfacet
  facet normal -8.506514e-001 2.763931e-001 4.472126e-001
    outer loop
      vertex   5.943384e+001 4.693476e+001 8.130466e+000
      vertex   6.303725e+001 5.423605e+001 1.047212e+001
      vertex   5.805747e+001 5.261803e+001 2.000000e+000
    endloop
  endfacet
  facet normal 5.257312e-001 -7.236074e-001 4.472124e-001
    outer loop
      vertex   4.416956e+001 5.802491e+001 8.130486e+000
      vertex   3.696275e+001 5.423606e+001 1.047211e+001
      vertex   4.194252e+001 5.261803e+001 2.000000e+000
    endloop
  endfacet
  facet normal 0.000000e+000 8.944275e-001 4.472130e-001
    outer loop
      vertex   5.000000e+001 4.008067e+001 8.130466e+000
      vertex   5.497979e+001 4.314590e+001 2.000000e+000
      vertex   4.502020e+001 4.314590e+001 2.000000e+000
    endloop
  endfacet
  facet normal -7.701290e-008 8.944275e-001 4.472129e-001
    outer loop
      vertex   5.000000e+001 4.008067e+001 8.130466e+000
      vertex   5.805745e+001 3.890987e+001 1.047208e+001
      vertex   5.497979e+001 4.314590e+001 2.000000e+000
    endloop
  endfacet
  facet normal 0.000000e+000 -0.000000e+000 1.000000e+000
    outer loop
      vertex   5.000000e+001 5.000000e+001 2.000000e+000
      vertex   5.497979e+001 4.314590e+001 2.000000e+000
      vertex   5.805747e+001 5.261803e+001 2.000000e+000
    endloop
  endfacet
  facet normal 8.506513e-001 2.763933e-001 4.472126e-001
    outer loop
      vertex   4.056616e+001 4.693477e+001 8.130455e+000
      vertex   4.502020e+001 4.314590e+001 2.000000e+000
      vertex   4.194252e+001 5.261803e+001 2.000000e+000
    endloop
  endfacet
  facet normal 0.000000e+000 0.000000e+000 1.000000e+000
    outer loop
      vertex   5.000000e+001 5.000000e+001 2.000000e+000
      vertex   5.000000e+001 5.847213e+001 2.000000e+000
      vertex   4.194252e+001 5.261803e+001 2.000000e+000
    endloop
  endfacet
  facet normal 0.000000e+000 0.000000e+000 1.000000e+000
    outer loop
      vertex   5.000000e+001 5.000000e+001 2.000000e+000
      vertex   5.805747e+001 5.261803e+001 2.000000e+000
      vertex   5.000000e+001 5.847213e+001 2.000000e+000
    endloop
  endfacet
  facet normal 8.506512e-001 2.763934e-001 4.472126e-001
    outer loop
      vertex   4.056616e+001 4.693477e+001 8.130455e+000
      vertex   4.194252e+001 5.261803e+001 2.000000e+000
      vertex   3.696275e+001 5.423606e+001 1.047211e+001
    endloop
  endfacet
  facet normal 0.000000e+000 0.000000e+000 1.000000e+000
    outer loop
      vertex   5.000000e+001 5.000000e+001 2.000000e+000
      vertex   4.502020e+001 4.314590e+001 2.000000e+000
      vertex   5.497979e+001 4.314590e+001 2.000000e+000
    endloop
  endfacet
  facet normal 8.506513e-001 2.763934e-001 4.472125e-001
    outer loop
      vertex   4.056616e+001 4.693477e+001 8.130455e+000
      vertex   4.194256e+001 3.890988e+001 1.047206e+001
      vertex   4.502020e+001 4.314590e+001 2.000000e+000
    endloop
  endfacet
  facet normal -4.853183e-006 -8.944234e-001 -4.472211e-001
    outer loop
      vertex   5.000000e+001 3.829179e+001 7.236046e+000
      vertex   5.000000e+001 3.381961e+001 1.618023e+001
      vertex   4.048944e+001 3.690984e+001 1.000000e+001
    endloop
  endfacet
  facet normal 4.853180e-006 -8.944234e-001 -4.472211e-001
    outer loop
      vertex   5.000000e+001 3.829179e+001 7.236046e+000
      vertex   5.951056e+001 3.690984e+001 1.000000e+001
      vertex   5.000000e+001 3.381961e+001 1.618023e+001
    endloop
  endfacet
  facet normal -8.506526e-001 -2.763925e-001 -4.472107e-001
    outer loop
      vertex   3.886486e+001 4.638198e+001 7.236049e+000
      vertex   4.048944e+001 3.690984e+001 1.000000e+001
      vertex   3.461165e+001 4.500008e+001 1.618027e+001
    endloop
  endfacet
  facet normal -8.506518e-001 -2.763949e-001 -4.472107e-001
    outer loop
      vertex   3.886486e+001 4.638198e+001 7.236049e+000
      vertex   3.461165e+001 4.500008e+001 1.618027e+001
      vertex   3.461161e+001 5.499998e+001 9.999980e+000
    endloop
  endfacet
  facet normal 8.506514e-001 -2.763929e-001 -4.472127e-001
    outer loop
      vertex   6.113514e+001 4.638197e+001 7.236053e+000
      vertex   6.538837e+001 4.500005e+001 1.618027e+001
      vertex   5.951056e+001 3.690984e+001 1.000000e+001
    endloop
  endfacet
  facet normal 8.506513e-001 -2.763931e-001 -4.472127e-001
    outer loop
      vertex   6.113514e+001 4.638197e+001 7.236053e+000
      vertex   6.538839e+001 5.499999e+001 9.999994e+000
      vertex   6.538837e+001 4.500005e+001 1.618027e+001
    endloop
  endfacet
  facet normal -5.257311e-001 7.236073e-001 -4.472128e-001
    outer loop
      vertex   4.311811e+001 5.947213e+001 7.236053e+000
      vertex   4.048950e+001 6.309015e+001 1.618028e+001
      vertex   5.000000e+001 6.618032e+001 1.000000e+001
    endloop
  endfacet
  facet normal -5.257316e-001 7.236069e-001 -4.472128e-001
    outer loop
      vertex   4.311811e+001 5.947213e+001 7.236053e+000
      vertex   3.461161e+001 5.499998e+001 9.999980e+000
      vertex   4.048950e+001 6.309015e+001 1.618028e+001
    endloop
  endfacet
  facet normal 5.257318e-001 7.236070e-001 -4.472125e-001
    outer loop
      vertex   5.688190e+001 5.947212e+001 7.236066e+000
      vertex   5.000000e+001 6.618032e+001 1.000000e+001
      vertex   5.951055e+001 6.309014e+001 1.618033e+001
    endloop
  endfacet
  facet normal 5.257317e-001 7.236071e-001 -4.472125e-001
    outer loop
      vertex   5.688190e+001 5.947212e+001 7.236066e+000
      vertex   5.951055e+001 6.309014e+001 1.618033e+001
      vertex   6.538839e+001 5.499999e+001 9.999994e+000
    endloop
  endfacet
  facet normal 8.506512e-001 2.763934e-001 4.472128e-001
    outer loop
      vertex   4.056616e+001 4.693477e+001 8.130455e+000
      vertex   3.696277e+001 4.576399e+001 1.570811e+001
      vertex   4.194256e+001 3.890988e+001 1.047206e+001
    endloop
  endfacet
  facet normal 8.506512e-001 2.763933e-001 4.472128e-001
    outer loop
      vertex   4.056616e+001 4.693477e+001 8.130455e+000
      vertex   3.696275e+001 5.423606e+001 1.047211e+001
      vertex   3.696277e+001 4.576399e+001 1.570811e+001
    endloop
  endfacet
  facet normal -7.224226e-008 8.944275e-001 4.472129e-001
    outer loop
      vertex   5.000000e+001 4.008067e+001 8.130466e+000
      vertex   5.000001e+001 3.629182e+001 1.570819e+001
      vertex   5.805745e+001 3.890987e+001 1.047208e+001
    endloop
  endfacet
  facet normal 1.781083e-007 8.944275e-001 4.472129e-001
    outer loop
      vertex   5.000000e+001 4.008067e+001 8.130466e+000
      vertex   4.194256e+001 3.890988e+001 1.047206e+001
      vertex   5.000001e+001 3.629182e+001 1.570819e+001
    endloop
  endfacet
  facet normal -8.506513e-001 2.763930e-001 4.472127e-001
    outer loop
      vertex   5.943384e+001 4.693476e+001 8.130466e+000
      vertex   6.303723e+001 4.576397e+001 1.570813e+001
      vertex   6.303725e+001 5.423605e+001 1.047212e+001
    endloop
  endfacet
  facet normal -8.506513e-001 2.763930e-001 4.472127e-001
    outer loop
      vertex   5.943384e+001 4.693476e+001 8.130466e+000
      vertex   5.805745e+001 3.890987e+001 1.047208e+001
      vertex   6.303723e+001 4.576397e+001 1.570813e+001
    endloop
  endfacet
  facet normal 5.257312e-001 -7.236072e-001 4.472128e-001
    outer loop
      vertex   4.416956e+001 5.802491e+001 8.130486e+000
      vertex   4.194254e+001 6.109015e+001 1.570818e+001
      vertex   3.696275e+001 5.423606e+001 1.047211e+001
    endloop
  endfacet
  facet normal 5.257310e-001 -7.236074e-001 4.472128e-001
    outer loop
      vertex   4.416956e+001 5.802491e+001 8.130486e+000
      vertex   5.000000e+001 6.370818e+001 1.047213e+001
      vertex   4.194254e+001 6.109015e+001 1.570818e+001
    endloop
  endfacet
  facet normal -5.257319e-001 -7.236068e-001 4.472126e-001
    outer loop
      vertex   5.583044e+001 5.802491e+001 8.130490e+000
      vertex   6.303725e+001 5.423605e+001 1.047212e+001
      vertex   5.805747e+001 6.109014e+001 1.570819e+001
    endloop
  endfacet
  facet normal -5.257318e-001 -7.236069e-001 4.472126e-001
    outer loop
      vertex   5.583044e+001 5.802491e+001 8.130490e+000
      vertex   5.805747e+001 6.109014e+001 1.570819e+001
      vertex   5.000000e+001 6.370818e+001 1.047213e+001
    endloop
  endfacet
  facet normal -8.506493e-001 2.763922e-001 4.472170e-001
    outer loop
      vertex   3.886489e+001 5.361803e+001 1.894422e+001
      vertex   3.461161e+001 5.499998e+001 9.999980e+000
      vertex   3.461165e+001 4.500008e+001 1.618027e+001
    endloop
  endfacet
  facet normal -8.506485e-001 2.763948e-001 4.472170e-001
    outer loop
      vertex   3.886489e+001 5.361803e+001 1.894422e+001
      vertex   4.048950e+001 6.309015e+001 1.618028e+001
      vertex   3.461161e+001 5.499998e+001 9.999980e+000
    endloop
  endfacet
  facet normal 8.506506e-001 2.763912e-001 4.472152e-001
    outer loop
      vertex   6.113513e+001 5.361802e+001 1.894423e+001
      vertex   6.538839e+001 5.499999e+001 9.999994e+000
      vertex   5.951055e+001 6.309014e+001 1.618033e+001
    endloop
  endfacet
  facet normal 8.506508e-001 2.763908e-001 4.472152e-001
    outer loop
      vertex   6.113513e+001 5.361802e+001 1.894423e+001
      vertex   6.538837e+001 4.500005e+001 1.618027e+001
      vertex   6.538839e+001 5.499999e+001 9.999994e+000
    endloop
  endfacet
  facet normal -5.257378e-001 -7.236002e-001 4.472164e-001
    outer loop
      vertex   4.311813e+001 4.052785e+001 1.894420e+001
      vertex   3.461165e+001 4.500008e+001 1.618027e+001
      vertex   4.048944e+001 3.690984e+001 1.000000e+001
    endloop
  endfacet
  facet normal 5.257362e-001 -7.236019e-001 4.472155e-001
    outer loop
      vertex   5.688189e+001 4.052785e+001 1.894420e+001
      vertex   5.951056e+001 3.690984e+001 1.000000e+001
      vertex   6.538837e+001 4.500005e+001 1.618027e+001
    endloop
  endfacet
  facet normal 5.257319e-001 -7.236050e-001 4.472155e-001
    outer loop
      vertex   5.688189e+001 4.052785e+001 1.894420e+001
      vertex   5.000000e+001 3.381961e+001 1.618023e+001
      vertex   5.951056e+001 3.690984e+001 1.000000e+001
    endloop
  endfacet
  facet normal -5.257326e-001 -7.236040e-001 4.472164e-001
    outer loop
      vertex   4.311813e+001 4.052785e+001 1.894420e+001
      vertex   4.048944e+001 3.690984e+001 1.000000e+001
      vertex   5.000000e+001 3.381961e+001 1.618023e+001
    endloop
  endfacet
  facet normal 1.040153e-008 8.944261e-001 4.472158e-001
    outer loop
      vertex   5.000002e+001 6.170817e+001 1.894424e+001
      vertex   5.951055e+001 6.309014e+001 1.618033e+001
      vertex   5.000000e+001 6.618032e+001 1.000000e+001
    endloop
  endfacet
  facet normal -8.176190e-007 8.944261e-001 4.472158e-001
    outer loop
      vertex   5.000002e+001 6.170817e+001 1.894424e+001
      vertex   5.000000e+001 6.618032e+001 1.000000e+001
      vertex   4.048950e+001 6.309015e+001 1.618028e+001
    endloop
  endfacet
  facet normal 5.257365e-001 7.236052e-001 -4.472099e-001
    outer loop
      vertex   4.416958e+001 4.197509e+001 1.804978e+001
      vertex   4.194256e+001 3.890988e+001 1.047206e+001
      vertex   3.696277e+001 4.576399e+001 1.570811e+001
    endloop
  endfacet
  facet normal 5.257367e-001 7.236050e-001 -4.472099e-001
    outer loop
      vertex   4.416958e+001 4.197509e+001 1.804978e+001
      vertex   5.000001e+001 3.629182e+001 1.570819e+001
      vertex   4.194256e+001 3.890988e+001 1.047206e+001
    endloop
  endfacet
  facet normal -5.257356e-001 7.236054e-001 -4.472106e-001
    outer loop
      vertex   5.583043e+001 4.197509e+001 1.804979e+001
      vertex   5.805745e+001 3.890987e+001 1.047208e+001
      vertex   5.000001e+001 3.629182e+001 1.570819e+001
    endloop
  endfacet
  facet normal -5.257357e-001 7.236053e-001 -4.472106e-001
    outer loop
      vertex   5.583043e+001 4.197509e+001 1.804979e+001
      vertex   6.303723e+001 4.576397e+001 1.570813e+001
      vertex   5.805745e+001 3.890987e+001 1.047208e+001
    endloop
  endfacet
  facet normal 8.506508e-001 -2.763909e-001 -4.472150e-001
    outer loop
      vertex   4.056617e+001 5.306525e+001 1.804979e+001
      vertex   3.696277e+001 4.576399e+001 1.570811e+001
      vertex   3.696275e+001 5.423606e+001 1.047211e+001
    endloop
  endfacet
  facet normal 8.506507e-001 -2.763912e-001 -4.472150e-001
    outer loop
      vertex   4.056617e+001 5.306525e+001 1.804979e+001
      vertex   3.696275e+001 5.423606e+001 1.047211e+001
      vertex   4.194254e+001 6.109015e+001 1.570818e+001
    endloop
  endfacet
  facet normal -8.506510e-001 -2.763906e-001 -4.472149e-001
    outer loop
      vertex   5.943383e+001 5.306524e+001 1.804981e+001
      vertex   6.303725e+001 5.423605e+001 1.047212e+001
      vertex   6.303723e+001 4.576397e+001 1.570813e+001
    endloop
  endfacet
  facet normal -8.506511e-001 -2.763903e-001 -4.472149e-001
    outer loop
      vertex   5.943383e+001 5.306524e+001 1.804981e+001
      vertex   5.805747e+001 6.109014e+001 1.570819e+001
      vertex   6.303725e+001 5.423605e+001 1.047212e+001
    endloop
  endfacet
  facet normal -3.880042e-007 -8.944263e-001 -4.472154e-001
    outer loop
      vertex   5.000001e+001 5.991932e+001 1.804982e+001
      vertex   4.194254e+001 6.109015e+001 1.570818e+001
      vertex   5.000000e+001 6.370818e+001 1.047213e+001
    endloop
  endfacet
  facet normal -3.530376e-007 -8.944263e-001 -4.472154e-001
    outer loop
      vertex   5.000001e+001 5.991932e+001 1.804982e+001
      vertex   5.000000e+001 6.370818e+001 1.047213e+001
      vertex   5.805747e+001 6.109014e+001 1.570819e+001
    endloop
  endfacet
  facet normal 5.257365e-001 7.236051e-001 -4.472099e-001
    outer loop
      vertex   4.416958e+001 4.197509e+001 1.804978e+001
      vertex   3.696277e+001 4.576399e+001 1.570811e+001
      vertex   4.194257e+001 4.738196e+001 2.418027e+001
    endloop
  endfacet
  facet normal 8.506508e-001 -2.763908e-001 -4.472151e-001
    outer loop
      vertex   4.056617e+001 5.306525e+001 1.804979e+001
      vertex   4.194257e+001 4.738196e+001 2.418027e+001
      vertex   3.696277e+001 4.576399e+001 1.570811e+001
    endloop
  endfacet
  facet normal -8.506511e-001 -2.763908e-001 -4.472145e-001
    outer loop
      vertex   5.943383e+001 5.306524e+001 1.804981e+001
      vertex   6.303723e+001 4.576397e+001 1.570813e+001
      vertex   5.805743e+001 4.738196e+001 2.418028e+001
    endloop
  endfacet
  facet normal -5.257357e-001 7.236050e-001 -4.472110e-001
    outer loop
      vertex   5.583043e+001 4.197509e+001 1.804979e+001
      vertex   5.805743e+001 4.738196e+001 2.418028e+001
      vertex   6.303723e+001 4.576397e+001 1.570813e+001
    endloop
  endfacet
  facet normal 8.506506e-001 -2.763913e-001 -4.472152e-001
    outer loop
      vertex   4.056617e+001 5.306525e+001 1.804979e+001
      vertex   4.194254e+001 6.109015e+001 1.570818e+001
      vertex   4.502024e+001 5.685406e+001 2.418030e+001
    endloop
  endfacet
  facet normal -2.676065e-007 -8.944261e-001 -4.472158e-001
    outer loop
      vertex   5.000001e+001 5.991932e+001 1.804982e+001
      vertex   4.502024e+001 5.685406e+001 2.418030e+001
      vertex   4.194254e+001 6.109015e+001 1.570818e+001
    endloop
  endfacet
  facet normal 5.257366e-001 7.236050e-001 -4.472101e-001
    outer loop
      vertex   4.416958e+001 4.197509e+001 1.804978e+001
      vertex   5.000000e+001 4.152782e+001 2.418025e+001
      vertex   5.000001e+001 3.629182e+001 1.570819e+001
    endloop
  endfacet
  facet normal -4.300487e-007 -8.944262e-001 -4.472157e-001
    outer loop
      vertex   5.000001e+001 5.991932e+001 1.804982e+001
      vertex   5.805747e+001 6.109014e+001 1.570819e+001
      vertex   5.497978e+001 5.685406e+001 2.418031e+001
    endloop
  endfacet
  facet normal -5.257353e-001 7.236052e-001 -4.472113e-001
    outer loop
      vertex   5.583043e+001 4.197509e+001 1.804979e+001
      vertex   5.000001e+001 3.629182e+001 1.570819e+001
      vertex   5.000000e+001 4.152782e+001 2.418025e+001
    endloop
  endfacet
  facet normal -8.506511e-001 -2.763903e-001 -4.472148e-001
    outer loop
      vertex   5.943383e+001 5.306524e+001 1.804981e+001
      vertex   5.497978e+001 5.685406e+001 2.418031e+001
      vertex   5.805747e+001 6.109014e+001 1.570819e+001
    endloop
  endfacet
  facet normal -5.257342e-001 -7.236045e-001 4.472137e-001
    outer loop
      vertex   4.311813e+001 4.052785e+001 1.894420e+001
      vertex   5.000000e+001 3.381961e+001 1.618023e+001
      vertex   5.000003e+001 3.999995e+001 2.618024e+001
    endloop
  endfacet
  facet normal 5.257344e-001 -7.236058e-001 4.472113e-001
    outer loop
      vertex   5.688189e+001 4.052785e+001 1.894420e+001
      vertex   5.000003e+001 3.999995e+001 2.618024e+001
      vertex   5.000000e+001 3.381961e+001 1.618023e+001
    endloop
  endfacet
  facet normal 8.506511e-001 2.763912e-001 4.472144e-001
    outer loop
      vertex   6.113513e+001 5.361802e+001 1.894423e+001
      vertex   5.951052e+001 4.690983e+001 2.618027e+001
      vertex   6.538837e+001 4.500005e+001 1.618027e+001
    endloop
  endfacet
  facet normal 5.257362e-001 -7.236040e-001 4.472122e-001
    outer loop
      vertex   5.688189e+001 4.052785e+001 1.894420e+001
      vertex   6.538837e+001 4.500005e+001 1.618027e+001
      vertex   5.951052e+001 4.690983e+001 2.618027e+001
    endloop
  endfacet
  facet normal -8.506495e-001 2.763924e-001 4.472166e-001
    outer loop
      vertex   3.886489e+001 5.361803e+001 1.894422e+001
      vertex   3.461165e+001 4.500008e+001 1.618027e+001
      vertex   4.048951e+001 4.690981e+001 2.618026e+001
    endloop
  endfacet
  facet normal -5.257378e-001 -7.236038e-001 4.472106e-001
    outer loop
      vertex   4.311813e+001 4.052785e+001 1.894420e+001
      vertex   4.048951e+001 4.690981e+001 2.618026e+001
      vertex   3.461165e+001 4.500008e+001 1.618027e+001
    endloop
  endfacet
  facet normal -4.157374e-007 8.944266e-001 4.472147e-001
    outer loop
      vertex   5.000002e+001 6.170817e+001 1.894424e+001
      vertex   4.048950e+001 6.309015e+001 1.618028e+001
      vertex   4.412221e+001 5.809013e+001 2.618029e+001
    endloop
  endfacet
  facet normal -8.506504e-001 2.763942e-001 4.472138e-001
    outer loop
      vertex   3.886489e+001 5.361803e+001 1.894422e+001
      vertex   4.412221e+001 5.809013e+001 2.618029e+001
      vertex   4.048950e+001 6.309015e+001 1.618028e+001
    endloop
  endfacet
  facet normal -7.101930e-008 8.944262e-001 4.472156e-001
    outer loop
      vertex   5.000002e+001 6.170817e+001 1.894424e+001
      vertex   5.587783e+001 5.809012e+001 2.618031e+001
      vertex   5.951055e+001 6.309014e+001 1.618033e+001
    endloop
  endfacet
  facet normal 8.506511e-001 2.763911e-001 4.472144e-001
    outer loop
      vertex   6.113513e+001 5.361802e+001 1.894423e+001
      vertex   5.951055e+001 6.309014e+001 1.618033e+001
      vertex   5.587783e+001 5.809012e+001 2.618031e+001
    endloop
  endfacet
  facet normal 5.257364e-001 7.236052e-001 -4.472100e-001
    outer loop
      vertex   4.416958e+001 4.197509e+001 1.804978e+001
      vertex   4.194257e+001 4.738196e+001 2.418027e+001
      vertex   5.000000e+001 4.152782e+001 2.418025e+001
    endloop
  endfacet
  facet normal -5.257353e-001 7.236052e-001 -4.472113e-001
    outer loop
      vertex   5.583043e+001 4.197509e+001 1.804979e+001
      vertex   5.000000e+001 4.152782e+001 2.418025e+001
      vertex   5.805743e+001 4.738196e+001 2.418028e+001
    endloop
  endfacet
  facet normal 8.506506e-001 -2.763911e-001 -4.472154e-001
    outer loop
      vertex   4.056617e+001 5.306525e+001 1.804979e+001
      vertex   4.502024e+001 5.685406e+001 2.418030e+001
      vertex   4.194257e+001 4.738196e+001 2.418027e+001
    endloop
  endfacet
  facet normal -8.506511e-001 -2.763907e-001 -4.472145e-001
    outer loop
      vertex   5.943383e+001 5.306524e+001 1.804981e+001
      vertex   5.805743e+001 4.738196e+001 2.418028e+001
      vertex   5.497978e+001 5.685406e+001 2.418031e+001
    endloop
  endfacet
  facet normal -2.569343e-007 -8.944261e-001 -4.472158e-001
    outer loop
      vertex   5.000001e+001 5.991932e+001 1.804982e+001
      vertex   5.497978e+001 5.685406e+001 2.418031e+001
      vertex   4.502024e+001 5.685406e+001 2.418030e+001
    endloop
  endfacet
  facet normal -5.257337e-001 -7.236051e-001 4.472132e-001
    outer loop
      vertex   4.311813e+001 4.052785e+001 1.894420e+001
      vertex   5.000003e+001 3.999995e+001 2.618024e+001
      vertex   4.048951e+001 4.690981e+001 2.618026e+001
    endloop
  endfacet
  facet normal 5.257356e-001 -7.236042e-001 4.472126e-001
    outer loop
      vertex   5.688189e+001 4.052785e+001 1.894420e+001
      vertex   5.951052e+001 4.690983e+001 2.618027e+001
      vertex   5.000003e+001 3.999995e+001 2.618024e+001
    endloop
  endfacet
  facet normal -8.506504e-001 2.763911e-001 4.472156e-001
    outer loop
      vertex   3.886489e+001 5.361803e+001 1.894422e+001
      vertex   4.048951e+001 4.690981e+001 2.618026e+001
      vertex   4.412221e+001 5.809013e+001 2.618029e+001
    endloop
  endfacet
  facet normal 8.506511e-001 2.763912e-001 4.472144e-001
    outer loop
      vertex   6.113513e+001 5.361802e+001 1.894423e+001
      vertex   5.587783e+001 5.809012e+001 2.618031e+001
      vertex   5.951052e+001 4.690983e+001 2.618027e+001
    endloop
  endfacet
  facet normal 4.353582e-007 8.944263e-001 4.472153e-001
    outer loop
      vertex   5.000002e+001 6.170817e+001 1.894424e+001
      vertex   4.412221e+001 5.809013e+001 2.618029e+001
      vertex   5.587783e+001 5.809012e+001 2.618031e+001
    endloop
  endfacet
  facet normal 8.696611e-007 3.151839e-006 -1.000000e+000
    outer loop
      vertex   5.000000e+001 4.999997e+001 2.418028e+001
      vertex   5.000000e+001 4.152782e+001 2.418025e+001
      vertex   4.194257e+001 4.738196e+001 2.418027e+001
    endloop
  endfacet
  facet normal 1.024092e-006 3.151839e-006 -1.000000e+000
    outer loop
      vertex   5.000000e+001 4.999997e+001 2.418028e+001
      vertex   5.805743e+001 4.738196e+001 2.418028e+001
      vertex   5.000000e+001 4.152782e+001 2.418025e+001
    endloop
  endfacet
  facet normal 8.737321e-007 3.139310e-006 -1.000000e+000
    outer loop
      vertex   5.000000e+001 4.999997e+001 2.418028e+001
      vertex   4.194257e+001 4.738196e+001 2.418027e+001
      vertex   4.502024e+001 5.685406e+001 2.418030e+001
    endloop
  endfacet
  facet normal 9.575509e-007 3.200208e-006 -1.000000e+000
    outer loop
      vertex   5.000000e+001 4.999997e+001 2.418028e+001
      vertex   4.502024e+001 5.685406e+001 2.418030e+001
      vertex   5.497978e+001 5.685406e+001 2.418031e+001
    endloop
  endfacet
  facet normal 1.024098e-006 3.151858e-006 -1.000000e+000
    outer loop
      vertex   5.000000e+001 4.999997e+001 2.418028e+001
      vertex   5.497978e+001 5.685406e+001 2.418031e+001
      vertex   5.805743e+001 4.738196e+001 2.418028e+001
    endloop
  endfacet
  facet normal -2.883375e-007 -3.433221e-006 1.000000e+000
    outer loop
      vertex   5.000002e+001 4.999997e+001 2.618027e+001
      vertex   4.048951e+001 4.690981e+001 2.618026e+001
      vertex   5.000003e+001 3.999995e+001 2.618024e+001
    endloop
  endfacet
  facet normal -3.133094e-007 -3.433221e-006 1.000000e+000
    outer loop
      vertex   5.000002e+001 4.999997e+001 2.618027e+001
      vertex   5.000003e+001 3.999995e+001 2.618024e+001
      vertex   5.951052e+001 4.690983e+001 2.618027e+001
    endloop
  endfacet
  facet normal -5.779848e-007 -2.541781e-006 1.000000e+000
    outer loop
      vertex   5.000002e+001 4.999997e+001 2.618027e+001
      vertex   4.412221e+001 5.809013e+001 2.618029e+001
      vertex   4.048951e+001 4.690981e+001 2.618026e+001
    endloop
  endfacet
  facet normal -5.284965e-007 -4.095502e-006 1.000000e+000
    outer loop
      vertex   5.000002e+001 4.999997e+001 2.618027e+001
      vertex   5.951052e+001 4.690983e+001 2.618027e+001
      vertex   5.587783e+001 5.809012e+001 2.618031e+001
    endloop
  endfacet
  facet normal -1.622503e-006 -3.300663e-006 1.000000e+000
    outer loop
      vertex   5.000002e+001 4.999997e+001 2.618027e+001
      vertex   5.587783e+001 5.809012e+001 2.618031e+001
      vertex   4.412221e+001 5.809013e+001 2.618029e+001
    endloop
  endfacet
endsolid
