solid ascii
  facet normal -1.480161e-016 -1.000000e+000 -0.000000e+000
    outer loop
      vertex   -2.775558e-015 5.450443e+001 2.500000e+000
      vertex   -2.775558e-015 5.450443e+001 1.000000e+000
      vertex   4.800443e+001 5.450443e+001 2.500000e+000
    endloop
  endfacet
  facet normal -1.480161e-016 -1.000000e+000 0.000000e+000
    outer loop
      vertex   4.800443e+001 5.450443e+001 2.500000e+000
      vertex   -2.775558e-015 5.450443e+001 1.000000e+000
      vertex   4.800443e+001 5.450443e+001 1.000000e+000
    endloop
  endfacet
  facet normal -1.000000e+000 9.166983e-016 0.000000e+000
    outer loop
      vertex   4.800443e+001 5.450443e+001 2.500000e+000
      vertex   4.800443e+001 5.450443e+001 1.000000e+000
      vertex   4.800443e+001 3.900222e+001 2.500000e+000
    endloop
  endfacet
  facet normal -1.000000e+000 9.166983e-016 0.000000e+000
    outer loop
      vertex   4.800443e+001 3.900222e+001 2.500000e+000
      vertex   4.800443e+001 5.450443e+001 1.000000e+000
      vertex   4.800443e+001 3.900222e+001 1.000000e+000
    endloop
  endfacet
  facet normal 0.000000e+000 1.000000e+000 0.000000e+000
    outer loop
      vertex   4.800443e+001 3.900222e+001 2.500000e+000
      vertex   4.800443e+001 3.900222e+001 1.000000e+000
      vertex   4.700222e+001 3.900222e+001 2.500000e+000
    endloop
  endfacet
  facet normal 0.000000e+000 1.000000e+000 0.000000e+000
    outer loop
      vertex   4.700222e+001 3.900222e+001 2.500000e+000
      vertex   4.800443e+001 3.900222e+001 1.000000e+000
      vertex   4.700222e+001 3.900222e+001 1.000000e+000
    endloop
  endfacet
  facet normal -1.000000e+000 -0.000000e+000 -0.000000e+000
    outer loop
      vertex   4.700222e+001 3.900222e+001 2.500000e+000
      vertex   4.700222e+001 3.900222e+001 1.000000e+000
      vertex   4.700222e+001 4.002216e+000 2.500000e+000
    endloop
  endfacet
  facet normal -1.000000e+000 -0.000000e+000 -0.000000e+000
    outer loop
      vertex   4.700222e+001 4.002216e+000 2.500000e+000
      vertex   4.700222e+001 3.900222e+001 1.000000e+000
      vertex   4.700222e+001 4.002216e+000 1.000000e+000
    endloop
  endfacet
  facet normal 0.000000e+000 -1.000000e+000 0.000000e+000
    outer loop
      vertex   4.700222e+001 4.002216e+000 2.500000e+000
      vertex   4.700222e+001 4.002216e+000 1.000000e+000
      vertex   4.800443e+001 4.002216e+000 2.500000e+000
    endloop
  endfacet
  facet normal 0.000000e+000 -1.000000e+000 -0.000000e+000
    outer loop
      vertex   4.800443e+001 4.002216e+000 2.500000e+000
      vertex   4.700222e+001 4.002216e+000 1.000000e+000
      vertex   4.800443e+001 4.002216e+000 1.000000e+000
    endloop
  endfacet
  facet normal -1.000000e+000 -3.550747e-015 -0.000000e+000
    outer loop
      vertex   4.800443e+001 4.002216e+000 2.500000e+000
      vertex   4.800443e+001 4.002216e+000 1.000000e+000
      vertex   4.800443e+001 0.000000e+000 2.500000e+000
    endloop
  endfacet
  facet normal -1.000000e+000 -3.550747e-015 0.000000e+000
    outer loop
      vertex   4.800443e+001 0.000000e+000 2.500000e+000
      vertex   4.800443e+001 4.002216e+000 1.000000e+000
      vertex   4.800443e+001 0.000000e+000 1.000000e+000
    endloop
  endfacet
  facet normal 0.000000e+000 1.000000e+000 0.000000e+000
    outer loop
      vertex   4.800443e+001 0.000000e+000 2.500000e+000
      vertex   4.800443e+001 0.000000e+000 1.000000e+000
      vertex   0.000000e+000 0.000000e+000 2.500000e+000
    endloop
  endfacet
  facet normal 0.000000e+000 1.000000e+000 0.000000e+000
    outer loop
      vertex   0.000000e+000 0.000000e+000 2.500000e+000
      vertex   4.800443e+001 0.000000e+000 1.000000e+000
      vertex   0.000000e+000 0.000000e+000 1.000000e+000
    endloop
  endfacet
  facet normal 1.000000e+000 5.092352e-017 0.000000e+000
    outer loop
      vertex   0.000000e+000 0.000000e+000 2.500000e+000
      vertex   0.000000e+000 0.000000e+000 1.000000e+000
      vertex   -2.775558e-015 5.450443e+001 2.500000e+000
    endloop
  endfacet
  facet normal 1.000000e+000 5.092352e-017 0.000000e+000
    outer loop
      vertex   -2.775558e-015 5.450443e+001 2.500000e+000
      vertex   0.000000e+000 0.000000e+000 1.000000e+000
      vertex   -2.775558e-015 5.450443e+001 1.000000e+000
    endloop
  endfacet
  facet normal -1.454893e-012 1.000000e+000 0.000000e+000
    outer loop
      vertex   4.900490e+001 5.550490e+001 2.500000e+000
      vertex   4.900490e+001 5.550490e+001 -5.551115e-016
      vertex   -1.000464e+000 5.550490e+001 2.500000e+000
    endloop
  endfacet
  facet normal -1.454893e-012 1.000000e+000 0.000000e+000
    outer loop
      vertex   -1.000464e+000 5.550490e+001 2.500000e+000
      vertex   4.900490e+001 5.550490e+001 -5.551115e-016
      vertex   -1.000464e+000 5.550490e+001 -5.551115e-016
    endloop
  endfacet
  facet normal 1.000000e+000 -0.000000e+000 0.000000e+000
    outer loop
      vertex   4.900490e+001 3.800175e+001 2.500000e+000
      vertex   4.900490e+001 3.800175e+001 -5.551115e-016
      vertex   4.900490e+001 5.550490e+001 2.500000e+000
    endloop
  endfacet
  facet normal 1.000000e+000 -0.000000e+000 0.000000e+000
    outer loop
      vertex   4.900490e+001 5.550490e+001 2.500000e+000
      vertex   4.900490e+001 3.800175e+001 -5.551115e-016
      vertex   4.900490e+001 5.550490e+001 -5.551115e-016
    endloop
  endfacet
  facet normal 0.000000e+000 -1.000000e+000 0.000000e+000
    outer loop
      vertex   4.800268e+001 3.800175e+001 2.500000e+000
      vertex   4.800268e+001 3.800175e+001 -5.551115e-016
      vertex   4.900490e+001 3.800175e+001 2.500000e+000
    endloop
  endfacet
  facet normal 0.000000e+000 -1.000000e+000 -0.000000e+000
    outer loop
      vertex   4.900490e+001 3.800175e+001 2.500000e+000
      vertex   4.800268e+001 3.800175e+001 -5.551115e-016
      vertex   4.900490e+001 3.800175e+001 -5.551115e-016
    endloop
  endfacet
  facet normal 1.000000e+000 -0.000000e+000 0.000000e+000
    outer loop
      vertex   4.800268e+001 5.002680e+000 2.500000e+000
      vertex   4.800268e+001 5.002680e+000 -5.551115e-016
      vertex   4.800268e+001 3.800175e+001 2.500000e+000
    endloop
  endfacet
  facet normal 1.000000e+000 -0.000000e+000 0.000000e+000
    outer loop
      vertex   4.800268e+001 3.800175e+001 2.500000e+000
      vertex   4.800268e+001 5.002680e+000 -5.551115e-016
      vertex   4.800268e+001 3.800175e+001 -5.551115e-016
    endloop
  endfacet
  facet normal 0.000000e+000 1.000000e+000 0.000000e+000
    outer loop
      vertex   4.900490e+001 5.002680e+000 2.500000e+000
      vertex   4.900490e+001 5.002680e+000 -5.551115e-016
      vertex   4.800268e+001 5.002680e+000 2.500000e+000
    endloop
  endfacet
  facet normal 0.000000e+000 1.000000e+000 0.000000e+000
    outer loop
      vertex   4.800268e+001 5.002680e+000 2.500000e+000
      vertex   4.900490e+001 5.002680e+000 -5.551115e-016
      vertex   4.800268e+001 5.002680e+000 -5.551115e-016
    endloop
  endfacet
  facet normal 1.000000e+000 -0.000000e+000 0.000000e+000
    outer loop
      vertex   4.900490e+001 -1.000464e+000 2.500000e+000
      vertex   4.900490e+001 -1.000464e+000 -5.551115e-016
      vertex   4.900490e+001 5.002680e+000 2.500000e+000
    endloop
  endfacet
  facet normal 1.000000e+000 -0.000000e+000 0.000000e+000
    outer loop
      vertex   4.900490e+001 5.002680e+000 2.500000e+000
      vertex   4.900490e+001 -1.000464e+000 -5.551115e-016
      vertex   4.900490e+001 5.002680e+000 -5.551115e-016
    endloop
  endfacet
  facet normal 0.000000e+000 -1.000000e+000 0.000000e+000
    outer loop
      vertex   -1.000464e+000 -1.000464e+000 2.500000e+000
      vertex   -1.000464e+000 -1.000464e+000 -5.551115e-016
      vertex   4.900490e+001 -1.000464e+000 2.500000e+000
    endloop
  endfacet
  facet normal 0.000000e+000 -1.000000e+000 -0.000000e+000
    outer loop
      vertex   4.900490e+001 -1.000464e+000 2.500000e+000
      vertex   -1.000464e+000 -1.000464e+000 -5.551115e-016
      vertex   4.900490e+001 -1.000464e+000 -5.551115e-016
    endloop
  endfacet
  facet normal -1.000000e+000 -1.287682e-012 -0.000000e+000
    outer loop
      vertex   -1.000464e+000 5.550490e+001 2.500000e+000
      vertex   -1.000464e+000 5.550490e+001 -5.551115e-016
      vertex   -1.000464e+000 -1.000464e+000 2.500000e+000
    endloop
  endfacet
  facet normal -1.000000e+000 -1.287682e-012 0.000000e+000
    outer loop
      vertex   -1.000464e+000 -1.000464e+000 2.500000e+000
      vertex   -1.000464e+000 5.550490e+001 -5.551115e-016
      vertex   -1.000464e+000 -1.000464e+000 -5.551115e-016
    endloop
  endfacet
  facet normal 6.570185e-032 4.438832e-016 1.000000e+000
    outer loop
      vertex   4.800443e+001 5.450443e+001 2.500000e+000
      vertex   -1.000464e+000 5.550490e+001 2.500000e+000
      vertex   -2.775558e-015 5.450443e+001 2.500000e+000
    endloop
  endfacet
  facet normal -6.458028e-028 4.438832e-016 1.000000e+000
    outer loop
      vertex   4.800443e+001 5.450443e+001 2.500000e+000
      vertex   4.900490e+001 5.550490e+001 2.500000e+000
      vertex   -1.000464e+000 5.550490e+001 2.500000e+000
    endloop
  endfacet
  facet normal 4.438832e-016 -0.000000e+000 1.000000e+000
    outer loop
      vertex   4.800443e+001 5.450443e+001 2.500000e+000
      vertex   4.900490e+001 3.800175e+001 2.500000e+000
      vertex   4.900490e+001 5.550490e+001 2.500000e+000
    endloop
  endfacet
  facet normal 4.438832e-016 -4.069070e-031 1.000000e+000
    outer loop
      vertex   4.800443e+001 5.450443e+001 2.500000e+000
      vertex   4.800443e+001 3.900222e+001 2.500000e+000
      vertex   4.900490e+001 3.800175e+001 2.500000e+000
    endloop
  endfacet
  facet normal 0.000000e+000 -4.438832e-016 1.000000e+000
    outer loop
      vertex   4.900490e+001 3.800175e+001 2.500000e+000
      vertex   4.800443e+001 3.900222e+001 2.500000e+000
      vertex   4.800268e+001 3.800175e+001 2.500000e+000
    endloop
  endfacet
  facet normal 0.000000e+000 -4.438832e-016 1.000000e+000
    outer loop
      vertex   4.800268e+001 3.800175e+001 2.500000e+000
      vertex   4.800443e+001 3.900222e+001 2.500000e+000
      vertex   4.700222e+001 3.900222e+001 2.500000e+000
    endloop
  endfacet
  facet normal 4.438832e-016 0.000000e+000 1.000000e+000
    outer loop
      vertex   4.700222e+001 4.002216e+000 2.500000e+000
      vertex   4.800268e+001 3.800175e+001 2.500000e+000
      vertex   4.700222e+001 3.900222e+001 2.500000e+000
    endloop
  endfacet
  facet normal 4.438832e-016 -0.000000e+000 1.000000e+000
    outer loop
      vertex   4.700222e+001 4.002216e+000 2.500000e+000
      vertex   4.800268e+001 5.002680e+000 2.500000e+000
      vertex   4.800268e+001 3.800175e+001 2.500000e+000
    endloop
  endfacet
  facet normal -0.000000e+000 4.438832e-016 1.000000e+000
    outer loop
      vertex   4.700222e+001 4.002216e+000 2.500000e+000
      vertex   4.800443e+001 4.002216e+000 2.500000e+000
      vertex   4.800268e+001 5.002680e+000 2.500000e+000
    endloop
  endfacet
  facet normal 0.000000e+000 4.438832e-016 1.000000e+000
    outer loop
      vertex   4.800268e+001 5.002680e+000 2.500000e+000
      vertex   4.800443e+001 4.002216e+000 2.500000e+000
      vertex   4.900490e+001 5.002680e+000 2.500000e+000
    endloop
  endfacet
  facet normal 4.438832e-016 0.000000e+000 1.000000e+000
    outer loop
      vertex   4.900490e+001 5.002680e+000 2.500000e+000
      vertex   4.800443e+001 4.002216e+000 2.500000e+000
      vertex   4.900490e+001 -1.000464e+000 2.500000e+000
    endloop
  endfacet
  facet normal 4.438832e-016 1.576117e-030 1.000000e+000
    outer loop
      vertex   4.900490e+001 -1.000464e+000 2.500000e+000
      vertex   4.800443e+001 4.002216e+000 2.500000e+000
      vertex   4.800443e+001 0.000000e+000 2.500000e+000
    endloop
  endfacet
  facet normal 0.000000e+000 -4.438832e-016 1.000000e+000
    outer loop
      vertex   0.000000e+000 0.000000e+000 2.500000e+000
      vertex   4.900490e+001 -1.000464e+000 2.500000e+000
      vertex   4.800443e+001 0.000000e+000 2.500000e+000
    endloop
  endfacet
  facet normal 0.000000e+000 -4.438832e-016 1.000000e+000
    outer loop
      vertex   0.000000e+000 0.000000e+000 2.500000e+000
      vertex   -1.000464e+000 -1.000464e+000 2.500000e+000
      vertex   4.900490e+001 -1.000464e+000 2.500000e+000
    endloop
  endfacet
  facet normal -4.438832e-016 -2.260410e-032 1.000000e+000
    outer loop
      vertex   0.000000e+000 0.000000e+000 2.500000e+000
      vertex   -2.775558e-015 5.450443e+001 2.500000e+000
      vertex   -1.000464e+000 -1.000464e+000 2.500000e+000
    endloop
  endfacet
  facet normal -4.438832e-016 -5.715802e-028 1.000000e+000
    outer loop
      vertex   -1.000464e+000 -1.000464e+000 2.500000e+000
      vertex   -2.775558e-015 5.450443e+001 2.500000e+000
      vertex   -1.000464e+000 5.550490e+001 2.500000e+000
    endloop
  endfacet
  facet normal 1.000000e+000 6.661338e-016 0.000000e+000
    outer loop
      vertex   1.200222e+001 1.525222e+001 1.000000e+000
      vertex   1.200222e+001 1.525222e+001 0.000000e+000
      vertex   1.200222e+001 3.925222e+001 1.000000e+000
    endloop
  endfacet
  facet normal 1.000000e+000 6.661338e-016 0.000000e+000
    outer loop
      vertex   1.200222e+001 3.925222e+001 1.000000e+000
      vertex   1.200222e+001 1.525222e+001 0.000000e+000
      vertex   1.200222e+001 3.925222e+001 0.000000e+000
    endloop
  endfacet
  facet normal 2.960595e-016 -1.000000e+000 0.000000e+000
    outer loop
      vertex   1.200222e+001 3.925222e+001 1.000000e+000
      vertex   1.200222e+001 3.925222e+001 0.000000e+000
      vertex   3.600222e+001 3.925222e+001 1.000000e+000
    endloop
  endfacet
  facet normal 2.960595e-016 -1.000000e+000 0.000000e+000
    outer loop
      vertex   3.600222e+001 3.925222e+001 1.000000e+000
      vertex   1.200222e+001 3.925222e+001 0.000000e+000
      vertex   3.600222e+001 3.925222e+001 0.000000e+000
    endloop
  endfacet
  facet normal -1.000000e+000 -0.000000e+000 -0.000000e+000
    outer loop
      vertex   3.600222e+001 3.925222e+001 1.000000e+000
      vertex   3.600222e+001 3.925222e+001 0.000000e+000
      vertex   3.600222e+001 1.525222e+001 1.000000e+000
    endloop
  endfacet
  facet normal -1.000000e+000 -0.000000e+000 -0.000000e+000
    outer loop
      vertex   3.600222e+001 1.525222e+001 1.000000e+000
      vertex   3.600222e+001 3.925222e+001 0.000000e+000
      vertex   3.600222e+001 1.525222e+001 0.000000e+000
    endloop
  endfacet
  facet normal 0.000000e+000 1.000000e+000 0.000000e+000
    outer loop
      vertex   3.600222e+001 1.525222e+001 1.000000e+000
      vertex   3.600222e+001 1.525222e+001 0.000000e+000
      vertex   1.200222e+001 1.525222e+001 1.000000e+000
    endloop
  endfacet
  facet normal 0.000000e+000 1.000000e+000 0.000000e+000
    outer loop
      vertex   1.200222e+001 1.525222e+001 1.000000e+000
      vertex   3.600222e+001 1.525222e+001 0.000000e+000
      vertex   1.200222e+001 1.525222e+001 0.000000e+000
    endloop
  endfacet
  facet normal -9.888308e-001 -1.490423e-001 -0.000000e+000
    outer loop
      vertex   2.845557e+001 8.294755e+000 1.000000e+000
      vertex   2.845557e+001 8.294755e+000 0.000000e+000
      vertex   2.850000e+001 8.000000e+000 1.000000e+000
    endloop
  endfacet
  facet normal -9.009689e-001 -4.338837e-001 0.000000e+000
    outer loop
      vertex   2.845557e+001 8.294755e+000 1.000000e+000
      vertex   2.832624e+001 8.563320e+000 0.000000e+000
      vertex   2.845557e+001 8.294755e+000 0.000000e+000
    endloop
  endfacet
  facet normal -9.009689e-001 -4.338837e-001 -0.000000e+000
    outer loop
      vertex   2.845557e+001 8.294755e+000 1.000000e+000
      vertex   2.832624e+001 8.563320e+000 1.000000e+000
      vertex   2.832624e+001 8.563320e+000 0.000000e+000
    endloop
  endfacet
  facet normal -7.330519e-001 -6.801727e-001 0.000000e+000
    outer loop
      vertex   2.832624e+001 8.563320e+000 0.000000e+000
      vertex   2.832624e+001 8.563320e+000 1.000000e+000
      vertex   2.812349e+001 8.781831e+000 0.000000e+000
    endloop
  endfacet
  facet normal -7.330519e-001 -6.801727e-001 0.000000e+000
    outer loop
      vertex   2.812349e+001 8.781831e+000 0.000000e+000
      vertex   2.832624e+001 8.563320e+000 1.000000e+000
      vertex   2.812349e+001 8.781831e+000 1.000000e+000
    endloop
  endfacet
  facet normal -5.000000e-001 -8.660254e-001 0.000000e+000
    outer loop
      vertex   2.786534e+001 8.930874e+000 0.000000e+000
      vertex   2.812349e+001 8.781831e+000 1.000000e+000
      vertex   2.786534e+001 8.930874e+000 1.000000e+000
    endloop
  endfacet
  facet normal -2.225209e-001 -9.749279e-001 0.000000e+000
    outer loop
      vertex   2.757473e+001 8.997204e+000 0.000000e+000
      vertex   2.786534e+001 8.930874e+000 1.000000e+000
      vertex   2.757473e+001 8.997204e+000 1.000000e+000
    endloop
  endfacet
  facet normal 7.473009e-002 -9.972038e-001 0.000000e+000
    outer loop
      vertex   2.727748e+001 8.974928e+000 0.000000e+000
      vertex   2.757473e+001 8.997204e+000 1.000000e+000
      vertex   2.727748e+001 8.974928e+000 1.000000e+000
    endloop
  endfacet
  facet normal 3.653410e-001 -9.308737e-001 0.000000e+000
    outer loop
      vertex   2.700000e+001 8.866025e+000 0.000000e+000
      vertex   2.727748e+001 8.974928e+000 1.000000e+000
      vertex   2.700000e+001 8.866025e+000 1.000000e+000
    endloop
  endfacet
  facet normal 6.234898e-001 -7.818315e-001 1.373418e-015
    outer loop
      vertex   2.676695e+001 8.680173e+000 0.000000e+000
      vertex   2.700000e+001 8.866025e+000 1.000000e+000
      vertex   2.676695e+001 8.680173e+000 1.000000e+000
    endloop
  endfacet
  facet normal 8.262388e-001 -5.633201e-001 0.000000e+000
    outer loop
      vertex   2.659903e+001 8.433884e+000 0.000000e+000
      vertex   2.676695e+001 8.680173e+000 1.000000e+000
      vertex   2.659903e+001 8.433884e+000 1.000000e+000
    endloop
  endfacet
  facet normal 9.555728e-001 -2.947552e-001 0.000000e+000
    outer loop
      vertex   2.651117e+001 8.149042e+000 0.000000e+000
      vertex   2.659903e+001 8.433884e+000 1.000000e+000
      vertex   2.651117e+001 8.149042e+000 1.000000e+000
    endloop
  endfacet
  facet normal 1.000000e+000 0.000000e+000 -0.000000e+000
    outer loop
      vertex   2.651117e+001 7.850958e+000 0.000000e+000
      vertex   2.651117e+001 8.149042e+000 1.000000e+000
      vertex   2.651117e+001 7.850958e+000 1.000000e+000
    endloop
  endfacet
  facet normal 9.555728e-001 2.947552e-001 0.000000e+000
    outer loop
      vertex   2.659903e+001 7.566116e+000 0.000000e+000
      vertex   2.651117e+001 7.850958e+000 1.000000e+000
      vertex   2.659903e+001 7.566116e+000 1.000000e+000
    endloop
  endfacet
  facet normal 8.262388e-001 5.633201e-001 0.000000e+000
    outer loop
      vertex   2.676695e+001 7.319827e+000 0.000000e+000
      vertex   2.659903e+001 7.566116e+000 1.000000e+000
      vertex   2.676695e+001 7.319827e+000 1.000000e+000
    endloop
  endfacet
  facet normal 6.234898e-001 7.818315e-001 0.000000e+000
    outer loop
      vertex   2.700000e+001 7.133975e+000 0.000000e+000
      vertex   2.676695e+001 7.319827e+000 1.000000e+000
      vertex   2.700000e+001 7.133975e+000 1.000000e+000
    endloop
  endfacet
  facet normal 3.653410e-001 9.308737e-001 0.000000e+000
    outer loop
      vertex   2.727748e+001 7.025072e+000 0.000000e+000
      vertex   2.700000e+001 7.133975e+000 1.000000e+000
      vertex   2.727748e+001 7.025072e+000 1.000000e+000
    endloop
  endfacet
  facet normal 7.473009e-002 9.972038e-001 0.000000e+000
    outer loop
      vertex   2.757473e+001 7.002796e+000 0.000000e+000
      vertex   2.727748e+001 7.025072e+000 1.000000e+000
      vertex   2.757473e+001 7.002796e+000 1.000000e+000
    endloop
  endfacet
  facet normal -2.225209e-001 9.749279e-001 0.000000e+000
    outer loop
      vertex   2.786534e+001 7.069126e+000 0.000000e+000
      vertex   2.757473e+001 7.002796e+000 1.000000e+000
      vertex   2.786534e+001 7.069126e+000 1.000000e+000
    endloop
  endfacet
  facet normal -5.000000e-001 8.660254e-001 0.000000e+000
    outer loop
      vertex   2.812349e+001 7.218169e+000 0.000000e+000
      vertex   2.786534e+001 7.069126e+000 1.000000e+000
      vertex   2.812349e+001 7.218169e+000 1.000000e+000
    endloop
  endfacet
  facet normal -7.330519e-001 6.801727e-001 0.000000e+000
    outer loop
      vertex   2.832624e+001 7.436680e+000 0.000000e+000
      vertex   2.812349e+001 7.218169e+000 1.000000e+000
      vertex   2.832624e+001 7.436680e+000 1.000000e+000
    endloop
  endfacet
  facet normal -9.009689e-001 4.338837e-001 3.724524e-016
    outer loop
      vertex   2.845557e+001 7.705245e+000 0.000000e+000
      vertex   2.832624e+001 7.436680e+000 1.000000e+000
      vertex   2.845557e+001 7.705245e+000 1.000000e+000
    endloop
  endfacet
  facet normal -9.888308e-001 1.490423e-001 0.000000e+000
    outer loop
      vertex   2.850000e+001 8.000000e+000 0.000000e+000
      vertex   2.845557e+001 7.705245e+000 1.000000e+000
      vertex   2.850000e+001 8.000000e+000 1.000000e+000
    endloop
  endfacet
  facet normal -9.888308e-001 -1.490423e-001 0.000000e+000
    outer loop
      vertex   2.845557e+001 8.294755e+000 0.000000e+000
      vertex   2.850000e+001 8.000000e+000 0.000000e+000
      vertex   2.850000e+001 8.000000e+000 1.000000e+000
    endloop
  endfacet
  facet normal -5.000000e-001 -8.660254e-001 0.000000e+000
    outer loop
      vertex   2.812349e+001 8.781831e+000 0.000000e+000
      vertex   2.812349e+001 8.781831e+000 1.000000e+000
      vertex   2.786534e+001 8.930874e+000 0.000000e+000
    endloop
  endfacet
  facet normal -2.225209e-001 -9.749279e-001 0.000000e+000
    outer loop
      vertex   2.786534e+001 8.930874e+000 0.000000e+000
      vertex   2.786534e+001 8.930874e+000 1.000000e+000
      vertex   2.757473e+001 8.997204e+000 0.000000e+000
    endloop
  endfacet
  facet normal 7.473009e-002 -9.972038e-001 0.000000e+000
    outer loop
      vertex   2.757473e+001 8.997204e+000 0.000000e+000
      vertex   2.757473e+001 8.997204e+000 1.000000e+000
      vertex   2.727748e+001 8.974928e+000 0.000000e+000
    endloop
  endfacet
  facet normal 3.653410e-001 -9.308737e-001 0.000000e+000
    outer loop
      vertex   2.727748e+001 8.974928e+000 0.000000e+000
      vertex   2.727748e+001 8.974928e+000 1.000000e+000
      vertex   2.700000e+001 8.866025e+000 0.000000e+000
    endloop
  endfacet
  facet normal 6.234898e-001 -7.818315e-001 0.000000e+000
    outer loop
      vertex   2.700000e+001 8.866025e+000 0.000000e+000
      vertex   2.700000e+001 8.866025e+000 1.000000e+000
      vertex   2.676695e+001 8.680173e+000 0.000000e+000
    endloop
  endfacet
  facet normal 8.262388e-001 -5.633201e-001 1.000657e-015
    outer loop
      vertex   2.676695e+001 8.680173e+000 0.000000e+000
      vertex   2.676695e+001 8.680173e+000 1.000000e+000
      vertex   2.659903e+001 8.433884e+000 0.000000e+000
    endloop
  endfacet
  facet normal 9.555728e-001 -2.947552e-001 0.000000e+000
    outer loop
      vertex   2.659903e+001 8.433884e+000 0.000000e+000
      vertex   2.659903e+001 8.433884e+000 1.000000e+000
      vertex   2.651117e+001 8.149042e+000 0.000000e+000
    endloop
  endfacet
  facet normal 1.000000e+000 0.000000e+000 -0.000000e+000
    outer loop
      vertex   2.651117e+001 8.149042e+000 0.000000e+000
      vertex   2.651117e+001 8.149042e+000 1.000000e+000
      vertex   2.651117e+001 7.850958e+000 0.000000e+000
    endloop
  endfacet
  facet normal 9.555728e-001 2.947552e-001 -2.617952e-016
    outer loop
      vertex   2.651117e+001 7.850958e+000 0.000000e+000
      vertex   2.651117e+001 7.850958e+000 1.000000e+000
      vertex   2.659903e+001 7.566116e+000 0.000000e+000
    endloop
  endfacet
  facet normal 8.262388e-001 5.633201e-001 -0.000000e+000
    outer loop
      vertex   2.659903e+001 7.566116e+000 0.000000e+000
      vertex   2.659903e+001 7.566116e+000 1.000000e+000
      vertex   2.676695e+001 7.319827e+000 0.000000e+000
    endloop
  endfacet
  facet normal 6.234898e-001 7.818315e-001 -0.000000e+000
    outer loop
      vertex   2.676695e+001 7.319827e+000 0.000000e+000
      vertex   2.676695e+001 7.319827e+000 1.000000e+000
      vertex   2.700000e+001 7.133975e+000 0.000000e+000
    endloop
  endfacet
  facet normal 3.653410e-001 9.308737e-001 -0.000000e+000
    outer loop
      vertex   2.700000e+001 7.133975e+000 0.000000e+000
      vertex   2.700000e+001 7.133975e+000 1.000000e+000
      vertex   2.727748e+001 7.025072e+000 0.000000e+000
    endloop
  endfacet
  facet normal 7.473009e-002 9.972038e-001 -0.000000e+000
    outer loop
      vertex   2.727748e+001 7.025072e+000 0.000000e+000
      vertex   2.727748e+001 7.025072e+000 1.000000e+000
      vertex   2.757473e+001 7.002796e+000 0.000000e+000
    endloop
  endfacet
  facet normal -2.225209e-001 9.749279e-001 0.000000e+000
    outer loop
      vertex   2.757473e+001 7.002796e+000 0.000000e+000
      vertex   2.757473e+001 7.002796e+000 1.000000e+000
      vertex   2.786534e+001 7.069126e+000 0.000000e+000
    endloop
  endfacet
  facet normal -5.000000e-001 8.660254e-001 0.000000e+000
    outer loop
      vertex   2.786534e+001 7.069126e+000 0.000000e+000
      vertex   2.786534e+001 7.069126e+000 1.000000e+000
      vertex   2.812349e+001 7.218169e+000 0.000000e+000
    endloop
  endfacet
  facet normal -7.330519e-001 6.801727e-001 0.000000e+000
    outer loop
      vertex   2.812349e+001 7.218169e+000 0.000000e+000
      vertex   2.812349e+001 7.218169e+000 1.000000e+000
      vertex   2.832624e+001 7.436680e+000 0.000000e+000
    endloop
  endfacet
  facet normal -9.009689e-001 4.338837e-001 0.000000e+000
    outer loop
      vertex   2.832624e+001 7.436680e+000 0.000000e+000
      vertex   2.832624e+001 7.436680e+000 1.000000e+000
      vertex   2.845557e+001 7.705245e+000 0.000000e+000
    endloop
  endfacet
  facet normal -9.888308e-001 1.490423e-001 1.323761e-016
    outer loop
      vertex   2.845557e+001 7.705245e+000 0.000000e+000
      vertex   2.845557e+001 7.705245e+000 1.000000e+000
      vertex   2.850000e+001 8.000000e+000 0.000000e+000
    endloop
  endfacet
  facet normal -9.888308e-001 -1.490423e-001 -0.000000e+000
    outer loop
      vertex   1.995557e+001 5.129919e+001 1.000000e+000
      vertex   1.995557e+001 5.129919e+001 0.000000e+000
      vertex   2.000000e+001 5.100443e+001 1.000000e+000
    endloop
  endfacet
  facet normal -9.009689e-001 -4.338837e-001 0.000000e+000
    outer loop
      vertex   1.995557e+001 5.129919e+001 1.000000e+000
      vertex   1.982624e+001 5.156775e+001 0.000000e+000
      vertex   1.995557e+001 5.129919e+001 0.000000e+000
    endloop
  endfacet
  facet normal -9.009689e-001 -4.338837e-001 -0.000000e+000
    outer loop
      vertex   1.995557e+001 5.129919e+001 1.000000e+000
      vertex   1.982624e+001 5.156775e+001 1.000000e+000
      vertex   1.982624e+001 5.156775e+001 0.000000e+000
    endloop
  endfacet
  facet normal -7.330519e-001 -6.801727e-001 0.000000e+000
    outer loop
      vertex   1.982624e+001 5.156775e+001 0.000000e+000
      vertex   1.982624e+001 5.156775e+001 1.000000e+000
      vertex   1.962349e+001 5.178626e+001 0.000000e+000
    endloop
  endfacet
  facet normal -7.330519e-001 -6.801727e-001 0.000000e+000
    outer loop
      vertex   1.962349e+001 5.178626e+001 0.000000e+000
      vertex   1.982624e+001 5.156775e+001 1.000000e+000
      vertex   1.962349e+001 5.178626e+001 1.000000e+000
    endloop
  endfacet
  facet normal -5.000000e-001 -8.660254e-001 0.000000e+000
    outer loop
      vertex   1.936534e+001 5.193531e+001 0.000000e+000
      vertex   1.962349e+001 5.178626e+001 1.000000e+000
      vertex   1.936534e+001 5.193531e+001 1.000000e+000
    endloop
  endfacet
  facet normal -2.225209e-001 -9.749279e-001 0.000000e+000
    outer loop
      vertex   1.907473e+001 5.200164e+001 0.000000e+000
      vertex   1.936534e+001 5.193531e+001 1.000000e+000
      vertex   1.907473e+001 5.200164e+001 1.000000e+000
    endloop
  endfacet
  facet normal 7.473009e-002 -9.972038e-001 0.000000e+000
    outer loop
      vertex   1.877748e+001 5.197936e+001 0.000000e+000
      vertex   1.907473e+001 5.200164e+001 1.000000e+000
      vertex   1.877748e+001 5.197936e+001 1.000000e+000
    endloop
  endfacet
  facet normal 3.653410e-001 -9.308737e-001 0.000000e+000
    outer loop
      vertex   1.850000e+001 5.187046e+001 0.000000e+000
      vertex   1.877748e+001 5.197936e+001 1.000000e+000
      vertex   1.850000e+001 5.187046e+001 1.000000e+000
    endloop
  endfacet
  facet normal 6.234898e-001 -7.818315e-001 0.000000e+000
    outer loop
      vertex   1.826695e+001 5.168460e+001 0.000000e+000
      vertex   1.850000e+001 5.187046e+001 1.000000e+000
      vertex   1.826695e+001 5.168460e+001 1.000000e+000
    endloop
  endfacet
  facet normal 8.262388e-001 -5.633201e-001 0.000000e+000
    outer loop
      vertex   1.809903e+001 5.143832e+001 0.000000e+000
      vertex   1.826695e+001 5.168460e+001 1.000000e+000
      vertex   1.809903e+001 5.143832e+001 1.000000e+000
    endloop
  endfacet
  facet normal 9.555728e-001 -2.947552e-001 0.000000e+000
    outer loop
      vertex   1.801117e+001 5.115347e+001 0.000000e+000
      vertex   1.809903e+001 5.143832e+001 1.000000e+000
      vertex   1.801117e+001 5.115347e+001 1.000000e+000
    endloop
  endfacet
  facet normal 1.000000e+000 0.000000e+000 -0.000000e+000
    outer loop
      vertex   1.801117e+001 5.085539e+001 0.000000e+000
      vertex   1.801117e+001 5.115347e+001 1.000000e+000
      vertex   1.801117e+001 5.085539e+001 1.000000e+000
    endloop
  endfacet
  facet normal 9.555728e-001 2.947552e-001 0.000000e+000
    outer loop
      vertex   1.809903e+001 5.057055e+001 0.000000e+000
      vertex   1.801117e+001 5.085539e+001 1.000000e+000
      vertex   1.809903e+001 5.057055e+001 1.000000e+000
    endloop
  endfacet
  facet normal 8.262388e-001 5.633201e-001 0.000000e+000
    outer loop
      vertex   1.826695e+001 5.032426e+001 0.000000e+000
      vertex   1.809903e+001 5.057055e+001 1.000000e+000
      vertex   1.826695e+001 5.032426e+001 1.000000e+000
    endloop
  endfacet
  facet normal 6.234898e-001 7.818315e-001 0.000000e+000
    outer loop
      vertex   1.850000e+001 5.013841e+001 0.000000e+000
      vertex   1.826695e+001 5.032426e+001 1.000000e+000
      vertex   1.850000e+001 5.013841e+001 1.000000e+000
    endloop
  endfacet
  facet normal 3.653410e-001 9.308737e-001 0.000000e+000
    outer loop
      vertex   1.877748e+001 5.002950e+001 0.000000e+000
      vertex   1.850000e+001 5.013841e+001 1.000000e+000
      vertex   1.877748e+001 5.002950e+001 1.000000e+000
    endloop
  endfacet
  facet normal 7.473009e-002 9.972038e-001 0.000000e+000
    outer loop
      vertex   1.907473e+001 5.000723e+001 0.000000e+000
      vertex   1.877748e+001 5.002950e+001 1.000000e+000
      vertex   1.907473e+001 5.000723e+001 1.000000e+000
    endloop
  endfacet
  facet normal -2.225209e-001 9.749279e-001 0.000000e+000
    outer loop
      vertex   1.936534e+001 5.007356e+001 0.000000e+000
      vertex   1.907473e+001 5.000723e+001 1.000000e+000
      vertex   1.936534e+001 5.007356e+001 1.000000e+000
    endloop
  endfacet
  facet normal -5.000000e-001 8.660254e-001 0.000000e+000
    outer loop
      vertex   1.962349e+001 5.022260e+001 0.000000e+000
      vertex   1.936534e+001 5.007356e+001 1.000000e+000
      vertex   1.962349e+001 5.022260e+001 1.000000e+000
    endloop
  endfacet
  facet normal -7.330519e-001 6.801727e-001 0.000000e+000
    outer loop
      vertex   1.982624e+001 5.044111e+001 0.000000e+000
      vertex   1.962349e+001 5.022260e+001 1.000000e+000
      vertex   1.982624e+001 5.044111e+001 1.000000e+000
    endloop
  endfacet
  facet normal -9.009689e-001 4.338837e-001 0.000000e+000
    outer loop
      vertex   1.995557e+001 5.070968e+001 0.000000e+000
      vertex   1.982624e+001 5.044111e+001 1.000000e+000
      vertex   1.995557e+001 5.070968e+001 1.000000e+000
    endloop
  endfacet
  facet normal -9.888308e-001 1.490423e-001 0.000000e+000
    outer loop
      vertex   2.000000e+001 5.100443e+001 0.000000e+000
      vertex   1.995557e+001 5.070968e+001 1.000000e+000
      vertex   2.000000e+001 5.100443e+001 1.000000e+000
    endloop
  endfacet
  facet normal -9.888308e-001 -1.490423e-001 0.000000e+000
    outer loop
      vertex   1.995557e+001 5.129919e+001 0.000000e+000
      vertex   2.000000e+001 5.100443e+001 0.000000e+000
      vertex   2.000000e+001 5.100443e+001 1.000000e+000
    endloop
  endfacet
  facet normal -5.000000e-001 -8.660254e-001 0.000000e+000
    outer loop
      vertex   1.962349e+001 5.178626e+001 0.000000e+000
      vertex   1.962349e+001 5.178626e+001 1.000000e+000
      vertex   1.936534e+001 5.193531e+001 0.000000e+000
    endloop
  endfacet
  facet normal -2.225209e-001 -9.749279e-001 0.000000e+000
    outer loop
      vertex   1.936534e+001 5.193531e+001 0.000000e+000
      vertex   1.936534e+001 5.193531e+001 1.000000e+000
      vertex   1.907473e+001 5.200164e+001 0.000000e+000
    endloop
  endfacet
  facet normal 7.473009e-002 -9.972038e-001 0.000000e+000
    outer loop
      vertex   1.907473e+001 5.200164e+001 0.000000e+000
      vertex   1.907473e+001 5.200164e+001 1.000000e+000
      vertex   1.877748e+001 5.197936e+001 0.000000e+000
    endloop
  endfacet
  facet normal 3.653410e-001 -9.308737e-001 0.000000e+000
    outer loop
      vertex   1.877748e+001 5.197936e+001 0.000000e+000
      vertex   1.877748e+001 5.197936e+001 1.000000e+000
      vertex   1.850000e+001 5.187046e+001 0.000000e+000
    endloop
  endfacet
  facet normal 6.234898e-001 -7.818315e-001 0.000000e+000
    outer loop
      vertex   1.850000e+001 5.187046e+001 0.000000e+000
      vertex   1.850000e+001 5.187046e+001 1.000000e+000
      vertex   1.826695e+001 5.168460e+001 0.000000e+000
    endloop
  endfacet
  facet normal 8.262388e-001 -5.633201e-001 0.000000e+000
    outer loop
      vertex   1.826695e+001 5.168460e+001 0.000000e+000
      vertex   1.826695e+001 5.168460e+001 1.000000e+000
      vertex   1.809903e+001 5.143832e+001 0.000000e+000
    endloop
  endfacet
  facet normal 9.555728e-001 -2.947552e-001 0.000000e+000
    outer loop
      vertex   1.809903e+001 5.143832e+001 0.000000e+000
      vertex   1.809903e+001 5.143832e+001 1.000000e+000
      vertex   1.801117e+001 5.115347e+001 0.000000e+000
    endloop
  endfacet
  facet normal 1.000000e+000 0.000000e+000 -0.000000e+000
    outer loop
      vertex   1.801117e+001 5.115347e+001 0.000000e+000
      vertex   1.801117e+001 5.115347e+001 1.000000e+000
      vertex   1.801117e+001 5.085539e+001 0.000000e+000
    endloop
  endfacet
  facet normal 9.555728e-001 2.947552e-001 -0.000000e+000
    outer loop
      vertex   1.801117e+001 5.085539e+001 0.000000e+000
      vertex   1.801117e+001 5.085539e+001 1.000000e+000
      vertex   1.809903e+001 5.057055e+001 0.000000e+000
    endloop
  endfacet
  facet normal 8.262388e-001 5.633201e-001 -0.000000e+000
    outer loop
      vertex   1.809903e+001 5.057055e+001 0.000000e+000
      vertex   1.809903e+001 5.057055e+001 1.000000e+000
      vertex   1.826695e+001 5.032426e+001 0.000000e+000
    endloop
  endfacet
  facet normal 6.234898e-001 7.818315e-001 -0.000000e+000
    outer loop
      vertex   1.826695e+001 5.032426e+001 0.000000e+000
      vertex   1.826695e+001 5.032426e+001 1.000000e+000
      vertex   1.850000e+001 5.013841e+001 0.000000e+000
    endloop
  endfacet
  facet normal 3.653410e-001 9.308737e-001 -0.000000e+000
    outer loop
      vertex   1.850000e+001 5.013841e+001 0.000000e+000
      vertex   1.850000e+001 5.013841e+001 1.000000e+000
      vertex   1.877748e+001 5.002950e+001 0.000000e+000
    endloop
  endfacet
  facet normal 7.473009e-002 9.972038e-001 -0.000000e+000
    outer loop
      vertex   1.877748e+001 5.002950e+001 0.000000e+000
      vertex   1.877748e+001 5.002950e+001 1.000000e+000
      vertex   1.907473e+001 5.000723e+001 0.000000e+000
    endloop
  endfacet
  facet normal -2.225209e-001 9.749279e-001 0.000000e+000
    outer loop
      vertex   1.907473e+001 5.000723e+001 0.000000e+000
      vertex   1.907473e+001 5.000723e+001 1.000000e+000
      vertex   1.936534e+001 5.007356e+001 0.000000e+000
    endloop
  endfacet
  facet normal -5.000000e-001 8.660254e-001 0.000000e+000
    outer loop
      vertex   1.936534e+001 5.007356e+001 0.000000e+000
      vertex   1.936534e+001 5.007356e+001 1.000000e+000
      vertex   1.962349e+001 5.022260e+001 0.000000e+000
    endloop
  endfacet
  facet normal -7.330519e-001 6.801727e-001 0.000000e+000
    outer loop
      vertex   1.962349e+001 5.022260e+001 0.000000e+000
      vertex   1.962349e+001 5.022260e+001 1.000000e+000
      vertex   1.982624e+001 5.044111e+001 0.000000e+000
    endloop
  endfacet
  facet normal -9.009689e-001 4.338837e-001 0.000000e+000
    outer loop
      vertex   1.982624e+001 5.044111e+001 0.000000e+000
      vertex   1.982624e+001 5.044111e+001 1.000000e+000
      vertex   1.995557e+001 5.070968e+001 0.000000e+000
    endloop
  endfacet
  facet normal -9.888308e-001 1.490423e-001 0.000000e+000
    outer loop
      vertex   1.995557e+001 5.070968e+001 0.000000e+000
      vertex   1.995557e+001 5.070968e+001 1.000000e+000
      vertex   2.000000e+001 5.100443e+001 0.000000e+000
    endloop
  endfacet
  facet normal -0.000000e+000 0.000000e+000 1.000000e+000
    outer loop
      vertex   1.200222e+001 3.925222e+001 1.000000e+000
      vertex   0.000000e+000 0.000000e+000 1.000000e+000
      vertex   1.200222e+001 1.525222e+001 1.000000e+000
    endloop
  endfacet
  facet normal 0.000000e+000 0.000000e+000 1.000000e+000
    outer loop
      vertex   1.200222e+001 3.925222e+001 1.000000e+000
      vertex   -2.775558e-015 5.450443e+001 1.000000e+000
      vertex   0.000000e+000 0.000000e+000 1.000000e+000
    endloop
  endfacet
  facet normal 0.000000e+000 -0.000000e+000 1.000000e+000
    outer loop
      vertex   1.200222e+001 3.925222e+001 1.000000e+000
      vertex   1.801117e+001 5.085539e+001 1.000000e+000
      vertex   -2.775558e-015 5.450443e+001 1.000000e+000
    endloop
  endfacet
  facet normal 0.000000e+000 -0.000000e+000 1.000000e+000
    outer loop
      vertex   1.200222e+001 3.925222e+001 1.000000e+000
      vertex   1.809903e+001 5.057055e+001 1.000000e+000
      vertex   1.801117e+001 5.085539e+001 1.000000e+000
    endloop
  endfacet
  facet normal 0.000000e+000 -0.000000e+000 1.000000e+000
    outer loop
      vertex   1.200222e+001 3.925222e+001 1.000000e+000
      vertex   1.826695e+001 5.032426e+001 1.000000e+000
      vertex   1.809903e+001 5.057055e+001 1.000000e+000
    endloop
  endfacet
  facet normal 0.000000e+000 -0.000000e+000 1.000000e+000
    outer loop
      vertex   1.200222e+001 3.925222e+001 1.000000e+000
      vertex   1.850000e+001 5.013841e+001 1.000000e+000
      vertex   1.826695e+001 5.032426e+001 1.000000e+000
    endloop
  endfacet
  facet normal 0.000000e+000 -0.000000e+000 1.000000e+000
    outer loop
      vertex   1.200222e+001 3.925222e+001 1.000000e+000
      vertex   1.877748e+001 5.002950e+001 1.000000e+000
      vertex   1.850000e+001 5.013841e+001 1.000000e+000
    endloop
  endfacet
  facet normal 0.000000e+000 -0.000000e+000 1.000000e+000
    outer loop
      vertex   1.200222e+001 3.925222e+001 1.000000e+000
      vertex   1.907473e+001 5.000723e+001 1.000000e+000
      vertex   1.877748e+001 5.002950e+001 1.000000e+000
    endloop
  endfacet
  facet normal 0.000000e+000 -0.000000e+000 1.000000e+000
    outer loop
      vertex   1.200222e+001 3.925222e+001 1.000000e+000
      vertex   1.936534e+001 5.007356e+001 1.000000e+000
      vertex   1.907473e+001 5.000723e+001 1.000000e+000
    endloop
  endfacet
  facet normal 0.000000e+000 -0.000000e+000 1.000000e+000
    outer loop
      vertex   1.200222e+001 3.925222e+001 1.000000e+000
      vertex   3.600222e+001 3.925222e+001 1.000000e+000
      vertex   1.936534e+001 5.007356e+001 1.000000e+000
    endloop
  endfacet
  facet normal -0.000000e+000 -0.000000e+000 1.000000e+000
    outer loop
      vertex   1.936534e+001 5.007356e+001 1.000000e+000
      vertex   3.600222e+001 3.925222e+001 1.000000e+000
      vertex   1.962349e+001 5.022260e+001 1.000000e+000
    endloop
  endfacet
  facet normal -0.000000e+000 -0.000000e+000 1.000000e+000
    outer loop
      vertex   1.962349e+001 5.022260e+001 1.000000e+000
      vertex   3.600222e+001 3.925222e+001 1.000000e+000
      vertex   1.982624e+001 5.044111e+001 1.000000e+000
    endloop
  endfacet
  facet normal -0.000000e+000 -0.000000e+000 1.000000e+000
    outer loop
      vertex   1.982624e+001 5.044111e+001 1.000000e+000
      vertex   3.600222e+001 3.925222e+001 1.000000e+000
      vertex   1.995557e+001 5.070968e+001 1.000000e+000
    endloop
  endfacet
  facet normal -0.000000e+000 -0.000000e+000 1.000000e+000
    outer loop
      vertex   1.995557e+001 5.070968e+001 1.000000e+000
      vertex   3.600222e+001 3.925222e+001 1.000000e+000
      vertex   2.000000e+001 5.100443e+001 1.000000e+000
    endloop
  endfacet
  facet normal -0.000000e+000 -0.000000e+000 1.000000e+000
    outer loop
      vertex   2.000000e+001 5.100443e+001 1.000000e+000
      vertex   3.600222e+001 3.925222e+001 1.000000e+000
      vertex   1.995557e+001 5.129919e+001 1.000000e+000
    endloop
  endfacet
  facet normal -0.000000e+000 0.000000e+000 1.000000e+000
    outer loop
      vertex   1.995557e+001 5.129919e+001 1.000000e+000
      vertex   3.600222e+001 3.925222e+001 1.000000e+000
      vertex   4.800443e+001 5.450443e+001 1.000000e+000
    endloop
  endfacet
  facet normal 0.000000e+000 -0.000000e+000 1.000000e+000
    outer loop
      vertex   1.982624e+001 5.156775e+001 1.000000e+000
      vertex   4.800443e+001 5.450443e+001 1.000000e+000
      vertex   1.962349e+001 5.178626e+001 1.000000e+000
    endloop
  endfacet
  facet normal -0.000000e+000 0.000000e+000 1.000000e+000
    outer loop
      vertex   1.982624e+001 5.156775e+001 1.000000e+000
      vertex   1.995557e+001 5.129919e+001 1.000000e+000
      vertex   4.800443e+001 5.450443e+001 1.000000e+000
    endloop
  endfacet
  facet normal 0.000000e+000 0.000000e+000 1.000000e+000
    outer loop
      vertex   4.800443e+001 5.450443e+001 1.000000e+000
      vertex   3.600222e+001 3.925222e+001 1.000000e+000
      vertex   4.700222e+001 3.900222e+001 1.000000e+000
    endloop
  endfacet
  facet normal 0.000000e+000 -0.000000e+000 1.000000e+000
    outer loop
      vertex   4.800443e+001 3.900222e+001 1.000000e+000
      vertex   4.800443e+001 5.450443e+001 1.000000e+000
      vertex   4.700222e+001 3.900222e+001 1.000000e+000
    endloop
  endfacet
  facet normal -0.000000e+000 0.000000e+000 1.000000e+000
    outer loop
      vertex   1.200222e+001 1.525222e+001 1.000000e+000
      vertex   2.727748e+001 8.974928e+000 1.000000e+000
      vertex   3.600222e+001 1.525222e+001 1.000000e+000
    endloop
  endfacet
  facet normal -0.000000e+000 0.000000e+000 1.000000e+000
    outer loop
      vertex   1.200222e+001 1.525222e+001 1.000000e+000
      vertex   2.700000e+001 8.866025e+000 1.000000e+000
      vertex   2.727748e+001 8.974928e+000 1.000000e+000
    endloop
  endfacet
  facet normal -0.000000e+000 0.000000e+000 1.000000e+000
    outer loop
      vertex   1.200222e+001 1.525222e+001 1.000000e+000
      vertex   2.676695e+001 8.680173e+000 1.000000e+000
      vertex   2.700000e+001 8.866025e+000 1.000000e+000
    endloop
  endfacet
  facet normal -0.000000e+000 0.000000e+000 1.000000e+000
    outer loop
      vertex   1.200222e+001 1.525222e+001 1.000000e+000
      vertex   2.659903e+001 8.433884e+000 1.000000e+000
      vertex   2.676695e+001 8.680173e+000 1.000000e+000
    endloop
  endfacet
  facet normal -0.000000e+000 0.000000e+000 1.000000e+000
    outer loop
      vertex   1.200222e+001 1.525222e+001 1.000000e+000
      vertex   2.651117e+001 8.149042e+000 1.000000e+000
      vertex   2.659903e+001 8.433884e+000 1.000000e+000
    endloop
  endfacet
  facet normal -0.000000e+000 0.000000e+000 1.000000e+000
    outer loop
      vertex   1.200222e+001 1.525222e+001 1.000000e+000
      vertex   2.651117e+001 7.850958e+000 1.000000e+000
      vertex   2.651117e+001 8.149042e+000 1.000000e+000
    endloop
  endfacet
  facet normal -0.000000e+000 -0.000000e+000 1.000000e+000
    outer loop
      vertex   1.200222e+001 1.525222e+001 1.000000e+000
      vertex   2.659903e+001 7.566116e+000 1.000000e+000
      vertex   2.651117e+001 7.850958e+000 1.000000e+000
    endloop
  endfacet
  facet normal -0.000000e+000 0.000000e+000 1.000000e+000
    outer loop
      vertex   1.200222e+001 1.525222e+001 1.000000e+000
      vertex   0.000000e+000 0.000000e+000 1.000000e+000
      vertex   2.659903e+001 7.566116e+000 1.000000e+000
    endloop
  endfacet
  facet normal -0.000000e+000 0.000000e+000 1.000000e+000
    outer loop
      vertex   2.659903e+001 7.566116e+000 1.000000e+000
      vertex   0.000000e+000 0.000000e+000 1.000000e+000
      vertex   2.676695e+001 7.319827e+000 1.000000e+000
    endloop
  endfacet
  facet normal -0.000000e+000 0.000000e+000 1.000000e+000
    outer loop
      vertex   2.676695e+001 7.319827e+000 1.000000e+000
      vertex   0.000000e+000 0.000000e+000 1.000000e+000
      vertex   2.700000e+001 7.133975e+000 1.000000e+000
    endloop
  endfacet
  facet normal -0.000000e+000 0.000000e+000 1.000000e+000
    outer loop
      vertex   2.700000e+001 7.133975e+000 1.000000e+000
      vertex   0.000000e+000 0.000000e+000 1.000000e+000
      vertex   2.727748e+001 7.025072e+000 1.000000e+000
    endloop
  endfacet
  facet normal -0.000000e+000 0.000000e+000 1.000000e+000
    outer loop
      vertex   2.727748e+001 7.025072e+000 1.000000e+000
      vertex   0.000000e+000 0.000000e+000 1.000000e+000
      vertex   4.800443e+001 0.000000e+000 1.000000e+000
    endloop
  endfacet
  facet normal -0.000000e+000 -0.000000e+000 1.000000e+000
    outer loop
      vertex   2.757473e+001 7.002796e+000 1.000000e+000
      vertex   4.800443e+001 0.000000e+000 1.000000e+000
      vertex   2.786534e+001 7.069126e+000 1.000000e+000
    endloop
  endfacet
  facet normal 0.000000e+000 0.000000e+000 1.000000e+000
    outer loop
      vertex   2.757473e+001 7.002796e+000 1.000000e+000
      vertex   2.727748e+001 7.025072e+000 1.000000e+000
      vertex   4.800443e+001 0.000000e+000 1.000000e+000
    endloop
  endfacet
  facet normal -0.000000e+000 0.000000e+000 1.000000e+000
    outer loop
      vertex   2.845557e+001 8.294755e+000 1.000000e+000
      vertex   2.850000e+001 8.000000e+000 1.000000e+000
      vertex   3.600222e+001 1.525222e+001 1.000000e+000
    endloop
  endfacet
  facet normal 0.000000e+000 -0.000000e+000 1.000000e+000
    outer loop
      vertex   2.832624e+001 8.563320e+000 1.000000e+000
      vertex   3.600222e+001 1.525222e+001 1.000000e+000
      vertex   2.812349e+001 8.781831e+000 1.000000e+000
    endloop
  endfacet
  facet normal -0.000000e+000 0.000000e+000 1.000000e+000
    outer loop
      vertex   2.832624e+001 8.563320e+000 1.000000e+000
      vertex   2.845557e+001 8.294755e+000 1.000000e+000
      vertex   3.600222e+001 1.525222e+001 1.000000e+000
    endloop
  endfacet
  facet normal -0.000000e+000 -0.000000e+000 1.000000e+000
    outer loop
      vertex   2.832624e+001 7.436680e+000 1.000000e+000
      vertex   4.700222e+001 4.002216e+000 1.000000e+000
      vertex   2.845557e+001 7.705245e+000 1.000000e+000
    endloop
  endfacet
  facet normal -0.000000e+000 -0.000000e+000 1.000000e+000
    outer loop
      vertex   2.832624e+001 7.436680e+000 1.000000e+000
      vertex   4.800443e+001 0.000000e+000 1.000000e+000
      vertex   4.700222e+001 4.002216e+000 1.000000e+000
    endloop
  endfacet
  facet normal 0.000000e+000 0.000000e+000 1.000000e+000
    outer loop
      vertex   2.832624e+001 7.436680e+000 1.000000e+000
      vertex   2.812349e+001 7.218169e+000 1.000000e+000
      vertex   4.800443e+001 0.000000e+000 1.000000e+000
    endloop
  endfacet
  facet normal 0.000000e+000 0.000000e+000 1.000000e+000
    outer loop
      vertex   4.800443e+001 0.000000e+000 1.000000e+000
      vertex   2.812349e+001 7.218169e+000 1.000000e+000
      vertex   2.786534e+001 7.069126e+000 1.000000e+000
    endloop
  endfacet
  facet normal 0.000000e+000 0.000000e+000 1.000000e+000
    outer loop
      vertex   2.727748e+001 8.974928e+000 1.000000e+000
      vertex   2.757473e+001 8.997204e+000 1.000000e+000
      vertex   3.600222e+001 1.525222e+001 1.000000e+000
    endloop
  endfacet
  facet normal 0.000000e+000 0.000000e+000 1.000000e+000
    outer loop
      vertex   3.600222e+001 1.525222e+001 1.000000e+000
      vertex   2.757473e+001 8.997204e+000 1.000000e+000
      vertex   2.786534e+001 8.930874e+000 1.000000e+000
    endloop
  endfacet
  facet normal 0.000000e+000 -0.000000e+000 1.000000e+000
    outer loop
      vertex   2.812349e+001 8.781831e+000 1.000000e+000
      vertex   3.600222e+001 1.525222e+001 1.000000e+000
      vertex   2.786534e+001 8.930874e+000 1.000000e+000
    endloop
  endfacet
  facet normal 0.000000e+000 -0.000000e+000 1.000000e+000
    outer loop
      vertex   1.801117e+001 5.085539e+001 1.000000e+000
      vertex   1.801117e+001 5.115347e+001 1.000000e+000
      vertex   -2.775558e-015 5.450443e+001 1.000000e+000
    endloop
  endfacet
  facet normal -0.000000e+000 0.000000e+000 1.000000e+000
    outer loop
      vertex   -2.775558e-015 5.450443e+001 1.000000e+000
      vertex   1.801117e+001 5.115347e+001 1.000000e+000
      vertex   1.809903e+001 5.143832e+001 1.000000e+000
    endloop
  endfacet
  facet normal 0.000000e+000 0.000000e+000 1.000000e+000
    outer loop
      vertex   1.826695e+001 5.168460e+001 1.000000e+000
      vertex   -2.775558e-015 5.450443e+001 1.000000e+000
      vertex   1.809903e+001 5.143832e+001 1.000000e+000
    endloop
  endfacet
  facet normal 0.000000e+000 -0.000000e+000 1.000000e+000
    outer loop
      vertex   1.826695e+001 5.168460e+001 1.000000e+000
      vertex   1.850000e+001 5.187046e+001 1.000000e+000
      vertex   -2.775558e-015 5.450443e+001 1.000000e+000
    endloop
  endfacet
  facet normal -0.000000e+000 0.000000e+000 1.000000e+000
    outer loop
      vertex   -2.775558e-015 5.450443e+001 1.000000e+000
      vertex   1.850000e+001 5.187046e+001 1.000000e+000
      vertex   1.877748e+001 5.197936e+001 1.000000e+000
    endloop
  endfacet
  facet normal 0.000000e+000 0.000000e+000 1.000000e+000
    outer loop
      vertex   1.907473e+001 5.200164e+001 1.000000e+000
      vertex   -2.775558e-015 5.450443e+001 1.000000e+000
      vertex   1.877748e+001 5.197936e+001 1.000000e+000
    endloop
  endfacet
  facet normal 0.000000e+000 -0.000000e+000 1.000000e+000
    outer loop
      vertex   1.907473e+001 5.200164e+001 1.000000e+000
      vertex   4.800443e+001 5.450443e+001 1.000000e+000
      vertex   -2.775558e-015 5.450443e+001 1.000000e+000
    endloop
  endfacet
  facet normal -0.000000e+000 0.000000e+000 1.000000e+000
    outer loop
      vertex   1.907473e+001 5.200164e+001 1.000000e+000
      vertex   1.936534e+001 5.193531e+001 1.000000e+000
      vertex   4.800443e+001 5.450443e+001 1.000000e+000
    endloop
  endfacet
  facet normal 0.000000e+000 0.000000e+000 1.000000e+000
    outer loop
      vertex   4.800443e+001 5.450443e+001 1.000000e+000
      vertex   1.936534e+001 5.193531e+001 1.000000e+000
      vertex   1.962349e+001 5.178626e+001 1.000000e+000
    endloop
  endfacet
  facet normal 0.000000e+000 0.000000e+000 1.000000e+000
    outer loop
      vertex   4.800443e+001 0.000000e+000 1.000000e+000
      vertex   4.800443e+001 4.002216e+000 1.000000e+000
      vertex   4.700222e+001 4.002216e+000 1.000000e+000
    endloop
  endfacet
  facet normal -0.000000e+000 -0.000000e+000 1.000000e+000
    outer loop
      vertex   2.845557e+001 7.705245e+000 1.000000e+000
      vertex   4.700222e+001 4.002216e+000 1.000000e+000
      vertex   3.600222e+001 1.525222e+001 1.000000e+000
    endloop
  endfacet
  facet normal -0.000000e+000 0.000000e+000 1.000000e+000
    outer loop
      vertex   2.850000e+001 8.000000e+000 1.000000e+000
      vertex   2.845557e+001 7.705245e+000 1.000000e+000
      vertex   3.600222e+001 1.525222e+001 1.000000e+000
    endloop
  endfacet
  facet normal 0.000000e+000 -0.000000e+000 1.000000e+000
    outer loop
      vertex   4.700222e+001 4.002216e+000 1.000000e+000
      vertex   4.700222e+001 3.900222e+001 1.000000e+000
      vertex   3.600222e+001 1.525222e+001 1.000000e+000
    endloop
  endfacet
  facet normal 0.000000e+000 -0.000000e+000 1.000000e+000
    outer loop
      vertex   3.600222e+001 1.525222e+001 1.000000e+000
      vertex   4.700222e+001 3.900222e+001 1.000000e+000
      vertex   3.600222e+001 3.925222e+001 1.000000e+000
    endloop
  endfacet
  facet normal 0.000000e+000 6.916815e-017 -1.000000e+000
    outer loop
      vertex   -1.000464e+000 -1.000464e+000 -5.551115e-016
      vertex   2.727748e+001 7.025072e+000 0.000000e+000
      vertex   4.900490e+001 -1.000464e+000 -5.551115e-016
    endloop
  endfacet
  facet normal 1.139235e-017 2.902724e-017 -1.000000e+000
    outer loop
      vertex   -1.000464e+000 -1.000464e+000 -5.551115e-016
      vertex   2.700000e+001 7.133975e+000 0.000000e+000
      vertex   2.727748e+001 7.025072e+000 0.000000e+000
    endloop
  endfacet
  facet normal 1.453144e-017 1.822185e-017 -1.000000e+000
    outer loop
      vertex   -1.000464e+000 -1.000464e+000 -5.551115e-016
      vertex   2.676695e+001 7.319827e+000 0.000000e+000
      vertex   2.700000e+001 7.133975e+000 0.000000e+000
    endloop
  endfacet
  facet normal 1.660018e-017 1.131781e-017 -1.000000e+000
    outer loop
      vertex   -1.000464e+000 -1.000464e+000 -5.551115e-016
      vertex   2.659903e+001 7.566116e+000 0.000000e+000
      vertex   2.676695e+001 7.319827e+000 0.000000e+000
    endloop
  endfacet
  facet normal 1.265400e-017 2.403145e-017 -1.000000e+000
    outer loop
      vertex   -1.000464e+000 -1.000464e+000 -5.551115e-016
      vertex   1.200222e+001 1.525222e+001 0.000000e+000
      vertex   2.659903e+001 7.566116e+000 0.000000e+000
    endloop
  endfacet
  facet normal 4.269208e-017 2.843864e-032 -1.000000e+000
    outer loop
      vertex   -1.000464e+000 -1.000464e+000 -5.551115e-016
      vertex   1.200222e+001 3.925222e+001 0.000000e+000
      vertex   1.200222e+001 1.525222e+001 0.000000e+000
    endloop
  endfacet
  facet normal 4.269208e-017 5.497381e-029 -1.000000e+000
    outer loop
      vertex   -1.000464e+000 -1.000464e+000 -5.551115e-016
      vertex   -1.000464e+000 5.550490e+001 -5.551115e-016
      vertex   1.200222e+001 3.925222e+001 0.000000e+000
    endloop
  endfacet
  facet normal 2.591620e-017 -1.342126e-017 -1.000000e+000
    outer loop
      vertex   1.200222e+001 3.925222e+001 0.000000e+000
      vertex   -1.000464e+000 5.550490e+001 -5.551115e-016
      vertex   1.801117e+001 5.085539e+001 0.000000e+000
    endloop
  endfacet
  facet normal -0.000000e+000 0.000000e+000 -1.000000e+000
    outer loop
      vertex   1.809903e+001 5.057055e+001 0.000000e+000
      vertex   1.200222e+001 3.925222e+001 0.000000e+000
      vertex   1.801117e+001 5.085539e+001 0.000000e+000
    endloop
  endfacet
  facet normal 0.000000e+000 -0.000000e+000 -1.000000e+000
    outer loop
      vertex   1.809903e+001 5.057055e+001 0.000000e+000
      vertex   1.826695e+001 5.032426e+001 0.000000e+000
      vertex   1.200222e+001 3.925222e+001 0.000000e+000
    endloop
  endfacet
  facet normal 0.000000e+000 0.000000e+000 -1.000000e+000
    outer loop
      vertex   1.200222e+001 3.925222e+001 0.000000e+000
      vertex   1.826695e+001 5.032426e+001 0.000000e+000
      vertex   1.850000e+001 5.013841e+001 0.000000e+000
    endloop
  endfacet
  facet normal -0.000000e+000 0.000000e+000 -1.000000e+000
    outer loop
      vertex   1.877748e+001 5.002950e+001 0.000000e+000
      vertex   1.200222e+001 3.925222e+001 0.000000e+000
      vertex   1.850000e+001 5.013841e+001 0.000000e+000
    endloop
  endfacet
  facet normal 0.000000e+000 -0.000000e+000 -1.000000e+000
    outer loop
      vertex   1.877748e+001 5.002950e+001 0.000000e+000
      vertex   1.907473e+001 5.000723e+001 0.000000e+000
      vertex   1.200222e+001 3.925222e+001 0.000000e+000
    endloop
  endfacet
  facet normal 0.000000e+000 0.000000e+000 -1.000000e+000
    outer loop
      vertex   1.200222e+001 3.925222e+001 0.000000e+000
      vertex   1.907473e+001 5.000723e+001 0.000000e+000
      vertex   1.936534e+001 5.007356e+001 0.000000e+000
    endloop
  endfacet
  facet normal 0.000000e+000 0.000000e+000 -1.000000e+000
    outer loop
      vertex   3.600222e+001 3.925222e+001 0.000000e+000
      vertex   1.936534e+001 5.007356e+001 0.000000e+000
      vertex   1.962349e+001 5.022260e+001 0.000000e+000
    endloop
  endfacet
  facet normal -0.000000e+000 -0.000000e+000 -1.000000e+000
    outer loop
      vertex   1.982624e+001 5.044111e+001 0.000000e+000
      vertex   3.600222e+001 3.925222e+001 0.000000e+000
      vertex   1.962349e+001 5.022260e+001 0.000000e+000
    endloop
  endfacet
  facet normal 0.000000e+000 0.000000e+000 -1.000000e+000
    outer loop
      vertex   1.982624e+001 5.044111e+001 0.000000e+000
      vertex   1.995557e+001 5.070968e+001 0.000000e+000
      vertex   3.600222e+001 3.925222e+001 0.000000e+000
    endloop
  endfacet
  facet normal 0.000000e+000 0.000000e+000 -1.000000e+000
    outer loop
      vertex   3.600222e+001 3.925222e+001 0.000000e+000
      vertex   1.995557e+001 5.070968e+001 0.000000e+000
      vertex   2.000000e+001 5.100443e+001 0.000000e+000
    endloop
  endfacet
  facet normal -0.000000e+000 -0.000000e+000 -1.000000e+000
    outer loop
      vertex   1.995557e+001 5.129919e+001 0.000000e+000
      vertex   3.600222e+001 3.925222e+001 0.000000e+000
      vertex   2.000000e+001 5.100443e+001 0.000000e+000
    endloop
  endfacet
  facet normal -1.601991e-017 -2.133862e-017 -1.000000e+000
    outer loop
      vertex   1.995557e+001 5.129919e+001 0.000000e+000
      vertex   4.900490e+001 5.550490e+001 -5.551115e-016
      vertex   3.600222e+001 3.925222e+001 0.000000e+000
    endloop
  endfacet
  facet normal -1.786379e-017 -8.602745e-018 -1.000000e+000
    outer loop
      vertex   1.995557e+001 5.129919e+001 0.000000e+000
      vertex   1.982624e+001 5.156775e+001 0.000000e+000
      vertex   4.900490e+001 5.550490e+001 -5.551115e-016
    endloop
  endfacet
  facet normal -1.690774e-017 -1.568809e-017 -1.000000e+000
    outer loop
      vertex   4.900490e+001 5.550490e+001 -5.551115e-016
      vertex   1.982624e+001 5.156775e+001 0.000000e+000
      vertex   1.962349e+001 5.178626e+001 0.000000e+000
    endloop
  endfacet
  facet normal -1.549627e-017 -2.684033e-017 -1.000000e+000
    outer loop
      vertex   1.936534e+001 5.193531e+001 0.000000e+000
      vertex   4.900490e+001 5.550490e+001 -5.551115e-016
      vertex   1.962349e+001 5.178626e+001 0.000000e+000
    endloop
  endfacet
  facet normal -1.225981e-017 -5.371375e-017 -1.000000e+000
    outer loop
      vertex   1.936534e+001 5.193531e+001 0.000000e+000
      vertex   1.907473e+001 5.200164e+001 0.000000e+000
      vertex   4.900490e+001 5.550490e+001 -5.551115e-016
    endloop
  endfacet
  facet normal 2.305361e-028 -1.584557e-016 -1.000000e+000
    outer loop
      vertex   4.900490e+001 5.550490e+001 -5.551115e-016
      vertex   1.907473e+001 5.200164e+001 0.000000e+000
      vertex   -1.000464e+000 5.550490e+001 -5.551115e-016
    endloop
  endfacet
  facet normal 8.307198e-018 -1.108519e-016 -1.000000e+000
    outer loop
      vertex   -1.000464e+000 5.550490e+001 -5.551115e-016
      vertex   1.907473e+001 5.200164e+001 0.000000e+000
      vertex   1.877748e+001 5.197936e+001 0.000000e+000
    endloop
  endfacet
  facet normal 1.930093e-017 -4.917798e-017 -1.000000e+000
    outer loop
      vertex   1.850000e+001 5.187046e+001 0.000000e+000
      vertex   -1.000464e+000 5.550490e+001 -5.551115e-016
      vertex   1.877748e+001 5.197936e+001 0.000000e+000
    endloop
  endfacet
  facet normal 2.307397e-017 -2.893385e-017 -1.000000e+000
    outer loop
      vertex   1.850000e+001 5.187046e+001 0.000000e+000
      vertex   1.826695e+001 5.168460e+001 0.000000e+000
      vertex   -1.000464e+000 5.550490e+001 -5.551115e-016
    endloop
  endfacet
  facet normal 2.537996e-017 -1.730376e-017 -1.000000e+000
    outer loop
      vertex   -1.000464e+000 5.550490e+001 -5.551115e-016
      vertex   1.826695e+001 5.168460e+001 0.000000e+000
      vertex   1.809903e+001 5.143832e+001 0.000000e+000
    endloop
  endfacet
  facet normal 2.727302e-017 -8.412613e-018 -1.000000e+000
    outer loop
      vertex   1.801117e+001 5.115347e+001 0.000000e+000
      vertex   -1.000464e+000 5.550490e+001 -5.551115e-016
      vertex   1.809903e+001 5.143832e+001 0.000000e+000
    endloop
  endfacet
  facet normal 2.919852e-017 0.000000e+000 -1.000000e+000
    outer loop
      vertex   1.801117e+001 5.115347e+001 0.000000e+000
      vertex   1.801117e+001 5.085539e+001 0.000000e+000
      vertex   -1.000464e+000 5.550490e+001 -5.551115e-016
    endloop
  endfacet
  facet normal 0.000000e+000 0.000000e+000 -1.000000e+000
    outer loop
      vertex   4.900490e+001 3.800175e+001 -5.551115e-016
      vertex   4.800268e+001 3.800175e+001 -5.551115e-016
      vertex   4.900490e+001 5.550490e+001 -5.551115e-016
    endloop
  endfacet
  facet normal -4.598315e-017 2.632958e-018 -1.000000e+000
    outer loop
      vertex   4.900490e+001 5.550490e+001 -5.551115e-016
      vertex   4.800268e+001 3.800175e+001 -5.551115e-016
      vertex   3.600222e+001 3.925222e+001 0.000000e+000
    endloop
  endfacet
  facet normal -4.625750e-017 0.000000e+000 -1.000000e+000
    outer loop
      vertex   3.600222e+001 3.925222e+001 0.000000e+000
      vertex   4.800268e+001 3.800175e+001 -5.551115e-016
      vertex   3.600222e+001 1.525222e+001 0.000000e+000
    endloop
  endfacet
  facet normal -4.625750e-017 -0.000000e+000 -1.000000e+000
    outer loop
      vertex   3.600222e+001 1.525222e+001 0.000000e+000
      vertex   4.800268e+001 3.800175e+001 -5.551115e-016
      vertex   4.800268e+001 5.002680e+000 -5.551115e-016
    endloop
  endfacet
  facet normal -2.662585e-017 1.282233e-017 -1.000000e+000
    outer loop
      vertex   2.845557e+001 7.705245e+000 0.000000e+000
      vertex   4.800268e+001 5.002680e+000 -5.551115e-016
      vertex   2.832624e+001 7.436680e+000 0.000000e+000
    endloop
  endfacet
  facet normal -2.494933e-017 2.494825e-017 -1.000000e+000
    outer loop
      vertex   2.845557e+001 7.705245e+000 0.000000e+000
      vertex   3.600222e+001 1.525222e+001 0.000000e+000
      vertex   4.800268e+001 5.002680e+000 -5.551115e-016
    endloop
  endfacet
  facet normal 0.000000e+000 0.000000e+000 -1.000000e+000
    outer loop
      vertex   2.845557e+001 7.705245e+000 0.000000e+000
      vertex   2.850000e+001 8.000000e+000 0.000000e+000
      vertex   3.600222e+001 1.525222e+001 0.000000e+000
    endloop
  endfacet
  facet normal -0.000000e+000 0.000000e+000 -1.000000e+000
    outer loop
      vertex   3.600222e+001 1.525222e+001 0.000000e+000
      vertex   2.850000e+001 8.000000e+000 0.000000e+000
      vertex   2.845557e+001 8.294755e+000 0.000000e+000
    endloop
  endfacet
  facet normal 0.000000e+000 -0.000000e+000 -1.000000e+000
    outer loop
      vertex   2.832624e+001 8.563320e+000 0.000000e+000
      vertex   3.600222e+001 1.525222e+001 0.000000e+000
      vertex   2.845557e+001 8.294755e+000 0.000000e+000
    endloop
  endfacet
  facet normal 0.000000e+000 0.000000e+000 -1.000000e+000
    outer loop
      vertex   2.832624e+001 8.563320e+000 0.000000e+000
      vertex   2.812349e+001 8.781831e+000 0.000000e+000
      vertex   3.600222e+001 1.525222e+001 0.000000e+000
    endloop
  endfacet
  facet normal -0.000000e+000 0.000000e+000 -1.000000e+000
    outer loop
      vertex   3.600222e+001 1.525222e+001 0.000000e+000
      vertex   2.812349e+001 8.781831e+000 0.000000e+000
      vertex   2.786534e+001 8.930874e+000 0.000000e+000
    endloop
  endfacet
  facet normal 0.000000e+000 -0.000000e+000 -1.000000e+000
    outer loop
      vertex   2.757473e+001 8.997204e+000 0.000000e+000
      vertex   3.600222e+001 1.525222e+001 0.000000e+000
      vertex   2.786534e+001 8.930874e+000 0.000000e+000
    endloop
  endfacet
  facet normal -0.000000e+000 0.000000e+000 -1.000000e+000
    outer loop
      vertex   2.757473e+001 8.997204e+000 0.000000e+000
      vertex   2.727748e+001 8.974928e+000 0.000000e+000
      vertex   3.600222e+001 1.525222e+001 0.000000e+000
    endloop
  endfacet
  facet normal -0.000000e+000 0.000000e+000 -1.000000e+000
    outer loop
      vertex   3.600222e+001 1.525222e+001 0.000000e+000
      vertex   2.727748e+001 8.974928e+000 0.000000e+000
      vertex   1.200222e+001 1.525222e+001 0.000000e+000
    endloop
  endfacet
  facet normal 0.000000e+000 -0.000000e+000 -1.000000e+000
    outer loop
      vertex   1.200222e+001 1.525222e+001 0.000000e+000
      vertex   2.727748e+001 8.974928e+000 0.000000e+000
      vertex   2.700000e+001 8.866025e+000 0.000000e+000
    endloop
  endfacet
  facet normal 0.000000e+000 0.000000e+000 -1.000000e+000
    outer loop
      vertex   2.676695e+001 8.680173e+000 0.000000e+000
      vertex   1.200222e+001 1.525222e+001 0.000000e+000
      vertex   2.700000e+001 8.866025e+000 0.000000e+000
    endloop
  endfacet
  facet normal -0.000000e+000 0.000000e+000 -1.000000e+000
    outer loop
      vertex   2.676695e+001 8.680173e+000 0.000000e+000
      vertex   2.659903e+001 8.433884e+000 0.000000e+000
      vertex   1.200222e+001 1.525222e+001 0.000000e+000
    endloop
  endfacet
  facet normal 0.000000e+000 -0.000000e+000 -1.000000e+000
    outer loop
      vertex   1.200222e+001 1.525222e+001 0.000000e+000
      vertex   2.659903e+001 8.433884e+000 0.000000e+000
      vertex   2.651117e+001 8.149042e+000 0.000000e+000
    endloop
  endfacet
  facet normal 0.000000e+000 0.000000e+000 -1.000000e+000
    outer loop
      vertex   2.651117e+001 7.850958e+000 0.000000e+000
      vertex   1.200222e+001 1.525222e+001 0.000000e+000
      vertex   2.651117e+001 8.149042e+000 0.000000e+000
    endloop
  endfacet
  facet normal -0.000000e+000 -0.000000e+000 -1.000000e+000
    outer loop
      vertex   2.651117e+001 7.850958e+000 0.000000e+000
      vertex   2.659903e+001 7.566116e+000 0.000000e+000
      vertex   1.200222e+001 1.525222e+001 0.000000e+000
    endloop
  endfacet
  facet normal -0.000000e+000 -0.000000e+000 -1.000000e+000
    outer loop
      vertex   4.900490e+001 5.002680e+000 -5.551115e-016
      vertex   4.900490e+001 -1.000464e+000 -5.551115e-016
      vertex   4.800268e+001 5.002680e+000 -5.551115e-016
    endloop
  endfacet
  facet normal -2.880690e-017 -4.809269e-018 -1.000000e+000
    outer loop
      vertex   4.800268e+001 5.002680e+000 -5.551115e-016
      vertex   4.900490e+001 -1.000464e+000 -5.551115e-016
      vertex   2.832624e+001 7.436680e+000 0.000000e+000
    endloop
  endfacet
  facet normal -1.947269e-017 1.806802e-017 -1.000000e+000
    outer loop
      vertex   2.832624e+001 7.436680e+000 0.000000e+000
      vertex   4.900490e+001 -1.000464e+000 -5.551115e-016
      vertex   2.812349e+001 7.218169e+000 0.000000e+000
    endloop
  endfacet
  facet normal -1.580771e-017 2.737976e-017 -1.000000e+000
    outer loop
      vertex   2.812349e+001 7.218169e+000 0.000000e+000
      vertex   4.900490e+001 -1.000464e+000 -5.551115e-016
      vertex   2.786534e+001 7.069126e+000 0.000000e+000
    endloop
  endfacet
  facet normal -9.825897e-018 4.305007e-017 -1.000000e+000
    outer loop
      vertex   2.786534e+001 7.069126e+000 0.000000e+000
      vertex   4.900490e+001 -1.000464e+000 -5.551115e-016
      vertex   2.757473e+001 7.002796e+000 0.000000e+000
    endloop
  endfacet
  facet normal 6.502730e-018 8.677290e-017 -1.000000e+000
    outer loop
      vertex   2.757473e+001 7.002796e+000 0.000000e+000
      vertex   4.900490e+001 -1.000464e+000 -5.551115e-016
      vertex   2.727748e+001 7.025072e+000 0.000000e+000
    endloop
  endfacet
  facet normal -0.000000e+000 0.000000e+000 -1.000000e+000
    outer loop
      vertex   3.600222e+001 3.925222e+001 0.000000e+000
      vertex   1.200222e+001 3.925222e+001 0.000000e+000
      vertex   1.936534e+001 5.007356e+001 0.000000e+000
    endloop
  endfacet
endsolid