solid ascii
  facet normal -9.988633e-001 -4.766595e-002 -0.000000e+000
    outer loop
      vertex   -4.930583e+001 -6.393794e+001 1.900000e+000
      vertex   -4.930583e+001 -6.393794e+001 0.000000e+000
      vertex   -4.926039e+001 -6.489018e+001 1.900000e+000
    endloop
  endfacet
  facet normal -9.988633e-001 -4.766595e-002 -3.562717e-016
    outer loop
      vertex   -4.926039e+001 -6.489018e+001 1.900000e+000
      vertex   -4.930583e+001 -6.393794e+001 0.000000e+000
      vertex   -4.926039e+001 -6.489018e+001 0.000000e+000
    endloop
  endfacet
  facet normal -9.897855e-001 -1.425647e-001 0.000000e+000
    outer loop
      vertex   -4.912448e+001 -6.583376e+001 1.900000e+000
      vertex   -4.926039e+001 -6.489018e+001 0.000000e+000
      vertex   -4.912448e+001 -6.583376e+001 0.000000e+000
    endloop
  endfacet
  facet normal -9.717123e-001 -2.361677e-001 0.000000e+000
    outer loop
      vertex   -4.889934e+001 -6.676011e+001 1.900000e+000
      vertex   -4.912448e+001 -6.583376e+001 0.000000e+000
      vertex   -4.889934e+001 -6.676011e+001 0.000000e+000
    endloop
  endfacet
  facet normal -9.448080e-001 -3.276245e-001 0.000000e+000
    outer loop
      vertex   -4.858701e+001 -6.766082e+001 1.900000e+000
      vertex   -4.889934e+001 -6.676011e+001 0.000000e+000
      vertex   -4.858701e+001 -6.766082e+001 0.000000e+000
    endloop
  endfacet
  facet normal -9.093172e-001 -4.161037e-001 0.000000e+000
    outer loop
      vertex   -4.819033e+001 -6.852768e+001 1.900000e+000
      vertex   -4.858701e+001 -6.766082e+001 0.000000e+000
      vertex   -4.819033e+001 -6.852768e+001 0.000000e+000
    endloop
  endfacet
  facet normal -8.655623e-001 -5.008013e-001 0.000000e+000
    outer loop
      vertex   -4.771291e+001 -6.935284e+001 1.900000e+000
      vertex   -4.819033e+001 -6.852768e+001 0.000000e+000
      vertex   -4.771291e+001 -6.935284e+001 0.000000e+000
    endloop
  endfacet
  facet normal -8.139410e-001 -5.809475e-001 0.000000e+000
    outer loop
      vertex   -4.715908e+001 -7.012879e+001 1.900000e+000
      vertex   -4.771291e+001 -6.935284e+001 0.000000e+000
      vertex   -4.715908e+001 -7.012879e+001 0.000000e+000
    endloop
  endfacet
  facet normal -7.549225e-001 -6.558140e-001 0.000000e+000
    outer loop
      vertex   -4.653388e+001 -7.084847e+001 1.900000e+000
      vertex   -4.715908e+001 -7.012879e+001 0.000000e+000
      vertex   -4.653388e+001 -7.084847e+001 0.000000e+000
    endloop
  endfacet
  facet normal -6.890432e-001 -7.247203e-001 0.000000e+000
    outer loop
      vertex   -4.584299e+001 -7.150535e+001 1.900000e+000
      vertex   -4.653388e+001 -7.084847e+001 0.000000e+000
      vertex   -4.584299e+001 -7.150535e+001 0.000000e+000
    endloop
  endfacet
  facet normal -6.169016e-001 -7.870402e-001 0.000000e+000
    outer loop
      vertex   -4.509269e+001 -7.209345e+001 1.900000e+000
      vertex   -4.584299e+001 -7.150535e+001 0.000000e+000
      vertex   -4.509269e+001 -7.209345e+001 0.000000e+000
    endloop
  endfacet
  facet normal -5.391536e-001 -8.422074e-001 0.000000e+000
    outer loop
      vertex   -4.428979e+001 -7.260744e+001 1.900000e+000
      vertex   -4.509269e+001 -7.209345e+001 0.000000e+000
      vertex   -4.428979e+001 -7.260744e+001 0.000000e+000
    endloop
  endfacet
  facet normal -4.565057e-001 -8.897205e-001 0.000000e+000
    outer loop
      vertex   -4.344161e+001 -7.304263e+001 1.900000e+000
      vertex   -4.428979e+001 -7.260744e+001 0.000000e+000
      vertex   -4.344161e+001 -7.304263e+001 0.000000e+000
    endloop
  endfacet
  facet normal -3.697089e-001 -9.291476e-001 0.000000e+000
    outer loop
      vertex   -4.255583e+001 -7.339508e+001 1.900000e+000
      vertex   -4.344161e+001 -7.304263e+001 0.000000e+000
      vertex   -4.255583e+001 -7.339508e+001 0.000000e+000
    endloop
  endfacet
  facet normal -3.697089e-001 -9.291476e-001 -0.000000e+000
    outer loop
      vertex   -4.255583e+001 -7.339508e+001 1.900000e+000
      vertex   -4.344161e+001 -7.304263e+001 1.900000e+000
      vertex   -4.344161e+001 -7.304263e+001 0.000000e+000
    endloop
  endfacet
  facet normal -9.897855e-001 -1.425647e-001 -1.066298e-015
    outer loop
      vertex   -4.926039e+001 -6.489018e+001 1.900000e+000
      vertex   -4.926039e+001 -6.489018e+001 0.000000e+000
      vertex   -4.912448e+001 -6.583376e+001 1.900000e+000
    endloop
  endfacet
  facet normal -9.717123e-001 -2.361677e-001 -0.000000e+000
    outer loop
      vertex   -4.912448e+001 -6.583376e+001 1.900000e+000
      vertex   -4.912448e+001 -6.583376e+001 0.000000e+000
      vertex   -4.889934e+001 -6.676011e+001 1.900000e+000
    endloop
  endfacet
  facet normal -9.448080e-001 -3.276245e-001 -0.000000e+000
    outer loop
      vertex   -4.889934e+001 -6.676011e+001 1.900000e+000
      vertex   -4.889934e+001 -6.676011e+001 0.000000e+000
      vertex   -4.858701e+001 -6.766082e+001 1.900000e+000
    endloop
  endfacet
  facet normal -9.093172e-001 -4.161037e-001 -0.000000e+000
    outer loop
      vertex   -4.858701e+001 -6.766082e+001 1.900000e+000
      vertex   -4.858701e+001 -6.766082e+001 0.000000e+000
      vertex   -4.819033e+001 -6.852768e+001 1.900000e+000
    endloop
  endfacet
  facet normal -8.655623e-001 -5.008013e-001 -0.000000e+000
    outer loop
      vertex   -4.819033e+001 -6.852768e+001 1.900000e+000
      vertex   -4.819033e+001 -6.852768e+001 0.000000e+000
      vertex   -4.771291e+001 -6.935284e+001 1.900000e+000
    endloop
  endfacet
  facet normal -8.139410e-001 -5.809475e-001 -0.000000e+000
    outer loop
      vertex   -4.771291e+001 -6.935284e+001 1.900000e+000
      vertex   -4.771291e+001 -6.935284e+001 0.000000e+000
      vertex   -4.715908e+001 -7.012879e+001 1.900000e+000
    endloop
  endfacet
  facet normal -7.549225e-001 -6.558140e-001 -0.000000e+000
    outer loop
      vertex   -4.715908e+001 -7.012879e+001 1.900000e+000
      vertex   -4.715908e+001 -7.012879e+001 0.000000e+000
      vertex   -4.653388e+001 -7.084847e+001 1.900000e+000
    endloop
  endfacet
  facet normal -6.890432e-001 -7.247203e-001 -0.000000e+000
    outer loop
      vertex   -4.653388e+001 -7.084847e+001 1.900000e+000
      vertex   -4.653388e+001 -7.084847e+001 0.000000e+000
      vertex   -4.584299e+001 -7.150535e+001 1.900000e+000
    endloop
  endfacet
  facet normal -6.169016e-001 -7.870402e-001 -0.000000e+000
    outer loop
      vertex   -4.584299e+001 -7.150535e+001 1.900000e+000
      vertex   -4.584299e+001 -7.150535e+001 0.000000e+000
      vertex   -4.509269e+001 -7.209345e+001 1.900000e+000
    endloop
  endfacet
  facet normal -5.391536e-001 -8.422074e-001 -0.000000e+000
    outer loop
      vertex   -4.509269e+001 -7.209345e+001 1.900000e+000
      vertex   -4.509269e+001 -7.209345e+001 0.000000e+000
      vertex   -4.428979e+001 -7.260744e+001 1.900000e+000
    endloop
  endfacet
  facet normal -4.565057e-001 -8.897205e-001 -0.000000e+000
    outer loop
      vertex   -4.428979e+001 -7.260744e+001 1.900000e+000
      vertex   -4.428979e+001 -7.260744e+001 0.000000e+000
      vertex   -4.344161e+001 -7.304263e+001 1.900000e+000
    endloop
  endfacet
  facet normal -3.669920e-001 -9.302241e-001 0.000000e+000
    outer loop
      vertex   -4.255583e+001 -7.339508e+001 0.000000e+000
      vertex   -4.172334e+001 -7.372352e+001 0.000000e+000
      vertex   -4.255583e+001 -7.339508e+001 1.900000e+000
    endloop
  endfacet
  facet normal -3.669920e-001 -9.302241e-001 0.000000e+000
    outer loop
      vertex   -4.255583e+001 -7.339508e+001 1.900000e+000
      vertex   -4.172334e+001 -7.372352e+001 0.000000e+000
      vertex   -4.172334e+001 -7.372352e+001 1.900000e+000
    endloop
  endfacet
  facet normal -4.486879e-001 -8.936885e-001 -0.000000e+000
    outer loop
      vertex   -4.172334e+001 -7.372352e+001 1.900000e+000
      vertex   -4.172334e+001 -7.372352e+001 0.000000e+000
      vertex   -4.092355e+001 -7.412506e+001 0.000000e+000
    endloop
  endfacet
  facet normal -5.267901e-001 -8.499954e-001 -0.000000e+000
    outer loop
      vertex   -4.092355e+001 -7.412506e+001 1.900000e+000
      vertex   -4.092355e+001 -7.412506e+001 0.000000e+000
      vertex   -4.016286e+001 -7.459650e+001 0.000000e+000
    endloop
  endfacet
  facet normal -6.006733e-001 -7.994946e-001 -0.000000e+000
    outer loop
      vertex   -4.016286e+001 -7.459650e+001 1.900000e+000
      vertex   -4.016286e+001 -7.459650e+001 0.000000e+000
      vertex   -3.944737e+001 -7.513407e+001 0.000000e+000
    endloop
  endfacet
  facet normal -6.697457e-001 -7.425906e-001 -0.000000e+000
    outer loop
      vertex   -3.944737e+001 -7.513407e+001 1.900000e+000
      vertex   -3.944737e+001 -7.513407e+001 0.000000e+000
      vertex   -3.878280e+001 -7.573344e+001 1.900000e+000
    endloop
  endfacet
  facet normal -6.006733e-001 -7.994946e-001 0.000000e+000
    outer loop
      vertex   -3.944737e+001 -7.513407e+001 1.900000e+000
      vertex   -4.016286e+001 -7.459650e+001 1.900000e+000
      vertex   -3.944737e+001 -7.513407e+001 0.000000e+000
    endloop
  endfacet
  facet normal -4.486879e-001 -8.936885e-001 0.000000e+000
    outer loop
      vertex   -4.172334e+001 -7.372352e+001 1.900000e+000
      vertex   -4.092355e+001 -7.412506e+001 0.000000e+000
      vertex   -4.092355e+001 -7.412506e+001 1.900000e+000
    endloop
  endfacet
  facet normal -5.267901e-001 -8.499954e-001 0.000000e+000
    outer loop
      vertex   -4.092355e+001 -7.412506e+001 1.900000e+000
      vertex   -4.016286e+001 -7.459650e+001 0.000000e+000
      vertex   -4.016286e+001 -7.459650e+001 1.900000e+000
    endloop
  endfacet
  facet normal -6.697457e-001 -7.425906e-001 0.000000e+000
    outer loop
      vertex   -3.944737e+001 -7.513407e+001 0.000000e+000
      vertex   -3.878280e+001 -7.573344e+001 0.000000e+000
      vertex   -3.878280e+001 -7.573344e+001 1.900000e+000
    endloop
  endfacet
  facet normal -7.334540e-001 -6.797391e-001 -0.000000e+000
    outer loop
      vertex   -3.878280e+001 -7.573344e+001 1.900000e+000
      vertex   -3.878280e+001 -7.573344e+001 0.000000e+000
      vertex   -3.817448e+001 -7.638984e+001 0.000000e+000
    endloop
  endfacet
  facet normal -7.912881e-001 -6.114436e-001 -0.000000e+000
    outer loop
      vertex   -3.817448e+001 -7.638984e+001 1.900000e+000
      vertex   -3.817448e+001 -7.638984e+001 0.000000e+000
      vertex   -3.762728e+001 -7.709799e+001 0.000000e+000
    endloop
  endfacet
  facet normal -8.427846e-001 -5.382509e-001 -0.000000e+000
    outer loop
      vertex   -3.762728e+001 -7.709799e+001 1.900000e+000
      vertex   -3.762728e+001 -7.709799e+001 0.000000e+000
      vertex   -3.714558e+001 -7.785222e+001 0.000000e+000
    endloop
  endfacet
  facet normal -8.427846e-001 -5.382509e-001 0.000000e+000
    outer loop
      vertex   -3.714558e+001 -7.785222e+001 1.900000e+000
      vertex   -3.762728e+001 -7.709799e+001 1.900000e+000
      vertex   -3.714558e+001 -7.785222e+001 0.000000e+000
    endloop
  endfacet
  facet normal -7.334540e-001 -6.797391e-001 0.000000e+000
    outer loop
      vertex   -3.878280e+001 -7.573344e+001 1.900000e+000
      vertex   -3.817448e+001 -7.638984e+001 0.000000e+000
      vertex   -3.817448e+001 -7.638984e+001 1.900000e+000
    endloop
  endfacet
  facet normal -7.912881e-001 -6.114436e-001 0.000000e+000
    outer loop
      vertex   -3.817448e+001 -7.638984e+001 1.900000e+000
      vertex   -3.762728e+001 -7.709799e+001 0.000000e+000
      vertex   -3.762728e+001 -7.709799e+001 1.900000e+000
    endloop
  endfacet
  facet normal 0.000000e+000 0.000000e+000 -1.000000e+000
    outer loop
      vertex   -4.172334e+001 -7.372352e+001 0.000000e+000
      vertex   -4.255583e+001 -7.339508e+001 0.000000e+000
      vertex   -3.580583e+001 -6.285222e+001 0.000000e+000
    endloop
  endfacet
  facet normal 0.000000e+000 -0.000000e+000 -1.000000e+000
    outer loop
      vertex   -4.092355e+001 -7.412506e+001 0.000000e+000
      vertex   -3.580583e+001 -6.285222e+001 0.000000e+000
      vertex   -4.016286e+001 -7.459650e+001 0.000000e+000
    endloop
  endfacet
  facet normal 0.000000e+000 0.000000e+000 -1.000000e+000
    outer loop
      vertex   -4.092355e+001 -7.412506e+001 0.000000e+000
      vertex   -4.172334e+001 -7.372352e+001 0.000000e+000
      vertex   -3.580583e+001 -6.285222e+001 0.000000e+000
    endloop
  endfacet
  facet normal 0.000000e+000 0.000000e+000 -1.000000e+000
    outer loop
      vertex   -4.255583e+001 -7.339508e+001 0.000000e+000
      vertex   -4.344161e+001 -7.304263e+001 0.000000e+000
      vertex   -3.580583e+001 -6.285222e+001 0.000000e+000
    endloop
  endfacet
  facet normal -0.000000e+000 0.000000e+000 -1.000000e+000
    outer loop
      vertex   -3.580583e+001 -6.285222e+001 0.000000e+000
      vertex   -4.344161e+001 -7.304263e+001 0.000000e+000
      vertex   -4.428979e+001 -7.260744e+001 0.000000e+000
    endloop
  endfacet
  facet normal 0.000000e+000 -0.000000e+000 -1.000000e+000
    outer loop
      vertex   -4.509269e+001 -7.209345e+001 0.000000e+000
      vertex   -3.580583e+001 -6.285222e+001 0.000000e+000
      vertex   -4.428979e+001 -7.260744e+001 0.000000e+000
    endloop
  endfacet
  facet normal 4.111937e-017 -4.132239e-017 -1.000000e+000
    outer loop
      vertex   -4.509269e+001 -7.209345e+001 0.000000e+000
      vertex   -4.930583e+001 -6.285222e+001 -5.551115e-016
      vertex   -3.580583e+001 -6.285222e+001 0.000000e+000
    endloop
  endfacet
  facet normal -7.326493e-017 -9.347105e-017 -1.000000e+000
    outer loop
      vertex   -4.509269e+001 -7.209345e+001 0.000000e+000
      vertex   -4.584299e+001 -7.150535e+001 0.000000e+000
      vertex   -4.930583e+001 -6.285222e+001 -5.551115e-016
    endloop
  endfacet
  facet normal -9.845338e-017 -1.035511e-016 -1.000000e+000
    outer loop
      vertex   -4.930583e+001 -6.285222e+001 -5.551115e-016
      vertex   -4.584299e+001 -7.150535e+001 0.000000e+000
      vertex   -4.653388e+001 -7.084847e+001 0.000000e+000
    endloop
  endfacet
  facet normal -1.329762e-016 -1.155187e-016 -1.000000e+000
    outer loop
      vertex   -4.715908e+001 -7.012879e+001 0.000000e+000
      vertex   -4.930583e+001 -6.285222e+001 -5.551115e-016
      vertex   -4.653388e+001 -7.084847e+001 0.000000e+000
    endloop
  endfacet
  facet normal -1.821910e-016 -1.300382e-016 -1.000000e+000
    outer loop
      vertex   -4.715908e+001 -7.012879e+001 0.000000e+000
      vertex   -4.771291e+001 -6.935284e+001 0.000000e+000
      vertex   -4.930583e+001 -6.285222e+001 -5.551115e-016
    endloop
  endfacet
  facet normal -1.738029e-015 -5.112844e-016 -1.000000e+000
    outer loop
      vertex   -4.930583e+001 -6.285222e+001 -5.551115e-016
      vertex   -4.771291e+001 -6.935284e+001 0.000000e+000
      vertex   -4.930583e+001 -6.393794e+001 0.000000e+000
    endloop
  endfacet
  facet normal -0.000000e+000 -0.000000e+000 -1.000000e+000
    outer loop
      vertex   -4.930583e+001 -6.393794e+001 0.000000e+000
      vertex   -4.771291e+001 -6.935284e+001 0.000000e+000
      vertex   -4.819033e+001 -6.852768e+001 0.000000e+000
    endloop
  endfacet
  facet normal 0.000000e+000 0.000000e+000 -1.000000e+000
    outer loop
      vertex   -4.858701e+001 -6.766082e+001 0.000000e+000
      vertex   -4.930583e+001 -6.393794e+001 0.000000e+000
      vertex   -4.819033e+001 -6.852768e+001 0.000000e+000
    endloop
  endfacet
  facet normal 0.000000e+000 0.000000e+000 -1.000000e+000
    outer loop
      vertex   -4.858701e+001 -6.766082e+001 0.000000e+000
      vertex   -4.889934e+001 -6.676011e+001 0.000000e+000
      vertex   -4.930583e+001 -6.393794e+001 0.000000e+000
    endloop
  endfacet
  facet normal -0.000000e+000 -0.000000e+000 -1.000000e+000
    outer loop
      vertex   -4.930583e+001 -6.393794e+001 0.000000e+000
      vertex   -4.889934e+001 -6.676011e+001 0.000000e+000
      vertex   -4.912448e+001 -6.583376e+001 0.000000e+000
    endloop
  endfacet
  facet normal 0.000000e+000 0.000000e+000 -1.000000e+000
    outer loop
      vertex   -4.926039e+001 -6.489018e+001 0.000000e+000
      vertex   -4.930583e+001 -6.393794e+001 0.000000e+000
      vertex   -4.912448e+001 -6.583376e+001 0.000000e+000
    endloop
  endfacet
  facet normal 0.000000e+000 -0.000000e+000 -1.000000e+000
    outer loop
      vertex   -3.580583e+001 -1.285222e+001 0.000000e+000
      vertex   -2.280583e+001 -1.285222e+001 0.000000e+000
      vertex   -3.580583e+001 -6.285222e+001 0.000000e+000
    endloop
  endfacet
  facet normal 0.000000e+000 0.000000e+000 -1.000000e+000
    outer loop
      vertex   -3.580583e+001 -6.285222e+001 0.000000e+000
      vertex   -2.280583e+001 -1.285222e+001 0.000000e+000
      vertex   -2.280583e+001 -6.285222e+001 0.000000e+000
    endloop
  endfacet
  facet normal 0.000000e+000 0.000000e+000 -1.000000e+000
    outer loop
      vertex   -2.263519e+001 -7.952846e+001 0.000000e+000
      vertex   -2.280583e+001 -6.285222e+001 0.000000e+000
      vertex   -2.203284e+001 -7.875552e+001 0.000000e+000
    endloop
  endfacet
  facet normal 0.000000e+000 0.000000e+000 -1.000000e+000
    outer loop
      vertex   -2.263519e+001 -7.952846e+001 0.000000e+000
      vertex   -3.580583e+001 -6.285222e+001 0.000000e+000
      vertex   -2.280583e+001 -6.285222e+001 0.000000e+000
    endloop
  endfacet
  facet normal 0.000000e+000 0.000000e+000 -1.000000e+000
    outer loop
      vertex   -2.263519e+001 -7.952846e+001 0.000000e+000
      vertex   -3.604282e+001 -7.940083e+001 0.000000e+000
      vertex   -3.580583e+001 -6.285222e+001 0.000000e+000
    endloop
  endfacet
  facet normal -0.000000e+000 0.000000e+000 -1.000000e+000
    outer loop
      vertex   -2.263519e+001 -7.952846e+001 0.000000e+000
      vertex   -3.538611e+001 -8.008956e+001 0.000000e+000
      vertex   -3.604282e+001 -7.940083e+001 0.000000e+000
    endloop
  endfacet
  facet normal -0.000000e+000 0.000000e+000 -1.000000e+000
    outer loop
      vertex   -2.263519e+001 -7.952846e+001 0.000000e+000
      vertex   -2.331031e+001 -8.023873e+001 0.000000e+000
      vertex   -3.538611e+001 -8.008956e+001 0.000000e+000
    endloop
  endfacet
  facet normal 0.000000e+000 -0.000000e+000 -1.000000e+000
    outer loop
      vertex   -3.538611e+001 -8.008956e+001 0.000000e+000
      vertex   -2.331031e+001 -8.023873e+001 0.000000e+000
      vertex   -3.466691e+001 -8.071275e+001 0.000000e+000
    endloop
  endfacet
  facet normal 0.000000e+000 -0.000000e+000 -1.000000e+000
    outer loop
      vertex   -3.466691e+001 -8.071275e+001 0.000000e+000
      vertex   -2.331031e+001 -8.023873e+001 0.000000e+000
      vertex   -2.405170e+001 -8.087951e+001 0.000000e+000
    endloop
  endfacet
  facet normal 0.000000e+000 -0.000000e+000 -1.000000e+000
    outer loop
      vertex   -3.389173e+001 -8.126476e+001 0.000000e+000
      vertex   -2.405170e+001 -8.087951e+001 0.000000e+000
      vertex   -2.485224e+001 -8.144466e+001 0.000000e+000
    endloop
  endfacet
  facet normal 0.000000e+000 -0.000000e+000 -1.000000e+000
    outer loop
      vertex   -3.306759e+001 -8.174058e+001 0.000000e+000
      vertex   -2.485224e+001 -8.144466e+001 0.000000e+000
      vertex   -2.570426e+001 -8.192873e+001 0.000000e+000
    endloop
  endfacet
  facet normal 0.000000e+000 -0.000000e+000 -1.000000e+000
    outer loop
      vertex   -3.220195e+001 -8.213590e+001 0.000000e+000
      vertex   -2.570426e+001 -8.192873e+001 0.000000e+000
      vertex   -2.659957e+001 -8.232709e+001 0.000000e+000
    endloop
  endfacet
  facet normal 0.000000e+000 -0.000000e+000 -1.000000e+000
    outer loop
      vertex   -3.130265e+001 -8.244715e+001 0.000000e+000
      vertex   -2.659957e+001 -8.232709e+001 0.000000e+000
      vertex   -2.752957e+001 -8.263591e+001 0.000000e+000
    endloop
  endfacet
  facet normal 0.000000e+000 -0.000000e+000 -1.000000e+000
    outer loop
      vertex   -3.037784e+001 -8.267151e+001 0.000000e+000
      vertex   -2.752957e+001 -8.263591e+001 0.000000e+000
      vertex   -2.848532e+001 -8.285222e+001 0.000000e+000
    endloop
  endfacet
  facet normal 0.000000e+000 0.000000e+000 -1.000000e+000
    outer loop
      vertex   -2.943589e+001 -8.280694e+001 0.000000e+000
      vertex   -3.037784e+001 -8.267151e+001 0.000000e+000
      vertex   -2.848532e+001 -8.285222e+001 0.000000e+000
    endloop
  endfacet
  facet normal -4.111937e-017 -4.132239e-017 -1.000000e+000
    outer loop
      vertex   -9.305833e+000 -6.285222e+001 -5.551115e-016
      vertex   -1.351898e+001 -7.209345e+001 0.000000e+000
      vertex   -2.280583e+001 -6.285222e+001 0.000000e+000
    endloop
  endfacet
  facet normal 7.326493e-017 -9.347105e-017 -1.000000e+000
    outer loop
      vertex   -9.305833e+000 -6.285222e+001 -5.551115e-016
      vertex   -1.276868e+001 -7.150535e+001 0.000000e+000
      vertex   -1.351898e+001 -7.209345e+001 0.000000e+000
    endloop
  endfacet
  facet normal 9.845338e-017 -1.035511e-016 -1.000000e+000
    outer loop
      vertex   -9.305833e+000 -6.285222e+001 -5.551115e-016
      vertex   -1.207779e+001 -7.084847e+001 0.000000e+000
      vertex   -1.276868e+001 -7.150535e+001 0.000000e+000
    endloop
  endfacet
  facet normal 1.329762e-016 -1.155187e-016 -1.000000e+000
    outer loop
      vertex   -9.305833e+000 -6.285222e+001 -5.551115e-016
      vertex   -1.145259e+001 -7.012879e+001 0.000000e+000
      vertex   -1.207779e+001 -7.084847e+001 0.000000e+000
    endloop
  endfacet
  facet normal 1.821910e-016 -1.300382e-016 -1.000000e+000
    outer loop
      vertex   -9.305833e+000 -6.285222e+001 -5.551115e-016
      vertex   -1.089876e+001 -6.935284e+001 0.000000e+000
      vertex   -1.145259e+001 -7.012879e+001 0.000000e+000
    endloop
  endfacet
  facet normal 1.738029e-015 -5.112844e-016 -1.000000e+000
    outer loop
      vertex   -9.305833e+000 -6.285222e+001 -5.551115e-016
      vertex   -9.305833e+000 -6.393794e+001 0.000000e+000
      vertex   -1.089876e+001 -6.935284e+001 0.000000e+000
    endloop
  endfacet
  facet normal 0.000000e+000 -0.000000e+000 -1.000000e+000
    outer loop
      vertex   -1.089876e+001 -6.935284e+001 0.000000e+000
      vertex   -9.305833e+000 -6.393794e+001 0.000000e+000
      vertex   -1.042134e+001 -6.852768e+001 0.000000e+000
    endloop
  endfacet
  facet normal 0.000000e+000 -0.000000e+000 -1.000000e+000
    outer loop
      vertex   -1.042134e+001 -6.852768e+001 0.000000e+000
      vertex   -9.305833e+000 -6.393794e+001 0.000000e+000
      vertex   -1.002466e+001 -6.766082e+001 0.000000e+000
    endloop
  endfacet
  facet normal 0.000000e+000 -0.000000e+000 -1.000000e+000
    outer loop
      vertex   -1.002466e+001 -6.766082e+001 0.000000e+000
      vertex   -9.305833e+000 -6.393794e+001 0.000000e+000
      vertex   -9.712327e+000 -6.676011e+001 0.000000e+000
    endloop
  endfacet
  facet normal 0.000000e+000 -0.000000e+000 -1.000000e+000
    outer loop
      vertex   -9.712327e+000 -6.676011e+001 0.000000e+000
      vertex   -9.305833e+000 -6.393794e+001 0.000000e+000
      vertex   -9.487183e+000 -6.583376e+001 0.000000e+000
    endloop
  endfacet
  facet normal 0.000000e+000 -0.000000e+000 -1.000000e+000
    outer loop
      vertex   -9.487183e+000 -6.583376e+001 0.000000e+000
      vertex   -9.305833e+000 -6.393794e+001 0.000000e+000
      vertex   -9.351274e+000 -6.489018e+001 0.000000e+000
    endloop
  endfacet
  facet normal -0.000000e+000 0.000000e+000 -1.000000e+000
    outer loop
      vertex   -1.351898e+001 -7.209345e+001 0.000000e+000
      vertex   -1.432187e+001 -7.260744e+001 0.000000e+000
      vertex   -2.280583e+001 -6.285222e+001 0.000000e+000
    endloop
  endfacet
  facet normal 0.000000e+000 -0.000000e+000 -1.000000e+000
    outer loop
      vertex   -2.280583e+001 -6.285222e+001 0.000000e+000
      vertex   -1.432187e+001 -7.260744e+001 0.000000e+000
      vertex   -1.517006e+001 -7.304263e+001 0.000000e+000
    endloop
  endfacet
  facet normal 0.000000e+000 0.000000e+000 -1.000000e+000
    outer loop
      vertex   -1.605583e+001 -7.339508e+001 0.000000e+000
      vertex   -2.280583e+001 -6.285222e+001 0.000000e+000
      vertex   -1.517006e+001 -7.304263e+001 0.000000e+000
    endloop
  endfacet
  facet normal -0.000000e+000 0.000000e+000 -1.000000e+000
    outer loop
      vertex   -1.605583e+001 -7.339508e+001 0.000000e+000
      vertex   -1.689819e+001 -7.372794e+001 0.000000e+000
      vertex   -2.280583e+001 -6.285222e+001 0.000000e+000
    endloop
  endfacet
  facet normal 0.000000e+000 -0.000000e+000 -1.000000e+000
    outer loop
      vertex   -2.280583e+001 -6.285222e+001 0.000000e+000
      vertex   -1.689819e+001 -7.372794e+001 0.000000e+000
      vertex   -1.770698e+001 -7.413564e+001 0.000000e+000
    endloop
  endfacet
  facet normal 0.000000e+000 0.000000e+000 -1.000000e+000
    outer loop
      vertex   -1.847556e+001 -7.461486e+001 0.000000e+000
      vertex   -2.280583e+001 -6.285222e+001 0.000000e+000
      vertex   -1.770698e+001 -7.413564e+001 0.000000e+000
    endloop
  endfacet
  facet normal -0.000000e+000 0.000000e+000 -1.000000e+000
    outer loop
      vertex   -1.847556e+001 -7.461486e+001 0.000000e+000
      vertex   -1.919763e+001 -7.516165e+001 0.000000e+000
      vertex   -2.280583e+001 -6.285222e+001 0.000000e+000
    endloop
  endfacet
  facet normal 0.000000e+000 -0.000000e+000 -1.000000e+000
    outer loop
      vertex   -2.280583e+001 -6.285222e+001 0.000000e+000
      vertex   -1.919763e+001 -7.516165e+001 0.000000e+000
      vertex   -1.986726e+001 -7.577153e+001 0.000000e+000
    endloop
  endfacet
  facet normal 0.000000e+000 0.000000e+000 -1.000000e+000
    outer loop
      vertex   -2.047896e+001 -7.643949e+001 0.000000e+000
      vertex   -2.280583e+001 -6.285222e+001 0.000000e+000
      vertex   -1.986726e+001 -7.577153e+001 0.000000e+000
    endloop
  endfacet
  facet normal -0.000000e+000 0.000000e+000 -1.000000e+000
    outer loop
      vertex   -2.047896e+001 -7.643949e+001 0.000000e+000
      vertex   -2.102772e+001 -7.716007e+001 0.000000e+000
      vertex   -2.280583e+001 -6.285222e+001 0.000000e+000
    endloop
  endfacet
  facet normal 0.000000e+000 -0.000000e+000 -1.000000e+000
    outer loop
      vertex   -2.280583e+001 -6.285222e+001 0.000000e+000
      vertex   -2.102772e+001 -7.716007e+001 0.000000e+000
      vertex   -2.150902e+001 -7.792734e+001 0.000000e+000
    endloop
  endfacet
  facet normal 0.000000e+000 0.000000e+000 -1.000000e+000
    outer loop
      vertex   -2.203284e+001 -7.875552e+001 0.000000e+000
      vertex   -2.280583e+001 -6.285222e+001 0.000000e+000
      vertex   -2.150902e+001 -7.792734e+001 0.000000e+000
    endloop
  endfacet
  facet normal 0.000000e+000 -0.000000e+000 -1.000000e+000
    outer loop
      vertex   -3.466691e+001 -8.071275e+001 0.000000e+000
      vertex   -2.405170e+001 -8.087951e+001 0.000000e+000
      vertex   -3.389173e+001 -8.126476e+001 0.000000e+000
    endloop
  endfacet
  facet normal 0.000000e+000 -0.000000e+000 -1.000000e+000
    outer loop
      vertex   -3.389173e+001 -8.126476e+001 0.000000e+000
      vertex   -2.485224e+001 -8.144466e+001 0.000000e+000
      vertex   -3.306759e+001 -8.174058e+001 0.000000e+000
    endloop
  endfacet
  facet normal 0.000000e+000 -0.000000e+000 -1.000000e+000
    outer loop
      vertex   -3.306759e+001 -8.174058e+001 0.000000e+000
      vertex   -2.570426e+001 -8.192873e+001 0.000000e+000
      vertex   -3.220195e+001 -8.213590e+001 0.000000e+000
    endloop
  endfacet
  facet normal 0.000000e+000 -0.000000e+000 -1.000000e+000
    outer loop
      vertex   -3.220195e+001 -8.213590e+001 0.000000e+000
      vertex   -2.659957e+001 -8.232709e+001 0.000000e+000
      vertex   -3.130265e+001 -8.244715e+001 0.000000e+000
    endloop
  endfacet
  facet normal 0.000000e+000 -0.000000e+000 -1.000000e+000
    outer loop
      vertex   -3.130265e+001 -8.244715e+001 0.000000e+000
      vertex   -2.752957e+001 -8.263591e+001 0.000000e+000
      vertex   -3.037784e+001 -8.267151e+001 0.000000e+000
    endloop
  endfacet
  facet normal 0.000000e+000 0.000000e+000 -1.000000e+000
    outer loop
      vertex   -3.604282e+001 -7.940083e+001 0.000000e+000
      vertex   -3.663108e+001 -7.865279e+001 0.000000e+000
      vertex   -3.580583e+001 -6.285222e+001 0.000000e+000
    endloop
  endfacet
  facet normal -0.000000e+000 0.000000e+000 -1.000000e+000
    outer loop
      vertex   -3.580583e+001 -6.285222e+001 0.000000e+000
      vertex   -3.663108e+001 -7.865279e+001 0.000000e+000
      vertex   -3.714558e+001 -7.785222e+001 0.000000e+000
    endloop
  endfacet
  facet normal 0.000000e+000 -0.000000e+000 -1.000000e+000
    outer loop
      vertex   -3.762728e+001 -7.709799e+001 0.000000e+000
      vertex   -3.580583e+001 -6.285222e+001 0.000000e+000
      vertex   -3.714558e+001 -7.785222e+001 0.000000e+000
    endloop
  endfacet
  facet normal 0.000000e+000 0.000000e+000 -1.000000e+000
    outer loop
      vertex   -3.762728e+001 -7.709799e+001 0.000000e+000
      vertex   -3.817448e+001 -7.638984e+001 0.000000e+000
      vertex   -3.580583e+001 -6.285222e+001 0.000000e+000
    endloop
  endfacet
  facet normal -0.000000e+000 0.000000e+000 -1.000000e+000
    outer loop
      vertex   -3.580583e+001 -6.285222e+001 0.000000e+000
      vertex   -3.817448e+001 -7.638984e+001 0.000000e+000
      vertex   -3.878280e+001 -7.573344e+001 0.000000e+000
    endloop
  endfacet
  facet normal 0.000000e+000 -0.000000e+000 -1.000000e+000
    outer loop
      vertex   -3.944737e+001 -7.513407e+001 0.000000e+000
      vertex   -3.580583e+001 -6.285222e+001 0.000000e+000
      vertex   -3.878280e+001 -7.573344e+001 0.000000e+000
    endloop
  endfacet
  facet normal 0.000000e+000 0.000000e+000 -1.000000e+000
    outer loop
      vertex   -3.944737e+001 -7.513407e+001 0.000000e+000
      vertex   -4.016286e+001 -7.459650e+001 0.000000e+000
      vertex   -3.580583e+001 -6.285222e+001 0.000000e+000
    endloop
  endfacet
  facet normal 9.988633e-001 -4.766595e-002 0.000000e+000
    outer loop
      vertex   -9.305833e+000 -6.393794e+001 0.000000e+000
      vertex   -9.305833e+000 -6.393794e+001 1.900000e+000
      vertex   -9.351274e+000 -6.489018e+001 0.000000e+000
    endloop
  endfacet
  facet normal 9.988633e-001 -4.766595e-002 3.562717e-016
    outer loop
      vertex   -9.351274e+000 -6.489018e+001 0.000000e+000
      vertex   -9.305833e+000 -6.393794e+001 1.900000e+000
      vertex   -9.351274e+000 -6.489018e+001 1.900000e+000
    endloop
  endfacet
  facet normal 9.897855e-001 -1.425647e-001 0.000000e+000
    outer loop
      vertex   -9.487183e+000 -6.583376e+001 0.000000e+000
      vertex   -9.351274e+000 -6.489018e+001 1.900000e+000
      vertex   -9.487183e+000 -6.583376e+001 1.900000e+000
    endloop
  endfacet
  facet normal 9.717123e-001 -2.361677e-001 0.000000e+000
    outer loop
      vertex   -9.712327e+000 -6.676011e+001 0.000000e+000
      vertex   -9.487183e+000 -6.583376e+001 1.900000e+000
      vertex   -9.712327e+000 -6.676011e+001 1.900000e+000
    endloop
  endfacet
  facet normal 9.448080e-001 -3.276245e-001 0.000000e+000
    outer loop
      vertex   -1.002466e+001 -6.766082e+001 0.000000e+000
      vertex   -9.712327e+000 -6.676011e+001 1.900000e+000
      vertex   -1.002466e+001 -6.766082e+001 1.900000e+000
    endloop
  endfacet
  facet normal 9.093172e-001 -4.161037e-001 0.000000e+000
    outer loop
      vertex   -1.042134e+001 -6.852768e+001 0.000000e+000
      vertex   -1.002466e+001 -6.766082e+001 1.900000e+000
      vertex   -1.042134e+001 -6.852768e+001 1.900000e+000
    endloop
  endfacet
  facet normal 8.655623e-001 -5.008013e-001 0.000000e+000
    outer loop
      vertex   -1.089876e+001 -6.935284e+001 0.000000e+000
      vertex   -1.042134e+001 -6.852768e+001 1.900000e+000
      vertex   -1.089876e+001 -6.935284e+001 1.900000e+000
    endloop
  endfacet
  facet normal 8.139410e-001 -5.809475e-001 0.000000e+000
    outer loop
      vertex   -1.145259e+001 -7.012879e+001 0.000000e+000
      vertex   -1.089876e+001 -6.935284e+001 1.900000e+000
      vertex   -1.145259e+001 -7.012879e+001 1.900000e+000
    endloop
  endfacet
  facet normal 7.549225e-001 -6.558140e-001 0.000000e+000
    outer loop
      vertex   -1.207779e+001 -7.084847e+001 0.000000e+000
      vertex   -1.145259e+001 -7.012879e+001 1.900000e+000
      vertex   -1.207779e+001 -7.084847e+001 1.900000e+000
    endloop
  endfacet
  facet normal 6.890432e-001 -7.247203e-001 0.000000e+000
    outer loop
      vertex   -1.276868e+001 -7.150535e+001 0.000000e+000
      vertex   -1.207779e+001 -7.084847e+001 1.900000e+000
      vertex   -1.276868e+001 -7.150535e+001 1.900000e+000
    endloop
  endfacet
  facet normal 6.169016e-001 -7.870402e-001 0.000000e+000
    outer loop
      vertex   -1.351898e+001 -7.209345e+001 0.000000e+000
      vertex   -1.276868e+001 -7.150535e+001 1.900000e+000
      vertex   -1.351898e+001 -7.209345e+001 1.900000e+000
    endloop
  endfacet
  facet normal 5.391536e-001 -8.422074e-001 0.000000e+000
    outer loop
      vertex   -1.432187e+001 -7.260744e+001 0.000000e+000
      vertex   -1.351898e+001 -7.209345e+001 1.900000e+000
      vertex   -1.432187e+001 -7.260744e+001 1.900000e+000
    endloop
  endfacet
  facet normal 4.565057e-001 -8.897205e-001 -4.290584e-016
    outer loop
      vertex   -1.517006e+001 -7.304263e+001 0.000000e+000
      vertex   -1.432187e+001 -7.260744e+001 1.900000e+000
      vertex   -1.517006e+001 -7.304263e+001 1.900000e+000
    endloop
  endfacet
  facet normal 3.697089e-001 -9.291476e-001 0.000000e+000
    outer loop
      vertex   -1.605583e+001 -7.339508e+001 0.000000e+000
      vertex   -1.517006e+001 -7.304263e+001 1.900000e+000
      vertex   -1.605583e+001 -7.339508e+001 1.900000e+000
    endloop
  endfacet
  facet normal 3.697089e-001 -9.291476e-001 -3.456500e-016
    outer loop
      vertex   -1.605583e+001 -7.339508e+001 0.000000e+000
      vertex   -1.517006e+001 -7.304263e+001 0.000000e+000
      vertex   -1.517006e+001 -7.304263e+001 1.900000e+000
    endloop
  endfacet
  facet normal 9.897855e-001 -1.425647e-001 1.066298e-015
    outer loop
      vertex   -9.351274e+000 -6.489018e+001 0.000000e+000
      vertex   -9.351274e+000 -6.489018e+001 1.900000e+000
      vertex   -9.487183e+000 -6.583376e+001 0.000000e+000
    endloop
  endfacet
  facet normal 9.717123e-001 -2.361677e-001 0.000000e+000
    outer loop
      vertex   -9.487183e+000 -6.583376e+001 0.000000e+000
      vertex   -9.487183e+000 -6.583376e+001 1.900000e+000
      vertex   -9.712327e+000 -6.676011e+001 0.000000e+000
    endloop
  endfacet
  facet normal 9.448080e-001 -3.276245e-001 0.000000e+000
    outer loop
      vertex   -9.712327e+000 -6.676011e+001 0.000000e+000
      vertex   -9.712327e+000 -6.676011e+001 1.900000e+000
      vertex   -1.002466e+001 -6.766082e+001 0.000000e+000
    endloop
  endfacet
  facet normal 9.093172e-001 -4.161037e-001 0.000000e+000
    outer loop
      vertex   -1.002466e+001 -6.766082e+001 0.000000e+000
      vertex   -1.002466e+001 -6.766082e+001 1.900000e+000
      vertex   -1.042134e+001 -6.852768e+001 0.000000e+000
    endloop
  endfacet
  facet normal 8.655623e-001 -5.008013e-001 0.000000e+000
    outer loop
      vertex   -1.042134e+001 -6.852768e+001 0.000000e+000
      vertex   -1.042134e+001 -6.852768e+001 1.900000e+000
      vertex   -1.089876e+001 -6.935284e+001 0.000000e+000
    endloop
  endfacet
  facet normal 8.139410e-001 -5.809475e-001 0.000000e+000
    outer loop
      vertex   -1.089876e+001 -6.935284e+001 0.000000e+000
      vertex   -1.089876e+001 -6.935284e+001 1.900000e+000
      vertex   -1.145259e+001 -7.012879e+001 0.000000e+000
    endloop
  endfacet
  facet normal 7.549225e-001 -6.558140e-001 0.000000e+000
    outer loop
      vertex   -1.145259e+001 -7.012879e+001 0.000000e+000
      vertex   -1.145259e+001 -7.012879e+001 1.900000e+000
      vertex   -1.207779e+001 -7.084847e+001 0.000000e+000
    endloop
  endfacet
  facet normal 6.890432e-001 -7.247203e-001 0.000000e+000
    outer loop
      vertex   -1.207779e+001 -7.084847e+001 0.000000e+000
      vertex   -1.207779e+001 -7.084847e+001 1.900000e+000
      vertex   -1.276868e+001 -7.150535e+001 0.000000e+000
    endloop
  endfacet
  facet normal 6.169016e-001 -7.870402e-001 0.000000e+000
    outer loop
      vertex   -1.276868e+001 -7.150535e+001 0.000000e+000
      vertex   -1.276868e+001 -7.150535e+001 1.900000e+000
      vertex   -1.351898e+001 -7.209345e+001 0.000000e+000
    endloop
  endfacet
  facet normal 5.391536e-001 -8.422074e-001 0.000000e+000
    outer loop
      vertex   -1.351898e+001 -7.209345e+001 0.000000e+000
      vertex   -1.351898e+001 -7.209345e+001 1.900000e+000
      vertex   -1.432187e+001 -7.260744e+001 0.000000e+000
    endloop
  endfacet
  facet normal 4.565057e-001 -8.897205e-001 0.000000e+000
    outer loop
      vertex   -1.432187e+001 -7.260744e+001 0.000000e+000
      vertex   -1.432187e+001 -7.260744e+001 1.900000e+000
      vertex   -1.517006e+001 -7.304263e+001 0.000000e+000
    endloop
  endfacet
  facet normal 3.674950e-001 -9.300255e-001 0.000000e+000
    outer loop
      vertex   -1.605583e+001 -7.339508e+001 1.900000e+000
      vertex   -1.689819e+001 -7.372794e+001 1.900000e+000
      vertex   -1.605583e+001 -7.339508e+001 0.000000e+000
    endloop
  endfacet
  facet normal 3.674950e-001 -9.300255e-001 6.956030e-015
    outer loop
      vertex   -1.605583e+001 -7.339508e+001 0.000000e+000
      vertex   -1.689819e+001 -7.372794e+001 1.900000e+000
      vertex   -1.689819e+001 -7.372794e+001 0.000000e+000
    endloop
  endfacet
  facet normal 4.501371e-001 -8.929594e-001 6.678798e-015
    outer loop
      vertex   -1.689819e+001 -7.372794e+001 0.000000e+000
      vertex   -1.689819e+001 -7.372794e+001 1.900000e+000
      vertex   -1.770698e+001 -7.413564e+001 1.900000e+000
    endloop
  endfacet
  facet normal 5.290865e-001 -8.485679e-001 0.000000e+000
    outer loop
      vertex   -1.770698e+001 -7.413564e+001 0.000000e+000
      vertex   -1.770698e+001 -7.413564e+001 1.900000e+000
      vertex   -1.847556e+001 -7.461486e+001 1.900000e+000
    endloop
  endfacet
  facet normal 6.036954e-001 -7.972150e-001 0.000000e+000
    outer loop
      vertex   -1.847556e+001 -7.461486e+001 0.000000e+000
      vertex   -1.847556e+001 -7.461486e+001 1.900000e+000
      vertex   -1.919763e+001 -7.516165e+001 1.900000e+000
    endloop
  endfacet
  facet normal 6.733519e-001 -7.393221e-001 0.000000e+000
    outer loop
      vertex   -1.919763e+001 -7.516165e+001 0.000000e+000
      vertex   -1.919763e+001 -7.516165e+001 1.900000e+000
      vertex   -1.986726e+001 -7.577153e+001 0.000000e+000
    endloop
  endfacet
  facet normal 6.036954e-001 -7.972150e-001 0.000000e+000
    outer loop
      vertex   -1.919763e+001 -7.516165e+001 0.000000e+000
      vertex   -1.847556e+001 -7.461486e+001 0.000000e+000
      vertex   -1.919763e+001 -7.516165e+001 1.900000e+000
    endloop
  endfacet
  facet normal 4.501371e-001 -8.929594e-001 0.000000e+000
    outer loop
      vertex   -1.689819e+001 -7.372794e+001 0.000000e+000
      vertex   -1.770698e+001 -7.413564e+001 1.900000e+000
      vertex   -1.770698e+001 -7.413564e+001 0.000000e+000
    endloop
  endfacet
  facet normal 5.290865e-001 -8.485679e-001 0.000000e+000
    outer loop
      vertex   -1.770698e+001 -7.413564e+001 0.000000e+000
      vertex   -1.847556e+001 -7.461486e+001 1.900000e+000
      vertex   -1.847556e+001 -7.461486e+001 0.000000e+000
    endloop
  endfacet
  facet normal 6.733519e-001 -7.393221e-001 0.000000e+000
    outer loop
      vertex   -1.919763e+001 -7.516165e+001 1.900000e+000
      vertex   -1.986726e+001 -7.577153e+001 1.900000e+000
      vertex   -1.986726e+001 -7.577153e+001 0.000000e+000
    endloop
  endfacet
  facet normal 7.374844e-001 -6.753641e-001 0.000000e+000
    outer loop
      vertex   -1.986726e+001 -7.577153e+001 0.000000e+000
      vertex   -1.986726e+001 -7.577153e+001 1.900000e+000
      vertex   -2.047896e+001 -7.643949e+001 1.900000e+000
    endloop
  endfacet
  facet normal 7.955669e-001 -6.058657e-001 0.000000e+000
    outer loop
      vertex   -2.047896e+001 -7.643949e+001 0.000000e+000
      vertex   -2.047896e+001 -7.643949e+001 1.900000e+000
      vertex   -2.102772e+001 -7.716007e+001 1.900000e+000
    endloop
  endfacet
  facet normal 8.471229e-001 -5.313970e-001 0.000000e+000
    outer loop
      vertex   -2.102772e+001 -7.716007e+001 0.000000e+000
      vertex   -2.102772e+001 -7.716007e+001 1.900000e+000
      vertex   -2.150902e+001 -7.792734e+001 1.900000e+000
    endloop
  endfacet
  facet normal 8.471229e-001 -5.313970e-001 0.000000e+000
    outer loop
      vertex   -2.150902e+001 -7.792734e+001 0.000000e+000
      vertex   -2.102772e+001 -7.716007e+001 0.000000e+000
      vertex   -2.150902e+001 -7.792734e+001 1.900000e+000
    endloop
  endfacet
  facet normal 7.374844e-001 -6.753641e-001 0.000000e+000
    outer loop
      vertex   -1.986726e+001 -7.577153e+001 0.000000e+000
      vertex   -2.047896e+001 -7.643949e+001 1.900000e+000
      vertex   -2.047896e+001 -7.643949e+001 0.000000e+000
    endloop
  endfacet
  facet normal 7.955669e-001 -6.058657e-001 0.000000e+000
    outer loop
      vertex   -2.047896e+001 -7.643949e+001 0.000000e+000
      vertex   -2.102772e+001 -7.716007e+001 1.900000e+000
      vertex   -2.102772e+001 -7.716007e+001 0.000000e+000
    endloop
  endfacet
  facet normal 2.207421e-001 -9.753322e-001 0.000000e+000
    outer loop
      vertex   -2.848532e+001 -8.285222e+001 1.900000e+000
      vertex   -2.848532e+001 -8.285222e+001 0.000000e+000
      vertex   -2.752957e+001 -8.263591e+001 1.900000e+000
    endloop
  endfacet
  facet normal 2.207421e-001 -9.753322e-001 0.000000e+000
    outer loop
      vertex   -2.752957e+001 -8.263591e+001 1.900000e+000
      vertex   -2.848532e+001 -8.285222e+001 0.000000e+000
      vertex   -2.752957e+001 -8.263591e+001 0.000000e+000
    endloop
  endfacet
  facet normal 3.151432e-001 -9.490441e-001 0.000000e+000
    outer loop
      vertex   -2.659957e+001 -8.232709e+001 1.900000e+000
      vertex   -2.752957e+001 -8.263591e+001 0.000000e+000
      vertex   -2.659957e+001 -8.232709e+001 0.000000e+000
    endloop
  endfacet
  facet normal 4.065182e-001 -9.136427e-001 0.000000e+000
    outer loop
      vertex   -2.570426e+001 -8.192873e+001 1.900000e+000
      vertex   -2.659957e+001 -8.232709e+001 0.000000e+000
      vertex   -2.570426e+001 -8.192873e+001 0.000000e+000
    endloop
  endfacet
  facet normal 4.939895e-001 -8.694679e-001 0.000000e+000
    outer loop
      vertex   -2.485224e+001 -8.144466e+001 1.900000e+000
      vertex   -2.570426e+001 -8.192873e+001 0.000000e+000
      vertex   -2.485224e+001 -8.144466e+001 0.000000e+000
    endloop
  endfacet
  facet normal 5.767172e-001 -8.169439e-001 0.000000e+000
    outer loop
      vertex   -2.405170e+001 -8.087951e+001 1.900000e+000
      vertex   -2.485224e+001 -8.144466e+001 0.000000e+000
      vertex   -2.405170e+001 -8.087951e+001 0.000000e+000
    endloop
  endfacet
  facet normal 6.539068e-001 -7.565751e-001 0.000000e+000
    outer loop
      vertex   -2.331031e+001 -8.023873e+001 1.900000e+000
      vertex   -2.405170e+001 -8.087951e+001 0.000000e+000
      vertex   -2.331031e+001 -8.023873e+001 0.000000e+000
    endloop
  endfacet
  facet normal 7.248173e-001 -6.889411e-001 -1.341664e-015
    outer loop
      vertex   -2.263519e+001 -7.952846e+001 1.900000e+000
      vertex   -2.331031e+001 -8.023873e+001 0.000000e+000
      vertex   -2.263519e+001 -7.952846e+001 0.000000e+000
    endloop
  endfacet
  facet normal 7.887676e-001 -6.146916e-001 0.000000e+000
    outer loop
      vertex   -2.203284e+001 -7.875552e+001 1.900000e+000
      vertex   -2.263519e+001 -7.952846e+001 0.000000e+000
      vertex   -2.203284e+001 -7.875552e+001 0.000000e+000
    endloop
  endfacet
  facet normal 8.451436e-001 -5.345393e-001 0.000000e+000
    outer loop
      vertex   -2.150902e+001 -7.792734e+001 1.900000e+000
      vertex   -2.203284e+001 -7.875552e+001 0.000000e+000
      vertex   -2.150902e+001 -7.792734e+001 0.000000e+000
    endloop
  endfacet
  facet normal 8.451436e-001 -5.345393e-001 0.000000e+000
    outer loop
      vertex   -2.150902e+001 -7.792734e+001 1.900000e+000
      vertex   -2.203284e+001 -7.875552e+001 1.900000e+000
      vertex   -2.203284e+001 -7.875552e+001 0.000000e+000
    endloop
  endfacet
  facet normal 3.151432e-001 -9.490441e-001 0.000000e+000
    outer loop
      vertex   -2.752957e+001 -8.263591e+001 1.900000e+000
      vertex   -2.752957e+001 -8.263591e+001 0.000000e+000
      vertex   -2.659957e+001 -8.232709e+001 1.900000e+000
    endloop
  endfacet
  facet normal 4.065182e-001 -9.136427e-001 0.000000e+000
    outer loop
      vertex   -2.659957e+001 -8.232709e+001 1.900000e+000
      vertex   -2.659957e+001 -8.232709e+001 0.000000e+000
      vertex   -2.570426e+001 -8.192873e+001 1.900000e+000
    endloop
  endfacet
  facet normal 4.939895e-001 -8.694679e-001 0.000000e+000
    outer loop
      vertex   -2.570426e+001 -8.192873e+001 1.900000e+000
      vertex   -2.570426e+001 -8.192873e+001 0.000000e+000
      vertex   -2.485224e+001 -8.144466e+001 1.900000e+000
    endloop
  endfacet
  facet normal 5.767172e-001 -8.169439e-001 0.000000e+000
    outer loop
      vertex   -2.485224e+001 -8.144466e+001 1.900000e+000
      vertex   -2.485224e+001 -8.144466e+001 0.000000e+000
      vertex   -2.405170e+001 -8.087951e+001 1.900000e+000
    endloop
  endfacet
  facet normal 6.539068e-001 -7.565751e-001 0.000000e+000
    outer loop
      vertex   -2.405170e+001 -8.087951e+001 1.900000e+000
      vertex   -2.405170e+001 -8.087951e+001 0.000000e+000
      vertex   -2.331031e+001 -8.023873e+001 1.900000e+000
    endloop
  endfacet
  facet normal 7.248173e-001 -6.889411e-001 0.000000e+000
    outer loop
      vertex   -2.331031e+001 -8.023873e+001 1.900000e+000
      vertex   -2.331031e+001 -8.023873e+001 0.000000e+000
      vertex   -2.263519e+001 -7.952846e+001 1.900000e+000
    endloop
  endfacet
  facet normal 7.887676e-001 -6.146916e-001 -1.474876e-015
    outer loop
      vertex   -2.263519e+001 -7.952846e+001 1.900000e+000
      vertex   -2.263519e+001 -7.952846e+001 0.000000e+000
      vertex   -2.203284e+001 -7.875552e+001 1.900000e+000
    endloop
  endfacet
  facet normal -4.758192e-002 -9.988673e-001 0.000000e+000
    outer loop
      vertex   -2.848532e+001 -8.285222e+001 1.900000e+000
      vertex   -2.943589e+001 -8.280694e+001 1.900000e+000
      vertex   -2.848532e+001 -8.285222e+001 0.000000e+000
    endloop
  endfacet
  facet normal -4.758192e-002 -9.988673e-001 -0.000000e+000
    outer loop
      vertex   -2.848532e+001 -8.285222e+001 0.000000e+000
      vertex   -2.943589e+001 -8.280694e+001 1.900000e+000
      vertex   -2.943589e+001 -8.280694e+001 0.000000e+000
    endloop
  endfacet
  facet normal -1.423148e-001 -9.898214e-001 0.000000e+000
    outer loop
      vertex   -2.943589e+001 -8.280694e+001 0.000000e+000
      vertex   -2.943589e+001 -8.280694e+001 1.900000e+000
      vertex   -3.037784e+001 -8.267151e+001 1.900000e+000
    endloop
  endfacet
  facet normal -2.357589e-001 -9.718116e-001 0.000000e+000
    outer loop
      vertex   -3.037784e+001 -8.267151e+001 0.000000e+000
      vertex   -3.037784e+001 -8.267151e+001 1.900000e+000
      vertex   -3.130265e+001 -8.244715e+001 1.900000e+000
    endloop
  endfacet
  facet normal -3.270680e-001 -9.450008e-001 0.000000e+000
    outer loop
      vertex   -3.130265e+001 -8.244715e+001 0.000000e+000
      vertex   -3.130265e+001 -8.244715e+001 1.900000e+000
      vertex   -3.220195e+001 -8.213590e+001 1.900000e+000
    endloop
  endfacet
  facet normal -4.154150e-001 -9.096320e-001 0.000000e+000
    outer loop
      vertex   -3.220195e+001 -8.213590e+001 0.000000e+000
      vertex   -3.220195e+001 -8.213590e+001 1.900000e+000
      vertex   -3.306759e+001 -8.174058e+001 1.900000e+000
    endloop
  endfacet
  facet normal -5.000000e-001 -8.660254e-001 0.000000e+000
    outer loop
      vertex   -3.306759e+001 -8.174058e+001 0.000000e+000
      vertex   -3.306759e+001 -8.174058e+001 1.900000e+000
      vertex   -3.389173e+001 -8.126476e+001 1.900000e+000
    endloop
  endfacet
  facet normal -5.800569e-001 -8.145760e-001 0.000000e+000
    outer loop
      vertex   -3.389173e+001 -8.126476e+001 0.000000e+000
      vertex   -3.389173e+001 -8.126476e+001 1.900000e+000
      vertex   -3.466691e+001 -8.071275e+001 1.900000e+000
    endloop
  endfacet
  facet normal -6.548607e-001 -7.557496e-001 0.000000e+000
    outer loop
      vertex   -3.466691e+001 -8.071275e+001 0.000000e+000
      vertex   -3.466691e+001 -8.071275e+001 1.900000e+000
      vertex   -3.538611e+001 -8.008956e+001 1.900000e+000
    endloop
  endfacet
  facet normal -7.237340e-001 -6.900790e-001 0.000000e+000
    outer loop
      vertex   -3.538611e+001 -8.008956e+001 0.000000e+000
      vertex   -3.538611e+001 -8.008956e+001 1.900000e+000
      vertex   -3.604282e+001 -7.940083e+001 1.900000e+000
    endloop
  endfacet
  facet normal -7.860531e-001 -6.181590e-001 0.000000e+000
    outer loop
      vertex   -3.604282e+001 -7.940083e+001 0.000000e+000
      vertex   -3.604282e+001 -7.940083e+001 1.900000e+000
      vertex   -3.663108e+001 -7.865279e+001 1.900000e+000
    endloop
  endfacet
  facet normal -8.412535e-001 -5.406408e-001 0.000000e+000
    outer loop
      vertex   -3.663108e+001 -7.865279e+001 0.000000e+000
      vertex   -3.663108e+001 -7.865279e+001 1.900000e+000
      vertex   -3.714558e+001 -7.785222e+001 1.900000e+000
    endloop
  endfacet
  facet normal -8.412535e-001 -5.406408e-001 0.000000e+000
    outer loop
      vertex   -3.714558e+001 -7.785222e+001 0.000000e+000
      vertex   -3.663108e+001 -7.865279e+001 0.000000e+000
      vertex   -3.714558e+001 -7.785222e+001 1.900000e+000
    endloop
  endfacet
  facet normal -1.423148e-001 -9.898214e-001 -0.000000e+000
    outer loop
      vertex   -2.943589e+001 -8.280694e+001 0.000000e+000
      vertex   -3.037784e+001 -8.267151e+001 1.900000e+000
      vertex   -3.037784e+001 -8.267151e+001 0.000000e+000
    endloop
  endfacet
  facet normal -2.357589e-001 -9.718116e-001 -0.000000e+000
    outer loop
      vertex   -3.037784e+001 -8.267151e+001 0.000000e+000
      vertex   -3.130265e+001 -8.244715e+001 1.900000e+000
      vertex   -3.130265e+001 -8.244715e+001 0.000000e+000
    endloop
  endfacet
  facet normal -3.270680e-001 -9.450008e-001 -0.000000e+000
    outer loop
      vertex   -3.130265e+001 -8.244715e+001 0.000000e+000
      vertex   -3.220195e+001 -8.213590e+001 1.900000e+000
      vertex   -3.220195e+001 -8.213590e+001 0.000000e+000
    endloop
  endfacet
  facet normal -4.154150e-001 -9.096320e-001 -0.000000e+000
    outer loop
      vertex   -3.220195e+001 -8.213590e+001 0.000000e+000
      vertex   -3.306759e+001 -8.174058e+001 1.900000e+000
      vertex   -3.306759e+001 -8.174058e+001 0.000000e+000
    endloop
  endfacet
  facet normal -5.000000e-001 -8.660254e-001 -0.000000e+000
    outer loop
      vertex   -3.306759e+001 -8.174058e+001 0.000000e+000
      vertex   -3.389173e+001 -8.126476e+001 1.900000e+000
      vertex   -3.389173e+001 -8.126476e+001 0.000000e+000
    endloop
  endfacet
  facet normal -5.800569e-001 -8.145760e-001 -0.000000e+000
    outer loop
      vertex   -3.389173e+001 -8.126476e+001 0.000000e+000
      vertex   -3.466691e+001 -8.071275e+001 1.900000e+000
      vertex   -3.466691e+001 -8.071275e+001 0.000000e+000
    endloop
  endfacet
  facet normal -6.548607e-001 -7.557496e-001 -0.000000e+000
    outer loop
      vertex   -3.466691e+001 -8.071275e+001 0.000000e+000
      vertex   -3.538611e+001 -8.008956e+001 1.900000e+000
      vertex   -3.538611e+001 -8.008956e+001 0.000000e+000
    endloop
  endfacet
  facet normal -7.237340e-001 -6.900790e-001 -0.000000e+000
    outer loop
      vertex   -3.538611e+001 -8.008956e+001 0.000000e+000
      vertex   -3.604282e+001 -7.940083e+001 1.900000e+000
      vertex   -3.604282e+001 -7.940083e+001 0.000000e+000
    endloop
  endfacet
  facet normal -7.860531e-001 -6.181590e-001 -0.000000e+000
    outer loop
      vertex   -3.604282e+001 -7.940083e+001 0.000000e+000
      vertex   -3.663108e+001 -7.865279e+001 1.900000e+000
      vertex   -3.663108e+001 -7.865279e+001 0.000000e+000
    endloop
  endfacet
  facet normal -5.263280e-016 1.000000e+000 0.000000e+000
    outer loop
      vertex   -2.280583e+001 -6.285222e+001 0.000000e+000
      vertex   -2.280583e+001 -6.285222e+001 1.900000e+000
      vertex   -9.305833e+000 -6.285222e+001 -5.551115e-016
    endloop
  endfacet
  facet normal -5.263280e-016 1.000000e+000 0.000000e+000
    outer loop
      vertex   -9.305833e+000 -6.285222e+001 -5.551115e-016
      vertex   -2.280583e+001 -6.285222e+001 1.900000e+000
      vertex   -9.305833e+000 -6.285222e+001 1.900000e+000
    endloop
  endfacet
  facet normal 1.000000e+000 -0.000000e+000 0.000000e+000
    outer loop
      vertex   -9.305833e+000 -6.393794e+001 1.900000e+000
      vertex   -9.305833e+000 -6.393794e+001 0.000000e+000
      vertex   -9.305833e+000 -6.285222e+001 1.900000e+000
    endloop
  endfacet
  facet normal 1.000000e+000 0.000000e+000 0.000000e+000
    outer loop
      vertex   -9.305833e+000 -6.285222e+001 1.900000e+000
      vertex   -9.305833e+000 -6.393794e+001 0.000000e+000
      vertex   -9.305833e+000 -6.285222e+001 -5.551115e-016
    endloop
  endfacet
  facet normal -5.263280e-016 1.000000e+000 0.000000e+000
    outer loop
      vertex   -3.580583e+001 -6.285222e+001 1.900000e+000
      vertex   -3.580583e+001 -6.285222e+001 0.000000e+000
      vertex   -4.930583e+001 -6.285222e+001 1.900000e+000
    endloop
  endfacet
  facet normal -5.263280e-016 1.000000e+000 0.000000e+000
    outer loop
      vertex   -4.930583e+001 -6.285222e+001 1.900000e+000
      vertex   -3.580583e+001 -6.285222e+001 0.000000e+000
      vertex   -4.930583e+001 -6.285222e+001 -5.551115e-016
    endloop
  endfacet
  facet normal -1.000000e+000 0.000000e+000 0.000000e+000
    outer loop
      vertex   -4.930583e+001 -6.393794e+001 0.000000e+000
      vertex   -4.930583e+001 -6.393794e+001 1.900000e+000
      vertex   -4.930583e+001 -6.285222e+001 -5.551115e-016
    endloop
  endfacet
  facet normal -1.000000e+000 0.000000e+000 0.000000e+000
    outer loop
      vertex   -4.930583e+001 -6.285222e+001 -5.551115e-016
      vertex   -4.930583e+001 -6.393794e+001 1.900000e+000
      vertex   -4.930583e+001 -6.285222e+001 1.900000e+000
    endloop
  endfacet
  facet normal -1.000000e+000 -1.421085e-016 0.000000e+000
    outer loop
      vertex   -3.580583e+001 -6.285222e+001 0.000000e+000
      vertex   -3.580583e+001 -6.285222e+001 1.900000e+000
      vertex   -3.580583e+001 -1.285222e+001 0.000000e+000
    endloop
  endfacet
  facet normal -1.000000e+000 -1.421085e-016 0.000000e+000
    outer loop
      vertex   -3.580583e+001 -1.285222e+001 0.000000e+000
      vertex   -3.580583e+001 -6.285222e+001 1.900000e+000
      vertex   -3.580583e+001 -1.285222e+001 1.900000e+000
    endloop
  endfacet
  facet normal 1.000000e+000 2.842171e-016 0.000000e+000
    outer loop
      vertex   -2.280583e+001 -6.285222e+001 1.900000e+000
      vertex   -2.280583e+001 -6.285222e+001 0.000000e+000
      vertex   -2.280583e+001 -1.285222e+001 1.900000e+000
    endloop
  endfacet
  facet normal 1.000000e+000 2.842171e-016 0.000000e+000
    outer loop
      vertex   -2.280583e+001 -1.285222e+001 1.900000e+000
      vertex   -2.280583e+001 -6.285222e+001 0.000000e+000
      vertex   -2.280583e+001 -1.285222e+001 0.000000e+000
    endloop
  endfacet
  facet normal -1.366428e-016 1.000000e+000 0.000000e+000
    outer loop
      vertex   -2.280583e+001 -1.285222e+001 1.900000e+000
      vertex   -2.280583e+001 -1.285222e+001 0.000000e+000
      vertex   -3.580583e+001 -1.285222e+001 1.900000e+000
    endloop
  endfacet
  facet normal -1.366428e-016 1.000000e+000 0.000000e+000
    outer loop
      vertex   -3.580583e+001 -1.285222e+001 1.900000e+000
      vertex   -2.280583e+001 -1.285222e+001 0.000000e+000
      vertex   -3.580583e+001 -1.285222e+001 0.000000e+000
    endloop
  endfacet
  facet normal -0.000000e+000 -0.000000e+000 1.000000e+000
    outer loop
      vertex   -4.926039e+001 -6.489018e+001 1.900000e+000
      vertex   -4.912448e+001 -6.583376e+001 1.900000e+000
      vertex   -4.930583e+001 -6.393794e+001 1.900000e+000
    endloop
  endfacet
  facet normal 0.000000e+000 0.000000e+000 1.000000e+000
    outer loop
      vertex   -4.930583e+001 -6.393794e+001 1.900000e+000
      vertex   -4.912448e+001 -6.583376e+001 1.900000e+000
      vertex   -4.889934e+001 -6.676011e+001 1.900000e+000
    endloop
  endfacet
  facet normal 0.000000e+000 0.000000e+000 1.000000e+000
    outer loop
      vertex   -4.858701e+001 -6.766082e+001 1.900000e+000
      vertex   -4.930583e+001 -6.393794e+001 1.900000e+000
      vertex   -4.889934e+001 -6.676011e+001 1.900000e+000
    endloop
  endfacet
  facet normal -0.000000e+000 -0.000000e+000 1.000000e+000
    outer loop
      vertex   -4.858701e+001 -6.766082e+001 1.900000e+000
      vertex   -4.819033e+001 -6.852768e+001 1.900000e+000
      vertex   -4.930583e+001 -6.393794e+001 1.900000e+000
    endloop
  endfacet
  facet normal 0.000000e+000 0.000000e+000 1.000000e+000
    outer loop
      vertex   -4.930583e+001 -6.393794e+001 1.900000e+000
      vertex   -4.819033e+001 -6.852768e+001 1.900000e+000
      vertex   -4.771291e+001 -6.935284e+001 1.900000e+000
    endloop
  endfacet
  facet normal 0.000000e+000 0.000000e+000 1.000000e+000
    outer loop
      vertex   -4.930583e+001 -6.285222e+001 1.900000e+000
      vertex   -4.771291e+001 -6.935284e+001 1.900000e+000
      vertex   -4.715908e+001 -7.012879e+001 1.900000e+000
    endloop
  endfacet
  facet normal 0.000000e+000 0.000000e+000 1.000000e+000
    outer loop
      vertex   -4.653388e+001 -7.084847e+001 1.900000e+000
      vertex   -4.930583e+001 -6.285222e+001 1.900000e+000
      vertex   -4.715908e+001 -7.012879e+001 1.900000e+000
    endloop
  endfacet
  facet normal -0.000000e+000 -0.000000e+000 1.000000e+000
    outer loop
      vertex   -4.653388e+001 -7.084847e+001 1.900000e+000
      vertex   -4.584299e+001 -7.150535e+001 1.900000e+000
      vertex   -4.930583e+001 -6.285222e+001 1.900000e+000
    endloop
  endfacet
  facet normal 0.000000e+000 0.000000e+000 1.000000e+000
    outer loop
      vertex   -4.930583e+001 -6.285222e+001 1.900000e+000
      vertex   -4.584299e+001 -7.150535e+001 1.900000e+000
      vertex   -4.509269e+001 -7.209345e+001 1.900000e+000
    endloop
  endfacet
  facet normal 0.000000e+000 0.000000e+000 1.000000e+000
    outer loop
      vertex   -3.580583e+001 -6.285222e+001 1.900000e+000
      vertex   -4.509269e+001 -7.209345e+001 1.900000e+000
      vertex   -4.428979e+001 -7.260744e+001 1.900000e+000
    endloop
  endfacet
  facet normal 0.000000e+000 -0.000000e+000 1.000000e+000
    outer loop
      vertex   -4.344161e+001 -7.304263e+001 1.900000e+000
      vertex   -3.580583e+001 -6.285222e+001 1.900000e+000
      vertex   -4.428979e+001 -7.260744e+001 1.900000e+000
    endloop
  endfacet
  facet normal -0.000000e+000 0.000000e+000 1.000000e+000
    outer loop
      vertex   -4.344161e+001 -7.304263e+001 1.900000e+000
      vertex   -4.255583e+001 -7.339508e+001 1.900000e+000
      vertex   -3.580583e+001 -6.285222e+001 1.900000e+000
    endloop
  endfacet
  facet normal 0.000000e+000 0.000000e+000 1.000000e+000
    outer loop
      vertex   -3.580583e+001 -6.285222e+001 1.900000e+000
      vertex   -4.255583e+001 -7.339508e+001 1.900000e+000
      vertex   -4.172334e+001 -7.372352e+001 1.900000e+000
    endloop
  endfacet
  facet normal 0.000000e+000 -0.000000e+000 1.000000e+000
    outer loop
      vertex   -4.092355e+001 -7.412506e+001 1.900000e+000
      vertex   -3.580583e+001 -6.285222e+001 1.900000e+000
      vertex   -4.172334e+001 -7.372352e+001 1.900000e+000
    endloop
  endfacet
  facet normal -0.000000e+000 0.000000e+000 1.000000e+000
    outer loop
      vertex   -4.092355e+001 -7.412506e+001 1.900000e+000
      vertex   -4.016286e+001 -7.459650e+001 1.900000e+000
      vertex   -3.580583e+001 -6.285222e+001 1.900000e+000
    endloop
  endfacet
  facet normal 0.000000e+000 0.000000e+000 1.000000e+000
    outer loop
      vertex   -3.580583e+001 -6.285222e+001 1.900000e+000
      vertex   -4.016286e+001 -7.459650e+001 1.900000e+000
      vertex   -3.944737e+001 -7.513407e+001 1.900000e+000
    endloop
  endfacet
  facet normal 0.000000e+000 -0.000000e+000 1.000000e+000
    outer loop
      vertex   -3.878280e+001 -7.573344e+001 1.900000e+000
      vertex   -3.580583e+001 -6.285222e+001 1.900000e+000
      vertex   -3.944737e+001 -7.513407e+001 1.900000e+000
    endloop
  endfacet
  facet normal -0.000000e+000 0.000000e+000 1.000000e+000
    outer loop
      vertex   -3.878280e+001 -7.573344e+001 1.900000e+000
      vertex   -3.817448e+001 -7.638984e+001 1.900000e+000
      vertex   -3.580583e+001 -6.285222e+001 1.900000e+000
    endloop
  endfacet
  facet normal 0.000000e+000 0.000000e+000 1.000000e+000
    outer loop
      vertex   -3.580583e+001 -6.285222e+001 1.900000e+000
      vertex   -3.817448e+001 -7.638984e+001 1.900000e+000
      vertex   -3.762728e+001 -7.709799e+001 1.900000e+000
    endloop
  endfacet
  facet normal 0.000000e+000 -0.000000e+000 1.000000e+000
    outer loop
      vertex   -3.714558e+001 -7.785222e+001 1.900000e+000
      vertex   -3.580583e+001 -6.285222e+001 1.900000e+000
      vertex   -3.762728e+001 -7.709799e+001 1.900000e+000
    endloop
  endfacet
  facet normal -0.000000e+000 0.000000e+000 1.000000e+000
    outer loop
      vertex   -3.714558e+001 -7.785222e+001 1.900000e+000
      vertex   -3.663108e+001 -7.865279e+001 1.900000e+000
      vertex   -3.580583e+001 -6.285222e+001 1.900000e+000
    endloop
  endfacet
  facet normal 0.000000e+000 0.000000e+000 1.000000e+000
    outer loop
      vertex   -3.580583e+001 -6.285222e+001 1.900000e+000
      vertex   -3.663108e+001 -7.865279e+001 1.900000e+000
      vertex   -3.604282e+001 -7.940083e+001 1.900000e+000
    endloop
  endfacet
  facet normal 0.000000e+000 0.000000e+000 1.000000e+000
    outer loop
      vertex   -3.538611e+001 -8.008956e+001 1.900000e+000
      vertex   -3.580583e+001 -6.285222e+001 1.900000e+000
      vertex   -3.604282e+001 -7.940083e+001 1.900000e+000
    endloop
  endfacet
  facet normal 0.000000e+000 -0.000000e+000 1.000000e+000
    outer loop
      vertex   -3.538611e+001 -8.008956e+001 1.900000e+000
      vertex   -2.263519e+001 -7.952846e+001 1.900000e+000
      vertex   -3.580583e+001 -6.285222e+001 1.900000e+000
    endloop
  endfacet
  facet normal -0.000000e+000 0.000000e+000 1.000000e+000
    outer loop
      vertex   -3.538611e+001 -8.008956e+001 1.900000e+000
      vertex   -2.331031e+001 -8.023873e+001 1.900000e+000
      vertex   -2.263519e+001 -7.952846e+001 1.900000e+000
    endloop
  endfacet
  facet normal -0.000000e+000 0.000000e+000 1.000000e+000
    outer loop
      vertex   -3.538611e+001 -8.008956e+001 1.900000e+000
      vertex   -3.466691e+001 -8.071275e+001 1.900000e+000
      vertex   -2.331031e+001 -8.023873e+001 1.900000e+000
    endloop
  endfacet
  facet normal 0.000000e+000 0.000000e+000 1.000000e+000
    outer loop
      vertex   -2.331031e+001 -8.023873e+001 1.900000e+000
      vertex   -3.466691e+001 -8.071275e+001 1.900000e+000
      vertex   -2.405170e+001 -8.087951e+001 1.900000e+000
    endloop
  endfacet
  facet normal 0.000000e+000 0.000000e+000 1.000000e+000
    outer loop
      vertex   -2.405170e+001 -8.087951e+001 1.900000e+000
      vertex   -3.466691e+001 -8.071275e+001 1.900000e+000
      vertex   -3.389173e+001 -8.126476e+001 1.900000e+000
    endloop
  endfacet
  facet normal 0.000000e+000 0.000000e+000 1.000000e+000
    outer loop
      vertex   -2.485224e+001 -8.144466e+001 1.900000e+000
      vertex   -3.389173e+001 -8.126476e+001 1.900000e+000
      vertex   -3.306759e+001 -8.174058e+001 1.900000e+000
    endloop
  endfacet
  facet normal 0.000000e+000 0.000000e+000 1.000000e+000
    outer loop
      vertex   -2.570426e+001 -8.192873e+001 1.900000e+000
      vertex   -3.306759e+001 -8.174058e+001 1.900000e+000
      vertex   -3.220195e+001 -8.213590e+001 1.900000e+000
    endloop
  endfacet
  facet normal 0.000000e+000 0.000000e+000 1.000000e+000
    outer loop
      vertex   -2.659957e+001 -8.232709e+001 1.900000e+000
      vertex   -3.220195e+001 -8.213590e+001 1.900000e+000
      vertex   -3.130265e+001 -8.244715e+001 1.900000e+000
    endloop
  endfacet
  facet normal 0.000000e+000 0.000000e+000 1.000000e+000
    outer loop
      vertex   -2.752957e+001 -8.263591e+001 1.900000e+000
      vertex   -3.130265e+001 -8.244715e+001 1.900000e+000
      vertex   -3.037784e+001 -8.267151e+001 1.900000e+000
    endloop
  endfacet
  facet normal 0.000000e+000 0.000000e+000 1.000000e+000
    outer loop
      vertex   -2.848532e+001 -8.285222e+001 1.900000e+000
      vertex   -3.037784e+001 -8.267151e+001 1.900000e+000
      vertex   -2.943589e+001 -8.280694e+001 1.900000e+000
    endloop
  endfacet
  facet normal 0.000000e+000 -0.000000e+000 1.000000e+000
    outer loop
      vertex   -2.848532e+001 -8.285222e+001 1.900000e+000
      vertex   -2.752957e+001 -8.263591e+001 1.900000e+000
      vertex   -3.037784e+001 -8.267151e+001 1.900000e+000
    endloop
  endfacet
  facet normal -0.000000e+000 -0.000000e+000 1.000000e+000
    outer loop
      vertex   -4.930583e+001 -6.393794e+001 1.900000e+000
      vertex   -4.771291e+001 -6.935284e+001 1.900000e+000
      vertex   -4.930583e+001 -6.285222e+001 1.900000e+000
    endloop
  endfacet
  facet normal -0.000000e+000 0.000000e+000 1.000000e+000
    outer loop
      vertex   -4.930583e+001 -6.285222e+001 1.900000e+000
      vertex   -4.509269e+001 -7.209345e+001 1.900000e+000
      vertex   -3.580583e+001 -6.285222e+001 1.900000e+000
    endloop
  endfacet
  facet normal 0.000000e+000 0.000000e+000 1.000000e+000
    outer loop
      vertex   -2.405170e+001 -8.087951e+001 1.900000e+000
      vertex   -3.389173e+001 -8.126476e+001 1.900000e+000
      vertex   -2.485224e+001 -8.144466e+001 1.900000e+000
    endloop
  endfacet
  facet normal 0.000000e+000 0.000000e+000 1.000000e+000
    outer loop
      vertex   -2.485224e+001 -8.144466e+001 1.900000e+000
      vertex   -3.306759e+001 -8.174058e+001 1.900000e+000
      vertex   -2.570426e+001 -8.192873e+001 1.900000e+000
    endloop
  endfacet
  facet normal 0.000000e+000 0.000000e+000 1.000000e+000
    outer loop
      vertex   -2.570426e+001 -8.192873e+001 1.900000e+000
      vertex   -3.220195e+001 -8.213590e+001 1.900000e+000
      vertex   -2.659957e+001 -8.232709e+001 1.900000e+000
    endloop
  endfacet
  facet normal 0.000000e+000 0.000000e+000 1.000000e+000
    outer loop
      vertex   -2.659957e+001 -8.232709e+001 1.900000e+000
      vertex   -3.130265e+001 -8.244715e+001 1.900000e+000
      vertex   -2.752957e+001 -8.263591e+001 1.900000e+000
    endloop
  endfacet
  facet normal -0.000000e+000 -0.000000e+000 1.000000e+000
    outer loop
      vertex   -3.580583e+001 -6.285222e+001 1.900000e+000
      vertex   -2.263519e+001 -7.952846e+001 1.900000e+000
      vertex   -2.280583e+001 -6.285222e+001 1.900000e+000
    endloop
  endfacet
  facet normal -0.000000e+000 -0.000000e+000 1.000000e+000
    outer loop
      vertex   -3.580583e+001 -1.285222e+001 1.900000e+000
      vertex   -2.280583e+001 -6.285222e+001 1.900000e+000
      vertex   -2.280583e+001 -1.285222e+001 1.900000e+000
    endloop
  endfacet
  facet normal -0.000000e+000 0.000000e+000 1.000000e+000
    outer loop
      vertex   -3.580583e+001 -1.285222e+001 1.900000e+000
      vertex   -3.580583e+001 -6.285222e+001 1.900000e+000
      vertex   -2.280583e+001 -6.285222e+001 1.900000e+000
    endloop
  endfacet
  facet normal 0.000000e+000 -0.000000e+000 1.000000e+000
    outer loop
      vertex   -2.263519e+001 -7.952846e+001 1.900000e+000
      vertex   -2.203284e+001 -7.875552e+001 1.900000e+000
      vertex   -2.280583e+001 -6.285222e+001 1.900000e+000
    endloop
  endfacet
  facet normal -0.000000e+000 0.000000e+000 1.000000e+000
    outer loop
      vertex   -2.280583e+001 -6.285222e+001 1.900000e+000
      vertex   -2.203284e+001 -7.875552e+001 1.900000e+000
      vertex   -2.150902e+001 -7.792734e+001 1.900000e+000
    endloop
  endfacet
  facet normal 0.000000e+000 0.000000e+000 1.000000e+000
    outer loop
      vertex   -2.102772e+001 -7.716007e+001 1.900000e+000
      vertex   -2.280583e+001 -6.285222e+001 1.900000e+000
      vertex   -2.150902e+001 -7.792734e+001 1.900000e+000
    endloop
  endfacet
  facet normal 0.000000e+000 -0.000000e+000 1.000000e+000
    outer loop
      vertex   -2.102772e+001 -7.716007e+001 1.900000e+000
      vertex   -2.047896e+001 -7.643949e+001 1.900000e+000
      vertex   -2.280583e+001 -6.285222e+001 1.900000e+000
    endloop
  endfacet
  facet normal -0.000000e+000 0.000000e+000 1.000000e+000
    outer loop
      vertex   -2.280583e+001 -6.285222e+001 1.900000e+000
      vertex   -2.047896e+001 -7.643949e+001 1.900000e+000
      vertex   -1.986726e+001 -7.577153e+001 1.900000e+000
    endloop
  endfacet
  facet normal 0.000000e+000 0.000000e+000 1.000000e+000
    outer loop
      vertex   -1.919763e+001 -7.516165e+001 1.900000e+000
      vertex   -2.280583e+001 -6.285222e+001 1.900000e+000
      vertex   -1.986726e+001 -7.577153e+001 1.900000e+000
    endloop
  endfacet
  facet normal 0.000000e+000 -0.000000e+000 1.000000e+000
    outer loop
      vertex   -1.919763e+001 -7.516165e+001 1.900000e+000
      vertex   -1.847556e+001 -7.461486e+001 1.900000e+000
      vertex   -2.280583e+001 -6.285222e+001 1.900000e+000
    endloop
  endfacet
  facet normal -0.000000e+000 0.000000e+000 1.000000e+000
    outer loop
      vertex   -2.280583e+001 -6.285222e+001 1.900000e+000
      vertex   -1.847556e+001 -7.461486e+001 1.900000e+000
      vertex   -1.770698e+001 -7.413564e+001 1.900000e+000
    endloop
  endfacet
  facet normal 0.000000e+000 0.000000e+000 1.000000e+000
    outer loop
      vertex   -1.689819e+001 -7.372794e+001 1.900000e+000
      vertex   -2.280583e+001 -6.285222e+001 1.900000e+000
      vertex   -1.770698e+001 -7.413564e+001 1.900000e+000
    endloop
  endfacet
  facet normal 0.000000e+000 -0.000000e+000 1.000000e+000
    outer loop
      vertex   -1.689819e+001 -7.372794e+001 1.900000e+000
      vertex   -1.605583e+001 -7.339508e+001 1.900000e+000
      vertex   -2.280583e+001 -6.285222e+001 1.900000e+000
    endloop
  endfacet
  facet normal -0.000000e+000 0.000000e+000 1.000000e+000
    outer loop
      vertex   -2.280583e+001 -6.285222e+001 1.900000e+000
      vertex   -1.605583e+001 -7.339508e+001 1.900000e+000
      vertex   -1.517006e+001 -7.304263e+001 1.900000e+000
    endloop
  endfacet
  facet normal 0.000000e+000 0.000000e+000 1.000000e+000
    outer loop
      vertex   -1.432187e+001 -7.260744e+001 1.900000e+000
      vertex   -2.280583e+001 -6.285222e+001 1.900000e+000
      vertex   -1.517006e+001 -7.304263e+001 1.900000e+000
    endloop
  endfacet
  facet normal 0.000000e+000 -0.000000e+000 1.000000e+000
    outer loop
      vertex   -1.432187e+001 -7.260744e+001 1.900000e+000
      vertex   -1.351898e+001 -7.209345e+001 1.900000e+000
      vertex   -2.280583e+001 -6.285222e+001 1.900000e+000
    endloop
  endfacet
  facet normal -0.000000e+000 0.000000e+000 1.000000e+000
    outer loop
      vertex   -2.280583e+001 -6.285222e+001 1.900000e+000
      vertex   -1.351898e+001 -7.209345e+001 1.900000e+000
      vertex   -9.305833e+000 -6.285222e+001 1.900000e+000
    endloop
  endfacet
  facet normal -0.000000e+000 0.000000e+000 1.000000e+000
    outer loop
      vertex   -9.305833e+000 -6.285222e+001 1.900000e+000
      vertex   -1.351898e+001 -7.209345e+001 1.900000e+000
      vertex   -1.276868e+001 -7.150535e+001 1.900000e+000
    endloop
  endfacet
  facet normal 0.000000e+000 -0.000000e+000 1.000000e+000
    outer loop
      vertex   -1.207779e+001 -7.084847e+001 1.900000e+000
      vertex   -9.305833e+000 -6.285222e+001 1.900000e+000
      vertex   -1.276868e+001 -7.150535e+001 1.900000e+000
    endloop
  endfacet
  facet normal 0.000000e+000 0.000000e+000 1.000000e+000
    outer loop
      vertex   -1.207779e+001 -7.084847e+001 1.900000e+000
      vertex   -1.145259e+001 -7.012879e+001 1.900000e+000
      vertex   -9.305833e+000 -6.285222e+001 1.900000e+000
    endloop
  endfacet
  facet normal -0.000000e+000 0.000000e+000 1.000000e+000
    outer loop
      vertex   -9.305833e+000 -6.285222e+001 1.900000e+000
      vertex   -1.145259e+001 -7.012879e+001 1.900000e+000
      vertex   -1.089876e+001 -6.935284e+001 1.900000e+000
    endloop
  endfacet
  facet normal -0.000000e+000 0.000000e+000 1.000000e+000
    outer loop
      vertex   -9.305833e+000 -6.393794e+001 1.900000e+000
      vertex   -1.089876e+001 -6.935284e+001 1.900000e+000
      vertex   -1.042134e+001 -6.852768e+001 1.900000e+000
    endloop
  endfacet
  facet normal 0.000000e+000 -0.000000e+000 1.000000e+000
    outer loop
      vertex   -1.002466e+001 -6.766082e+001 1.900000e+000
      vertex   -9.305833e+000 -6.393794e+001 1.900000e+000
      vertex   -1.042134e+001 -6.852768e+001 1.900000e+000
    endloop
  endfacet
  facet normal 0.000000e+000 0.000000e+000 1.000000e+000
    outer loop
      vertex   -1.002466e+001 -6.766082e+001 1.900000e+000
      vertex   -9.712327e+000 -6.676011e+001 1.900000e+000
      vertex   -9.305833e+000 -6.393794e+001 1.900000e+000
    endloop
  endfacet
  facet normal -0.000000e+000 0.000000e+000 1.000000e+000
    outer loop
      vertex   -9.305833e+000 -6.393794e+001 1.900000e+000
      vertex   -9.712327e+000 -6.676011e+001 1.900000e+000
      vertex   -9.487183e+000 -6.583376e+001 1.900000e+000
    endloop
  endfacet
  facet normal 0.000000e+000 -0.000000e+000 1.000000e+000
    outer loop
      vertex   -9.351274e+000 -6.489018e+001 1.900000e+000
      vertex   -9.305833e+000 -6.393794e+001 1.900000e+000
      vertex   -9.487183e+000 -6.583376e+001 1.900000e+000
    endloop
  endfacet
  facet normal -0.000000e+000 0.000000e+000 1.000000e+000
    outer loop
      vertex   -9.305833e+000 -6.285222e+001 1.900000e+000
      vertex   -1.089876e+001 -6.935284e+001 1.900000e+000
      vertex   -9.305833e+000 -6.393794e+001 1.900000e+000
    endloop
  endfacet
endsolid