solid ascii
  facet normal 9.807857e-001 -1.950882e-001 0.000000e+000
    outer loop
      vertex   4.195985e+001 7.980363e+001 1.300000e+001
      vertex   4.211971e+001 8.060727e+001 0.000000e+000
      vertex   4.211971e+001 8.060727e+001 2.600000e+001
    endloop
  endfacet
  facet normal 0.000000e+000 -0.000000e+000 -1.000000e+000
    outer loop
      vertex   8.500000e+001 9.200000e+001 -0.000000e+000
      vertex   7.200000e+001 8.320000e+001 0.000000e+000
      vertex   7.000000e+000 9.200000e+001 -0.000000e+000
    endloop
  endfacet
  facet normal -9.807857e-001 1.950882e-001 0.000000e+000
    outer loop
      vertex   7.604015e+001 7.819637e+001 1.300000e+001
      vertex   7.588029e+001 7.739273e+001 0.000000e+000
      vertex   7.588029e+001 7.739273e+001 2.600000e+001
    endloop
  endfacet
  facet normal -9.807857e-001 1.950882e-001 0.000000e+000
    outer loop
      vertex   7.604015e+001 7.819637e+001 1.300000e+001
      vertex   7.620000e+001 7.900000e+001 0.000000e+000
      vertex   7.588029e+001 7.739273e+001 0.000000e+000
    endloop
  endfacet
  facet normal -8.314697e-001 5.555701e-001 0.000000e+000
    outer loop
      vertex   7.542507e+001 7.671144e+001 1.300000e+001
      vertex   7.588029e+001 7.739273e+001 2.600000e+001
      vertex   7.588029e+001 7.739273e+001 0.000000e+000
    endloop
  endfacet
  facet normal -0.000000e+000 0.000000e+000 -1.000000e+000
    outer loop
      vertex   8.500000e+001 9.200000e+001 -0.000000e+000
      vertex   7.360727e+001 8.288029e+001 0.000000e+000
      vertex   7.200000e+001 8.320000e+001 0.000000e+000
    endloop
  endfacet
  facet normal -8.314697e-001 5.555701e-001 0.000000e+000
    outer loop
      vertex   7.542507e+001 7.671144e+001 1.300000e+001
      vertex   7.496985e+001 7.603015e+001 0.000000e+000
      vertex   7.496985e+001 7.603015e+001 2.600000e+001
    endloop
  endfacet
  facet normal -8.314697e-001 5.555701e-001 0.000000e+000
    outer loop
      vertex   7.542507e+001 7.671144e+001 1.300000e+001
      vertex   7.588029e+001 7.739273e+001 0.000000e+000
      vertex   7.496985e+001 7.603015e+001 0.000000e+000
    endloop
  endfacet
  facet normal -5.555701e-001 8.314697e-001 0.000000e+000
    outer loop
      vertex   7.428856e+001 7.557493e+001 1.300000e+001
      vertex   7.496985e+001 7.603015e+001 2.600000e+001
      vertex   7.496985e+001 7.603015e+001 0.000000e+000
    endloop
  endfacet
  facet normal -0.000000e+000 0.000000e+000 -1.000000e+000
    outer loop
      vertex   8.500000e+001 9.200000e+001 -0.000000e+000
      vertex   8.500000e+001 6.600000e+001 0.000000e+000
      vertex   7.588029e+001 8.060727e+001 0.000000e+000
    endloop
  endfacet
  facet normal -5.555701e-001 8.314697e-001 0.000000e+000
    outer loop
      vertex   7.428856e+001 7.557493e+001 1.300000e+001
      vertex   7.360727e+001 7.511971e+001 0.000000e+000
      vertex   7.360727e+001 7.511971e+001 2.600000e+001
    endloop
  endfacet
  facet normal -5.555701e-001 8.314697e-001 0.000000e+000
    outer loop
      vertex   7.428856e+001 7.557493e+001 1.300000e+001
      vertex   7.496985e+001 7.603015e+001 0.000000e+000
      vertex   7.360727e+001 7.511971e+001 0.000000e+000
    endloop
  endfacet
  facet normal -1.950882e-001 9.807857e-001 0.000000e+000
    outer loop
      vertex   7.280363e+001 7.495985e+001 1.300000e+001
      vertex   7.360727e+001 7.511971e+001 2.600000e+001
      vertex   7.360727e+001 7.511971e+001 0.000000e+000
    endloop
  endfacet
  facet normal -0.000000e+000 0.000000e+000 -1.000000e+000
    outer loop
      vertex   8.500000e+001 9.200000e+001 -0.000000e+000
      vertex   7.588029e+001 8.060727e+001 0.000000e+000
      vertex   7.496985e+001 8.196985e+001 0.000000e+000
    endloop
  endfacet
  facet normal -1.950882e-001 9.807857e-001 0.000000e+000
    outer loop
      vertex   7.280363e+001 7.495985e+001 1.300000e+001
      vertex   7.200000e+001 7.480000e+001 0.000000e+000
      vertex   7.200000e+001 7.480000e+001 2.600000e+001
    endloop
  endfacet
  facet normal -1.950882e-001 9.807857e-001 0.000000e+000
    outer loop
      vertex   7.280363e+001 7.495985e+001 1.300000e+001
      vertex   7.360727e+001 7.511971e+001 0.000000e+000
      vertex   7.200000e+001 7.480000e+001 0.000000e+000
    endloop
  endfacet
  facet normal 1.950882e-001 9.807857e-001 0.000000e+000
    outer loop
      vertex   7.119637e+001 7.495985e+001 1.300000e+001
      vertex   7.200000e+001 7.480000e+001 2.600000e+001
      vertex   7.200000e+001 7.480000e+001 0.000000e+000
    endloop
  endfacet
  facet normal -0.000000e+000 0.000000e+000 -1.000000e+000
    outer loop
      vertex   8.500000e+001 9.200000e+001 -0.000000e+000
      vertex   7.496985e+001 8.196985e+001 0.000000e+000
      vertex   7.360727e+001 8.288029e+001 0.000000e+000
    endloop
  endfacet
  facet normal 1.950882e-001 9.807857e-001 -0.000000e+000
    outer loop
      vertex   7.119637e+001 7.495985e+001 1.300000e+001
      vertex   7.039273e+001 7.511971e+001 0.000000e+000
      vertex   7.039273e+001 7.511971e+001 2.600000e+001
    endloop
  endfacet
  facet normal 1.950882e-001 9.807857e-001 0.000000e+000
    outer loop
      vertex   7.119637e+001 7.495985e+001 1.300000e+001
      vertex   7.200000e+001 7.480000e+001 0.000000e+000
      vertex   7.039273e+001 7.511971e+001 0.000000e+000
    endloop
  endfacet
  facet normal 5.555701e-001 8.314697e-001 0.000000e+000
    outer loop
      vertex   6.971144e+001 7.557493e+001 1.300000e+001
      vertex   7.039273e+001 7.511971e+001 2.600000e+001
      vertex   7.039273e+001 7.511971e+001 0.000000e+000
    endloop
  endfacet
  facet normal 0.000000e+000 0.000000e+000 -1.000000e+000
    outer loop
      vertex   7.200000e+001 8.320000e+001 0.000000e+000
      vertex   7.039273e+001 8.288029e+001 0.000000e+000
      vertex   7.000000e+000 9.200000e+001 -0.000000e+000
    endloop
  endfacet
  facet normal 5.555701e-001 8.314697e-001 -0.000000e+000
    outer loop
      vertex   6.971144e+001 7.557493e+001 1.300000e+001
      vertex   6.903015e+001 7.603015e+001 0.000000e+000
      vertex   6.903015e+001 7.603015e+001 2.600000e+001
    endloop
  endfacet
  facet normal 5.555701e-001 8.314697e-001 0.000000e+000
    outer loop
      vertex   6.971144e+001 7.557493e+001 1.300000e+001
      vertex   7.039273e+001 7.511971e+001 0.000000e+000
      vertex   6.903015e+001 7.603015e+001 0.000000e+000
    endloop
  endfacet
  facet normal 8.314697e-001 5.555701e-001 0.000000e+000
    outer loop
      vertex   6.857493e+001 7.671144e+001 1.300000e+001
      vertex   6.903015e+001 7.603015e+001 2.600000e+001
      vertex   6.903015e+001 7.603015e+001 0.000000e+000
    endloop
  endfacet
  facet normal 0.000000e+000 0.000000e+000 -1.000000e+000
    outer loop
      vertex   7.588029e+001 8.060727e+001 0.000000e+000
      vertex   8.500000e+001 6.600000e+001 0.000000e+000
      vertex   7.620000e+001 7.900000e+001 0.000000e+000
    endloop
  endfacet
  facet normal 8.314697e-001 5.555701e-001 -0.000000e+000
    outer loop
      vertex   6.857493e+001 7.671144e+001 1.300000e+001
      vertex   6.811971e+001 7.739273e+001 0.000000e+000
      vertex   6.811971e+001 7.739273e+001 2.600000e+001
    endloop
  endfacet
  facet normal 8.314697e-001 5.555701e-001 0.000000e+000
    outer loop
      vertex   6.857493e+001 7.671144e+001 1.300000e+001
      vertex   6.903015e+001 7.603015e+001 0.000000e+000
      vertex   6.811971e+001 7.739273e+001 0.000000e+000
    endloop
  endfacet
  facet normal 9.807857e-001 1.950882e-001 0.000000e+000
    outer loop
      vertex   6.795985e+001 7.819637e+001 1.300000e+001
      vertex   6.811971e+001 7.739273e+001 2.600000e+001
      vertex   6.811971e+001 7.739273e+001 0.000000e+000
    endloop
  endfacet
  facet normal 0.000000e+000 0.000000e+000 -1.000000e+000
    outer loop
      vertex   7.039273e+001 8.288029e+001 0.000000e+000
      vertex   6.903015e+001 8.196985e+001 0.000000e+000
      vertex   7.000000e+000 9.200000e+001 -0.000000e+000
    endloop
  endfacet
  facet normal 9.807857e-001 1.950882e-001 -0.000000e+000
    outer loop
      vertex   6.795985e+001 7.819637e+001 1.300000e+001
      vertex   6.780000e+001 7.900000e+001 0.000000e+000
      vertex   6.780000e+001 7.900000e+001 2.600000e+001
    endloop
  endfacet
  facet normal 9.807857e-001 1.950882e-001 0.000000e+000
    outer loop
      vertex   6.795985e+001 7.819637e+001 1.300000e+001
      vertex   6.811971e+001 7.739273e+001 0.000000e+000
      vertex   6.780000e+001 7.900000e+001 0.000000e+000
    endloop
  endfacet
  facet normal 9.807857e-001 -1.950882e-001 0.000000e+000
    outer loop
      vertex   6.795985e+001 7.980363e+001 1.300000e+001
      vertex   6.780000e+001 7.900000e+001 2.600000e+001
      vertex   6.780000e+001 7.900000e+001 0.000000e+000
    endloop
  endfacet
  facet normal 0.000000e+000 0.000000e+000 -1.000000e+000
    outer loop
      vertex   7.620000e+001 7.900000e+001 0.000000e+000
      vertex   8.500000e+001 6.600000e+001 0.000000e+000
      vertex   7.588029e+001 7.739273e+001 0.000000e+000
    endloop
  endfacet
  facet normal 9.807857e-001 -1.950882e-001 0.000000e+000
    outer loop
      vertex   6.795985e+001 7.980363e+001 1.300000e+001
      vertex   6.811971e+001 8.060727e+001 0.000000e+000
      vertex   6.811971e+001 8.060727e+001 2.600000e+001
    endloop
  endfacet
  facet normal 9.807857e-001 -1.950882e-001 0.000000e+000
    outer loop
      vertex   6.795985e+001 7.980363e+001 1.300000e+001
      vertex   6.780000e+001 7.900000e+001 0.000000e+000
      vertex   6.811971e+001 8.060727e+001 0.000000e+000
    endloop
  endfacet
  facet normal 8.314697e-001 -5.555701e-001 0.000000e+000
    outer loop
      vertex   6.857493e+001 8.128856e+001 1.300000e+001
      vertex   6.811971e+001 8.060727e+001 2.600000e+001
      vertex   6.811971e+001 8.060727e+001 0.000000e+000
    endloop
  endfacet
  facet normal 0.000000e+000 0.000000e+000 -1.000000e+000
    outer loop
      vertex   6.903015e+001 8.196985e+001 0.000000e+000
      vertex   6.811971e+001 8.060727e+001 0.000000e+000
      vertex   7.000000e+000 9.200000e+001 -0.000000e+000
    endloop
  endfacet
  facet normal 8.314697e-001 -5.555701e-001 0.000000e+000
    outer loop
      vertex   6.857493e+001 8.128856e+001 1.300000e+001
      vertex   6.903015e+001 8.196985e+001 0.000000e+000
      vertex   6.903015e+001 8.196985e+001 2.600000e+001
    endloop
  endfacet
  facet normal 8.314697e-001 -5.555701e-001 0.000000e+000
    outer loop
      vertex   6.857493e+001 8.128856e+001 1.300000e+001
      vertex   6.811971e+001 8.060727e+001 0.000000e+000
      vertex   6.903015e+001 8.196985e+001 0.000000e+000
    endloop
  endfacet
  facet normal 5.555701e-001 -8.314697e-001 0.000000e+000
    outer loop
      vertex   6.971144e+001 8.242507e+001 1.300000e+001
      vertex   6.903015e+001 8.196985e+001 2.600000e+001
      vertex   6.903015e+001 8.196985e+001 0.000000e+000
    endloop
  endfacet
  facet normal 0.000000e+000 0.000000e+000 -1.000000e+000
    outer loop
      vertex   7.588029e+001 7.739273e+001 0.000000e+000
      vertex   8.500000e+001 6.600000e+001 0.000000e+000
      vertex   7.496985e+001 7.603015e+001 0.000000e+000
    endloop
  endfacet
  facet normal 5.555701e-001 -8.314697e-001 0.000000e+000
    outer loop
      vertex   6.971144e+001 8.242507e+001 1.300000e+001
      vertex   7.039273e+001 8.288029e+001 0.000000e+000
      vertex   7.039273e+001 8.288029e+001 2.600000e+001
    endloop
  endfacet
  facet normal 5.555701e-001 -8.314697e-001 0.000000e+000
    outer loop
      vertex   6.971144e+001 8.242507e+001 1.300000e+001
      vertex   6.903015e+001 8.196985e+001 0.000000e+000
      vertex   7.039273e+001 8.288029e+001 0.000000e+000
    endloop
  endfacet
  facet normal 1.950882e-001 -9.807857e-001 0.000000e+000
    outer loop
      vertex   7.119637e+001 8.304015e+001 1.300000e+001
      vertex   7.039273e+001 8.288029e+001 2.600000e+001
      vertex   7.039273e+001 8.288029e+001 0.000000e+000
    endloop
  endfacet
  facet normal 0.000000e+000 0.000000e+000 -1.000000e+000
    outer loop
      vertex   6.811971e+001 8.060727e+001 0.000000e+000
      vertex   6.780000e+001 7.900000e+001 0.000000e+000
      vertex   7.000000e+000 9.200000e+001 -0.000000e+000
    endloop
  endfacet
  facet normal 1.950882e-001 -9.807857e-001 0.000000e+000
    outer loop
      vertex   7.119637e+001 8.304015e+001 1.300000e+001
      vertex   7.200000e+001 8.320000e+001 0.000000e+000
      vertex   7.200000e+001 8.320000e+001 2.600000e+001
    endloop
  endfacet
  facet normal 1.950882e-001 -9.807857e-001 0.000000e+000
    outer loop
      vertex   7.119637e+001 8.304015e+001 1.300000e+001
      vertex   7.039273e+001 8.288029e+001 0.000000e+000
      vertex   7.200000e+001 8.320000e+001 0.000000e+000
    endloop
  endfacet
  facet normal -1.950882e-001 -9.807857e-001 -0.000000e+000
    outer loop
      vertex   7.280363e+001 8.304015e+001 1.300000e+001
      vertex   7.200000e+001 8.320000e+001 2.600000e+001
      vertex   7.200000e+001 8.320000e+001 0.000000e+000
    endloop
  endfacet
  facet normal 0.000000e+000 0.000000e+000 -1.000000e+000
    outer loop
      vertex   7.496985e+001 7.603015e+001 0.000000e+000
      vertex   8.500000e+001 6.600000e+001 0.000000e+000
      vertex   7.360727e+001 7.511971e+001 0.000000e+000
    endloop
  endfacet
  facet normal -1.950882e-001 -9.807857e-001 0.000000e+000
    outer loop
      vertex   7.280363e+001 8.304015e+001 1.300000e+001
      vertex   7.360727e+001 8.288029e+001 0.000000e+000
      vertex   7.360727e+001 8.288029e+001 2.600000e+001
    endloop
  endfacet
  facet normal -1.950882e-001 -9.807857e-001 0.000000e+000
    outer loop
      vertex   7.280363e+001 8.304015e+001 1.300000e+001
      vertex   7.200000e+001 8.320000e+001 0.000000e+000
      vertex   7.360727e+001 8.288029e+001 0.000000e+000
    endloop
  endfacet
  facet normal -5.555701e-001 -8.314697e-001 -0.000000e+000
    outer loop
      vertex   7.428856e+001 8.242507e+001 1.300000e+001
      vertex   7.360727e+001 8.288029e+001 2.600000e+001
      vertex   7.360727e+001 8.288029e+001 0.000000e+000
    endloop
  endfacet
  facet normal 0.000000e+000 0.000000e+000 -1.000000e+000
    outer loop
      vertex   6.780000e+001 7.900000e+001 0.000000e+000
      vertex   4.760727e+001 8.288029e+001 0.000000e+000
      vertex   7.000000e+000 9.200000e+001 -0.000000e+000
    endloop
  endfacet
  facet normal -5.555701e-001 -8.314697e-001 0.000000e+000
    outer loop
      vertex   7.428856e+001 8.242507e+001 1.300000e+001
      vertex   7.496985e+001 8.196985e+001 0.000000e+000
      vertex   7.496985e+001 8.196985e+001 2.600000e+001
    endloop
  endfacet
  facet normal -5.555701e-001 -8.314697e-001 0.000000e+000
    outer loop
      vertex   7.428856e+001 8.242507e+001 1.300000e+001
      vertex   7.360727e+001 8.288029e+001 0.000000e+000
      vertex   7.496985e+001 8.196985e+001 0.000000e+000
    endloop
  endfacet
  facet normal -8.314697e-001 -5.555701e-001 -0.000000e+000
    outer loop
      vertex   7.542507e+001 8.128856e+001 1.300000e+001
      vertex   7.496985e+001 8.196985e+001 2.600000e+001
      vertex   7.496985e+001 8.196985e+001 0.000000e+000
    endloop
  endfacet
  facet normal 0.000000e+000 0.000000e+000 -1.000000e+000
    outer loop
      vertex   6.780000e+001 7.900000e+001 0.000000e+000
      vertex   6.811971e+001 7.739273e+001 0.000000e+000
      vertex   4.760727e+001 8.288029e+001 0.000000e+000
    endloop
  endfacet
  facet normal -8.314697e-001 -5.555701e-001 0.000000e+000
    outer loop
      vertex   7.542507e+001 8.128856e+001 1.300000e+001
      vertex   7.588029e+001 8.060727e+001 0.000000e+000
      vertex   7.588029e+001 8.060727e+001 2.600000e+001
    endloop
  endfacet
  facet normal -8.314697e-001 -5.555701e-001 0.000000e+000
    outer loop
      vertex   7.542507e+001 8.128856e+001 1.300000e+001
      vertex   7.496985e+001 8.196985e+001 0.000000e+000
      vertex   7.588029e+001 8.060727e+001 0.000000e+000
    endloop
  endfacet
  facet normal -9.807857e-001 -1.950882e-001 -0.000000e+000
    outer loop
      vertex   7.604015e+001 7.980363e+001 1.300000e+001
      vertex   7.588029e+001 8.060727e+001 2.600000e+001
      vertex   7.588029e+001 8.060727e+001 0.000000e+000
    endloop
  endfacet
  facet normal 0.000000e+000 0.000000e+000 -1.000000e+000
    outer loop
      vertex   7.360727e+001 7.511971e+001 0.000000e+000
      vertex   8.500000e+001 6.600000e+001 0.000000e+000
      vertex   7.200000e+001 7.480000e+001 0.000000e+000
    endloop
  endfacet
  facet normal -9.807857e-001 -1.950882e-001 0.000000e+000
    outer loop
      vertex   7.604015e+001 7.980363e+001 1.300000e+001
      vertex   7.620000e+001 7.900000e+001 0.000000e+000
      vertex   7.620000e+001 7.900000e+001 2.600000e+001
    endloop
  endfacet
  facet normal -9.807857e-001 -1.950882e-001 0.000000e+000
    outer loop
      vertex   7.604015e+001 7.980363e+001 1.300000e+001
      vertex   7.588029e+001 8.060727e+001 0.000000e+000
      vertex   7.620000e+001 7.900000e+001 0.000000e+000
    endloop
  endfacet
  facet normal -9.807848e-001 1.950927e-001 0.000000e+000
    outer loop
      vertex   5.004015e+001 7.819637e+001 1.300000e+001
      vertex   5.020000e+001 7.900000e+001 2.600000e+001
      vertex   5.020000e+001 7.900000e+001 0.000000e+000
    endloop
  endfacet
  facet normal 0.000000e+000 0.000000e+000 -1.000000e+000
    outer loop
      vertex   6.811971e+001 7.739273e+001 0.000000e+000
      vertex   6.903015e+001 7.603015e+001 0.000000e+000
      vertex   4.760727e+001 8.288029e+001 0.000000e+000
    endloop
  endfacet
  facet normal -9.807857e-001 1.950882e-001 0.000000e+000
    outer loop
      vertex   5.004015e+001 7.819637e+001 1.300000e+001
      vertex   4.988029e+001 7.739273e+001 0.000000e+000
      vertex   4.988029e+001 7.739273e+001 2.600000e+001
    endloop
  endfacet
  facet normal -9.807853e-001 1.950905e-001 -1.439000e-007
    outer loop
      vertex   5.004015e+001 7.819637e+001 1.300000e+001
      vertex   5.020000e+001 7.900000e+001 0.000000e+000
      vertex   4.988029e+001 7.739273e+001 0.000000e+000
    endloop
  endfacet
  facet normal -8.314697e-001 5.555701e-001 0.000000e+000
    outer loop
      vertex   4.942507e+001 7.671144e+001 1.300000e+001
      vertex   4.988029e+001 7.739273e+001 2.600000e+001
      vertex   4.988029e+001 7.739273e+001 0.000000e+000
    endloop
  endfacet
  facet normal 0.000000e+000 0.000000e+000 -1.000000e+000
    outer loop
      vertex   7.200000e+001 7.480000e+001 0.000000e+000
      vertex   8.500000e+001 6.600000e+001 0.000000e+000
      vertex   7.039273e+001 7.511971e+001 0.000000e+000
    endloop
  endfacet
  facet normal -8.314697e-001 5.555701e-001 0.000000e+000
    outer loop
      vertex   4.942507e+001 7.671144e+001 1.300000e+001
      vertex   4.896985e+001 7.603015e+001 0.000000e+000
      vertex   4.896985e+001 7.603015e+001 2.600000e+001
    endloop
  endfacet
  facet normal -8.314697e-001 5.555701e-001 0.000000e+000
    outer loop
      vertex   4.942507e+001 7.671144e+001 1.300000e+001
      vertex   4.988029e+001 7.739273e+001 0.000000e+000
      vertex   4.896985e+001 7.603015e+001 0.000000e+000
    endloop
  endfacet
  facet normal -5.555701e-001 8.314697e-001 0.000000e+000
    outer loop
      vertex   4.828856e+001 7.557493e+001 1.300000e+001
      vertex   4.896985e+001 7.603015e+001 2.600000e+001
      vertex   4.896985e+001 7.603015e+001 0.000000e+000
    endloop
  endfacet
  facet normal 0.000000e+000 0.000000e+000 -1.000000e+000
    outer loop
      vertex   6.903015e+001 7.603015e+001 0.000000e+000
      vertex   7.039273e+001 7.511971e+001 0.000000e+000
      vertex   4.760727e+001 8.288029e+001 0.000000e+000
    endloop
  endfacet
  facet normal -5.555701e-001 8.314697e-001 0.000000e+000
    outer loop
      vertex   4.828856e+001 7.557493e+001 1.300000e+001
      vertex   4.760727e+001 7.511971e+001 0.000000e+000
      vertex   4.760727e+001 7.511971e+001 2.600000e+001
    endloop
  endfacet
  facet normal -5.555701e-001 8.314697e-001 0.000000e+000
    outer loop
      vertex   4.828856e+001 7.557493e+001 1.300000e+001
      vertex   4.896985e+001 7.603015e+001 0.000000e+000
      vertex   4.760727e+001 7.511971e+001 0.000000e+000
    endloop
  endfacet
  facet normal -1.950882e-001 9.807857e-001 0.000000e+000
    outer loop
      vertex   4.680363e+001 7.495985e+001 1.300000e+001
      vertex   4.760727e+001 7.511971e+001 2.600000e+001
      vertex   4.760727e+001 7.511971e+001 0.000000e+000
    endloop
  endfacet
  facet normal 0.000000e+000 0.000000e+000 -1.000000e+000
    outer loop
      vertex   7.039273e+001 7.511971e+001 0.000000e+000
      vertex   8.500000e+001 6.600000e+001 0.000000e+000
      vertex   4.760727e+001 8.288029e+001 0.000000e+000
    endloop
  endfacet
  facet normal -1.950882e-001 9.807857e-001 0.000000e+000
    outer loop
      vertex   4.680363e+001 7.495985e+001 1.300000e+001
      vertex   4.600000e+001 7.480000e+001 0.000000e+000
      vertex   4.600000e+001 7.480000e+001 2.600000e+001
    endloop
  endfacet
  facet normal -1.950882e-001 9.807857e-001 0.000000e+000
    outer loop
      vertex   4.680363e+001 7.495985e+001 1.300000e+001
      vertex   4.760727e+001 7.511971e+001 0.000000e+000
      vertex   4.600000e+001 7.480000e+001 0.000000e+000
    endloop
  endfacet
  facet normal 1.950882e-001 9.807857e-001 0.000000e+000
    outer loop
      vertex   4.519637e+001 7.495985e+001 1.300000e+001
      vertex   4.600000e+001 7.480000e+001 2.600000e+001
      vertex   4.600000e+001 7.480000e+001 0.000000e+000
    endloop
  endfacet
  facet normal 0.000000e+000 0.000000e+000 -1.000000e+000
    outer loop
      vertex   8.500000e+001 6.600000e+001 0.000000e+000
      vertex   7.000000e+000 6.600000e+001 0.000000e+000
      vertex   4.760727e+001 7.511971e+001 0.000000e+000
    endloop
  endfacet
  facet normal 1.950882e-001 9.807857e-001 -0.000000e+000
    outer loop
      vertex   4.519637e+001 7.495985e+001 1.300000e+001
      vertex   4.439273e+001 7.511971e+001 0.000000e+000
      vertex   4.439273e+001 7.511971e+001 2.600000e+001
    endloop
  endfacet
  facet normal 1.950882e-001 9.807857e-001 0.000000e+000
    outer loop
      vertex   4.519637e+001 7.495985e+001 1.300000e+001
      vertex   4.600000e+001 7.480000e+001 0.000000e+000
      vertex   4.439273e+001 7.511971e+001 0.000000e+000
    endloop
  endfacet
  facet normal 5.555701e-001 8.314697e-001 0.000000e+000
    outer loop
      vertex   4.371144e+001 7.557493e+001 1.300000e+001
      vertex   4.439273e+001 7.511971e+001 2.600000e+001
      vertex   4.439273e+001 7.511971e+001 0.000000e+000
    endloop
  endfacet
  facet normal 0.000000e+000 0.000000e+000 -1.000000e+000
    outer loop
      vertex   8.500000e+001 6.600000e+001 0.000000e+000
      vertex   4.760727e+001 7.511971e+001 0.000000e+000
      vertex   4.896985e+001 7.603015e+001 0.000000e+000
    endloop
  endfacet
  facet normal 5.555701e-001 8.314697e-001 -0.000000e+000
    outer loop
      vertex   4.371144e+001 7.557493e+001 1.300000e+001
      vertex   4.303015e+001 7.603015e+001 0.000000e+000
      vertex   4.303015e+001 7.603015e+001 2.600000e+001
    endloop
  endfacet
  facet normal 5.555701e-001 8.314697e-001 0.000000e+000
    outer loop
      vertex   4.371144e+001 7.557493e+001 1.300000e+001
      vertex   4.439273e+001 7.511971e+001 0.000000e+000
      vertex   4.303015e+001 7.603015e+001 0.000000e+000
    endloop
  endfacet
  facet normal 8.314697e-001 5.555701e-001 0.000000e+000
    outer loop
      vertex   4.257493e+001 7.671144e+001 1.300000e+001
      vertex   4.303015e+001 7.603015e+001 2.600000e+001
      vertex   4.303015e+001 7.603015e+001 0.000000e+000
    endloop
  endfacet
  facet normal 0.000000e+000 0.000000e+000 -1.000000e+000
    outer loop
      vertex   8.500000e+001 6.600000e+001 0.000000e+000
      vertex   4.896985e+001 7.603015e+001 0.000000e+000
      vertex   4.988029e+001 7.739273e+001 0.000000e+000
    endloop
  endfacet
  facet normal 8.314697e-001 5.555701e-001 -0.000000e+000
    outer loop
      vertex   4.257493e+001 7.671144e+001 1.300000e+001
      vertex   4.211971e+001 7.739273e+001 0.000000e+000
      vertex   4.211971e+001 7.739273e+001 2.600000e+001
    endloop
  endfacet
  facet normal 8.314697e-001 5.555701e-001 0.000000e+000
    outer loop
      vertex   4.257493e+001 7.671144e+001 1.300000e+001
      vertex   4.303015e+001 7.603015e+001 0.000000e+000
      vertex   4.211971e+001 7.739273e+001 0.000000e+000
    endloop
  endfacet
  facet normal 9.807857e-001 1.950882e-001 0.000000e+000
    outer loop
      vertex   4.195985e+001 7.819637e+001 1.300000e+001
      vertex   4.211971e+001 7.739273e+001 2.600000e+001
      vertex   4.211971e+001 7.739273e+001 0.000000e+000
    endloop
  endfacet
  facet normal 0.000000e+000 0.000000e+000 -1.000000e+000
    outer loop
      vertex   8.500000e+001 6.600000e+001 0.000000e+000
      vertex   4.988029e+001 7.739273e+001 0.000000e+000
      vertex   5.020000e+001 7.900000e+001 0.000000e+000
    endloop
  endfacet
  facet normal 9.807848e-001 1.950927e-001 -0.000000e+000
    outer loop
      vertex   4.195985e+001 7.819637e+001 1.300000e+001
      vertex   4.180000e+001 7.900000e+001 0.000000e+000
      vertex   4.180000e+001 7.900000e+001 2.600000e+001
    endloop
  endfacet
  facet normal 9.807853e-001 1.950905e-001 -1.439000e-007
    outer loop
      vertex   4.195985e+001 7.819637e+001 1.300000e+001
      vertex   4.211971e+001 7.739273e+001 0.000000e+000
      vertex   4.180000e+001 7.900000e+001 0.000000e+000
    endloop
  endfacet
  facet normal 9.807848e-001 -1.950927e-001 0.000000e+000
    outer loop
      vertex   4.195985e+001 7.980363e+001 1.300000e+001
      vertex   4.180000e+001 7.900000e+001 2.600000e+001
      vertex   4.180000e+001 7.900000e+001 0.000000e+000
    endloop
  endfacet
  facet normal 0.000000e+000 0.000000e+000 -1.000000e+000
    outer loop
      vertex   8.500000e+001 6.600000e+001 0.000000e+000
      vertex   5.020000e+001 7.900000e+001 0.000000e+000
      vertex   4.988029e+001 8.060727e+001 0.000000e+000
    endloop
  endfacet
  facet normal 0.000000e+000 1.000000e+000 0.000000e+000
    outer loop
      vertex   1.703015e+001 9.200000e+001 1.003015e+001
      vertex   7.000000e+000 9.200000e+001 -0.000000e+000
      vertex   1.611971e+001 9.200000e+001 1.139273e+001
    endloop
  endfacet
  facet normal 9.807853e-001 -1.950905e-001 -1.439000e-007
    outer loop
      vertex   4.195985e+001 7.980363e+001 1.300000e+001
      vertex   4.180000e+001 7.900000e+001 0.000000e+000
      vertex   4.211971e+001 8.060727e+001 0.000000e+000
    endloop
  endfacet
  facet normal 8.314697e-001 -5.555701e-001 0.000000e+000
    outer loop
      vertex   4.257493e+001 8.128856e+001 1.300000e+001
      vertex   4.211971e+001 8.060727e+001 2.600000e+001
      vertex   4.211971e+001 8.060727e+001 0.000000e+000
    endloop
  endfacet
  facet normal 0.000000e+000 0.000000e+000 -1.000000e+000
    outer loop
      vertex   8.500000e+001 6.600000e+001 0.000000e+000
      vertex   4.988029e+001 8.060727e+001 0.000000e+000
      vertex   4.896985e+001 8.196985e+001 0.000000e+000
    endloop
  endfacet
  facet normal 8.314697e-001 -5.555701e-001 0.000000e+000
    outer loop
      vertex   4.257493e+001 8.128856e+001 1.300000e+001
      vertex   4.303015e+001 8.196985e+001 0.000000e+000
      vertex   4.303015e+001 8.196985e+001 2.600000e+001
    endloop
  endfacet
  facet normal 8.314697e-001 -5.555701e-001 0.000000e+000
    outer loop
      vertex   4.257493e+001 8.128856e+001 1.300000e+001
      vertex   4.211971e+001 8.060727e+001 0.000000e+000
      vertex   4.303015e+001 8.196985e+001 0.000000e+000
    endloop
  endfacet
  facet normal 5.555701e-001 -8.314697e-001 0.000000e+000
    outer loop
      vertex   4.371144e+001 8.242507e+001 1.300000e+001
      vertex   4.303015e+001 8.196985e+001 2.600000e+001
      vertex   4.303015e+001 8.196985e+001 0.000000e+000
    endloop
  endfacet
  facet normal 0.000000e+000 0.000000e+000 -1.000000e+000
    outer loop
      vertex   8.500000e+001 6.600000e+001 0.000000e+000
      vertex   4.896985e+001 8.196985e+001 0.000000e+000
      vertex   4.760727e+001 8.288029e+001 0.000000e+000
    endloop
  endfacet
  facet normal 5.555701e-001 -8.314697e-001 0.000000e+000
    outer loop
      vertex   4.371144e+001 8.242507e+001 1.300000e+001
      vertex   4.439273e+001 8.288029e+001 0.000000e+000
      vertex   4.439273e+001 8.288029e+001 2.600000e+001
    endloop
  endfacet
  facet normal 5.555701e-001 -8.314697e-001 0.000000e+000
    outer loop
      vertex   4.371144e+001 8.242507e+001 1.300000e+001
      vertex   4.303015e+001 8.196985e+001 0.000000e+000
      vertex   4.439273e+001 8.288029e+001 0.000000e+000
    endloop
  endfacet
  facet normal 1.950882e-001 -9.807857e-001 0.000000e+000
    outer loop
      vertex   4.519637e+001 8.304015e+001 1.300000e+001
      vertex   4.439273e+001 8.288029e+001 2.600000e+001
      vertex   4.439273e+001 8.288029e+001 0.000000e+000
    endloop
  endfacet
  facet normal 0.000000e+000 0.000000e+000 -1.000000e+000
    outer loop
      vertex   4.760727e+001 8.288029e+001 0.000000e+000
      vertex   4.600000e+001 8.320000e+001 0.000000e+000
      vertex   7.000000e+000 9.200000e+001 -0.000000e+000
    endloop
  endfacet
  facet normal 1.950882e-001 -9.807857e-001 0.000000e+000
    outer loop
      vertex   4.519637e+001 8.304015e+001 1.300000e+001
      vertex   4.600000e+001 8.320000e+001 0.000000e+000
      vertex   4.600000e+001 8.320000e+001 2.600000e+001
    endloop
  endfacet
  facet normal 1.950882e-001 -9.807857e-001 0.000000e+000
    outer loop
      vertex   4.519637e+001 8.304015e+001 1.300000e+001
      vertex   4.439273e+001 8.288029e+001 0.000000e+000
      vertex   4.600000e+001 8.320000e+001 0.000000e+000
    endloop
  endfacet
  facet normal -1.950882e-001 -9.807857e-001 -0.000000e+000
    outer loop
      vertex   4.680363e+001 8.304015e+001 1.300000e+001
      vertex   4.600000e+001 8.320000e+001 2.600000e+001
      vertex   4.600000e+001 8.320000e+001 0.000000e+000
    endloop
  endfacet
  facet normal 0.000000e+000 0.000000e+000 -1.000000e+000
    outer loop
      vertex   4.600000e+001 8.320000e+001 0.000000e+000
      vertex   4.439273e+001 8.288029e+001 0.000000e+000
      vertex   7.000000e+000 9.200000e+001 -0.000000e+000
    endloop
  endfacet
  facet normal -1.950882e-001 -9.807857e-001 0.000000e+000
    outer loop
      vertex   4.680363e+001 8.304015e+001 1.300000e+001
      vertex   4.760727e+001 8.288029e+001 0.000000e+000
      vertex   4.760727e+001 8.288029e+001 2.600000e+001
    endloop
  endfacet
  facet normal -1.950882e-001 -9.807857e-001 0.000000e+000
    outer loop
      vertex   4.680363e+001 8.304015e+001 1.300000e+001
      vertex   4.600000e+001 8.320000e+001 0.000000e+000
      vertex   4.760727e+001 8.288029e+001 0.000000e+000
    endloop
  endfacet
  facet normal -5.555701e-001 -8.314697e-001 -0.000000e+000
    outer loop
      vertex   4.828856e+001 8.242507e+001 1.300000e+001
      vertex   4.760727e+001 8.288029e+001 2.600000e+001
      vertex   4.760727e+001 8.288029e+001 0.000000e+000
    endloop
  endfacet
  facet normal 0.000000e+000 0.000000e+000 -1.000000e+000
    outer loop
      vertex   4.439273e+001 8.288029e+001 0.000000e+000
      vertex   4.303015e+001 8.196985e+001 0.000000e+000
      vertex   7.000000e+000 9.200000e+001 -0.000000e+000
    endloop
  endfacet
  facet normal -5.555701e-001 -8.314697e-001 0.000000e+000
    outer loop
      vertex   4.828856e+001 8.242507e+001 1.300000e+001
      vertex   4.896985e+001 8.196985e+001 0.000000e+000
      vertex   4.896985e+001 8.196985e+001 2.600000e+001
    endloop
  endfacet
  facet normal -5.555701e-001 -8.314697e-001 0.000000e+000
    outer loop
      vertex   4.828856e+001 8.242507e+001 1.300000e+001
      vertex   4.760727e+001 8.288029e+001 0.000000e+000
      vertex   4.896985e+001 8.196985e+001 0.000000e+000
    endloop
  endfacet
  facet normal -8.314697e-001 -5.555701e-001 -0.000000e+000
    outer loop
      vertex   4.942507e+001 8.128856e+001 1.300000e+001
      vertex   4.896985e+001 8.196985e+001 2.600000e+001
      vertex   4.896985e+001 8.196985e+001 0.000000e+000
    endloop
  endfacet
  facet normal 0.000000e+000 0.000000e+000 -1.000000e+000
    outer loop
      vertex   4.303015e+001 8.196985e+001 0.000000e+000
      vertex   4.211971e+001 8.060727e+001 0.000000e+000
      vertex   7.000000e+000 9.200000e+001 -0.000000e+000
    endloop
  endfacet
  facet normal -8.314697e-001 -5.555701e-001 0.000000e+000
    outer loop
      vertex   4.942507e+001 8.128856e+001 1.300000e+001
      vertex   4.988029e+001 8.060727e+001 0.000000e+000
      vertex   4.988029e+001 8.060727e+001 2.600000e+001
    endloop
  endfacet
  facet normal -8.314697e-001 -5.555701e-001 0.000000e+000
    outer loop
      vertex   4.942507e+001 8.128856e+001 1.300000e+001
      vertex   4.896985e+001 8.196985e+001 0.000000e+000
      vertex   4.988029e+001 8.060727e+001 0.000000e+000
    endloop
  endfacet
  facet normal -9.807857e-001 -1.950882e-001 -0.000000e+000
    outer loop
      vertex   5.004015e+001 7.980363e+001 1.300000e+001
      vertex   4.988029e+001 8.060727e+001 2.600000e+001
      vertex   4.988029e+001 8.060727e+001 0.000000e+000
    endloop
  endfacet
  facet normal 0.000000e+000 0.000000e+000 -1.000000e+000
    outer loop
      vertex   4.211971e+001 8.060727e+001 0.000000e+000
      vertex   4.180000e+001 7.900000e+001 0.000000e+000
      vertex   7.000000e+000 9.200000e+001 -0.000000e+000
    endloop
  endfacet
  facet normal -9.807848e-001 -1.950927e-001 0.000000e+000
    outer loop
      vertex   5.004015e+001 7.980363e+001 1.300000e+001
      vertex   5.020000e+001 7.900000e+001 0.000000e+000
      vertex   5.020000e+001 7.900000e+001 2.600000e+001
    endloop
  endfacet
  facet normal -9.807853e-001 -1.950905e-001 -1.439000e-007
    outer loop
      vertex   5.004015e+001 7.980363e+001 1.300000e+001
      vertex   4.988029e+001 8.060727e+001 0.000000e+000
      vertex   5.020000e+001 7.900000e+001 0.000000e+000
    endloop
  endfacet
  facet normal 0.000000e+000 0.000000e+000 -1.000000e+000
    outer loop
      vertex   4.303015e+001 7.603015e+001 0.000000e+000
      vertex   4.439273e+001 7.511971e+001 0.000000e+000
      vertex   7.000000e+000 9.200000e+001 -0.000000e+000
    endloop
  endfacet
  facet normal 0.000000e+000 -0.000000e+000 -1.000000e+000
    outer loop
      vertex   4.439273e+001 7.511971e+001 0.000000e+000
      vertex   7.000000e+000 6.600000e+001 0.000000e+000
      vertex   7.000000e+000 9.200000e+001 -0.000000e+000
    endloop
  endfacet
  facet normal 0.000000e+000 0.000000e+000 -1.000000e+000
    outer loop
      vertex   4.180000e+001 7.900000e+001 0.000000e+000
      vertex   4.211971e+001 7.739273e+001 0.000000e+000
      vertex   7.000000e+000 9.200000e+001 -0.000000e+000
    endloop
  endfacet
  facet normal 0.000000e+000 -1.000000e+000 0.000000e+000
    outer loop
      vertex   8.500000e+001 6.600000e+001 2.600000e+001
      vertex   7.000000e+000 6.600000e+001 2.600000e+001
      vertex   8.500000e+001 6.600000e+001 0.000000e+000
    endloop
  endfacet
  facet normal 0.000000e+000 0.000000e+000 -1.000000e+000
    outer loop
      vertex   4.211971e+001 7.739273e+001 0.000000e+000
      vertex   4.303015e+001 7.603015e+001 0.000000e+000
      vertex   7.000000e+000 9.200000e+001 -0.000000e+000
    endloop
  endfacet
  facet normal 0.000000e+000 0.000000e+000 -1.000000e+000
    outer loop
      vertex   4.600000e+001 7.480000e+001 0.000000e+000
      vertex   7.000000e+000 6.600000e+001 0.000000e+000
      vertex   4.439273e+001 7.511971e+001 0.000000e+000
    endloop
  endfacet
  facet normal -1.000000e+000 0.000000e+000 0.000000e+000
    outer loop
      vertex   7.000000e+000 7.900000e+001 1.300000e+001
      vertex   7.000000e+000 9.200000e+001 -0.000000e+000
      vertex   7.000000e+000 6.600000e+001 0.000000e+000
    endloop
  endfacet
  facet normal 0.000000e+000 1.000000e+000 0.000000e+000
    outer loop
      vertex   2.000000e+001 9.200000e+001 8.800000e+000
      vertex   7.000000e+000 9.200000e+001 -0.000000e+000
      vertex   1.839273e+001 9.200000e+001 9.119706e+000
    endloop
  endfacet
  facet normal -9.807857e-001 1.950882e-001 0.000000e+000
    outer loop
      vertex   7.604015e+001 7.819637e+001 1.300000e+001
      vertex   7.620000e+001 7.900000e+001 2.600000e+001
      vertex   7.620000e+001 7.900000e+001 0.000000e+000
    endloop
  endfacet
  facet normal -1.000000e+000 0.000000e+000 -0.000000e+000
    outer loop
      vertex   7.000000e+000 7.900000e+001 1.300000e+001
      vertex   7.000000e+000 9.200000e+001 2.600000e+001
      vertex   7.000000e+000 9.200000e+001 -0.000000e+000
    endloop
  endfacet
  facet normal -0.000000e+000 1.000000e+000 -0.000000e+000
    outer loop
      vertex   8.500000e+001 9.200000e+001 -0.000000e+000
      vertex   2.160727e+001 9.200000e+001 1.688029e+001
      vertex   7.000000e+000 9.200000e+001 2.600000e+001
    endloop
  endfacet
  facet normal -0.000000e+000 1.000000e+000 -0.000000e+000
    outer loop
      vertex   8.500000e+001 9.200000e+001 -0.000000e+000
      vertex   2.388029e+001 9.200000e+001 1.460727e+001
      vertex   2.296985e+001 9.200000e+001 1.596985e+001
    endloop
  endfacet
  facet normal 0.000000e+000 0.000000e+000 -1.000000e+000
    outer loop
      vertex   4.760727e+001 7.511971e+001 0.000000e+000
      vertex   7.000000e+000 6.600000e+001 0.000000e+000
      vertex   4.600000e+001 7.480000e+001 0.000000e+000
    endloop
  endfacet
  facet normal 0.000000e+000 1.000000e+000 0.000000e+000
    outer loop
      vertex   1.839273e+001 9.200000e+001 9.119706e+000
      vertex   7.000000e+000 9.200000e+001 -0.000000e+000
      vertex   1.703015e+001 9.200000e+001 1.003015e+001
    endloop
  endfacet
  facet normal 1.000000e+000 0.000000e+000 -0.000000e+000
    outer loop
      vertex   8.500000e+001 7.900000e+001 1.300000e+001
      vertex   8.500000e+001 9.200000e+001 -0.000000e+000
      vertex   8.500000e+001 9.200000e+001 2.600000e+001
    endloop
  endfacet
  facet normal 0.000000e+000 1.000000e+000 -0.000000e+000
    outer loop
      vertex   8.500000e+001 9.200000e+001 2.600000e+001
      vertex   8.500000e+001 9.200000e+001 -0.000000e+000
      vertex   7.000000e+000 9.200000e+001 2.600000e+001
    endloop
  endfacet
  facet normal 1.000000e+000 -0.000000e+000 0.000000e+000
    outer loop
      vertex   8.500000e+001 7.900000e+001 1.300000e+001
      vertex   8.500000e+001 6.600000e+001 0.000000e+000
      vertex   8.500000e+001 9.200000e+001 -0.000000e+000
    endloop
  endfacet
  facet normal 0.000000e+000 -1.000000e+000 -0.000000e+000
    outer loop
      vertex   2.000000e+001 6.600000e+001 8.800000e+000
      vertex   1.839273e+001 6.600000e+001 9.119706e+000
      vertex   7.000000e+000 6.600000e+001 0.000000e+000
    endloop
  endfacet
  facet normal 0.000000e+000 -1.000000e+000 0.000000e+000
    outer loop
      vertex   8.500000e+001 6.600000e+001 0.000000e+000
      vertex   2.160727e+001 6.600000e+001 1.688029e+001
      vertex   2.296985e+001 6.600000e+001 1.596985e+001
    endloop
  endfacet
  facet normal 0.000000e+000 -1.000000e+000 0.000000e+000
    outer loop
      vertex   8.500000e+001 6.600000e+001 0.000000e+000
      vertex   7.000000e+000 6.600000e+001 2.600000e+001
      vertex   2.160727e+001 6.600000e+001 1.688029e+001
    endloop
  endfacet
  facet normal -0.000000e+000 1.000000e+000 -0.000000e+000
    outer loop
      vertex   8.500000e+001 9.200000e+001 -0.000000e+000
      vertex   2.420000e+001 9.200000e+001 1.300000e+001
      vertex   2.388029e+001 9.200000e+001 1.460727e+001
    endloop
  endfacet
  facet normal 0.000000e+000 -1.000000e+000 0.000000e+000
    outer loop
      vertex   1.611971e+001 6.600000e+001 1.139273e+001
      vertex   7.000000e+000 6.600000e+001 2.600000e+001
      vertex   7.000000e+000 6.600000e+001 0.000000e+000
    endloop
  endfacet
  facet normal 0.000000e+000 -1.000000e+000 -0.000000e+000
    outer loop
      vertex   1.703015e+001 6.600000e+001 1.003015e+001
      vertex   1.611971e+001 6.600000e+001 1.139273e+001
      vertex   7.000000e+000 6.600000e+001 0.000000e+000
    endloop
  endfacet
  facet normal 0.000000e+000 -1.000000e+000 -0.000000e+000
    outer loop
      vertex   1.839273e+001 6.600000e+001 9.119706e+000
      vertex   1.703015e+001 6.600000e+001 1.003015e+001
      vertex   7.000000e+000 6.600000e+001 0.000000e+000
    endloop
  endfacet
  facet normal -1.000000e+000 0.000000e+000 0.000000e+000
    outer loop
      vertex   7.000000e+000 7.900000e+001 1.300000e+001
      vertex   7.000000e+000 6.600000e+001 0.000000e+000
      vertex   7.000000e+000 6.600000e+001 2.600000e+001
    endloop
  endfacet
  facet normal -0.000000e+000 1.000000e+000 0.000000e+000
    outer loop
      vertex   8.500000e+001 9.200000e+001 -0.000000e+000
      vertex   2.388029e+001 9.200000e+001 1.139273e+001
      vertex   2.420000e+001 9.200000e+001 1.300000e+001
    endloop
  endfacet
  facet normal -0.000000e+000 1.000000e+000 0.000000e+000
    outer loop
      vertex   8.500000e+001 9.200000e+001 -0.000000e+000
      vertex   2.296985e+001 9.200000e+001 1.003015e+001
      vertex   2.388029e+001 9.200000e+001 1.139273e+001
    endloop
  endfacet
  facet normal -0.000000e+000 1.000000e+000 0.000000e+000
    outer loop
      vertex   8.500000e+001 9.200000e+001 -0.000000e+000
      vertex   2.160727e+001 9.200000e+001 9.119706e+000
      vertex   2.296985e+001 9.200000e+001 1.003015e+001
    endloop
  endfacet
  facet normal 0.000000e+000 -1.000000e+000 -0.000000e+000
    outer loop
      vertex   2.160727e+001 6.600000e+001 9.119706e+000
      vertex   2.000000e+001 6.600000e+001 8.800000e+000
      vertex   7.000000e+000 6.600000e+001 0.000000e+000
    endloop
  endfacet
  facet normal 0.000000e+000 1.000000e+000 0.000000e+000
    outer loop
      vertex   2.160727e+001 9.200000e+001 9.119706e+000
      vertex   7.000000e+000 9.200000e+001 -0.000000e+000
      vertex   2.000000e+001 9.200000e+001 8.800000e+000
    endloop
  endfacet
  facet normal 0.000000e+000 1.000000e+000 0.000000e+000
    outer loop
      vertex   1.611971e+001 9.200000e+001 1.139273e+001
      vertex   7.000000e+000 9.200000e+001 -0.000000e+000
      vertex   7.000000e+000 9.200000e+001 2.600000e+001
    endloop
  endfacet
  facet normal 0.000000e+000 -1.000000e+000 0.000000e+000
    outer loop
      vertex   8.500000e+001 6.600000e+001 0.000000e+000
      vertex   2.296985e+001 6.600000e+001 1.596985e+001
      vertex   2.388029e+001 6.600000e+001 1.460727e+001
    endloop
  endfacet
  facet normal 1.000000e+000 0.000000e+000 0.000000e+000
    outer loop
      vertex   8.500000e+001 7.900000e+001 1.300000e+001
      vertex   8.500000e+001 6.600000e+001 2.600000e+001
      vertex   8.500000e+001 6.600000e+001 0.000000e+000
    endloop
  endfacet
  facet normal 0.000000e+000 1.000000e+000 0.000000e+000
    outer loop
      vertex   8.500000e+001 9.200000e+001 -0.000000e+000
      vertex   7.000000e+000 9.200000e+001 -0.000000e+000
      vertex   2.160727e+001 9.200000e+001 9.119706e+000
    endloop
  endfacet
  facet normal -0.000000e+000 1.000000e+000 -0.000000e+000
    outer loop
      vertex   8.500000e+001 9.200000e+001 -0.000000e+000
      vertex   2.296985e+001 9.200000e+001 1.596985e+001
      vertex   2.160727e+001 9.200000e+001 1.688029e+001
    endloop
  endfacet
  facet normal 0.000000e+000 -1.000000e+000 -0.000000e+000
    outer loop
      vertex   8.500000e+001 6.600000e+001 0.000000e+000
      vertex   2.420000e+001 6.600000e+001 1.300000e+001
      vertex   2.388029e+001 6.600000e+001 1.139273e+001
    endloop
  endfacet
  facet normal 0.000000e+000 -1.000000e+000 -0.000000e+000
    outer loop
      vertex   8.500000e+001 6.600000e+001 0.000000e+000
      vertex   2.160727e+001 6.600000e+001 9.119706e+000
      vertex   7.000000e+000 6.600000e+001 0.000000e+000
    endloop
  endfacet
  facet normal 0.000000e+000 -1.000000e+000 -0.000000e+000
    outer loop
      vertex   8.500000e+001 6.600000e+001 0.000000e+000
      vertex   2.296985e+001 6.600000e+001 1.003015e+001
      vertex   2.160727e+001 6.600000e+001 9.119706e+000
    endloop
  endfacet
  facet normal 0.000000e+000 -1.000000e+000 -0.000000e+000
    outer loop
      vertex   8.500000e+001 6.600000e+001 0.000000e+000
      vertex   2.388029e+001 6.600000e+001 1.139273e+001
      vertex   2.296985e+001 6.600000e+001 1.003015e+001
    endloop
  endfacet
  facet normal 0.000000e+000 -1.000000e+000 0.000000e+000
    outer loop
      vertex   8.500000e+001 6.600000e+001 0.000000e+000
      vertex   2.388029e+001 6.600000e+001 1.460727e+001
      vertex   2.420000e+001 6.600000e+001 1.300000e+001
    endloop
  endfacet
  facet normal -1.950902e-001 1.431173e-008 9.807853e-001
    outer loop
      vertex   2.080363e+001 7.900000e+001 8.959853e+000
      vertex   2.160727e+001 9.200000e+001 9.119706e+000
      vertex   2.000000e+001 9.200000e+001 8.800000e+000
    endloop
  endfacet
  facet normal 1.950902e-001 -1.431173e-008 9.807853e-001
    outer loop
      vertex   1.919637e+001 7.900000e+001 8.959853e+000
      vertex   1.839273e+001 6.600000e+001 9.119706e+000
      vertex   2.000000e+001 6.600000e+001 8.800000e+000
    endloop
  endfacet
  facet normal 1.950902e-001 1.431173e-008 9.807853e-001
    outer loop
      vertex   1.919637e+001 7.900000e+001 8.959853e+000
      vertex   2.000000e+001 9.200000e+001 8.800000e+000
      vertex   1.839273e+001 9.200000e+001 9.119706e+000
    endloop
  endfacet
  facet normal -1.950905e-001 0.000000e+000 9.807853e-001
    outer loop
      vertex   2.080363e+001 7.900000e+001 8.959853e+000
      vertex   2.000000e+001 9.200000e+001 8.800000e+000
      vertex   2.000000e+001 6.600000e+001 8.800000e+000
    endloop
  endfacet
  facet normal -1.950902e-001 -1.431173e-008 9.807853e-001
    outer loop
      vertex   2.080363e+001 7.900000e+001 8.959853e+000
      vertex   2.000000e+001 6.600000e+001 8.800000e+000
      vertex   2.160727e+001 6.600000e+001 9.119706e+000
    endloop
  endfacet
  facet normal 1.950905e-001 -0.000000e+000 9.807853e-001
    outer loop
      vertex   1.919637e+001 7.900000e+001 8.959853e+000
      vertex   2.000000e+001 6.600000e+001 8.800000e+000
      vertex   2.000000e+001 9.200000e+001 8.800000e+000
    endloop
  endfacet
  facet normal -1.950900e-001 0.000000e+000 9.807853e-001
    outer loop
      vertex   2.080363e+001 7.900000e+001 8.959853e+000
      vertex   2.160727e+001 6.600000e+001 9.119706e+000
      vertex   2.160727e+001 9.200000e+001 9.119706e+000
    endloop
  endfacet
  facet normal 1.950900e-001 0.000000e+000 9.807853e-001
    outer loop
      vertex   1.919637e+001 7.900000e+001 8.959853e+000
      vertex   1.839273e+001 9.200000e+001 9.119706e+000
      vertex   1.839273e+001 6.600000e+001 9.119706e+000
    endloop
  endfacet
  facet normal -5.555703e-001 -1.025827e-008 8.314696e-001
    outer loop
      vertex   2.228856e+001 7.900000e+001 9.574928e+000
      vertex   2.160727e+001 6.600000e+001 9.119706e+000
      vertex   2.296985e+001 6.600000e+001 1.003015e+001
    endloop
  endfacet
  facet normal -5.555704e-001 0.000000e+000 8.314695e-001
    outer loop
      vertex   2.228856e+001 7.900000e+001 9.574928e+000
      vertex   2.160727e+001 9.200000e+001 9.119706e+000
      vertex   2.160727e+001 6.600000e+001 9.119706e+000
    endloop
  endfacet
  facet normal -5.555703e-001 1.025827e-008 8.314696e-001
    outer loop
      vertex   2.228856e+001 7.900000e+001 9.574928e+000
      vertex   2.296985e+001 9.200000e+001 1.003015e+001
      vertex   2.160727e+001 9.200000e+001 9.119706e+000
    endloop
  endfacet
  facet normal 5.555703e-001 -1.025827e-008 8.314696e-001
    outer loop
      vertex   1.771144e+001 7.900000e+001 9.574928e+000
      vertex   1.703015e+001 6.600000e+001 1.003015e+001
      vertex   1.839273e+001 6.600000e+001 9.119706e+000
    endloop
  endfacet
  facet normal 5.555703e-001 1.025827e-008 8.314696e-001
    outer loop
      vertex   1.771144e+001 7.900000e+001 9.574928e+000
      vertex   1.839273e+001 9.200000e+001 9.119706e+000
      vertex   1.703015e+001 9.200000e+001 1.003015e+001
    endloop
  endfacet
  facet normal 5.555704e-001 -0.000000e+000 8.314695e-001
    outer loop
      vertex   1.771144e+001 7.900000e+001 9.574928e+000
      vertex   1.839273e+001 6.600000e+001 9.119706e+000
      vertex   1.839273e+001 9.200000e+001 9.119706e+000
    endloop
  endfacet
  facet normal -5.555701e-001 0.000000e+000 8.314697e-001
    outer loop
      vertex   2.228856e+001 7.900000e+001 9.574928e+000
      vertex   2.296985e+001 6.600000e+001 1.003015e+001
      vertex   2.296985e+001 9.200000e+001 1.003015e+001
    endloop
  endfacet
  facet normal 5.555701e-001 0.000000e+000 8.314697e-001
    outer loop
      vertex   1.771144e+001 7.900000e+001 9.574928e+000
      vertex   1.703015e+001 9.200000e+001 1.003015e+001
      vertex   1.703015e+001 6.600000e+001 1.003015e+001
    endloop
  endfacet
  facet normal -8.314695e-001 -2.037820e-008 5.555704e-001
    outer loop
      vertex   2.342507e+001 7.900000e+001 1.071144e+001
      vertex   2.296985e+001 6.600000e+001 1.003015e+001
      vertex   2.388029e+001 6.600000e+001 1.139273e+001
    endloop
  endfacet
  facet normal -8.314697e-001 0.000000e+000 5.555701e-001
    outer loop
      vertex   2.342507e+001 7.900000e+001 1.071144e+001
      vertex   2.296985e+001 9.200000e+001 1.003015e+001
      vertex   2.296985e+001 6.600000e+001 1.003015e+001
    endloop
  endfacet
  facet normal -8.314695e-001 2.037820e-008 5.555704e-001
    outer loop
      vertex   2.342507e+001 7.900000e+001 1.071144e+001
      vertex   2.388029e+001 9.200000e+001 1.139273e+001
      vertex   2.296985e+001 9.200000e+001 1.003015e+001
    endloop
  endfacet
  facet normal 8.314695e-001 -2.037820e-008 5.555704e-001
    outer loop
      vertex   1.657493e+001 7.900000e+001 1.071144e+001
      vertex   1.611971e+001 6.600000e+001 1.139273e+001
      vertex   1.703015e+001 6.600000e+001 1.003015e+001
    endloop
  endfacet
  facet normal 8.314695e-001 2.037820e-008 5.555704e-001
    outer loop
      vertex   1.657493e+001 7.900000e+001 1.071144e+001
      vertex   1.703015e+001 9.200000e+001 1.003015e+001
      vertex   1.611971e+001 9.200000e+001 1.139273e+001
    endloop
  endfacet
  facet normal 8.314697e-001 -0.000000e+000 5.555701e-001
    outer loop
      vertex   1.657493e+001 7.900000e+001 1.071144e+001
      vertex   1.703015e+001 6.600000e+001 1.003015e+001
      vertex   1.703015e+001 9.200000e+001 1.003015e+001
    endloop
  endfacet
  facet normal -8.314693e-001 0.000000e+000 5.555707e-001
    outer loop
      vertex   2.342507e+001 7.900000e+001 1.071144e+001
      vertex   2.388029e+001 6.600000e+001 1.139273e+001
      vertex   2.388029e+001 9.200000e+001 1.139273e+001
    endloop
  endfacet
  facet normal 8.314693e-001 0.000000e+000 5.555707e-001
    outer loop
      vertex   1.657493e+001 7.900000e+001 1.071144e+001
      vertex   1.611971e+001 9.200000e+001 1.139273e+001
      vertex   1.611971e+001 6.600000e+001 1.139273e+001
    endloop
  endfacet
  facet normal -9.807853e-001 -7.155871e-009 1.950903e-001
    outer loop
      vertex   2.404015e+001 7.900000e+001 1.219637e+001
      vertex   2.388029e+001 6.600000e+001 1.139273e+001
      vertex   2.420000e+001 6.600000e+001 1.300000e+001
    endloop
  endfacet
  facet normal -9.807853e-001 7.155871e-009 1.950903e-001
    outer loop
      vertex   2.404015e+001 7.900000e+001 1.219637e+001
      vertex   2.420000e+001 9.200000e+001 1.300000e+001
      vertex   2.388029e+001 9.200000e+001 1.139273e+001
    endloop
  endfacet
  facet normal 9.807853e-001 -0.000000e+000 1.950902e-001
    outer loop
      vertex   1.595985e+001 7.900000e+001 1.219637e+001
      vertex   1.611971e+001 6.600000e+001 1.139273e+001
      vertex   1.611971e+001 9.200000e+001 1.139273e+001
    endloop
  endfacet
  facet normal 9.807854e-001 2.881914e-008 1.950898e-001
    outer loop
      vertex   1.595985e+001 7.900000e+001 1.219637e+001
      vertex   1.580000e+001 6.600000e+001 1.300000e+001
      vertex   1.611971e+001 6.600000e+001 1.139273e+001
    endloop
  endfacet
  facet normal 9.807854e-001 -2.881914e-008 1.950898e-001
    outer loop
      vertex   1.595985e+001 7.900000e+001 1.219637e+001
      vertex   1.611971e+001 9.200000e+001 1.139273e+001
      vertex   1.580000e+001 9.200000e+001 1.300000e+001
    endloop
  endfacet
  facet normal -9.807853e-001 0.000000e+000 1.950902e-001
    outer loop
      vertex   2.404015e+001 7.900000e+001 1.219637e+001
      vertex   2.388029e+001 9.200000e+001 1.139273e+001
      vertex   2.388029e+001 6.600000e+001 1.139273e+001
    endloop
  endfacet
  facet normal 0.000000e+000 1.000000e+000 0.000000e+000
    outer loop
      vertex   1.580000e+001 9.200000e+001 1.300000e+001
      vertex   1.611971e+001 9.200000e+001 1.139273e+001
      vertex   7.000000e+000 9.200000e+001 2.600000e+001
    endloop
  endfacet
  facet normal 0.000000e+000 -1.000000e+000 0.000000e+000
    outer loop
      vertex   1.580000e+001 6.600000e+001 1.300000e+001
      vertex   7.000000e+000 6.600000e+001 2.600000e+001
      vertex   1.611971e+001 6.600000e+001 1.139273e+001
    endloop
  endfacet
  facet normal 9.807855e-001 0.000000e+000 1.950893e-001
    outer loop
      vertex   1.595985e+001 7.900000e+001 1.219637e+001
      vertex   1.580000e+001 9.200000e+001 1.300000e+001
      vertex   1.580000e+001 6.600000e+001 1.300000e+001
    endloop
  endfacet
  facet normal -9.807853e-001 0.000000e+000 1.950905e-001
    outer loop
      vertex   2.404015e+001 7.900000e+001 1.219637e+001
      vertex   2.420000e+001 6.600000e+001 1.300000e+001
      vertex   2.420000e+001 9.200000e+001 1.300000e+001
    endloop
  endfacet
  facet normal 9.807854e-001 -2.881914e-008 -1.950898e-001
    outer loop
      vertex   1.595985e+001 7.900000e+001 1.380363e+001
      vertex   1.580000e+001 9.200000e+001 1.300000e+001
      vertex   1.611971e+001 9.200000e+001 1.460727e+001
    endloop
  endfacet
  facet normal 0.000000e+000 1.000000e+000 -0.000000e+000
    outer loop
      vertex   1.611971e+001 9.200000e+001 1.460727e+001
      vertex   1.580000e+001 9.200000e+001 1.300000e+001
      vertex   7.000000e+000 9.200000e+001 2.600000e+001
    endloop
  endfacet
  facet normal -1.000000e+000 0.000000e+000 0.000000e+000
    outer loop
      vertex   7.000000e+000 7.900000e+001 1.300000e+001
      vertex   7.000000e+000 6.600000e+001 2.600000e+001
      vertex   7.000000e+000 9.200000e+001 2.600000e+001
    endloop
  endfacet
  facet normal -8.314697e-001 5.555701e-001 0.000000e+000
    outer loop
      vertex   7.542507e+001 7.671144e+001 1.300000e+001
      vertex   7.496985e+001 7.603015e+001 2.600000e+001
      vertex   7.588029e+001 7.739273e+001 2.600000e+001
    endloop
  endfacet
  facet normal -5.555701e-001 8.314697e-001 0.000000e+000
    outer loop
      vertex   7.428856e+001 7.557493e+001 1.300000e+001
      vertex   7.360727e+001 7.511971e+001 2.600000e+001
      vertex   7.496985e+001 7.603015e+001 2.600000e+001
    endloop
  endfacet
  facet normal 9.807854e-001 2.881914e-008 -1.950898e-001
    outer loop
      vertex   1.595985e+001 7.900000e+001 1.380363e+001
      vertex   1.611971e+001 6.600000e+001 1.460727e+001
      vertex   1.580000e+001 6.600000e+001 1.300000e+001
    endloop
  endfacet
  facet normal 9.807855e-001 0.000000e+000 -1.950893e-001
    outer loop
      vertex   1.595985e+001 7.900000e+001 1.380363e+001
      vertex   1.580000e+001 6.600000e+001 1.300000e+001
      vertex   1.580000e+001 9.200000e+001 1.300000e+001
    endloop
  endfacet
  facet normal 9.807857e-001 -1.950882e-001 0.000000e+000
    outer loop
      vertex   6.795985e+001 7.980363e+001 1.300000e+001
      vertex   6.811971e+001 8.060727e+001 2.600000e+001
      vertex   6.780000e+001 7.900000e+001 2.600000e+001
    endloop
  endfacet
  facet normal -9.807853e-001 7.155871e-009 -1.950903e-001
    outer loop
      vertex   2.404015e+001 7.900000e+001 1.380363e+001
      vertex   2.388029e+001 9.200000e+001 1.460727e+001
      vertex   2.420000e+001 9.200000e+001 1.300000e+001
    endloop
  endfacet
  facet normal 8.314697e-001 -5.555701e-001 0.000000e+000
    outer loop
      vertex   6.857493e+001 8.128856e+001 1.300000e+001
      vertex   6.903015e+001 8.196985e+001 2.600000e+001
      vertex   6.811971e+001 8.060727e+001 2.600000e+001
    endloop
  endfacet
  facet normal 5.555701e-001 8.314697e-001 0.000000e+000
    outer loop
      vertex   6.971144e+001 7.557493e+001 1.300000e+001
      vertex   6.903015e+001 7.603015e+001 2.600000e+001
      vertex   7.039273e+001 7.511971e+001 2.600000e+001
    endloop
  endfacet
  facet normal -9.807853e-001 -0.000000e+000 -1.950905e-001
    outer loop
      vertex   2.404015e+001 7.900000e+001 1.380363e+001
      vertex   2.420000e+001 9.200000e+001 1.300000e+001
      vertex   2.420000e+001 6.600000e+001 1.300000e+001
    endloop
  endfacet
  facet normal -9.807853e-001 -7.155871e-009 -1.950903e-001
    outer loop
      vertex   2.404015e+001 7.900000e+001 1.380363e+001
      vertex   2.420000e+001 6.600000e+001 1.300000e+001
      vertex   2.388029e+001 6.600000e+001 1.460727e+001
    endloop
  endfacet
  facet normal 8.314697e-001 5.555701e-001 0.000000e+000
    outer loop
      vertex   4.257493e+001 7.671144e+001 1.300000e+001
      vertex   4.211971e+001 7.739273e+001 2.600000e+001
      vertex   4.303015e+001 7.603015e+001 2.600000e+001
    endloop
  endfacet
  facet normal 9.807853e-001 1.950905e-001 1.439000e-007
    outer loop
      vertex   4.195985e+001 7.819637e+001 1.300000e+001
      vertex   4.180000e+001 7.900000e+001 2.600000e+001
      vertex   4.211971e+001 7.739273e+001 2.600000e+001
    endloop
  endfacet
  facet normal 1.000000e+000 0.000000e+000 0.000000e+000
    outer loop
      vertex   8.500000e+001 7.900000e+001 1.300000e+001
      vertex   8.500000e+001 9.200000e+001 2.600000e+001
      vertex   8.500000e+001 6.600000e+001 2.600000e+001
    endloop
  endfacet
  facet normal -9.807853e-001 -1.950905e-001 1.439000e-007
    outer loop
      vertex   5.004015e+001 7.980363e+001 1.300000e+001
      vertex   5.020000e+001 7.900000e+001 2.600000e+001
      vertex   4.988029e+001 8.060727e+001 2.600000e+001
    endloop
  endfacet
  facet normal 1.950882e-001 9.807857e-001 0.000000e+000
    outer loop
      vertex   7.119637e+001 7.495985e+001 1.300000e+001
      vertex   7.039273e+001 7.511971e+001 2.600000e+001
      vertex   7.200000e+001 7.480000e+001 2.600000e+001
    endloop
  endfacet
  facet normal -8.314697e-001 -5.555701e-001 0.000000e+000
    outer loop
      vertex   4.942507e+001 8.128856e+001 1.300000e+001
      vertex   4.988029e+001 8.060727e+001 2.600000e+001
      vertex   4.896985e+001 8.196985e+001 2.600000e+001
    endloop
  endfacet
  facet normal -5.555701e-001 -8.314697e-001 0.000000e+000
    outer loop
      vertex   4.828856e+001 8.242507e+001 1.300000e+001
      vertex   4.896985e+001 8.196985e+001 2.600000e+001
      vertex   4.760727e+001 8.288029e+001 2.600000e+001
    endloop
  endfacet
  facet normal -1.950882e-001 -9.807857e-001 0.000000e+000
    outer loop
      vertex   4.680363e+001 8.304015e+001 1.300000e+001
      vertex   4.760727e+001 8.288029e+001 2.600000e+001
      vertex   4.600000e+001 8.320000e+001 2.600000e+001
    endloop
  endfacet
  facet normal 1.950882e-001 -9.807857e-001 0.000000e+000
    outer loop
      vertex   4.519637e+001 8.304015e+001 1.300000e+001
      vertex   4.600000e+001 8.320000e+001 2.600000e+001
      vertex   4.439273e+001 8.288029e+001 2.600000e+001
    endloop
  endfacet
  facet normal 0.000000e+000 -1.000000e+000 0.000000e+000
    outer loop
      vertex   1.611971e+001 6.600000e+001 1.460727e+001
      vertex   7.000000e+000 6.600000e+001 2.600000e+001
      vertex   1.580000e+001 6.600000e+001 1.300000e+001
    endloop
  endfacet
  facet normal 5.555701e-001 -8.314697e-001 0.000000e+000
    outer loop
      vertex   4.371144e+001 8.242507e+001 1.300000e+001
      vertex   4.439273e+001 8.288029e+001 2.600000e+001
      vertex   4.303015e+001 8.196985e+001 2.600000e+001
    endloop
  endfacet
  facet normal -9.807853e-001 1.950905e-001 1.439000e-007
    outer loop
      vertex   5.004015e+001 7.819637e+001 1.300000e+001
      vertex   4.988029e+001 7.739273e+001 2.600000e+001
      vertex   5.020000e+001 7.900000e+001 2.600000e+001
    endloop
  endfacet
  facet normal 8.314697e-001 -5.555701e-001 0.000000e+000
    outer loop
      vertex   4.257493e+001 8.128856e+001 1.300000e+001
      vertex   4.303015e+001 8.196985e+001 2.600000e+001
      vertex   4.211971e+001 8.060727e+001 2.600000e+001
    endloop
  endfacet
  facet normal 9.807853e-001 -1.950905e-001 1.439000e-007
    outer loop
      vertex   4.195985e+001 7.980363e+001 1.300000e+001
      vertex   4.211971e+001 8.060727e+001 2.600000e+001
      vertex   4.180000e+001 7.900000e+001 2.600000e+001
    endloop
  endfacet
  facet normal -1.950882e-001 9.807857e-001 0.000000e+000
    outer loop
      vertex   7.280363e+001 7.495985e+001 1.300000e+001
      vertex   7.200000e+001 7.480000e+001 2.600000e+001
      vertex   7.360727e+001 7.511971e+001 2.600000e+001
    endloop
  endfacet
  facet normal 1.950882e-001 -9.807857e-001 0.000000e+000
    outer loop
      vertex   7.119637e+001 8.304015e+001 1.300000e+001
      vertex   7.200000e+001 8.320000e+001 2.600000e+001
      vertex   7.039273e+001 8.288029e+001 2.600000e+001
    endloop
  endfacet
  facet normal -8.314697e-001 5.555701e-001 0.000000e+000
    outer loop
      vertex   4.942507e+001 7.671144e+001 1.300000e+001
      vertex   4.896985e+001 7.603015e+001 2.600000e+001
      vertex   4.988029e+001 7.739273e+001 2.600000e+001
    endloop
  endfacet
  facet normal -9.807857e-001 1.950882e-001 0.000000e+000
    outer loop
      vertex   7.604015e+001 7.819637e+001 1.300000e+001
      vertex   7.588029e+001 7.739273e+001 2.600000e+001
      vertex   7.620000e+001 7.900000e+001 2.600000e+001
    endloop
  endfacet
  facet normal -1.950882e-001 9.807857e-001 0.000000e+000
    outer loop
      vertex   4.680363e+001 7.495985e+001 1.300000e+001
      vertex   4.600000e+001 7.480000e+001 2.600000e+001
      vertex   4.760727e+001 7.511971e+001 2.600000e+001
    endloop
  endfacet
  facet normal 5.555701e-001 8.314697e-001 0.000000e+000
    outer loop
      vertex   4.371144e+001 7.557493e+001 1.300000e+001
      vertex   4.303015e+001 7.603015e+001 2.600000e+001
      vertex   4.439273e+001 7.511971e+001 2.600000e+001
    endloop
  endfacet
  facet normal 1.950882e-001 9.807857e-001 0.000000e+000
    outer loop
      vertex   4.519637e+001 7.495985e+001 1.300000e+001
      vertex   4.439273e+001 7.511971e+001 2.600000e+001
      vertex   4.600000e+001 7.480000e+001 2.600000e+001
    endloop
  endfacet
  facet normal -9.807857e-001 -1.950882e-001 0.000000e+000
    outer loop
      vertex   7.604015e+001 7.980363e+001 1.300000e+001
      vertex   7.620000e+001 7.900000e+001 2.600000e+001
      vertex   7.588029e+001 8.060727e+001 2.600000e+001
    endloop
  endfacet
  facet normal -8.314697e-001 -5.555701e-001 0.000000e+000
    outer loop
      vertex   7.542507e+001 8.128856e+001 1.300000e+001
      vertex   7.588029e+001 8.060727e+001 2.600000e+001
      vertex   7.496985e+001 8.196985e+001 2.600000e+001
    endloop
  endfacet
  facet normal -5.555701e-001 -8.314697e-001 0.000000e+000
    outer loop
      vertex   7.428856e+001 8.242507e+001 1.300000e+001
      vertex   7.496985e+001 8.196985e+001 2.600000e+001
      vertex   7.360727e+001 8.288029e+001 2.600000e+001
    endloop
  endfacet
  facet normal 8.314697e-001 5.555701e-001 0.000000e+000
    outer loop
      vertex   6.857493e+001 7.671144e+001 1.300000e+001
      vertex   6.811971e+001 7.739273e+001 2.600000e+001
      vertex   6.903015e+001 7.603015e+001 2.600000e+001
    endloop
  endfacet
  facet normal 9.807857e-001 1.950882e-001 0.000000e+000
    outer loop
      vertex   6.795985e+001 7.819637e+001 1.300000e+001
      vertex   6.780000e+001 7.900000e+001 2.600000e+001
      vertex   6.811971e+001 7.739273e+001 2.600000e+001
    endloop
  endfacet
  facet normal -5.555701e-001 8.314697e-001 0.000000e+000
    outer loop
      vertex   4.828856e+001 7.557493e+001 1.300000e+001
      vertex   4.760727e+001 7.511971e+001 2.600000e+001
      vertex   4.896985e+001 7.603015e+001 2.600000e+001
    endloop
  endfacet
  facet normal -1.950882e-001 -9.807857e-001 0.000000e+000
    outer loop
      vertex   7.280363e+001 8.304015e+001 1.300000e+001
      vertex   7.360727e+001 8.288029e+001 2.600000e+001
      vertex   7.200000e+001 8.320000e+001 2.600000e+001
    endloop
  endfacet
  facet normal 5.555701e-001 -8.314697e-001 0.000000e+000
    outer loop
      vertex   6.971144e+001 8.242507e+001 1.300000e+001
      vertex   7.039273e+001 8.288029e+001 2.600000e+001
      vertex   6.903015e+001 8.196985e+001 2.600000e+001
    endloop
  endfacet
  facet normal 9.807853e-001 0.000000e+000 -1.950902e-001
    outer loop
      vertex   1.595985e+001 7.900000e+001 1.380363e+001
      vertex   1.611971e+001 9.200000e+001 1.460727e+001
      vertex   1.611971e+001 6.600000e+001 1.460727e+001
    endloop
  endfacet
  facet normal -9.807853e-001 0.000000e+000 -1.950902e-001
    outer loop
      vertex   2.404015e+001 7.900000e+001 1.380363e+001
      vertex   2.388029e+001 6.600000e+001 1.460727e+001
      vertex   2.388029e+001 9.200000e+001 1.460727e+001
    endloop
  endfacet
  facet normal -8.314695e-001 -2.037820e-008 -5.555704e-001
    outer loop
      vertex   2.342507e+001 7.900000e+001 1.528856e+001
      vertex   2.388029e+001 6.600000e+001 1.460727e+001
      vertex   2.296985e+001 6.600000e+001 1.596985e+001
    endloop
  endfacet
  facet normal -8.314693e-001 -0.000000e+000 -5.555707e-001
    outer loop
      vertex   2.342507e+001 7.900000e+001 1.528856e+001
      vertex   2.388029e+001 9.200000e+001 1.460727e+001
      vertex   2.388029e+001 6.600000e+001 1.460727e+001
    endloop
  endfacet
  facet normal -8.314695e-001 2.037820e-008 -5.555704e-001
    outer loop
      vertex   2.342507e+001 7.900000e+001 1.528856e+001
      vertex   2.296985e+001 9.200000e+001 1.596985e+001
      vertex   2.388029e+001 9.200000e+001 1.460727e+001
    endloop
  endfacet
  facet normal 0.000000e+000 -1.000000e+000 0.000000e+000
    outer loop
      vertex   1.703015e+001 6.600000e+001 1.596985e+001
      vertex   7.000000e+000 6.600000e+001 2.600000e+001
      vertex   1.611971e+001 6.600000e+001 1.460727e+001
    endloop
  endfacet
  facet normal 8.314693e-001 0.000000e+000 -5.555707e-001
    outer loop
      vertex   1.657493e+001 7.900000e+001 1.528856e+001
      vertex   1.611971e+001 6.600000e+001 1.460727e+001
      vertex   1.611971e+001 9.200000e+001 1.460727e+001
    endloop
  endfacet
  facet normal 8.314695e-001 -2.037820e-008 -5.555704e-001
    outer loop
      vertex   1.657493e+001 7.900000e+001 1.528856e+001
      vertex   1.703015e+001 6.600000e+001 1.596985e+001
      vertex   1.611971e+001 6.600000e+001 1.460727e+001
    endloop
  endfacet
  facet normal 0.000000e+000 1.000000e+000 -0.000000e+000
    outer loop
      vertex   1.703015e+001 9.200000e+001 1.596985e+001
      vertex   1.611971e+001 9.200000e+001 1.460727e+001
      vertex   7.000000e+000 9.200000e+001 2.600000e+001
    endloop
  endfacet
  facet normal 8.314695e-001 2.037820e-008 -5.555704e-001
    outer loop
      vertex   1.657493e+001 7.900000e+001 1.528856e+001
      vertex   1.611971e+001 9.200000e+001 1.460727e+001
      vertex   1.703015e+001 9.200000e+001 1.596985e+001
    endloop
  endfacet
  facet normal -8.314697e-001 0.000000e+000 -5.555701e-001
    outer loop
      vertex   2.342507e+001 7.900000e+001 1.528856e+001
      vertex   2.296985e+001 6.600000e+001 1.596985e+001
      vertex   2.296985e+001 9.200000e+001 1.596985e+001
    endloop
  endfacet
  facet normal 8.314697e-001 0.000000e+000 -5.555701e-001
    outer loop
      vertex   1.657493e+001 7.900000e+001 1.528856e+001
      vertex   1.703015e+001 9.200000e+001 1.596985e+001
      vertex   1.703015e+001 6.600000e+001 1.596985e+001
    endloop
  endfacet
  facet normal -5.555707e-001 4.075642e-008 -8.314693e-001
    outer loop
      vertex   2.228856e+001 7.900000e+001 1.642507e+001
      vertex   2.160727e+001 9.200000e+001 1.688029e+001
      vertex   2.296985e+001 9.200000e+001 1.596985e+001
    endloop
  endfacet
  facet normal 5.555701e-001 0.000000e+000 -8.314697e-001
    outer loop
      vertex   1.771144e+001 7.900000e+001 1.642507e+001
      vertex   1.703015e+001 6.600000e+001 1.596985e+001
      vertex   1.703015e+001 9.200000e+001 1.596985e+001
    endloop
  endfacet
  facet normal 0.000000e+000 1.000000e+000 -0.000000e+000
    outer loop
      vertex   1.839273e+001 9.200000e+001 1.688029e+001
      vertex   1.703015e+001 9.200000e+001 1.596985e+001
      vertex   7.000000e+000 9.200000e+001 2.600000e+001
    endloop
  endfacet
  facet normal -5.555701e-001 -0.000000e+000 -8.314697e-001
    outer loop
      vertex   2.228856e+001 7.900000e+001 1.642507e+001
      vertex   2.296985e+001 9.200000e+001 1.596985e+001
      vertex   2.296985e+001 6.600000e+001 1.596985e+001
    endloop
  endfacet
  facet normal -5.555707e-001 -4.075642e-008 -8.314693e-001
    outer loop
      vertex   2.228856e+001 7.900000e+001 1.642507e+001
      vertex   2.296985e+001 6.600000e+001 1.596985e+001
      vertex   2.160727e+001 6.600000e+001 1.688029e+001
    endloop
  endfacet
  facet normal 0.000000e+000 -1.000000e+000 0.000000e+000
    outer loop
      vertex   1.839273e+001 6.600000e+001 1.688029e+001
      vertex   7.000000e+000 6.600000e+001 2.600000e+001
      vertex   1.703015e+001 6.600000e+001 1.596985e+001
    endloop
  endfacet
  facet normal 5.555707e-001 4.075642e-008 -8.314693e-001
    outer loop
      vertex   1.771144e+001 7.900000e+001 1.642507e+001
      vertex   1.703015e+001 9.200000e+001 1.596985e+001
      vertex   1.839273e+001 9.200000e+001 1.688029e+001
    endloop
  endfacet
  facet normal 5.555707e-001 -4.075642e-008 -8.314693e-001
    outer loop
      vertex   1.771144e+001 7.900000e+001 1.642507e+001
      vertex   1.839273e+001 6.600000e+001 1.688029e+001
      vertex   1.703015e+001 6.600000e+001 1.596985e+001
    endloop
  endfacet
  facet normal 5.555712e-001 0.000000e+000 -8.314690e-001
    outer loop
      vertex   1.771144e+001 7.900000e+001 1.642507e+001
      vertex   1.839273e+001 9.200000e+001 1.688029e+001
      vertex   1.839273e+001 6.600000e+001 1.688029e+001
    endloop
  endfacet
  facet normal -5.555712e-001 0.000000e+000 -8.314690e-001
    outer loop
      vertex   2.228856e+001 7.900000e+001 1.642507e+001
      vertex   2.160727e+001 6.600000e+001 1.688029e+001
      vertex   2.160727e+001 9.200000e+001 1.688029e+001
    endloop
  endfacet
  facet normal 1.950900e-001 0.000000e+000 -9.807853e-001
    outer loop
      vertex   1.919637e+001 7.900000e+001 1.704015e+001
      vertex   1.839273e+001 6.600000e+001 1.688029e+001
      vertex   1.839273e+001 9.200000e+001 1.688029e+001
    endloop
  endfacet
  facet normal 1.950902e-001 -1.431173e-008 -9.807853e-001
    outer loop
      vertex   1.919637e+001 7.900000e+001 1.704015e+001
      vertex   2.000000e+001 6.600000e+001 1.720000e+001
      vertex   1.839273e+001 6.600000e+001 1.688029e+001
    endloop
  endfacet
  facet normal 1.950902e-001 1.431173e-008 -9.807853e-001
    outer loop
      vertex   1.919637e+001 7.900000e+001 1.704015e+001
      vertex   1.839273e+001 9.200000e+001 1.688029e+001
      vertex   2.000000e+001 9.200000e+001 1.720000e+001
    endloop
  endfacet
  facet normal -0.000000e+000 1.000000e+000 -0.000000e+000
    outer loop
      vertex   2.160727e+001 9.200000e+001 1.688029e+001
      vertex   2.000000e+001 9.200000e+001 1.720000e+001
      vertex   7.000000e+000 9.200000e+001 2.600000e+001
    endloop
  endfacet
  facet normal 0.000000e+000 -1.000000e+000 0.000000e+000
    outer loop
      vertex   2.160727e+001 6.600000e+001 1.688029e+001
      vertex   7.000000e+000 6.600000e+001 2.600000e+001
      vertex   2.000000e+001 6.600000e+001 1.720000e+001
    endloop
  endfacet
  facet normal 0.000000e+000 -1.000000e+000 0.000000e+000
    outer loop
      vertex   2.000000e+001 6.600000e+001 1.720000e+001
      vertex   7.000000e+000 6.600000e+001 2.600000e+001
      vertex   1.839273e+001 6.600000e+001 1.688029e+001
    endloop
  endfacet
  facet normal -1.950900e-001 -0.000000e+000 -9.807853e-001
    outer loop
      vertex   2.080363e+001 7.900000e+001 1.704015e+001
      vertex   2.160727e+001 9.200000e+001 1.688029e+001
      vertex   2.160727e+001 6.600000e+001 1.688029e+001
    endloop
  endfacet
  facet normal -1.950902e-001 1.431173e-008 -9.807853e-001
    outer loop
      vertex   2.080363e+001 7.900000e+001 1.704015e+001
      vertex   2.000000e+001 9.200000e+001 1.720000e+001
      vertex   2.160727e+001 9.200000e+001 1.688029e+001
    endloop
  endfacet
  facet normal -1.950902e-001 -1.431173e-008 -9.807853e-001
    outer loop
      vertex   2.080363e+001 7.900000e+001 1.704015e+001
      vertex   2.160727e+001 6.600000e+001 1.688029e+001
      vertex   2.000000e+001 6.600000e+001 1.720000e+001
    endloop
  endfacet
  facet normal 0.000000e+000 1.000000e+000 -0.000000e+000
    outer loop
      vertex   2.000000e+001 9.200000e+001 1.720000e+001
      vertex   1.839273e+001 9.200000e+001 1.688029e+001
      vertex   7.000000e+000 9.200000e+001 2.600000e+001
    endloop
  endfacet
  facet normal 1.950905e-001 0.000000e+000 -9.807853e-001
    outer loop
      vertex   1.919637e+001 7.900000e+001 1.704015e+001
      vertex   2.000000e+001 9.200000e+001 1.720000e+001
      vertex   2.000000e+001 6.600000e+001 1.720000e+001
    endloop
  endfacet
  facet normal -1.950905e-001 0.000000e+000 -9.807853e-001
    outer loop
      vertex   2.080363e+001 7.900000e+001 1.704015e+001
      vertex   2.000000e+001 6.600000e+001 1.720000e+001
      vertex   2.000000e+001 9.200000e+001 1.720000e+001
    endloop
  endfacet
  facet normal -0.000000e+000 0.000000e+000 1.000000e+000
    outer loop
      vertex   8.500000e+001 9.200000e+001 2.600000e+001
      vertex   7.496985e+001 8.196985e+001 2.600000e+001
      vertex   7.588029e+001 8.060727e+001 2.600000e+001
    endloop
  endfacet
  facet normal -0.000000e+000 0.000000e+000 1.000000e+000
    outer loop
      vertex   8.500000e+001 9.200000e+001 2.600000e+001
      vertex   7.000000e+000 9.200000e+001 2.600000e+001
      vertex   7.200000e+001 8.320000e+001 2.600000e+001
    endloop
  endfacet
  facet normal -0.000000e+000 0.000000e+000 1.000000e+000
    outer loop
      vertex   8.500000e+001 9.200000e+001 2.600000e+001
      vertex   7.200000e+001 8.320000e+001 2.600000e+001
      vertex   7.360727e+001 8.288029e+001 2.600000e+001
    endloop
  endfacet
  facet normal 0.000000e+000 0.000000e+000 1.000000e+000
    outer loop
      vertex   7.200000e+001 8.320000e+001 2.600000e+001
      vertex   7.000000e+000 9.200000e+001 2.600000e+001
      vertex   7.039273e+001 8.288029e+001 2.600000e+001
    endloop
  endfacet
  facet normal -0.000000e+000 -0.000000e+000 1.000000e+000
    outer loop
      vertex   7.588029e+001 8.060727e+001 2.600000e+001
      vertex   7.620000e+001 7.900000e+001 2.600000e+001
      vertex   8.500000e+001 6.600000e+001 2.600000e+001
    endloop
  endfacet
  facet normal 0.000000e+000 0.000000e+000 1.000000e+000
    outer loop
      vertex   7.039273e+001 8.288029e+001 2.600000e+001
      vertex   7.000000e+000 9.200000e+001 2.600000e+001
      vertex   6.903015e+001 8.196985e+001 2.600000e+001
    endloop
  endfacet
  facet normal -0.000000e+000 0.000000e+000 1.000000e+000
    outer loop
      vertex   7.620000e+001 7.900000e+001 2.600000e+001
      vertex   7.588029e+001 7.739273e+001 2.600000e+001
      vertex   8.500000e+001 6.600000e+001 2.600000e+001
    endloop
  endfacet
  facet normal 0.000000e+000 0.000000e+000 1.000000e+000
    outer loop
      vertex   6.903015e+001 8.196985e+001 2.600000e+001
      vertex   7.000000e+000 9.200000e+001 2.600000e+001
      vertex   6.811971e+001 8.060727e+001 2.600000e+001
    endloop
  endfacet
  facet normal -0.000000e+000 0.000000e+000 1.000000e+000
    outer loop
      vertex   7.588029e+001 7.739273e+001 2.600000e+001
      vertex   7.496985e+001 7.603015e+001 2.600000e+001
      vertex   8.500000e+001 6.600000e+001 2.600000e+001
    endloop
  endfacet
  facet normal 0.000000e+000 0.000000e+000 1.000000e+000
    outer loop
      vertex   6.811971e+001 8.060727e+001 2.600000e+001
      vertex   7.000000e+000 9.200000e+001 2.600000e+001
      vertex   6.780000e+001 7.900000e+001 2.600000e+001
    endloop
  endfacet
  facet normal -0.000000e+000 0.000000e+000 1.000000e+000
    outer loop
      vertex   7.496985e+001 7.603015e+001 2.600000e+001
      vertex   7.360727e+001 7.511971e+001 2.600000e+001
      vertex   8.500000e+001 6.600000e+001 2.600000e+001
    endloop
  endfacet
  facet normal 0.000000e+000 0.000000e+000 1.000000e+000
    outer loop
      vertex   6.780000e+001 7.900000e+001 2.600000e+001
      vertex   7.000000e+000 9.200000e+001 2.600000e+001
      vertex   4.760727e+001 8.288029e+001 2.600000e+001
    endloop
  endfacet
  facet normal 0.000000e+000 0.000000e+000 1.000000e+000
    outer loop
      vertex   6.780000e+001 7.900000e+001 2.600000e+001
      vertex   4.760727e+001 8.288029e+001 2.600000e+001
      vertex   6.811971e+001 7.739273e+001 2.600000e+001
    endloop
  endfacet
  facet normal -0.000000e+000 0.000000e+000 1.000000e+000
    outer loop
      vertex   7.360727e+001 7.511971e+001 2.600000e+001
      vertex   7.200000e+001 7.480000e+001 2.600000e+001
      vertex   8.500000e+001 6.600000e+001 2.600000e+001
    endloop
  endfacet
  facet normal 0.000000e+000 0.000000e+000 1.000000e+000
    outer loop
      vertex   7.039273e+001 7.511971e+001 2.600000e+001
      vertex   4.760727e+001 8.288029e+001 2.600000e+001
      vertex   8.500000e+001 6.600000e+001 2.600000e+001
    endloop
  endfacet
  facet normal -0.000000e+000 0.000000e+000 1.000000e+000
    outer loop
      vertex   8.500000e+001 9.200000e+001 2.600000e+001
      vertex   7.588029e+001 8.060727e+001 2.600000e+001
      vertex   8.500000e+001 6.600000e+001 2.600000e+001
    endloop
  endfacet
  facet normal -0.000000e+000 0.000000e+000 1.000000e+000
    outer loop
      vertex   8.500000e+001 9.200000e+001 2.600000e+001
      vertex   7.360727e+001 8.288029e+001 2.600000e+001
      vertex   7.496985e+001 8.196985e+001 2.600000e+001
    endloop
  endfacet
  facet normal 0.000000e+000 0.000000e+000 1.000000e+000
    outer loop
      vertex   8.500000e+001 6.600000e+001 2.600000e+001
      vertex   5.020000e+001 7.900000e+001 2.600000e+001
      vertex   4.988029e+001 7.739273e+001 2.600000e+001
    endloop
  endfacet
  facet normal 0.000000e+000 0.000000e+000 1.000000e+000
    outer loop
      vertex   8.500000e+001 6.600000e+001 2.600000e+001
      vertex   4.988029e+001 8.060727e+001 2.600000e+001
      vertex   5.020000e+001 7.900000e+001 2.600000e+001
    endloop
  endfacet
  facet normal 0.000000e+000 0.000000e+000 1.000000e+000
    outer loop
      vertex   8.500000e+001 6.600000e+001 2.600000e+001
      vertex   4.896985e+001 8.196985e+001 2.600000e+001
      vertex   4.988029e+001 8.060727e+001 2.600000e+001
    endloop
  endfacet
  facet normal 0.000000e+000 0.000000e+000 1.000000e+000
    outer loop
      vertex   8.500000e+001 6.600000e+001 2.600000e+001
      vertex   4.760727e+001 8.288029e+001 2.600000e+001
      vertex   4.896985e+001 8.196985e+001 2.600000e+001
    endloop
  endfacet
  facet normal 0.000000e+000 0.000000e+000 1.000000e+000
    outer loop
      vertex   4.760727e+001 8.288029e+001 2.600000e+001
      vertex   7.000000e+000 9.200000e+001 2.600000e+001
      vertex   4.600000e+001 8.320000e+001 2.600000e+001
    endloop
  endfacet
  facet normal 0.000000e+000 0.000000e+000 1.000000e+000
    outer loop
      vertex   4.600000e+001 8.320000e+001 2.600000e+001
      vertex   7.000000e+000 9.200000e+001 2.600000e+001
      vertex   4.439273e+001 8.288029e+001 2.600000e+001
    endloop
  endfacet
  facet normal 0.000000e+000 0.000000e+000 1.000000e+000
    outer loop
      vertex   4.439273e+001 8.288029e+001 2.600000e+001
      vertex   7.000000e+000 9.200000e+001 2.600000e+001
      vertex   4.303015e+001 8.196985e+001 2.600000e+001
    endloop
  endfacet
  facet normal 0.000000e+000 0.000000e+000 1.000000e+000
    outer loop
      vertex   4.303015e+001 8.196985e+001 2.600000e+001
      vertex   7.000000e+000 9.200000e+001 2.600000e+001
      vertex   4.211971e+001 8.060727e+001 2.600000e+001
    endloop
  endfacet
  facet normal 0.000000e+000 0.000000e+000 1.000000e+000
    outer loop
      vertex   4.211971e+001 8.060727e+001 2.600000e+001
      vertex   7.000000e+000 9.200000e+001 2.600000e+001
      vertex   4.180000e+001 7.900000e+001 2.600000e+001
    endloop
  endfacet
  facet normal 0.000000e+000 0.000000e+000 1.000000e+000
    outer loop
      vertex   4.180000e+001 7.900000e+001 2.600000e+001
      vertex   7.000000e+000 9.200000e+001 2.600000e+001
      vertex   4.211971e+001 7.739273e+001 2.600000e+001
    endloop
  endfacet
  facet normal -0.000000e+000 0.000000e+000 1.000000e+000
    outer loop
      vertex   4.760727e+001 7.511971e+001 2.600000e+001
      vertex   4.600000e+001 7.480000e+001 2.600000e+001
      vertex   7.000000e+000 6.600000e+001 2.600000e+001
    endloop
  endfacet
  facet normal 0.000000e+000 0.000000e+000 1.000000e+000
    outer loop
      vertex   4.211971e+001 7.739273e+001 2.600000e+001
      vertex   7.000000e+000 9.200000e+001 2.600000e+001
      vertex   4.303015e+001 7.603015e+001 2.600000e+001
    endloop
  endfacet
  facet normal 0.000000e+000 0.000000e+000 1.000000e+000
    outer loop
      vertex   4.600000e+001 7.480000e+001 2.600000e+001
      vertex   4.439273e+001 7.511971e+001 2.600000e+001
      vertex   7.000000e+000 6.600000e+001 2.600000e+001
    endloop
  endfacet
  facet normal 0.000000e+000 0.000000e+000 1.000000e+000
    outer loop
      vertex   4.303015e+001 7.603015e+001 2.600000e+001
      vertex   7.000000e+000 9.200000e+001 2.600000e+001
      vertex   4.439273e+001 7.511971e+001 2.600000e+001
    endloop
  endfacet
  facet normal 0.000000e+000 0.000000e+000 1.000000e+000
    outer loop
      vertex   4.439273e+001 7.511971e+001 2.600000e+001
      vertex   7.000000e+000 9.200000e+001 2.600000e+001
      vertex   7.000000e+000 6.600000e+001 2.600000e+001
    endloop
  endfacet
  facet normal 0.000000e+000 0.000000e+000 1.000000e+000
    outer loop
      vertex   8.500000e+001 6.600000e+001 2.600000e+001
      vertex   4.896985e+001 7.603015e+001 2.600000e+001
      vertex   4.760727e+001 7.511971e+001 2.600000e+001
    endloop
  endfacet
  facet normal 0.000000e+000 0.000000e+000 1.000000e+000
    outer loop
      vertex   8.500000e+001 6.600000e+001 2.600000e+001
      vertex   4.988029e+001 7.739273e+001 2.600000e+001
      vertex   4.896985e+001 7.603015e+001 2.600000e+001
    endloop
  endfacet
  facet normal 0.000000e+000 0.000000e+000 1.000000e+000
    outer loop
      vertex   6.811971e+001 7.739273e+001 2.600000e+001
      vertex   4.760727e+001 8.288029e+001 2.600000e+001
      vertex   6.903015e+001 7.603015e+001 2.600000e+001
    endloop
  endfacet
  facet normal 0.000000e+000 0.000000e+000 1.000000e+000
    outer loop
      vertex   6.903015e+001 7.603015e+001 2.600000e+001
      vertex   4.760727e+001 8.288029e+001 2.600000e+001
      vertex   7.039273e+001 7.511971e+001 2.600000e+001
    endloop
  endfacet
  facet normal 0.000000e+000 0.000000e+000 1.000000e+000
    outer loop
      vertex   7.200000e+001 7.480000e+001 2.600000e+001
      vertex   7.039273e+001 7.511971e+001 2.600000e+001
      vertex   8.500000e+001 6.600000e+001 2.600000e+001
    endloop
  endfacet
  facet normal 0.000000e+000 0.000000e+000 1.000000e+000
    outer loop
      vertex   8.500000e+001 6.600000e+001 2.600000e+001
      vertex   4.760727e+001 7.511971e+001 2.600000e+001
      vertex   7.000000e+000 6.600000e+001 2.600000e+001
    endloop
  endfacet
endsolid
