solid ascii
  facet normal -3.420222e-001 9.396919e-001 0.000000e+000
    outer loop
      vertex   1.064018e+002 4.668518e+001 3.400000e+000
      vertex   1.073401e+002 4.702668e+001 5.400000e+000
      vertex   1.073401e+002 4.702668e+001 1.400000e+000
    endloop
  endfacet
  facet normal 9.807841e-001 -1.950962e-001 0.000000e+000
    outer loop
      vertex   1.126535e+002 3.787486e+001 3.400000e+000
      vertex   1.126059e+002 3.763568e+001 5.400000e+000
      vertex   1.126059e+002 3.763568e+001 1.400000e+000
    endloop
  endfacet
  facet normal 9.807841e-001 -1.950962e-001 0.000000e+000
    outer loop
      vertex   1.126535e+002 3.787486e+001 3.400000e+000
      vertex   1.127010e+002 3.811404e+001 1.400000e+000
      vertex   1.127010e+002 3.811404e+001 5.400000e+000
    endloop
  endfacet
  facet normal 9.807841e-001 -1.950962e-001 0.000000e+000
    outer loop
      vertex   1.126535e+002 3.787486e+001 3.400000e+000
      vertex   1.126059e+002 3.763568e+001 1.400000e+000
      vertex   1.127010e+002 3.811404e+001 1.400000e+000
    endloop
  endfacet
  facet normal 8.314674e-001 -5.555735e-001 0.000000e+000
    outer loop
      vertex   1.124704e+002 3.743292e+001 3.400000e+000
      vertex   1.123349e+002 3.723016e+001 5.400000e+000
      vertex   1.123349e+002 3.723016e+001 1.400000e+000
    endloop
  endfacet
  facet normal 0.000000e+000 1.000000e+000 0.000000e+000
    outer loop
      vertex   1.083386e+002 4.702668e+001 3.400000e+000
      vertex   1.073401e+002 4.702668e+001 1.400000e+000
      vertex   1.073401e+002 4.702668e+001 5.400000e+000
    endloop
  endfacet
  facet normal 8.314723e-001 -5.555663e-001 0.000000e+000
    outer loop
      vertex   1.124704e+002 3.743292e+001 3.400000e+000
      vertex   1.126059e+002 3.763568e+001 1.400000e+000
      vertex   1.126059e+002 3.763568e+001 5.400000e+000
    endloop
  endfacet
  facet normal 8.314699e-001 -5.555699e-001 -5.298327e-007
    outer loop
      vertex   1.124704e+002 3.743292e+001 3.400000e+000
      vertex   1.123349e+002 3.723016e+001 1.400000e+000
      vertex   1.126059e+002 3.763568e+001 1.400000e+000
    endloop
  endfacet
  facet normal 6.995827e-001 -7.145516e-001 0.000000e+000
    outer loop
      vertex   1.123253e+002 3.722071e+001 3.400000e+000
      vertex   1.123349e+002 3.723016e+001 1.400000e+000
      vertex   1.123349e+002 3.723016e+001 5.400000e+000
    endloop
  endfacet
  facet normal 6.995106e-001 -7.146222e-001 -6.815168e-007
    outer loop
      vertex   1.123253e+002 3.722071e+001 3.400000e+000
      vertex   1.123156e+002 3.721126e+001 1.400000e+000
      vertex   1.123349e+002 3.723016e+001 1.400000e+000
    endloop
  endfacet
  facet normal 6.994385e-001 -7.146928e-001 0.000000e+000
    outer loop
      vertex   1.123253e+002 3.722071e+001 3.400000e+000
      vertex   1.123156e+002 3.721126e+001 5.400000e+000
      vertex   1.123156e+002 3.721126e+001 1.400000e+000
    endloop
  endfacet
  facet normal 0.000000e+000 1.000000e+000 0.000000e+000
    outer loop
      vertex   1.061823e+002 3.936404e+001 3.400000e+000
      vertex   1.052261e+002 3.936404e+001 1.400000e+000
      vertex   1.052261e+002 3.936404e+001 5.400000e+000
    endloop
  endfacet
  facet normal 1.950842e-001 9.807865e-001 0.000000e+000
    outer loop
      vertex   1.116902e+002 3.931646e+001 3.400000e+000
      vertex   1.119294e+002 3.926889e+001 5.400000e+000
      vertex   1.119294e+002 3.926889e+001 1.400000e+000
    endloop
  endfacet
  facet normal 0.000000e+000 1.000000e+000 0.000000e+000
    outer loop
      vertex   1.061823e+002 3.936404e+001 3.400000e+000
      vertex   1.071386e+002 3.936404e+001 1.400000e+000
      vertex   1.052261e+002 3.936404e+001 1.400000e+000
    endloop
  endfacet
  facet normal 1.950932e-001 9.807847e-001 -0.000000e+000
    outer loop
      vertex   1.116902e+002 3.931646e+001 3.400000e+000
      vertex   1.114510e+002 3.936404e+001 1.400000e+000
      vertex   1.114510e+002 3.936404e+001 5.400000e+000
    endloop
  endfacet
  facet normal 1.950887e-001 9.807856e-001 5.632478e-007
    outer loop
      vertex   1.116902e+002 3.931646e+001 3.400000e+000
      vertex   1.119294e+002 3.926889e+001 1.400000e+000
      vertex   1.114510e+002 3.936404e+001 1.400000e+000
    endloop
  endfacet
  facet normal 5.555807e-001 8.314626e-001 0.000000e+000
    outer loop
      vertex   1.121322e+002 3.913341e+001 3.400000e+000
      vertex   1.123349e+002 3.899792e+001 5.400000e+000
      vertex   1.123349e+002 3.899792e+001 1.400000e+000
    endloop
  endfacet
  facet normal -1.000000e+000 0.000000e+000 -0.000000e+000
    outer loop
      vertex   1.071386e+002 4.136404e+001 3.400000e+000
      vertex   1.071386e+002 4.336404e+001 5.400000e+000
      vertex   1.071386e+002 4.336404e+001 1.400000e+000
    endloop
  endfacet
  facet normal 5.555663e-001 8.314723e-001 -0.000000e+000
    outer loop
      vertex   1.121322e+002 3.913341e+001 3.400000e+000
      vertex   1.119294e+002 3.926889e+001 1.400000e+000
      vertex   1.119294e+002 3.926889e+001 5.400000e+000
    endloop
  endfacet
  facet normal 5.555735e-001 8.314674e-001 -1.059672e-006
    outer loop
      vertex   1.121322e+002 3.913341e+001 3.400000e+000
      vertex   1.123349e+002 3.899792e+001 1.400000e+000
      vertex   1.119294e+002 3.926889e+001 1.400000e+000
    endloop
  endfacet
  facet normal 8.314723e-001 5.555663e-001 0.000000e+000
    outer loop
      vertex   1.124704e+002 3.879516e+001 3.400000e+000
      vertex   1.126059e+002 3.859240e+001 5.400000e+000
      vertex   1.126059e+002 3.859240e+001 1.400000e+000
    endloop
  endfacet
  facet normal -1.000000e+000 0.000000e+000 0.000000e+000
    outer loop
      vertex   1.071386e+002 4.136404e+001 3.400000e+000
      vertex   1.071386e+002 3.936404e+001 1.400000e+000
      vertex   1.071386e+002 3.936404e+001 5.400000e+000
    endloop
  endfacet
  facet normal 8.314674e-001 5.555735e-001 -0.000000e+000
    outer loop
      vertex   1.124704e+002 3.879516e+001 3.400000e+000
      vertex   1.123349e+002 3.899792e+001 1.400000e+000
      vertex   1.123349e+002 3.899792e+001 5.400000e+000
    endloop
  endfacet
  facet normal 8.314699e-001 5.555699e-001 -5.298327e-007
    outer loop
      vertex   1.124704e+002 3.879516e+001 3.400000e+000
      vertex   1.126059e+002 3.859240e+001 1.400000e+000
      vertex   1.123349e+002 3.899792e+001 1.400000e+000
    endloop
  endfacet
  facet normal 9.807841e-001 1.950962e-001 0.000000e+000
    outer loop
      vertex   1.126535e+002 3.835322e+001 3.400000e+000
      vertex   1.127010e+002 3.811404e+001 5.400000e+000
      vertex   1.127010e+002 3.811404e+001 1.400000e+000
    endloop
  endfacet
  facet normal 0.000000e+000 -1.000000e+000 0.000000e+000
    outer loop
      vertex   1.061823e+002 4.336404e+001 3.400000e+000
      vertex   1.052261e+002 4.336404e+001 5.400000e+000
      vertex   1.052261e+002 4.336404e+001 1.400000e+000
    endloop
  endfacet
  facet normal 9.807841e-001 1.950962e-001 -0.000000e+000
    outer loop
      vertex   1.126535e+002 3.835322e+001 3.400000e+000
      vertex   1.126059e+002 3.859240e+001 1.400000e+000
      vertex   1.126059e+002 3.859240e+001 5.400000e+000
    endloop
  endfacet
  facet normal 9.807841e-001 1.950962e-001 0.000000e+000
    outer loop
      vertex   1.126535e+002 3.835322e+001 3.400000e+000
      vertex   1.127010e+002 3.811404e+001 1.400000e+000
      vertex   1.126059e+002 3.859240e+001 1.400000e+000
    endloop
  endfacet
  facet normal 9.807841e-001 -1.950962e-001 0.000000e+000
    outer loop
      vertex   1.126535e+002 4.437486e+001 3.400000e+000
      vertex   1.126059e+002 4.413568e+001 5.400000e+000
      vertex   1.126059e+002 4.413568e+001 1.400000e+000
    endloop
  endfacet
  facet normal 0.000000e+000 -1.000000e+000 0.000000e+000
    outer loop
      vertex   1.061823e+002 4.336404e+001 3.400000e+000
      vertex   1.071386e+002 4.336404e+001 1.400000e+000
      vertex   1.071386e+002 4.336404e+001 5.400000e+000
    endloop
  endfacet
  facet normal 9.807841e-001 -1.950962e-001 0.000000e+000
    outer loop
      vertex   1.126535e+002 4.437486e+001 3.400000e+000
      vertex   1.127010e+002 4.461404e+001 1.400000e+000
      vertex   1.127010e+002 4.461404e+001 5.400000e+000
    endloop
  endfacet
  facet normal 9.807841e-001 -1.950962e-001 0.000000e+000
    outer loop
      vertex   1.126535e+002 4.437486e+001 3.400000e+000
      vertex   1.126059e+002 4.413568e+001 1.400000e+000
      vertex   1.127010e+002 4.461404e+001 1.400000e+000
    endloop
  endfacet
  facet normal 8.314674e-001 -5.555735e-001 0.000000e+000
    outer loop
      vertex   1.124704e+002 4.393292e+001 3.400000e+000
      vertex   1.123349e+002 4.373016e+001 5.400000e+000
      vertex   1.123349e+002 4.373016e+001 1.400000e+000
    endloop
  endfacet
  facet normal -6.001524e-001 7.998857e-001 0.000000e+000
    outer loop
      vertex   1.049126e+002 4.593025e+001 3.400000e+000
      vertex   1.054636e+002 4.634369e+001 5.400000e+000
      vertex   1.054636e+002 4.634369e+001 1.400000e+000
    endloop
  endfacet
  facet normal 8.314723e-001 -5.555663e-001 0.000000e+000
    outer loop
      vertex   1.124704e+002 4.393292e+001 3.400000e+000
      vertex   1.126059e+002 4.413568e+001 1.400000e+000
      vertex   1.126059e+002 4.413568e+001 5.400000e+000
    endloop
  endfacet
  facet normal 8.314699e-001 -5.555699e-001 -5.298327e-007
    outer loop
      vertex   1.124704e+002 4.393292e+001 3.400000e+000
      vertex   1.123349e+002 4.373016e+001 1.400000e+000
      vertex   1.126059e+002 4.413568e+001 1.400000e+000
    endloop
  endfacet
  facet normal 5.555663e-001 -8.314723e-001 0.000000e+000
    outer loop
      vertex   1.121322e+002 4.359467e+001 3.400000e+000
      vertex   1.119294e+002 4.345919e+001 5.400000e+000
      vertex   1.119294e+002 4.345919e+001 1.400000e+000
    endloop
  endfacet
  facet normal -6.001524e-001 7.998857e-001 0.000000e+000
    outer loop
      vertex   1.049126e+002 4.593025e+001 3.400000e+000
      vertex   1.043615e+002 4.551682e+001 1.400000e+000
      vertex   1.043615e+002 4.551682e+001 5.400000e+000
    endloop
  endfacet
  facet normal 5.555807e-001 -8.314626e-001 0.000000e+000
    outer loop
      vertex   1.121322e+002 4.359467e+001 3.400000e+000
      vertex   1.123349e+002 4.373016e+001 1.400000e+000
      vertex   1.123349e+002 4.373016e+001 5.400000e+000
    endloop
  endfacet
  facet normal 5.555735e-001 -8.314674e-001 -1.059672e-006
    outer loop
      vertex   1.121322e+002 4.359467e+001 3.400000e+000
      vertex   1.119294e+002 4.345919e+001 1.400000e+000
      vertex   1.123349e+002 4.373016e+001 1.400000e+000
    endloop
  endfacet
  facet normal -3.420197e-001 9.396928e-001 0.000000e+000
    outer loop
      vertex   1.064018e+002 4.668518e+001 3.400000e+000
      vertex   1.054636e+002 4.634369e+001 1.400000e+000
      vertex   1.054636e+002 4.634369e+001 5.400000e+000
    endloop
  endfacet
  facet normal 1.950842e-001 -9.807865e-001 0.000000e+000
    outer loop
      vertex   1.116902e+002 4.341162e+001 3.400000e+000
      vertex   1.119294e+002 4.345919e+001 1.400000e+000
      vertex   1.119294e+002 4.345919e+001 5.400000e+000
    endloop
  endfacet
  facet normal 1.950887e-001 -9.807856e-001 5.632478e-007
    outer loop
      vertex   1.116902e+002 4.341162e+001 3.400000e+000
      vertex   1.114510e+002 4.336404e+001 1.400000e+000
      vertex   1.119294e+002 4.345919e+001 1.400000e+000
    endloop
  endfacet
  facet normal 1.950932e-001 -9.807847e-001 0.000000e+000
    outer loop
      vertex   1.116902e+002 4.341162e+001 3.400000e+000
      vertex   1.114510e+002 4.336404e+001 5.400000e+000
      vertex   1.114510e+002 4.336404e+001 1.400000e+000
    endloop
  endfacet
  facet normal 6.995827e-001 7.145516e-001 0.000000e+000
    outer loop
      vertex   1.123253e+002 4.550737e+001 3.400000e+000
      vertex   1.123349e+002 4.549792e+001 5.400000e+000
      vertex   1.123349e+002 4.549792e+001 1.400000e+000
    endloop
  endfacet
  facet normal -3.420210e-001 9.396923e-001 6.523532e-007
    outer loop
      vertex   1.064018e+002 4.668518e+001 3.400000e+000
      vertex   1.073401e+002 4.702668e+001 1.400000e+000
      vertex   1.054636e+002 4.634369e+001 1.400000e+000
    endloop
  endfacet
  facet normal 6.994385e-001 7.146928e-001 -0.000000e+000
    outer loop
      vertex   1.123253e+002 4.550737e+001 3.400000e+000
      vertex   1.123156e+002 4.551682e+001 1.400000e+000
      vertex   1.123156e+002 4.551682e+001 5.400000e+000
    endloop
  endfacet
  facet normal 6.995106e-001 7.146222e-001 -6.815168e-007
    outer loop
      vertex   1.123253e+002 4.550737e+001 3.400000e+000
      vertex   1.123349e+002 4.549792e+001 1.400000e+000
      vertex   1.123156e+002 4.551682e+001 1.400000e+000
    endloop
  endfacet
  facet normal 8.314723e-001 5.555663e-001 0.000000e+000
    outer loop
      vertex   1.124704e+002 4.529516e+001 3.400000e+000
      vertex   1.126059e+002 4.509240e+001 5.400000e+000
      vertex   1.126059e+002 4.509240e+001 1.400000e+000
    endloop
  endfacet
  facet normal 0.000000e+000 0.000000e+000 -1.000000e+000
    outer loop
      vertex   1.039761e+002 3.811404e+001 1.400000e+000
      vertex   1.054636e+002 3.638439e+001 1.400000e+000
      vertex   1.040713e+002 3.763568e+001 1.400000e+000
    endloop
  endfacet
  facet normal 8.314674e-001 5.555735e-001 -0.000000e+000
    outer loop
      vertex   1.124704e+002 4.529516e+001 3.400000e+000
      vertex   1.123349e+002 4.549792e+001 1.400000e+000
      vertex   1.123349e+002 4.549792e+001 5.400000e+000
    endloop
  endfacet
  facet normal 8.314699e-001 5.555699e-001 -5.298327e-007
    outer loop
      vertex   1.124704e+002 4.529516e+001 3.400000e+000
      vertex   1.126059e+002 4.509240e+001 1.400000e+000
      vertex   1.123349e+002 4.549792e+001 1.400000e+000
    endloop
  endfacet
  facet normal 9.807841e-001 1.950962e-001 0.000000e+000
    outer loop
      vertex   1.126535e+002 4.485322e+001 3.400000e+000
      vertex   1.127010e+002 4.461404e+001 5.400000e+000
      vertex   1.127010e+002 4.461404e+001 1.400000e+000
    endloop
  endfacet
  facet normal 0.000000e+000 0.000000e+000 -1.000000e+000
    outer loop
      vertex   1.073401e+002 3.570139e+001 1.400000e+000
      vertex   1.054636e+002 3.638439e+001 1.400000e+000
      vertex   1.040713e+002 3.859240e+001 1.400000e+000
    endloop
  endfacet
  facet normal 9.807841e-001 1.950962e-001 -0.000000e+000
    outer loop
      vertex   1.126535e+002 4.485322e+001 3.400000e+000
      vertex   1.126059e+002 4.509240e+001 1.400000e+000
      vertex   1.126059e+002 4.509240e+001 5.400000e+000
    endloop
  endfacet
  facet normal 9.807841e-001 1.950962e-001 0.000000e+000
    outer loop
      vertex   1.126535e+002 4.485322e+001 3.400000e+000
      vertex   1.127010e+002 4.461404e+001 1.400000e+000
      vertex   1.126059e+002 4.509240e+001 1.400000e+000
    endloop
  endfacet
  facet normal -6.993004e-001 -7.148279e-001 -0.000000e+000
    outer loop
      vertex   1.043519e+002 3.722071e+001 3.400000e+000
      vertex   1.043422e+002 3.723016e+001 5.400000e+000
      vertex   1.043422e+002 3.723016e+001 1.400000e+000
    endloop
  endfacet
  facet normal 0.000000e+000 1.000000e+000 0.000000e+000
    outer loop
      vertex   1.083386e+002 4.702668e+001 3.400000e+000
      vertex   1.093371e+002 4.702668e+001 1.400000e+000
      vertex   1.073401e+002 4.702668e+001 1.400000e+000
    endloop
  endfacet
  facet normal -6.994385e-001 -7.146928e-001 0.000000e+000
    outer loop
      vertex   1.043519e+002 3.722071e+001 3.400000e+000
      vertex   1.043615e+002 3.721126e+001 1.400000e+000
      vertex   1.043615e+002 3.721126e+001 5.400000e+000
    endloop
  endfacet
  facet normal -6.993694e-001 -7.147604e-001 6.522927e-007
    outer loop
      vertex   1.043519e+002 3.722071e+001 3.400000e+000
      vertex   1.043422e+002 3.723016e+001 1.400000e+000
      vertex   1.043615e+002 3.721126e+001 1.400000e+000
    endloop
  endfacet
  facet normal -8.314674e-001 -5.555735e-001 0.000000e+000
    outer loop
      vertex   1.042067e+002 3.743292e+001 3.400000e+000
      vertex   1.043422e+002 3.723016e+001 1.400000e+000
      vertex   1.043422e+002 3.723016e+001 5.400000e+000
    endloop
  endfacet
  facet normal -8.314699e-001 -5.555699e-001 -5.298327e-007
    outer loop
      vertex   1.042067e+002 3.743292e+001 3.400000e+000
      vertex   1.040713e+002 3.763568e+001 1.400000e+000
      vertex   1.043422e+002 3.723016e+001 1.400000e+000
    endloop
  endfacet
  facet normal -8.314723e-001 -5.555663e-001 -0.000000e+000
    outer loop
      vertex   1.042067e+002 3.743292e+001 3.400000e+000
      vertex   1.040713e+002 3.763568e+001 5.400000e+000
      vertex   1.040713e+002 3.763568e+001 1.400000e+000
    endloop
  endfacet
  facet normal 3.420197e-001 9.396928e-001 -0.000000e+000
    outer loop
      vertex   1.102753e+002 4.668518e+001 3.400000e+000
      vertex   1.093371e+002 4.702668e+001 1.400000e+000
      vertex   1.093371e+002 4.702668e+001 5.400000e+000
    endloop
  endfacet
  facet normal -9.807841e-001 -1.950962e-001 0.000000e+000
    outer loop
      vertex   1.040237e+002 3.787486e+001 3.400000e+000
      vertex   1.040713e+002 3.763568e+001 1.400000e+000
      vertex   1.040713e+002 3.763568e+001 5.400000e+000
    endloop
  endfacet
  facet normal -9.807841e-001 -1.950962e-001 0.000000e+000
    outer loop
      vertex   1.040237e+002 3.787486e+001 3.400000e+000
      vertex   1.039761e+002 3.811404e+001 1.400000e+000
      vertex   1.040713e+002 3.763568e+001 1.400000e+000
    endloop
  endfacet
  facet normal -9.807841e-001 -1.950962e-001 -0.000000e+000
    outer loop
      vertex   1.040237e+002 3.787486e+001 3.400000e+000
      vertex   1.039761e+002 3.811404e+001 5.400000e+000
      vertex   1.039761e+002 3.811404e+001 1.400000e+000
    endloop
  endfacet
  facet normal 3.420197e-001 9.396928e-001 0.000000e+000
    outer loop
      vertex   1.102753e+002 4.668518e+001 3.400000e+000
      vertex   1.112136e+002 4.634369e+001 5.400000e+000
      vertex   1.112136e+002 4.634369e+001 1.400000e+000
    endloop
  endfacet
  facet normal -9.807841e-001 1.950962e-001 0.000000e+000
    outer loop
      vertex   1.040237e+002 3.835322e+001 3.400000e+000
      vertex   1.039761e+002 3.811404e+001 1.400000e+000
      vertex   1.039761e+002 3.811404e+001 5.400000e+000
    endloop
  endfacet
  facet normal -9.807841e-001 1.950962e-001 0.000000e+000
    outer loop
      vertex   1.040237e+002 3.835322e+001 3.400000e+000
      vertex   1.040713e+002 3.859240e+001 1.400000e+000
      vertex   1.039761e+002 3.811404e+001 1.400000e+000
    endloop
  endfacet
  facet normal -9.807841e-001 1.950962e-001 0.000000e+000
    outer loop
      vertex   1.040237e+002 3.835322e+001 3.400000e+000
      vertex   1.040713e+002 3.859240e+001 5.400000e+000
      vertex   1.040713e+002 3.859240e+001 1.400000e+000
    endloop
  endfacet
  facet normal 6.001524e-001 7.998857e-001 -0.000000e+000
    outer loop
      vertex   1.117646e+002 4.593025e+001 3.400000e+000
      vertex   1.112136e+002 4.634369e+001 1.400000e+000
      vertex   1.112136e+002 4.634369e+001 5.400000e+000
    endloop
  endfacet
  facet normal -8.314723e-001 5.555663e-001 0.000000e+000
    outer loop
      vertex   1.042067e+002 3.879516e+001 3.400000e+000
      vertex   1.040713e+002 3.859240e+001 1.400000e+000
      vertex   1.040713e+002 3.859240e+001 5.400000e+000
    endloop
  endfacet
  facet normal -8.314699e-001 5.555699e-001 -5.298327e-007
    outer loop
      vertex   1.042067e+002 3.879516e+001 3.400000e+000
      vertex   1.043422e+002 3.899792e+001 1.400000e+000
      vertex   1.040713e+002 3.859240e+001 1.400000e+000
    endloop
  endfacet
  facet normal -8.314674e-001 5.555735e-001 0.000000e+000
    outer loop
      vertex   1.042067e+002 3.879516e+001 3.400000e+000
      vertex   1.043422e+002 3.899792e+001 5.400000e+000
      vertex   1.043422e+002 3.899792e+001 1.400000e+000
    endloop
  endfacet
  facet normal 6.001524e-001 7.998857e-001 0.000000e+000
    outer loop
      vertex   1.117646e+002 4.593025e+001 3.400000e+000
      vertex   1.123156e+002 4.551682e+001 5.400000e+000
      vertex   1.123156e+002 4.551682e+001 1.400000e+000
    endloop
  endfacet
  facet normal -5.555663e-001 8.314723e-001 0.000000e+000
    outer loop
      vertex   1.045450e+002 3.913341e+001 3.400000e+000
      vertex   1.043422e+002 3.899792e+001 1.400000e+000
      vertex   1.043422e+002 3.899792e+001 5.400000e+000
    endloop
  endfacet
  facet normal -5.555663e-001 8.314723e-001 0.000000e+000
    outer loop
      vertex   1.045450e+002 3.913341e+001 3.400000e+000
      vertex   1.047477e+002 3.926889e+001 1.400000e+000
      vertex   1.043422e+002 3.899792e+001 1.400000e+000
    endloop
  endfacet
  facet normal -5.555663e-001 8.314723e-001 0.000000e+000
    outer loop
      vertex   1.045450e+002 3.913341e+001 3.400000e+000
      vertex   1.047477e+002 3.926889e+001 5.400000e+000
      vertex   1.047477e+002 3.926889e+001 1.400000e+000
    endloop
  endfacet
  facet normal 0.000000e+000 -1.000000e+000 0.000000e+000
    outer loop
      vertex   1.104948e+002 4.336404e+001 3.400000e+000
      vertex   1.095386e+002 4.336404e+001 1.400000e+000
      vertex   1.114510e+002 4.336404e+001 1.400000e+000
    endloop
  endfacet
  facet normal -1.950842e-001 9.807865e-001 0.000000e+000
    outer loop
      vertex   1.049869e+002 3.931646e+001 3.400000e+000
      vertex   1.047477e+002 3.926889e+001 1.400000e+000
      vertex   1.047477e+002 3.926889e+001 5.400000e+000
    endloop
  endfacet
  facet normal -1.950917e-001 9.807850e-001 9.353494e-007
    outer loop
      vertex   1.049869e+002 3.931646e+001 3.400000e+000
      vertex   1.052261e+002 3.936404e+001 1.400000e+000
      vertex   1.047477e+002 3.926889e+001 1.400000e+000
    endloop
  endfacet
  facet normal -1.950992e-001 9.807835e-001 0.000000e+000
    outer loop
      vertex   1.049869e+002 3.931646e+001 3.400000e+000
      vertex   1.052261e+002 3.936404e+001 5.400000e+000
      vertex   1.052261e+002 3.936404e+001 1.400000e+000
    endloop
  endfacet
  facet normal 0.000000e+000 -1.000000e+000 0.000000e+000
    outer loop
      vertex   1.104948e+002 4.336404e+001 3.400000e+000
      vertex   1.095386e+002 4.336404e+001 5.400000e+000
      vertex   1.095386e+002 4.336404e+001 1.400000e+000
    endloop
  endfacet
  facet normal -1.950842e-001 -9.807865e-001 -0.000000e+000
    outer loop
      vertex   1.049869e+002 4.341162e+001 3.400000e+000
      vertex   1.047477e+002 4.345919e+001 5.400000e+000
      vertex   1.047477e+002 4.345919e+001 1.400000e+000
    endloop
  endfacet
  facet normal 0.000000e+000 0.000000e+000 -1.000000e+000
    outer loop
      vertex   1.093371e+002 3.570139e+001 1.400000e+000
      vertex   1.073401e+002 3.570139e+001 1.400000e+000
      vertex   1.052261e+002 3.936404e+001 1.400000e+000
    endloop
  endfacet
  facet normal -1.950992e-001 -9.807835e-001 0.000000e+000
    outer loop
      vertex   1.049869e+002 4.341162e+001 3.400000e+000
      vertex   1.052261e+002 4.336404e+001 1.400000e+000
      vertex   1.052261e+002 4.336404e+001 5.400000e+000
    endloop
  endfacet
  facet normal -1.950917e-001 -9.807850e-001 9.353494e-007
    outer loop
      vertex   1.049869e+002 4.341162e+001 3.400000e+000
      vertex   1.047477e+002 4.345919e+001 1.400000e+000
      vertex   1.052261e+002 4.336404e+001 1.400000e+000
    endloop
  endfacet
  facet normal -5.555663e-001 -8.314723e-001 -0.000000e+000
    outer loop
      vertex   1.045450e+002 4.359467e+001 3.400000e+000
      vertex   1.043422e+002 4.373016e+001 5.400000e+000
      vertex   1.043422e+002 4.373016e+001 1.400000e+000
    endloop
  endfacet
  facet normal 1.000000e+000 0.000000e+000 0.000000e+000
    outer loop
      vertex   1.095386e+002 4.136404e+001 3.400000e+000
      vertex   1.095386e+002 3.936404e+001 5.400000e+000
      vertex   1.095386e+002 3.936404e+001 1.400000e+000
    endloop
  endfacet
  facet normal -5.555663e-001 -8.314723e-001 0.000000e+000
    outer loop
      vertex   1.045450e+002 4.359467e+001 3.400000e+000
      vertex   1.047477e+002 4.345919e+001 1.400000e+000
      vertex   1.047477e+002 4.345919e+001 5.400000e+000
    endloop
  endfacet
  facet normal -5.555663e-001 -8.314723e-001 0.000000e+000
    outer loop
      vertex   1.045450e+002 4.359467e+001 3.400000e+000
      vertex   1.043422e+002 4.373016e+001 1.400000e+000
      vertex   1.047477e+002 4.345919e+001 1.400000e+000
    endloop
  endfacet
  facet normal -8.314723e-001 -5.555663e-001 -0.000000e+000
    outer loop
      vertex   1.042067e+002 4.393292e+001 3.400000e+000
      vertex   1.040713e+002 4.413568e+001 5.400000e+000
      vertex   1.040713e+002 4.413568e+001 1.400000e+000
    endloop
  endfacet
  facet normal 1.000000e+000 0.000000e+000 -0.000000e+000
    outer loop
      vertex   1.095386e+002 4.136404e+001 3.400000e+000
      vertex   1.095386e+002 4.336404e+001 1.400000e+000
      vertex   1.095386e+002 4.336404e+001 5.400000e+000
    endloop
  endfacet
  facet normal -8.314674e-001 -5.555735e-001 0.000000e+000
    outer loop
      vertex   1.042067e+002 4.393292e+001 3.400000e+000
      vertex   1.043422e+002 4.373016e+001 1.400000e+000
      vertex   1.043422e+002 4.373016e+001 5.400000e+000
    endloop
  endfacet
  facet normal -8.314699e-001 -5.555699e-001 -5.298327e-007
    outer loop
      vertex   1.042067e+002 4.393292e+001 3.400000e+000
      vertex   1.040713e+002 4.413568e+001 1.400000e+000
      vertex   1.043422e+002 4.373016e+001 1.400000e+000
    endloop
  endfacet
  facet normal -9.807841e-001 -1.950962e-001 -0.000000e+000
    outer loop
      vertex   1.040237e+002 4.437486e+001 3.400000e+000
      vertex   1.039761e+002 4.461404e+001 5.400000e+000
      vertex   1.039761e+002 4.461404e+001 1.400000e+000
    endloop
  endfacet
  facet normal 0.000000e+000 1.000000e+000 0.000000e+000
    outer loop
      vertex   1.104948e+002 3.936404e+001 3.400000e+000
      vertex   1.114510e+002 3.936404e+001 5.400000e+000
      vertex   1.114510e+002 3.936404e+001 1.400000e+000
    endloop
  endfacet
  facet normal -9.807841e-001 -1.950962e-001 0.000000e+000
    outer loop
      vertex   1.040237e+002 4.437486e+001 3.400000e+000
      vertex   1.040713e+002 4.413568e+001 1.400000e+000
      vertex   1.040713e+002 4.413568e+001 5.400000e+000
    endloop
  endfacet
  facet normal -9.807841e-001 -1.950962e-001 0.000000e+000
    outer loop
      vertex   1.040237e+002 4.437486e+001 3.400000e+000
      vertex   1.039761e+002 4.461404e+001 1.400000e+000
      vertex   1.040713e+002 4.413568e+001 1.400000e+000
    endloop
  endfacet
  facet normal -9.807841e-001 1.950962e-001 0.000000e+000
    outer loop
      vertex   1.040237e+002 4.485322e+001 3.400000e+000
      vertex   1.040713e+002 4.509240e+001 5.400000e+000
      vertex   1.040713e+002 4.509240e+001 1.400000e+000
    endloop
  endfacet
  facet normal 0.000000e+000 1.000000e+000 0.000000e+000
    outer loop
      vertex   1.104948e+002 3.936404e+001 3.400000e+000
      vertex   1.095386e+002 3.936404e+001 1.400000e+000
      vertex   1.095386e+002 3.936404e+001 5.400000e+000
    endloop
  endfacet
  facet normal -9.807841e-001 1.950962e-001 0.000000e+000
    outer loop
      vertex   1.040237e+002 4.485322e+001 3.400000e+000
      vertex   1.039761e+002 4.461404e+001 1.400000e+000
      vertex   1.039761e+002 4.461404e+001 5.400000e+000
    endloop
  endfacet
  facet normal -9.807841e-001 1.950962e-001 0.000000e+000
    outer loop
      vertex   1.040237e+002 4.485322e+001 3.400000e+000
      vertex   1.040713e+002 4.509240e+001 1.400000e+000
      vertex   1.039761e+002 4.461404e+001 1.400000e+000
    endloop
  endfacet
  facet normal -8.314674e-001 5.555735e-001 0.000000e+000
    outer loop
      vertex   1.042067e+002 4.529516e+001 3.400000e+000
      vertex   1.043422e+002 4.549792e+001 5.400000e+000
      vertex   1.043422e+002 4.549792e+001 1.400000e+000
    endloop
  endfacet
  facet normal 6.001559e-001 -7.998830e-001 0.000000e+000
    outer loop
      vertex   1.117646e+002 3.679783e+001 3.400000e+000
      vertex   1.112136e+002 3.638439e+001 5.400000e+000
      vertex   1.112136e+002 3.638439e+001 1.400000e+000
    endloop
  endfacet
  facet normal -8.314723e-001 5.555663e-001 0.000000e+000
    outer loop
      vertex   1.042067e+002 4.529516e+001 3.400000e+000
      vertex   1.040713e+002 4.509240e+001 1.400000e+000
      vertex   1.040713e+002 4.509240e+001 5.400000e+000
    endloop
  endfacet
  facet normal -8.314699e-001 5.555699e-001 -5.298327e-007
    outer loop
      vertex   1.042067e+002 4.529516e+001 3.400000e+000
      vertex   1.043422e+002 4.549792e+001 1.400000e+000
      vertex   1.040713e+002 4.509240e+001 1.400000e+000
    endloop
  endfacet
  facet normal -6.993004e-001 7.148279e-001 0.000000e+000
    outer loop
      vertex   1.043519e+002 4.550737e+001 3.400000e+000
      vertex   1.043422e+002 4.549792e+001 1.400000e+000
      vertex   1.043422e+002 4.549792e+001 5.400000e+000
    endloop
  endfacet
  facet normal -6.993694e-001 7.147604e-001 6.522927e-007
    outer loop
      vertex   1.043519e+002 4.550737e+001 3.400000e+000
      vertex   1.043615e+002 4.551682e+001 1.400000e+000
      vertex   1.043422e+002 4.549792e+001 1.400000e+000
    endloop
  endfacet
  facet normal -6.994385e-001 7.146928e-001 0.000000e+000
    outer loop
      vertex   1.043519e+002 4.550737e+001 3.400000e+000
      vertex   1.043615e+002 4.551682e+001 5.400000e+000
      vertex   1.043615e+002 4.551682e+001 1.400000e+000
    endloop
  endfacet
  facet normal 6.001542e-001 -7.998844e-001 7.628291e-007
    outer loop
      vertex   1.117646e+002 3.679783e+001 3.400000e+000
      vertex   1.112136e+002 3.638439e+001 1.400000e+000
      vertex   1.123156e+002 3.721126e+001 1.400000e+000
    endloop
  endfacet
  facet normal 0.000000e+000 1.000000e+000 0.000000e+000
    outer loop
      vertex   1.061823e+002 3.936404e+001 3.400000e+000
      vertex   1.071386e+002 3.936404e+001 5.400000e+000
      vertex   1.071386e+002 3.936404e+001 1.400000e+000
    endloop
  endfacet
  facet normal 3.420197e-001 -9.396928e-001 0.000000e+000
    outer loop
      vertex   1.102753e+002 3.604289e+001 3.400000e+000
      vertex   1.112136e+002 3.638439e+001 1.400000e+000
      vertex   1.112136e+002 3.638439e+001 5.400000e+000
    endloop
  endfacet
  facet normal 0.000000e+000 0.000000e+000 -1.000000e+000
    outer loop
      vertex   1.040713e+002 3.763568e+001 1.400000e+000
      vertex   1.043615e+002 3.721126e+001 1.400000e+000
      vertex   1.043422e+002 3.723016e+001 1.400000e+000
    endloop
  endfacet
  facet normal 3.420197e-001 -9.396928e-001 0.000000e+000
    outer loop
      vertex   1.102753e+002 3.604289e+001 3.400000e+000
      vertex   1.093371e+002 3.570139e+001 1.400000e+000
      vertex   1.112136e+002 3.638439e+001 1.400000e+000
    endloop
  endfacet
  facet normal 0.000000e+000 0.000000e+000 -1.000000e+000
    outer loop
      vertex   1.054636e+002 3.638439e+001 1.400000e+000
      vertex   1.043615e+002 3.721126e+001 1.400000e+000
      vertex   1.040713e+002 3.763568e+001 1.400000e+000
    endloop
  endfacet
  facet normal 3.420197e-001 -9.396928e-001 0.000000e+000
    outer loop
      vertex   1.102753e+002 3.604289e+001 3.400000e+000
      vertex   1.093371e+002 3.570139e+001 5.400000e+000
      vertex   1.093371e+002 3.570139e+001 1.400000e+000
    endloop
  endfacet
  facet normal 0.000000e+000 0.000000e+000 -1.000000e+000
    outer loop
      vertex   1.112136e+002 3.638439e+001 1.400000e+000
      vertex   1.093371e+002 3.570139e+001 1.400000e+000
      vertex   1.071386e+002 3.936404e+001 1.400000e+000
    endloop
  endfacet
  facet normal -1.000000e+000 0.000000e+000 0.000000e+000
    outer loop
      vertex   1.071386e+002 4.136404e+001 3.400000e+000
      vertex   1.071386e+002 4.336404e+001 1.400000e+000
      vertex   1.071386e+002 3.936404e+001 1.400000e+000
    endloop
  endfacet
  facet normal 0.000000e+000 0.000000e+000 -1.000000e+000
    outer loop
      vertex   1.047477e+002 4.345919e+001 1.400000e+000
      vertex   1.043422e+002 4.373016e+001 1.400000e+000
      vertex   1.040713e+002 4.413568e+001 1.400000e+000
    endloop
  endfacet
  facet normal 0.000000e+000 0.000000e+000 -1.000000e+000
    outer loop
      vertex   1.039761e+002 4.461404e+001 1.400000e+000
      vertex   1.047477e+002 4.345919e+001 1.400000e+000
      vertex   1.040713e+002 4.413568e+001 1.400000e+000
    endloop
  endfacet
  facet normal 0.000000e+000 0.000000e+000 -1.000000e+000
    outer loop
      vertex   1.052261e+002 4.336404e+001 1.400000e+000
      vertex   1.047477e+002 4.345919e+001 1.400000e+000
      vertex   1.039761e+002 4.461404e+001 1.400000e+000
    endloop
  endfacet
  facet normal 0.000000e+000 -1.000000e+000 0.000000e+000
    outer loop
      vertex   1.061823e+002 4.336404e+001 3.400000e+000
      vertex   1.052261e+002 4.336404e+001 1.400000e+000
      vertex   1.071386e+002 4.336404e+001 1.400000e+000
    endloop
  endfacet
  facet normal 0.000000e+000 0.000000e+000 -1.000000e+000
    outer loop
      vertex   1.040713e+002 4.509240e+001 1.400000e+000
      vertex   1.052261e+002 4.336404e+001 1.400000e+000
      vertex   1.039761e+002 4.461404e+001 1.400000e+000
    endloop
  endfacet
  facet normal 0.000000e+000 0.000000e+000 -1.000000e+000
    outer loop
      vertex   1.095386e+002 3.936404e+001 1.400000e+000
      vertex   1.112136e+002 3.638439e+001 1.400000e+000
      vertex   1.071386e+002 3.936404e+001 1.400000e+000
    endloop
  endfacet
  facet normal 0.000000e+000 0.000000e+000 -1.000000e+000
    outer loop
      vertex   1.043422e+002 4.549792e+001 1.400000e+000
      vertex   1.052261e+002 4.336404e+001 1.400000e+000
      vertex   1.040713e+002 4.509240e+001 1.400000e+000
    endloop
  endfacet
  facet normal -6.001524e-001 7.998857e-001 0.000000e+000
    outer loop
      vertex   1.049126e+002 4.593025e+001 3.400000e+000
      vertex   1.054636e+002 4.634369e+001 1.400000e+000
      vertex   1.043615e+002 4.551682e+001 1.400000e+000
    endloop
  endfacet
  facet normal 0.000000e+000 0.000000e+000 -1.000000e+000
    outer loop
      vertex   1.043615e+002 4.551682e+001 1.400000e+000
      vertex   1.052261e+002 4.336404e+001 1.400000e+000
      vertex   1.043422e+002 4.549792e+001 1.400000e+000
    endloop
  endfacet
  facet normal 0.000000e+000 0.000000e+000 -1.000000e+000
    outer loop
      vertex   1.040713e+002 3.859240e+001 1.400000e+000
      vertex   1.054636e+002 3.638439e+001 1.400000e+000
      vertex   1.039761e+002 3.811404e+001 1.400000e+000
    endloop
  endfacet
  facet normal 0.000000e+000 0.000000e+000 -1.000000e+000
    outer loop
      vertex   1.043422e+002 3.899792e+001 1.400000e+000
      vertex   1.073401e+002 3.570139e+001 1.400000e+000
      vertex   1.040713e+002 3.859240e+001 1.400000e+000
    endloop
  endfacet
  facet normal 0.000000e+000 0.000000e+000 -1.000000e+000
    outer loop
      vertex   1.052261e+002 3.936404e+001 1.400000e+000
      vertex   1.073401e+002 3.570139e+001 1.400000e+000
      vertex   1.047477e+002 3.926889e+001 1.400000e+000
    endloop
  endfacet
  facet normal 0.000000e+000 0.000000e+000 -1.000000e+000
    outer loop
      vertex   1.047477e+002 3.926889e+001 1.400000e+000
      vertex   1.073401e+002 3.570139e+001 1.400000e+000
      vertex   1.043422e+002 3.899792e+001 1.400000e+000
    endloop
  endfacet
  facet normal 0.000000e+000 -1.000000e+000 0.000000e+000
    outer loop
      vertex   1.083386e+002 3.570139e+001 3.400000e+000
      vertex   1.073401e+002 3.570139e+001 5.400000e+000
      vertex   1.073401e+002 3.570139e+001 1.400000e+000
    endloop
  endfacet
  facet normal 0.000000e+000 1.000000e+000 0.000000e+000
    outer loop
      vertex   1.083386e+002 4.702668e+001 3.400000e+000
      vertex   1.093371e+002 4.702668e+001 5.400000e+000
      vertex   1.093371e+002 4.702668e+001 1.400000e+000
    endloop
  endfacet
  facet normal 0.000000e+000 0.000000e+000 -1.000000e+000
    outer loop
      vertex   1.123349e+002 3.723016e+001 1.400000e+000
      vertex   1.123156e+002 3.721126e+001 1.400000e+000
      vertex   1.095386e+002 3.936404e+001 1.400000e+000
    endloop
  endfacet
  facet normal 0.000000e+000 0.000000e+000 -1.000000e+000
    outer loop
      vertex   1.071386e+002 4.336404e+001 1.400000e+000
      vertex   1.052261e+002 4.336404e+001 1.400000e+000
      vertex   1.043615e+002 4.551682e+001 1.400000e+000
    endloop
  endfacet
  facet normal 3.420197e-001 9.396928e-001 0.000000e+000
    outer loop
      vertex   1.102753e+002 4.668518e+001 3.400000e+000
      vertex   1.112136e+002 4.634369e+001 1.400000e+000
      vertex   1.093371e+002 4.702668e+001 1.400000e+000
    endloop
  endfacet
  facet normal 0.000000e+000 0.000000e+000 -1.000000e+000
    outer loop
      vertex   1.126059e+002 3.763568e+001 1.400000e+000
      vertex   1.123349e+002 3.723016e+001 1.400000e+000
      vertex   1.095386e+002 3.936404e+001 1.400000e+000
    endloop
  endfacet
  facet normal 0.000000e+000 0.000000e+000 -1.000000e+000
    outer loop
      vertex   1.114510e+002 3.936404e+001 1.400000e+000
      vertex   1.126059e+002 3.763568e+001 1.400000e+000
      vertex   1.095386e+002 3.936404e+001 1.400000e+000
    endloop
  endfacet
  facet normal 0.000000e+000 0.000000e+000 -1.000000e+000
    outer loop
      vertex   1.071386e+002 4.336404e+001 1.400000e+000
      vertex   1.095386e+002 3.936404e+001 1.400000e+000
      vertex   1.071386e+002 3.936404e+001 1.400000e+000
    endloop
  endfacet
  facet normal 6.001524e-001 7.998857e-001 0.000000e+000
    outer loop
      vertex   1.117646e+002 4.593025e+001 3.400000e+000
      vertex   1.123156e+002 4.551682e+001 1.400000e+000
      vertex   1.112136e+002 4.634369e+001 1.400000e+000
    endloop
  endfacet
  facet normal -3.420222e-001 -9.396919e-001 0.000000e+000
    outer loop
      vertex   1.064018e+002 3.604289e+001 3.400000e+000
      vertex   1.073401e+002 3.570139e+001 1.400000e+000
      vertex   1.073401e+002 3.570139e+001 5.400000e+000
    endloop
  endfacet
  facet normal 0.000000e+000 0.000000e+000 -1.000000e+000
    outer loop
      vertex   1.119294e+002 3.926889e+001 1.400000e+000
      vertex   1.127010e+002 3.811404e+001 1.400000e+000
      vertex   1.114510e+002 3.936404e+001 1.400000e+000
    endloop
  endfacet
  facet normal 0.000000e+000 0.000000e+000 -1.000000e+000
    outer loop
      vertex   1.126059e+002 3.859240e+001 1.400000e+000
      vertex   1.127010e+002 3.811404e+001 1.400000e+000
      vertex   1.119294e+002 3.926889e+001 1.400000e+000
    endloop
  endfacet
  facet normal 0.000000e+000 0.000000e+000 -1.000000e+000
    outer loop
      vertex   1.071386e+002 3.936404e+001 1.400000e+000
      vertex   1.093371e+002 3.570139e+001 1.400000e+000
      vertex   1.052261e+002 3.936404e+001 1.400000e+000
    endloop
  endfacet
  facet normal 0.000000e+000 0.000000e+000 -1.000000e+000
    outer loop
      vertex   1.127010e+002 3.811404e+001 1.400000e+000
      vertex   1.126059e+002 3.763568e+001 1.400000e+000
      vertex   1.114510e+002 3.936404e+001 1.400000e+000
    endloop
  endfacet
  facet normal 0.000000e+000 -1.000000e+000 0.000000e+000
    outer loop
      vertex   1.104948e+002 4.336404e+001 3.400000e+000
      vertex   1.114510e+002 4.336404e+001 1.400000e+000
      vertex   1.114510e+002 4.336404e+001 5.400000e+000
    endloop
  endfacet
  facet normal -3.420210e-001 -9.396923e-001 6.523532e-007
    outer loop
      vertex   1.064018e+002 3.604289e+001 3.400000e+000
      vertex   1.054636e+002 3.638439e+001 1.400000e+000
      vertex   1.073401e+002 3.570139e+001 1.400000e+000
    endloop
  endfacet
  facet normal -3.420197e-001 -9.396928e-001 -0.000000e+000
    outer loop
      vertex   1.064018e+002 3.604289e+001 3.400000e+000
      vertex   1.054636e+002 3.638439e+001 5.400000e+000
      vertex   1.054636e+002 3.638439e+001 1.400000e+000
    endloop
  endfacet
  facet normal 0.000000e+000 0.000000e+000 -1.000000e+000
    outer loop
      vertex   1.054636e+002 4.634369e+001 1.400000e+000
      vertex   1.071386e+002 4.336404e+001 1.400000e+000
      vertex   1.043615e+002 4.551682e+001 1.400000e+000
    endloop
  endfacet
  facet normal 1.000000e+000 0.000000e+000 0.000000e+000
    outer loop
      vertex   1.095386e+002 4.136404e+001 3.400000e+000
      vertex   1.095386e+002 3.936404e+001 1.400000e+000
      vertex   1.095386e+002 4.336404e+001 1.400000e+000
    endloop
  endfacet
  facet normal 0.000000e+000 0.000000e+000 -1.000000e+000
    outer loop
      vertex   1.054636e+002 4.634369e+001 1.400000e+000
      vertex   1.095386e+002 3.936404e+001 1.400000e+000
      vertex   1.071386e+002 4.336404e+001 1.400000e+000
    endloop
  endfacet
  facet normal 0.000000e+000 0.000000e+000 -1.000000e+000
    outer loop
      vertex   1.123349e+002 3.899792e+001 1.400000e+000
      vertex   1.126059e+002 3.859240e+001 1.400000e+000
      vertex   1.119294e+002 3.926889e+001 1.400000e+000
    endloop
  endfacet
  facet normal 0.000000e+000 0.000000e+000 -1.000000e+000
    outer loop
      vertex   1.095386e+002 4.336404e+001 1.400000e+000
      vertex   1.095386e+002 3.936404e+001 1.400000e+000
      vertex   1.054636e+002 4.634369e+001 1.400000e+000
    endloop
  endfacet
  facet normal 0.000000e+000 1.000000e+000 0.000000e+000
    outer loop
      vertex   1.104948e+002 3.936404e+001 3.400000e+000
      vertex   1.114510e+002 3.936404e+001 1.400000e+000
      vertex   1.095386e+002 3.936404e+001 1.400000e+000
    endloop
  endfacet
  facet normal 0.000000e+000 0.000000e+000 -1.000000e+000
    outer loop
      vertex   1.114510e+002 4.336404e+001 1.400000e+000
      vertex   1.095386e+002 4.336404e+001 1.400000e+000
      vertex   1.073401e+002 4.702668e+001 1.400000e+000
    endloop
  endfacet
  facet normal 0.000000e+000 0.000000e+000 -1.000000e+000
    outer loop
      vertex   1.119294e+002 4.345919e+001 1.400000e+000
      vertex   1.114510e+002 4.336404e+001 1.400000e+000
      vertex   1.073401e+002 4.702668e+001 1.400000e+000
    endloop
  endfacet
  facet normal 6.001524e-001 -7.998857e-001 0.000000e+000
    outer loop
      vertex   1.117646e+002 3.679783e+001 3.400000e+000
      vertex   1.123156e+002 3.721126e+001 1.400000e+000
      vertex   1.123156e+002 3.721126e+001 5.400000e+000
    endloop
  endfacet
  facet normal 0.000000e+000 0.000000e+000 -1.000000e+000
    outer loop
      vertex   1.093371e+002 4.702668e+001 1.400000e+000
      vertex   1.123349e+002 4.373016e+001 1.400000e+000
      vertex   1.073401e+002 4.702668e+001 1.400000e+000
    endloop
  endfacet
  facet normal 0.000000e+000 0.000000e+000 -1.000000e+000
    outer loop
      vertex   1.126059e+002 4.413568e+001 1.400000e+000
      vertex   1.123349e+002 4.373016e+001 1.400000e+000
      vertex   1.093371e+002 4.702668e+001 1.400000e+000
    endloop
  endfacet
  facet normal 0.000000e+000 0.000000e+000 -1.000000e+000
    outer loop
      vertex   1.123349e+002 4.373016e+001 1.400000e+000
      vertex   1.119294e+002 4.345919e+001 1.400000e+000
      vertex   1.073401e+002 4.702668e+001 1.400000e+000
    endloop
  endfacet
  facet normal 0.000000e+000 0.000000e+000 -1.000000e+000
    outer loop
      vertex   1.123156e+002 3.721126e+001 1.400000e+000
      vertex   1.112136e+002 3.638439e+001 1.400000e+000
      vertex   1.095386e+002 3.936404e+001 1.400000e+000
    endloop
  endfacet
  facet normal -6.001559e-001 -7.998830e-001 0.000000e+000
    outer loop
      vertex   1.049126e+002 3.679783e+001 3.400000e+000
      vertex   1.054636e+002 3.638439e+001 1.400000e+000
      vertex   1.054636e+002 3.638439e+001 5.400000e+000
    endloop
  endfacet
  facet normal 0.000000e+000 -1.000000e+000 0.000000e+000
    outer loop
      vertex   1.083386e+002 3.570139e+001 3.400000e+000
      vertex   1.093371e+002 3.570139e+001 1.400000e+000
      vertex   1.093371e+002 3.570139e+001 5.400000e+000
    endloop
  endfacet
  facet normal 0.000000e+000 -1.000000e+000 0.000000e+000
    outer loop
      vertex   1.083386e+002 3.570139e+001 3.400000e+000
      vertex   1.073401e+002 3.570139e+001 1.400000e+000
      vertex   1.093371e+002 3.570139e+001 1.400000e+000
    endloop
  endfacet
  facet normal -6.001542e-001 -7.998844e-001 7.628291e-007
    outer loop
      vertex   1.049126e+002 3.679783e+001 3.400000e+000
      vertex   1.043615e+002 3.721126e+001 1.400000e+000
      vertex   1.054636e+002 3.638439e+001 1.400000e+000
    endloop
  endfacet
  facet normal -6.001524e-001 -7.998857e-001 -0.000000e+000
    outer loop
      vertex   1.049126e+002 3.679783e+001 3.400000e+000
      vertex   1.043615e+002 3.721126e+001 5.400000e+000
      vertex   1.043615e+002 3.721126e+001 1.400000e+000
    endloop
  endfacet
  facet normal 0.000000e+000 0.000000e+000 -1.000000e+000
    outer loop
      vertex   1.112136e+002 4.634369e+001 1.400000e+000
      vertex   1.127010e+002 4.461404e+001 1.400000e+000
      vertex   1.093371e+002 4.702668e+001 1.400000e+000
    endloop
  endfacet
  facet normal 0.000000e+000 0.000000e+000 -1.000000e+000
    outer loop
      vertex   1.073401e+002 4.702668e+001 1.400000e+000
      vertex   1.095386e+002 4.336404e+001 1.400000e+000
      vertex   1.054636e+002 4.634369e+001 1.400000e+000
    endloop
  endfacet
  facet normal 0.000000e+000 0.000000e+000 -1.000000e+000
    outer loop
      vertex   1.123349e+002 4.549792e+001 1.400000e+000
      vertex   1.126059e+002 4.509240e+001 1.400000e+000
      vertex   1.123156e+002 4.551682e+001 1.400000e+000
    endloop
  endfacet
  facet normal 0.000000e+000 0.000000e+000 -1.000000e+000
    outer loop
      vertex   1.127010e+002 4.461404e+001 1.400000e+000
      vertex   1.126059e+002 4.413568e+001 1.400000e+000
      vertex   1.093371e+002 4.702668e+001 1.400000e+000
    endloop
  endfacet
  facet normal 0.000000e+000 0.000000e+000 -1.000000e+000
    outer loop
      vertex   1.126059e+002 4.509240e+001 1.400000e+000
      vertex   1.127010e+002 4.461404e+001 1.400000e+000
      vertex   1.112136e+002 4.634369e+001 1.400000e+000
    endloop
  endfacet
  facet normal 0.000000e+000 0.000000e+000 -1.000000e+000
    outer loop
      vertex   1.123156e+002 4.551682e+001 1.400000e+000
      vertex   1.126059e+002 4.509240e+001 1.400000e+000
      vertex   1.112136e+002 4.634369e+001 1.400000e+000
    endloop
  endfacet
  facet normal -6.001542e-001 -7.998844e-001 -7.628292e-007
    outer loop
      vertex   1.049126e+002 3.679783e+001 3.400000e+000
      vertex   1.054636e+002 3.638439e+001 5.400000e+000
      vertex   1.043615e+002 3.721126e+001 5.400000e+000
    endloop
  endfacet
  facet normal 1.950887e-001 -9.807856e-001 -5.632478e-007
    outer loop
      vertex   1.116902e+002 4.341162e+001 3.400000e+000
      vertex   1.119294e+002 4.345919e+001 5.400000e+000
      vertex   1.114510e+002 4.336404e+001 5.400000e+000
    endloop
  endfacet
  facet normal 1.950887e-001 9.807856e-001 -5.632478e-007
    outer loop
      vertex   1.116902e+002 3.931646e+001 3.400000e+000
      vertex   1.114510e+002 3.936404e+001 5.400000e+000
      vertex   1.119294e+002 3.926889e+001 5.400000e+000
    endloop
  endfacet
  facet normal -0.000000e+000 1.000000e+000 0.000000e+000
    outer loop
      vertex   1.061823e+002 3.936404e+001 3.400000e+000
      vertex   1.052261e+002 3.936404e+001 5.400000e+000
      vertex   1.071386e+002 3.936404e+001 5.400000e+000
    endloop
  endfacet
  facet normal 3.420197e-001 9.396928e-001 0.000000e+000
    outer loop
      vertex   1.102753e+002 4.668518e+001 3.400000e+000
      vertex   1.093371e+002 4.702668e+001 5.400000e+000
      vertex   1.112136e+002 4.634369e+001 5.400000e+000
    endloop
  endfacet
  facet normal -1.950917e-001 -9.807850e-001 -9.353495e-007
    outer loop
      vertex   1.049869e+002 4.341162e+001 3.400000e+000
      vertex   1.052261e+002 4.336404e+001 5.400000e+000
      vertex   1.047477e+002 4.345919e+001 5.400000e+000
    endloop
  endfacet
  facet normal -5.555663e-001 8.314723e-001 0.000000e+000
    outer loop
      vertex   1.045450e+002 3.913341e+001 3.400000e+000
      vertex   1.043422e+002 3.899792e+001 5.400000e+000
      vertex   1.047477e+002 3.926889e+001 5.400000e+000
    endloop
  endfacet
  facet normal 6.001542e-001 -7.998844e-001 -7.628292e-007
    outer loop
      vertex   1.117646e+002 3.679783e+001 3.400000e+000
      vertex   1.123156e+002 3.721126e+001 5.400000e+000
      vertex   1.112136e+002 3.638439e+001 5.400000e+000
    endloop
  endfacet
  facet normal -6.993694e-001 7.147604e-001 -6.522927e-007
    outer loop
      vertex   1.043519e+002 4.550737e+001 3.400000e+000
      vertex   1.043422e+002 4.549792e+001 5.400000e+000
      vertex   1.043615e+002 4.551682e+001 5.400000e+000
    endloop
  endfacet
  facet normal -8.314699e-001 5.555699e-001 5.298327e-007
    outer loop
      vertex   1.042067e+002 4.529516e+001 3.400000e+000
      vertex   1.040713e+002 4.509240e+001 5.400000e+000
      vertex   1.043422e+002 4.549792e+001 5.400000e+000
    endloop
  endfacet
  facet normal -9.807841e-001 1.950962e-001 0.000000e+000
    outer loop
      vertex   1.040237e+002 4.485322e+001 3.400000e+000
      vertex   1.039761e+002 4.461404e+001 5.400000e+000
      vertex   1.040713e+002 4.509240e+001 5.400000e+000
    endloop
  endfacet
  facet normal -3.420210e-001 -9.396923e-001 -6.523532e-007
    outer loop
      vertex   1.064018e+002 3.604289e+001 3.400000e+000
      vertex   1.073401e+002 3.570139e+001 5.400000e+000
      vertex   1.054636e+002 3.638439e+001 5.400000e+000
    endloop
  endfacet
  facet normal -0.000000e+000 1.000000e+000 0.000000e+000
    outer loop
      vertex   1.104948e+002 3.936404e+001 3.400000e+000
      vertex   1.095386e+002 3.936404e+001 5.400000e+000
      vertex   1.114510e+002 3.936404e+001 5.400000e+000
    endloop
  endfacet
  facet normal -9.807841e-001 -1.950962e-001 0.000000e+000
    outer loop
      vertex   1.040237e+002 4.437486e+001 3.400000e+000
      vertex   1.040713e+002 4.413568e+001 5.400000e+000
      vertex   1.039761e+002 4.461404e+001 5.400000e+000
    endloop
  endfacet
  facet normal -5.555663e-001 -8.314723e-001 0.000000e+000
    outer loop
      vertex   1.045450e+002 4.359467e+001 3.400000e+000
      vertex   1.047477e+002 4.345919e+001 5.400000e+000
      vertex   1.043422e+002 4.373016e+001 5.400000e+000
    endloop
  endfacet
  facet normal -8.314699e-001 -5.555699e-001 5.298327e-007
    outer loop
      vertex   1.042067e+002 4.393292e+001 3.400000e+000
      vertex   1.043422e+002 4.373016e+001 5.400000e+000
      vertex   1.040713e+002 4.413568e+001 5.400000e+000
    endloop
  endfacet
  facet normal 1.000000e+000 0.000000e+000 0.000000e+000
    outer loop
      vertex   1.095386e+002 4.136404e+001 3.400000e+000
      vertex   1.095386e+002 4.336404e+001 5.400000e+000
      vertex   1.095386e+002 3.936404e+001 5.400000e+000
    endloop
  endfacet
  facet normal -9.807841e-001 1.950962e-001 0.000000e+000
    outer loop
      vertex   1.040237e+002 3.835322e+001 3.400000e+000
      vertex   1.039761e+002 3.811404e+001 5.400000e+000
      vertex   1.040713e+002 3.859240e+001 5.400000e+000
    endloop
  endfacet
  facet normal 6.001524e-001 7.998857e-001 0.000000e+000
    outer loop
      vertex   1.117646e+002 4.593025e+001 3.400000e+000
      vertex   1.112136e+002 4.634369e+001 5.400000e+000
      vertex   1.123156e+002 4.551682e+001 5.400000e+000
    endloop
  endfacet
  facet normal -8.314699e-001 5.555699e-001 5.298327e-007
    outer loop
      vertex   1.042067e+002 3.879516e+001 3.400000e+000
      vertex   1.040713e+002 3.859240e+001 5.400000e+000
      vertex   1.043422e+002 3.899792e+001 5.400000e+000
    endloop
  endfacet
  facet normal -8.314699e-001 -5.555699e-001 5.298327e-007
    outer loop
      vertex   1.042067e+002 3.743292e+001 3.400000e+000
      vertex   1.043422e+002 3.723016e+001 5.400000e+000
      vertex   1.040713e+002 3.763568e+001 5.400000e+000
    endloop
  endfacet
  facet normal -9.807841e-001 -1.950962e-001 0.000000e+000
    outer loop
      vertex   1.040237e+002 3.787486e+001 3.400000e+000
      vertex   1.040713e+002 3.763568e+001 5.400000e+000
      vertex   1.039761e+002 3.811404e+001 5.400000e+000
    endloop
  endfacet
  facet normal 6.995106e-001 -7.146222e-001 6.815168e-007
    outer loop
      vertex   1.123253e+002 3.722071e+001 3.400000e+000
      vertex   1.123349e+002 3.723016e+001 5.400000e+000
      vertex   1.123156e+002 3.721126e+001 5.400000e+000
    endloop
  endfacet
  facet normal -6.993694e-001 -7.147604e-001 -6.522927e-007
    outer loop
      vertex   1.043519e+002 3.722071e+001 3.400000e+000
      vertex   1.043615e+002 3.721126e+001 5.400000e+000
      vertex   1.043422e+002 3.723016e+001 5.400000e+000
    endloop
  endfacet
  facet normal -0.000000e+000 -1.000000e+000 0.000000e+000
    outer loop
      vertex   1.083386e+002 3.570139e+001 3.400000e+000
      vertex   1.093371e+002 3.570139e+001 5.400000e+000
      vertex   1.073401e+002 3.570139e+001 5.400000e+000
    endloop
  endfacet
  facet normal 5.555735e-001 -8.314674e-001 1.059672e-006
    outer loop
      vertex   1.121322e+002 4.359467e+001 3.400000e+000
      vertex   1.123349e+002 4.373016e+001 5.400000e+000
      vertex   1.119294e+002 4.345919e+001 5.400000e+000
    endloop
  endfacet
  facet normal -6.001524e-001 7.998857e-001 0.000000e+000
    outer loop
      vertex   1.049126e+002 4.593025e+001 3.400000e+000
      vertex   1.043615e+002 4.551682e+001 5.400000e+000
      vertex   1.054636e+002 4.634369e+001 5.400000e+000
    endloop
  endfacet
  facet normal 8.314699e-001 -5.555699e-001 5.298327e-007
    outer loop
      vertex   1.124704e+002 4.393292e+001 3.400000e+000
      vertex   1.126059e+002 4.413568e+001 5.400000e+000
      vertex   1.123349e+002 4.373016e+001 5.400000e+000
    endloop
  endfacet
  facet normal 9.807841e-001 -1.950962e-001 0.000000e+000
    outer loop
      vertex   1.126535e+002 4.437486e+001 3.400000e+000
      vertex   1.127010e+002 4.461404e+001 5.400000e+000
      vertex   1.126059e+002 4.413568e+001 5.400000e+000
    endloop
  endfacet
  facet normal -0.000000e+000 -1.000000e+000 0.000000e+000
    outer loop
      vertex   1.061823e+002 4.336404e+001 3.400000e+000
      vertex   1.071386e+002 4.336404e+001 5.400000e+000
      vertex   1.052261e+002 4.336404e+001 5.400000e+000
    endloop
  endfacet
  facet normal 9.807841e-001 1.950962e-001 0.000000e+000
    outer loop
      vertex   1.126535e+002 3.835322e+001 3.400000e+000
      vertex   1.126059e+002 3.859240e+001 5.400000e+000
      vertex   1.127010e+002 3.811404e+001 5.400000e+000
    endloop
  endfacet
  facet normal 8.314699e-001 5.555699e-001 5.298327e-007
    outer loop
      vertex   1.124704e+002 3.879516e+001 3.400000e+000
      vertex   1.123349e+002 3.899792e+001 5.400000e+000
      vertex   1.126059e+002 3.859240e+001 5.400000e+000
    endloop
  endfacet
  facet normal 5.555735e-001 8.314674e-001 1.059672e-006
    outer loop
      vertex   1.121322e+002 3.913341e+001 3.400000e+000
      vertex   1.119294e+002 3.926889e+001 5.400000e+000
      vertex   1.123349e+002 3.899792e+001 5.400000e+000
    endloop
  endfacet
  facet normal 3.420197e-001 -9.396928e-001 0.000000e+000
    outer loop
      vertex   1.102753e+002 3.604289e+001 3.400000e+000
      vertex   1.112136e+002 3.638439e+001 5.400000e+000
      vertex   1.093371e+002 3.570139e+001 5.400000e+000
    endloop
  endfacet
  facet normal -1.950917e-001 9.807850e-001 -9.353495e-007
    outer loop
      vertex   1.049869e+002 3.931646e+001 3.400000e+000
      vertex   1.047477e+002 3.926889e+001 5.400000e+000
      vertex   1.052261e+002 3.936404e+001 5.400000e+000
    endloop
  endfacet
  facet normal -0.000000e+000 -1.000000e+000 0.000000e+000
    outer loop
      vertex   1.104948e+002 4.336404e+001 3.400000e+000
      vertex   1.114510e+002 4.336404e+001 5.400000e+000
      vertex   1.095386e+002 4.336404e+001 5.400000e+000
    endloop
  endfacet
  facet normal 9.807841e-001 1.950962e-001 0.000000e+000
    outer loop
      vertex   1.126535e+002 4.485322e+001 3.400000e+000
      vertex   1.126059e+002 4.509240e+001 5.400000e+000
      vertex   1.127010e+002 4.461404e+001 5.400000e+000
    endloop
  endfacet
  facet normal 8.314699e-001 -5.555699e-001 5.298327e-007
    outer loop
      vertex   1.124704e+002 3.743292e+001 3.400000e+000
      vertex   1.126059e+002 3.763568e+001 5.400000e+000
      vertex   1.123349e+002 3.723016e+001 5.400000e+000
    endloop
  endfacet
  facet normal 8.314699e-001 5.555699e-001 5.298327e-007
    outer loop
      vertex   1.124704e+002 4.529516e+001 3.400000e+000
      vertex   1.123349e+002 4.549792e+001 5.400000e+000
      vertex   1.126059e+002 4.509240e+001 5.400000e+000
    endloop
  endfacet
  facet normal -3.420210e-001 9.396923e-001 -6.523532e-007
    outer loop
      vertex   1.064018e+002 4.668518e+001 3.400000e+000
      vertex   1.054636e+002 4.634369e+001 5.400000e+000
      vertex   1.073401e+002 4.702668e+001 5.400000e+000
    endloop
  endfacet
  facet normal 6.995106e-001 7.146222e-001 6.815168e-007
    outer loop
      vertex   1.123253e+002 4.550737e+001 3.400000e+000
      vertex   1.123156e+002 4.551682e+001 5.400000e+000
      vertex   1.123349e+002 4.549792e+001 5.400000e+000
    endloop
  endfacet
  facet normal 9.807841e-001 -1.950962e-001 0.000000e+000
    outer loop
      vertex   1.126535e+002 3.787486e+001 3.400000e+000
      vertex   1.127010e+002 3.811404e+001 5.400000e+000
      vertex   1.126059e+002 3.763568e+001 5.400000e+000
    endloop
  endfacet
  facet normal -1.000000e+000 0.000000e+000 0.000000e+000
    outer loop
      vertex   1.071386e+002 4.136404e+001 3.400000e+000
      vertex   1.071386e+002 3.936404e+001 5.400000e+000
      vertex   1.071386e+002 4.336404e+001 5.400000e+000
    endloop
  endfacet
  facet normal -0.000000e+000 1.000000e+000 0.000000e+000
    outer loop
      vertex   1.083386e+002 4.702668e+001 3.400000e+000
      vertex   1.073401e+002 4.702668e+001 5.400000e+000
      vertex   1.093371e+002 4.702668e+001 5.400000e+000
    endloop
  endfacet
  facet normal 0.000000e+000 0.000000e+000 1.000000e+000
    outer loop
      vertex   1.071386e+002 4.336404e+001 5.400000e+000
      vertex   1.071386e+002 3.936404e+001 5.400000e+000
      vertex   1.095386e+002 3.936404e+001 5.400000e+000
    endloop
  endfacet
  facet normal 0.000000e+000 0.000000e+000 1.000000e+000
    outer loop
      vertex   1.123156e+002 4.551682e+001 5.400000e+000
      vertex   1.112136e+002 4.634369e+001 5.400000e+000
      vertex   1.126059e+002 4.509240e+001 5.400000e+000
    endloop
  endfacet
  facet normal 0.000000e+000 0.000000e+000 1.000000e+000
    outer loop
      vertex   1.126059e+002 4.509240e+001 5.400000e+000
      vertex   1.112136e+002 4.634369e+001 5.400000e+000
      vertex   1.127010e+002 4.461404e+001 5.400000e+000
    endloop
  endfacet
  facet normal 0.000000e+000 0.000000e+000 1.000000e+000
    outer loop
      vertex   1.112136e+002 4.634369e+001 5.400000e+000
      vertex   1.093371e+002 4.702668e+001 5.400000e+000
      vertex   1.127010e+002 4.461404e+001 5.400000e+000
    endloop
  endfacet
  facet normal 0.000000e+000 0.000000e+000 1.000000e+000
    outer loop
      vertex   1.127010e+002 4.461404e+001 5.400000e+000
      vertex   1.093371e+002 4.702668e+001 5.400000e+000
      vertex   1.126059e+002 4.413568e+001 5.400000e+000
    endloop
  endfacet
  facet normal 0.000000e+000 0.000000e+000 1.000000e+000
    outer loop
      vertex   1.126059e+002 4.413568e+001 5.400000e+000
      vertex   1.093371e+002 4.702668e+001 5.400000e+000
      vertex   1.123349e+002 4.373016e+001 5.400000e+000
    endloop
  endfacet
  facet normal 0.000000e+000 0.000000e+000 1.000000e+000
    outer loop
      vertex   1.123349e+002 4.373016e+001 5.400000e+000
      vertex   1.093371e+002 4.702668e+001 5.400000e+000
      vertex   1.119294e+002 4.345919e+001 5.400000e+000
    endloop
  endfacet
  facet normal -0.000000e+000 0.000000e+000 1.000000e+000
    outer loop
      vertex   1.093371e+002 4.702668e+001 5.400000e+000
      vertex   1.073401e+002 4.702668e+001 5.400000e+000
      vertex   1.119294e+002 4.345919e+001 5.400000e+000
    endloop
  endfacet
  facet normal 0.000000e+000 0.000000e+000 1.000000e+000
    outer loop
      vertex   1.119294e+002 4.345919e+001 5.400000e+000
      vertex   1.073401e+002 4.702668e+001 5.400000e+000
      vertex   1.114510e+002 4.336404e+001 5.400000e+000
    endloop
  endfacet
  facet normal 0.000000e+000 0.000000e+000 1.000000e+000
    outer loop
      vertex   1.114510e+002 4.336404e+001 5.400000e+000
      vertex   1.073401e+002 4.702668e+001 5.400000e+000
      vertex   1.095386e+002 4.336404e+001 5.400000e+000
    endloop
  endfacet
  facet normal -0.000000e+000 0.000000e+000 1.000000e+000
    outer loop
      vertex   1.073401e+002 4.702668e+001 5.400000e+000
      vertex   1.054636e+002 4.634369e+001 5.400000e+000
      vertex   1.095386e+002 4.336404e+001 5.400000e+000
    endloop
  endfacet
  facet normal 0.000000e+000 0.000000e+000 1.000000e+000
    outer loop
      vertex   1.095386e+002 4.336404e+001 5.400000e+000
      vertex   1.054636e+002 4.634369e+001 5.400000e+000
      vertex   1.095386e+002 3.936404e+001 5.400000e+000
    endloop
  endfacet
  facet normal 0.000000e+000 0.000000e+000 1.000000e+000
    outer loop
      vertex   1.123349e+002 3.899792e+001 5.400000e+000
      vertex   1.119294e+002 3.926889e+001 5.400000e+000
      vertex   1.126059e+002 3.859240e+001 5.400000e+000
    endloop
  endfacet
  facet normal 0.000000e+000 0.000000e+000 1.000000e+000
    outer loop
      vertex   1.126059e+002 3.859240e+001 5.400000e+000
      vertex   1.119294e+002 3.926889e+001 5.400000e+000
      vertex   1.127010e+002 3.811404e+001 5.400000e+000
    endloop
  endfacet
  facet normal 0.000000e+000 0.000000e+000 1.000000e+000
    outer loop
      vertex   1.119294e+002 3.926889e+001 5.400000e+000
      vertex   1.114510e+002 3.936404e+001 5.400000e+000
      vertex   1.127010e+002 3.811404e+001 5.400000e+000
    endloop
  endfacet
  facet normal -0.000000e+000 0.000000e+000 1.000000e+000
    outer loop
      vertex   1.054636e+002 4.634369e+001 5.400000e+000
      vertex   1.043615e+002 4.551682e+001 5.400000e+000
      vertex   1.071386e+002 4.336404e+001 5.400000e+000
    endloop
  endfacet
  facet normal -0.000000e+000 -0.000000e+000 1.000000e+000
    outer loop
      vertex   1.054636e+002 4.634369e+001 5.400000e+000
      vertex   1.071386e+002 4.336404e+001 5.400000e+000
      vertex   1.095386e+002 3.936404e+001 5.400000e+000
    endloop
  endfacet
  facet normal 0.000000e+000 0.000000e+000 1.000000e+000
    outer loop
      vertex   1.127010e+002 3.811404e+001 5.400000e+000
      vertex   1.114510e+002 3.936404e+001 5.400000e+000
      vertex   1.126059e+002 3.763568e+001 5.400000e+000
    endloop
  endfacet
  facet normal -0.000000e+000 0.000000e+000 1.000000e+000
    outer loop
      vertex   1.114510e+002 3.936404e+001 5.400000e+000
      vertex   1.095386e+002 3.936404e+001 5.400000e+000
      vertex   1.126059e+002 3.763568e+001 5.400000e+000
    endloop
  endfacet
  facet normal 0.000000e+000 0.000000e+000 1.000000e+000
    outer loop
      vertex   1.126059e+002 3.763568e+001 5.400000e+000
      vertex   1.095386e+002 3.936404e+001 5.400000e+000
      vertex   1.123349e+002 3.723016e+001 5.400000e+000
    endloop
  endfacet
  facet normal 0.000000e+000 0.000000e+000 1.000000e+000
    outer loop
      vertex   1.071386e+002 4.336404e+001 5.400000e+000
      vertex   1.043615e+002 4.551682e+001 5.400000e+000
      vertex   1.052261e+002 4.336404e+001 5.400000e+000
    endloop
  endfacet
  facet normal 0.000000e+000 0.000000e+000 1.000000e+000
    outer loop
      vertex   1.123349e+002 4.549792e+001 5.400000e+000
      vertex   1.123156e+002 4.551682e+001 5.400000e+000
      vertex   1.126059e+002 4.509240e+001 5.400000e+000
    endloop
  endfacet
  facet normal 0.000000e+000 0.000000e+000 1.000000e+000
    outer loop
      vertex   1.123349e+002 3.723016e+001 5.400000e+000
      vertex   1.095386e+002 3.936404e+001 5.400000e+000
      vertex   1.123156e+002 3.721126e+001 5.400000e+000
    endloop
  endfacet
  facet normal 0.000000e+000 0.000000e+000 1.000000e+000
    outer loop
      vertex   1.123156e+002 3.721126e+001 5.400000e+000
      vertex   1.095386e+002 3.936404e+001 5.400000e+000
      vertex   1.112136e+002 3.638439e+001 5.400000e+000
    endloop
  endfacet
  facet normal -0.000000e+000 0.000000e+000 1.000000e+000
    outer loop
      vertex   1.043615e+002 4.551682e+001 5.400000e+000
      vertex   1.043422e+002 4.549792e+001 5.400000e+000
      vertex   1.052261e+002 4.336404e+001 5.400000e+000
    endloop
  endfacet
  facet normal -0.000000e+000 0.000000e+000 1.000000e+000
    outer loop
      vertex   1.043422e+002 4.549792e+001 5.400000e+000
      vertex   1.040713e+002 4.509240e+001 5.400000e+000
      vertex   1.052261e+002 4.336404e+001 5.400000e+000
    endloop
  endfacet
  facet normal -0.000000e+000 0.000000e+000 1.000000e+000
    outer loop
      vertex   1.095386e+002 3.936404e+001 5.400000e+000
      vertex   1.071386e+002 3.936404e+001 5.400000e+000
      vertex   1.112136e+002 3.638439e+001 5.400000e+000
    endloop
  endfacet
  facet normal -0.000000e+000 0.000000e+000 1.000000e+000
    outer loop
      vertex   1.040713e+002 4.509240e+001 5.400000e+000
      vertex   1.039761e+002 4.461404e+001 5.400000e+000
      vertex   1.052261e+002 4.336404e+001 5.400000e+000
    endloop
  endfacet
  facet normal 0.000000e+000 0.000000e+000 1.000000e+000
    outer loop
      vertex   1.052261e+002 4.336404e+001 5.400000e+000
      vertex   1.039761e+002 4.461404e+001 5.400000e+000
      vertex   1.047477e+002 4.345919e+001 5.400000e+000
    endloop
  endfacet
  facet normal -0.000000e+000 -0.000000e+000 1.000000e+000
    outer loop
      vertex   1.039761e+002 4.461404e+001 5.400000e+000
      vertex   1.040713e+002 4.413568e+001 5.400000e+000
      vertex   1.047477e+002 4.345919e+001 5.400000e+000
    endloop
  endfacet
  facet normal 0.000000e+000 0.000000e+000 1.000000e+000
    outer loop
      vertex   1.112136e+002 3.638439e+001 5.400000e+000
      vertex   1.071386e+002 3.936404e+001 5.400000e+000
      vertex   1.093371e+002 3.570139e+001 5.400000e+000
    endloop
  endfacet
  facet normal 0.000000e+000 0.000000e+000 1.000000e+000
    outer loop
      vertex   1.047477e+002 4.345919e+001 5.400000e+000
      vertex   1.040713e+002 4.413568e+001 5.400000e+000
      vertex   1.043422e+002 4.373016e+001 5.400000e+000
    endloop
  endfacet
  facet normal -0.000000e+000 0.000000e+000 1.000000e+000
    outer loop
      vertex   1.071386e+002 3.936404e+001 5.400000e+000
      vertex   1.052261e+002 3.936404e+001 5.400000e+000
      vertex   1.093371e+002 3.570139e+001 5.400000e+000
    endloop
  endfacet
  facet normal 0.000000e+000 0.000000e+000 1.000000e+000
    outer loop
      vertex   1.093371e+002 3.570139e+001 5.400000e+000
      vertex   1.052261e+002 3.936404e+001 5.400000e+000
      vertex   1.073401e+002 3.570139e+001 5.400000e+000
    endloop
  endfacet
  facet normal -0.000000e+000 0.000000e+000 1.000000e+000
    outer loop
      vertex   1.052261e+002 3.936404e+001 5.400000e+000
      vertex   1.047477e+002 3.926889e+001 5.400000e+000
      vertex   1.073401e+002 3.570139e+001 5.400000e+000
    endloop
  endfacet
  facet normal -0.000000e+000 0.000000e+000 1.000000e+000
    outer loop
      vertex   1.047477e+002 3.926889e+001 5.400000e+000
      vertex   1.043422e+002 3.899792e+001 5.400000e+000
      vertex   1.073401e+002 3.570139e+001 5.400000e+000
    endloop
  endfacet
  facet normal 0.000000e+000 0.000000e+000 1.000000e+000
    outer loop
      vertex   1.073401e+002 3.570139e+001 5.400000e+000
      vertex   1.043422e+002 3.899792e+001 5.400000e+000
      vertex   1.054636e+002 3.638439e+001 5.400000e+000
    endloop
  endfacet
  facet normal -0.000000e+000 0.000000e+000 1.000000e+000
    outer loop
      vertex   1.043422e+002 3.899792e+001 5.400000e+000
      vertex   1.040713e+002 3.859240e+001 5.400000e+000
      vertex   1.054636e+002 3.638439e+001 5.400000e+000
    endloop
  endfacet
  facet normal -0.000000e+000 0.000000e+000 1.000000e+000
    outer loop
      vertex   1.040713e+002 3.859240e+001 5.400000e+000
      vertex   1.039761e+002 3.811404e+001 5.400000e+000
      vertex   1.054636e+002 3.638439e+001 5.400000e+000
    endloop
  endfacet
  facet normal -0.000000e+000 -0.000000e+000 1.000000e+000
    outer loop
      vertex   1.039761e+002 3.811404e+001 5.400000e+000
      vertex   1.040713e+002 3.763568e+001 5.400000e+000
      vertex   1.054636e+002 3.638439e+001 5.400000e+000
    endloop
  endfacet
  facet normal 0.000000e+000 0.000000e+000 1.000000e+000
    outer loop
      vertex   1.054636e+002 3.638439e+001 5.400000e+000
      vertex   1.040713e+002 3.763568e+001 5.400000e+000
      vertex   1.043615e+002 3.721126e+001 5.400000e+000
    endloop
  endfacet
  facet normal -0.000000e+000 -0.000000e+000 1.000000e+000
    outer loop
      vertex   1.040713e+002 3.763568e+001 5.400000e+000
      vertex   1.043422e+002 3.723016e+001 5.400000e+000
      vertex   1.043615e+002 3.721126e+001 5.400000e+000
    endloop
  endfacet
endsolid
