solid "Reprap_ring"; Produced by Art of Illusion 2.0, Fri Dec 21 21:22:22 GMT 2007
facet normal  1 -0 0
  outer loop
    vertex  13.637640070294 0.796080268654 24.635980587818
    vertex  14.64719545243 15.233394856249 24.7
    vertex  13.637649567937 0.796216091281 24.7
  endloop
endfacet
facet normal  -0 -0.55557023302 -0.831469612303
  outer loop
    vertex  3.243695767815 10.5639883476 15.107716446628
    vertex  1.210186417433 9.43784449899 15.953130176794
    vertex  1.298445869808 10.700013471401 15.107716446628
  endloop
endfacet
facet normal  0.068564307019 -0.997644442652 -0.002121756022
  outer loop
    vertex  12.382152701538 0.791802171543 2.787343516069
    vertex  0.606993652871 0.811786084526 0
    vertex  14.288796638926 0.789921470499 2.6
  endloop
endfacet
facet normal  0.068564307019 -0.997644442652 -0.002121756022
  outer loop
    vertex  19.718136272484 0.779947674301 4.24317128005
    vertex  23.042007629702 0.777304162469 3.617231252346
    vertex  21.198921848936 0.77560560538 5.455708883431
  endloop
endfacet
facet normal  0.069955554456 0.997550109218 -0
  outer loop
    vertex  24.236114364845 13.910726877911 8.61883653444
    vertex  26.62059916905 13.575124112936 7.623859610291
    vertex  25.487699583096 13.734573329309 5.488707622208
  endloop
endfacet
facet normal  0.069955554456 -0.997550109218 0
  outer loop
    vertex  24.061326839993 0.771640854106 12.35
    vertex  26.667712147557 0.772161005843 12.35
    vertex  26.429827574038 0.772113531636 14.759365476899
  endloop
endfacet
facet normal  1 -0 -0
  outer loop
    vertex  14.647204950073 15.233530678877 0.064019412182
    vertex  13.637640070294 0.796080268654 0.064019412182
    vertex  14.64719545243 15.233394856249 0
  endloop
endfacet
facet normal  0.068564307019 -0.997644442652 -0.002121756022
  outer loop
    vertex  21.166345899531 0.782804116435 2.081350288064
    vertex  16.195384989365 0.787245839049 2.787343516069
    vertex  13.637640070294 0.796080268654 0.064019412182
  endloop
endfacet
facet normal  1 0 -0
  outer loop
    vertex  14.64719545243 15.233394856249 24.7
    vertex  13.637640070294 0.796080268654 24.635980587818
    vertex  14.647204950073 15.233530678877 24.635980587818
  endloop
endfacet
facet normal  0.068564307019 -0.997644442652 -0.002121756022
  outer loop
    vertex  18.028648631775 0.783878100212 3.342174558015
    vertex  21.166345899531 0.782804116435 2.081350288064
    vertex  23.042007629702 0.777304162469 3.617231252346
  endloop
endfacet
facet normal  0.069955554456 0.997550109218 -0
  outer loop
    vertex  23.341719954881 14.036607838206 17.766809771941
    vertex  25.487699583096 13.734573329309 19.211292377792
    vertex  24.236114364845 13.910726877911 16.08116346556
  endloop
endfacet
facet normal  -0 -0.55557023302 0.831469612303
  outer loop
    vertex  1.210186417433 9.43784449899 8.746869823206
    vertex  3.15543631544 9.301819375189 8.746869823206
    vertex  1.298445869808 10.700013471401 9.592283553372
  endloop
endfacet
facet normal  -1 -0 -0
  outer loop
    vertex  3.15543631544 9.301819375189 15.953130176794
    vertex  3.15543631544 9.301819375189 8.746869823206
    vertex  3.051327192912 7.812989559634 16.25
  endloop
endfacet
facet normal  0 -0.55557023302 -0.831469612303
  outer loop
    vertex  1.210186417433 9.43784449899 15.953130176794
    vertex  3.243695767815 10.5639883476 15.107716446628
    vertex  3.15543631544 9.301819375189 15.953130176794
  endloop
endfacet
facet normal  -0 -0.195090322016 0.980785280403
  outer loop
    vertex  1.210186417433 9.43784449899 8.746869823206
    vertex  3.051327192912 7.812989559634 8.45
    vertex  3.15543631544 9.301819375189 8.746869823206
  endloop
endfacet
facet normal  -1 0 0
  outer loop
    vertex  2.77927694531 3.922489763621 12.35
    vertex  3.15543631544 9.301819375189 8.746869823206
    vertex  2.799985537338 4.218636426858 10.857534613776
  endloop
endfacet
facet normal  0.068564307019 0.997644442652 -0.002121756022
  outer loop
    vertex  18.9971787317 14.63450381881 3.342174558015
    vertex  14.647204950073 15.233530678877 0.064019412182
    vertex  17.181287586379 14.886309840567 2.787343516069
  endloop
endfacet
facet normal  0.069955554456 0.997550109218 -0
  outer loop
    vertex  27.318235289497 13.476935770298 14.759365476899
    vertex  27.553798179566 13.443781624341 12.35
    vertex  24.972850425778 13.807035439546 12.35
  endloop
endfacet
facet normal  -0.956940335732 -0 0.290284677254
  outer loop
    vertex  23.873523229321 0.77160337447 10.447869360343
    vertex  24.786879723092 13.833209765302 10.447869360343
    vertex  23.31732958474 0.771492375882 8.61883653444
  endloop
endfacet
facet normal  0.068564307019 -0.997644442652 0.002121756022
  outer loop
    vertex  12.382152701538 0.791802171543 21.912656483932
    vertex  16.704194274247 0.79204845845 24.46269821298
    vertex  14.28918236369 0.795437591619 24.7
  endloop
endfacet
facet normal  0.068564307019 0.997644442652 0.002121756022
  outer loop
    vertex  15.292881646779 15.149006061164 22.1
    vertex  19.984605562914 14.491787099729 23.759912226514
    vertex  22.104489614988 14.198884292023 22.618649711936
  endloop
endfacet
facet normal  -0 0.831469612303 0.55557023302
  outer loop
    vertex  0.854735639331 4.354661550659 10.857534613776
    vertex  2.799985537338 4.218636426858 10.857534613776
    vertex  0.913708720002 5.19801589547 9.592283553372
  endloop
endfacet
facet normal  -0.881921264348 0 0.471396736826
  outer loop
    vertex  23.31732958474 0.771492375882 8.61883653444
    vertex  24.236114364845 13.910726877911 8.61883653444
    vertex  23.341719954881 14.036607838206 6.933190228059
  endloop
endfacet
facet normal  -0.881921264348 -0 0.471396736826
  outer loop
    vertex  23.31732958474 0.771492375882 8.61883653444
    vertex  23.341719954881 14.036607838206 6.933190228059
    vertex  22.414120116095 0.771312123955 6.933190228059
  endloop
endfacet
facet normal  0.068564307019 0.997644442652 -0.002121756022
  outer loop
    vertex  22.104489614988 14.198884292023 2.081350288064
    vertex  19.984605562914 14.491787099729 0.940087773486
    vertex  17.684476778842 14.810741393955 0.23730178702
  endloop
endfacet
facet normal  0.068564307019 0.997644442652 -0.002121756022
  outer loop
    vertex  22.104489614988 14.198884292023 2.081350288064
    vertex  17.684476778842 14.810741393955 0.23730178702
    vertex  14.647204950073 15.233530678877 0.064019412182
  endloop
endfacet
facet normal  0 -0.706579809452 0.707633360488
  outer loop
    vertex  1.298445869808 10.700013471401 9.592283553372
    vertex  3.243695767815 10.5639883476 9.592283553372
    vertex  1.491101277293 13.455114156399 12.35
  endloop
endfacet
facet normal  0.069955554456 0.997550109218 0
  outer loop
    vertex  24.236114364845 13.910726877911 8.61883653444
    vertex  24.786879723092 13.833209765302 10.447869360343
    vertex  26.62059916905 13.575124112936 7.623859610291
  endloop
endfacet
facet normal  0.634393284164 -0 0.773010453363
  outer loop
    vertex  21.166345899531 0.782804116435 22.618649711936
    vertex  23.042007629702 0.777304162469 21.082768747654
    vertex  22.104489614988 14.198884292023 22.618649711936
  endloop
endfacet
facet normal  -1 -0 0
  outer loop
    vertex  1.741715865049 17.039069734949 14.180109236379
    vertex  1.298445869808 10.700013471401 9.592283553372
    vertex  1.491101277293 13.455114156399 12.35
  endloop
endfacet
facet normal  -1 0 -0
  outer loop
    vertex  2.858958618009 5.061990771669 15.107716446628
    vertex  3.15543631544 9.301819375189 8.746869823206
    vertex  2.799985537338 4.218636426858 13.842465386224
  endloop
endfacet
facet normal  0.069955554456 0.997550109218 -0
  outer loop
    vertex  26.62059916905 13.575124112936 7.623859610291
    vertex  24.786879723092 13.833209765302 10.447869360343
    vertex  27.318235289497 13.476935770298 9.940634523101
  endloop
endfacet
facet normal  -0.634393284164 -0 0.773010453363
  outer loop
    vertex  21.198921848936 0.77560560538 5.455708883431
    vertex  22.137750376599 14.201479051768 5.455708883431
    vertex  20.67077140439 14.403264760095 4.24317128005
  endloop
endfacet
facet normal  0.068564307019 0.997644442652 -0.002121756022
  outer loop
    vertex  1.74118606074 17.031493180352 0
    vertex  13.404531294127 15.412497212166 2.787343516069
    vertex  15.292881646779 15.149006061164 2.6
  endloop
endfacet
facet normal  0.068564307019 0.997644442652 -0.002121756022
  outer loop
    vertex  20.67077140439 14.403264760095 4.24317128005
    vertex  22.104489614988 14.198884292023 2.081350288064
    vertex  18.9971787317 14.63450381881 3.342174558015
  endloop
endfacet
facet normal  1 -0 -0
  outer loop
    vertex  13.637649567937 0.796216091281 0
    vertex  14.64719545243 15.233394856249 0
    vertex  13.637640070294 0.796080268654 0.064019412182
  endloop
endfacet
facet normal  -0.471396736826 -0 0.881921264348
  outer loop
    vertex  18.9971787317 14.63450381881 3.342174558015
    vertex  19.718136272484 0.779947674301 4.24317128005
    vertex  20.67077140439 14.403264760095 4.24317128005
  endloop
endfacet
facet normal  -0.956940335732 -0 -0.290284677254
  outer loop
    vertex  24.786879723092 13.833209765302 14.252130639657
    vertex  23.873523229321 0.77160337447 14.252130639657
    vertex  24.236114364845 13.910726877911 16.08116346556
  endloop
endfacet
facet normal  0.995184726672 -0 -0.09801714033
  outer loop
    vertex  26.429827574038 0.772113531636 9.940634523101
    vertex  27.553798179566 13.443781624341 12.35
    vertex  26.667712147557 0.772161005843 12.35
  endloop
endfacet
facet normal  0.068564307019 -0.997644442652 0.002121756022
  outer loop
    vertex  12.382152701538 0.791802171543 21.912656483932
    vertex  19.026328221299 0.787782655923 23.759912226514
    vertex  16.704194274247 0.79204845845 24.46269821298
  endloop
endfacet
facet normal  0.956940335732 0 -0.290284677254
  outer loop
    vertex  26.62059916905 13.575124112936 7.623859610291
    vertex  27.318235289497 13.476935770298 9.940634523101
    vertex  25.725315624236 0.771972933424 7.623859610291
  endloop
endfacet
facet normal  0.06658791585 0.997780418656 -0.00053442451
  outer loop
    vertex  1.741715865049 17.039069734949 14.180109236379
    vertex  7.245308531194 16.279497380072 6.933190228059
    vertex  1.74118606074 17.031493180352 0
  endloop
endfacet
facet normal  -0.290284677254 0 0.956940335732
  outer loop
    vertex  18.028648631775 0.783878100212 3.342174558015
    vertex  17.181287586379 14.886309840567 2.787343516069
    vertex  16.195384989365 0.787245839049 2.787343516069
  endloop
endfacet
facet normal  0 0.195090322016 -0.980785280403
  outer loop
    vertex  3.051327192912 7.812989559634 16.25
    vertex  2.947218070384 6.32415974408 15.953130176794
    vertex  1.001968172377 6.460184867881 15.953130176794
  endloop
endfacet
facet normal  0.06717296821 0.997741345411 0
  outer loop
    vertex  5.613899869381 16.505091463296 12.35
    vertex  1.741715865049 17.039069734949 21.128823529412
    vertex  5.799907194057 16.479440856395 14.252130639657
  endloop
endfacet
facet normal  0.068564307019 -0.997644442652 -0.002121756022
  outer loop
    vertex  10.548724434457 0.792815667897 3.342174558015
    vertex  8.858969457787 0.792923011464 4.24317128005
    vertex  0.606993652871 0.811786084526 0
  endloop
endfacet
facet normal  -0 0.55557023302 0.831469612303
  outer loop
    vertex  2.858958618009 5.061990771669 9.592283553372
    vertex  2.947218070384 6.32415974408 8.746869823206
    vertex  1.001968172377 6.460184867881 8.746869823206
  endloop
endfacet
facet normal  0.068564307019 0.997644442652 -0.002121756022
  outer loop
    vertex  1.74118606074 17.031493180352 0
    vertex  8.448860238217 16.108650329088 5.455708883431
    vertex  9.915479436748 15.901719617466 4.24317128005
  endloop
endfacet
facet normal  0.09801714033 -0 0.995184726672
  outer loop
    vertex  14.288796638926 0.789921470499 2.6
    vertex  15.292881646779 15.149006061164 2.6
    vertex  12.382152701538 0.791802171543 2.787343516069
  endloop
endfacet
facet normal  0.069955554456 0.997550109218 -0
  outer loop
    vertex  24.786879723092 13.833209765302 10.447869360343
    vertex  24.972850425778 13.807035439546 12.35
    vertex  27.318235289497 13.476935770298 9.940634523101
  endloop
endfacet
facet normal  0.773010453363 -0 -0.634393284164
  outer loop
    vertex  23.962662979786 13.943289061476 3.617231252346
    vertex  25.487699583096 13.734573329309 5.488707622208
    vertex  23.042007629702 0.777304162469 3.617231252346
  endloop
endfacet
facet normal  0.290284677254 -0 0.956940335732
  outer loop
    vertex  12.382152701538 0.791802171543 2.787343516069
    vertex  13.404531294127 15.412497212166 2.787343516069
    vertex  11.588804773478 15.666657476407 3.342174558015
  endloop
endfacet
facet normal  -1 0 -0
  outer loop
    vertex  3.051327192912 7.812989559634 16.25
    vertex  3.15543631544 9.301819375189 8.746869823206
    vertex  2.947218070384 6.32415974408 15.953130176794
  endloop
endfacet
facet normal  0.068564307019 0.997644442652 -0.002121756022
  outer loop
    vertex  8.448860238217 16.108650329088 5.455708883431
    vertex  1.74118606074 17.031493180352 0
    vertex  7.245308531194 16.279497380072 6.933190228059
  endloop
endfacet
facet normal  0.881921264348 -0 0.471396736826
  outer loop
    vertex  25.725315624236 0.771972933424 17.076140389709
    vertex  25.487699583096 13.734573329309 19.211292377792
    vertex  24.581250297286 0.771744614317 19.211292377792
  endloop
endfacet
facet normal  0.09801714033 0 -0.995184726672
  outer loop
    vertex  14.288796638926 0.789921470499 22.1
    vertex  12.382152701538 0.791802171543 21.912656483932
    vertex  13.404531294127 15.412497212166 21.912656483932
  endloop
endfacet
facet normal  0.956940335732 -0 0.290284677254
  outer loop
    vertex  25.725315624236 0.771972933424 17.076140389709
    vertex  27.318235289497 13.476935770298 14.759365476899
    vertex  26.62059916905 13.575124112936 17.076140389709
  endloop
endfacet
facet normal  0 -0.195090322016 0.980785280403
  outer loop
    vertex  1.106077294905 7.949014683436 8.45
    vertex  3.051327192912 7.812989559634 8.45
    vertex  1.210186417433 9.43784449899 8.746869823206
  endloop
endfacet
facet normal  0 0.831469612303 -0.55557023302
  outer loop
    vertex  2.858958618009 5.061990771669 15.107716446628
    vertex  2.799985537338 4.218636426858 13.842465386224
    vertex  0.854735639331 4.354661550659 13.842465386224
  endloop
endfacet
facet normal  0.471396736826 0 0.881921264348
  outer loop
    vertex  10.548724434457 0.792815667897 3.342174558015
    vertex  11.588804773478 15.666657476407 3.342174558015
    vertex  8.858969457787 0.792923011464 4.24317128005
  endloop
endfacet
facet normal  0.068564307019 -0.997644442652 0.002121756022
  outer loop
    vertex  12.382152701538 0.791802171543 21.912656483932
    vertex  0.606993652871 0.811786084526 24.7
    vertex  10.548724434457 0.792815667897 21.357825441985
  endloop
endfacet
facet normal  0 0.831469612303 0.55557023302
  outer loop
    vertex  0.913708720002 5.19801589547 9.592283553372
    vertex  2.799985537338 4.218636426858 10.857534613776
    vertex  2.858958618009 5.061990771669 9.592283553372
  endloop
endfacet
facet normal  0.069955554456 -0.997550109218 0
  outer loop
    vertex  23.873523229321 0.77160337447 10.447869360343
    vertex  26.429827574038 0.772113531636 9.940634523101
    vertex  24.061326839993 0.771640854106 12.35
  endloop
endfacet
facet normal  0.634393284164 0 0.773010453363
  outer loop
    vertex  8.858969457787 0.792923011464 4.24317128005
    vertex  9.915479436748 15.901719617466 4.24317128005
    vertex  8.448860238217 16.108650329088 5.455708883431
  endloop
endfacet
facet normal  0.634393284164 0 0.773010453363
  outer loop
    vertex  8.858969457787 0.792923011464 4.24317128005
    vertex  8.448860238217 16.108650329088 5.455708883431
    vertex  7.377824107658 0.79212007709 5.455708883431
  endloop
endfacet
facet normal  0.09801714033 -0 -0.995184726672
  outer loop
    vertex  13.404531294127 15.412497212166 21.912656483932
    vertex  15.292881646779 15.149006061164 22.1
    vertex  14.288796638926 0.789921470499 22.1
  endloop
endfacet
facet normal  0.068636856881 0.997639739424 -0.00198297735
  outer loop
    vertex  23.341719954881 14.036607838206 6.933190228059
    vertex  25.487699583096 13.734573329309 5.488707622208
    vertex  22.137750376599 14.201479051768 5.455708883431
  endloop
endfacet
facet normal  0.069955554456 -0.997550109218 0
  outer loop
    vertex  23.31732958474 0.771492375882 8.61883653444
    vertex  24.581250297286 0.771744614317 5.488707622208
    vertex  25.725315624236 0.771972933424 7.623859610291
  endloop
endfacet
facet normal  -0.471396736826 -0 -0.881921264348
  outer loop
    vertex  18.028648631775 0.783878100212 21.357825441985
    vertex  20.67077140439 14.403264760095 20.45682871995
    vertex  19.718136272484 0.779947674301 20.45682871995
  endloop
endfacet
facet normal  0.773010453363 -0 0.634393284164
  outer loop
    vertex  7.377824107658 0.79212007709 5.455708883431
    vertex  8.448860238217 16.108650329088 5.455708883431
    vertex  6.162207969239 0.790437721093 6.933190228059
  endloop
endfacet
facet normal  -0.09801714033 -0 0.995184726672
  outer loop
    vertex  14.28918236369 0.795437591619 24.7
    vertex  14.647204950073 15.233530678877 24.635980587818
    vertex  13.637640070294 0.796080268654 24.635980587818
  endloop
endfacet
facet normal  0.956940335732 -0 0.290284677254
  outer loop
    vertex  25.725315624236 0.771972933424 17.076140389709
    vertex  26.429827574038 0.772113531636 14.759365476899
    vertex  27.318235289497 13.476935770298 14.759365476899
  endloop
endfacet
facet normal  -0 0.55557023302 -0.831469612303
  outer loop
    vertex  0.913708720002 5.19801589547 15.107716446628
    vertex  1.001968172377 6.460184867881 15.953130176794
    vertex  2.858958618009 5.061990771669 15.107716446628
  endloop
endfacet
facet normal  -1 -0 -0
  outer loop
    vertex  0.606993652871 0.811786084526 0
    vertex  0.834027047303 4.058514887422 12.35
    vertex  0.854735639331 4.354661550659 10.857534613776
  endloop
endfacet
facet normal  0.09801714033 0 0.995184726672
  outer loop
    vertex  15.292495922014 15.143489940044 24.7
    vertex  16.704194274247 0.79204845845 24.46269821298
    vertex  17.684476778842 14.810741393955 24.46269821298
  endloop
endfacet
facet normal  0.069955554456 -0.997550109218 -0
  outer loop
    vertex  24.061326839993 0.771640854106 12.35
    vertex  26.429827574038 0.772113531636 9.940634523101
    vertex  26.667712147557 0.772161005843 12.35
  endloop
endfacet
facet normal  0.881921264348 0 -0.471396736826
  outer loop
    vertex  25.725315624236 0.771972933424 7.623859610291
    vertex  24.581250297286 0.771744614317 5.488707622208
    vertex  26.62059916905 13.575124112936 7.623859610291
  endloop
endfacet
facet normal  -1 0 0
  outer loop
    vertex  2.947218070384 6.32415974408 8.746869823206
    vertex  3.15543631544 9.301819375189 8.746869823206
    vertex  3.051327192912 7.812989559634 8.45
  endloop
endfacet
facet normal  0.068564307019 -0.997644442652 0.002121756022
  outer loop
    vertex  7.377824107658 0.79212007709 19.244291116569
    vertex  0.606993652871 0.811786084526 24.7
    vertex  6.162207969239 0.790437721093 17.766809771941
  endloop
endfacet
facet normal  -1 -0 -0
  outer loop
    vertex  1.74118606074 17.031493180352 0
    vertex  1.298445869808 10.700013471401 9.592283553372
    vertex  1.741715865049 17.039069734949 14.180109236379
  endloop
endfacet
facet normal  -0.956940335732 -0 -0.290284677254
  outer loop
    vertex  23.31732958474 0.771492375882 16.08116346556
    vertex  24.236114364845 13.910726877911 16.08116346556
    vertex  23.873523229321 0.77160337447 14.252130639657
  endloop
endfacet
facet normal  -0.995184726672 -0 -0.09801714033
  outer loop
    vertex  23.873523229321 0.77160337447 14.252130639657
    vertex  24.972850425778 13.807035439546 12.35
    vertex  24.061326839993 0.771640854106 12.35
  endloop
endfacet
facet normal  -1 0 -0
  outer loop
    vertex  2.947218070384 6.32415974408 15.953130176794
    vertex  3.15543631544 9.301819375189 8.746869823206
    vertex  2.858958618009 5.061990771669 15.107716446628
  endloop
endfacet
facet normal  -0 -0.706579809452 -0.707633360488
  outer loop
    vertex  3.4363511753 13.319089032598 12.35
    vertex  3.243695767815 10.5639883476 15.107716446628
    vertex  1.298445869808 10.700013471401 15.107716446628
  endloop
endfacet
facet normal  0.995184726672 0 0.09801714033
  outer loop
    vertex  4.703046424939 0.793601067159 10.447869360343
    vertex  5.799907194057 16.479440856395 10.447869360343
    vertex  4.515279436257 0.794087306377 12.35
  endloop
endfacet
facet normal  0.995184726672 -0 -0.09801714033
  outer loop
    vertex  5.799907194057 16.479440856395 14.252130639657
    vertex  4.703046424939 0.793601067159 14.252130639657
    vertex  5.613899869381 16.505091463296 12.35
  endloop
endfacet
facet normal  -1 -0 -0
  outer loop
    vertex  1.741715865049 17.039069734949 14.180109236379
    vertex  1.491101277293 13.455114156399 12.35
    vertex  1.298445869808 10.700013471401 15.107716446628
  endloop
endfacet
facet normal  0.068564307019 0.997644442652 0.002121756022
  outer loop
    vertex  20.67077140439 14.403264760095 20.45682871995
    vertex  22.104489614988 14.198884292023 22.618649711936
    vertex  23.962662979786 13.943289061476 21.082768747654
  endloop
endfacet
facet normal  -1 0 0
  outer loop
    vertex  0.606993652871 0.811786084526 24.7
    vertex  1.210186417433 9.43784449899 15.953130176794
    vertex  1.106077294905 7.949014683436 16.25
  endloop
endfacet
facet normal  0.995184726672 -0 -0.09801714033
  outer loop
    vertex  4.515279436257 0.794087306377 12.35
    vertex  5.613899869381 16.505091463296 12.35
    vertex  4.703046424939 0.793601067159 14.252130639657
  endloop
endfacet
facet normal  0.068609047514 0.997641568314 0.002024788955
  outer loop
    vertex  23.341719954881 14.036607838206 17.766809771941
    vertex  23.962662979786 13.943289061476 21.082768747654
    vertex  25.487699583096 13.734573329309 19.211292377792
  endloop
endfacet
facet normal  0.956940335732 -0 -0.290284677254
  outer loop
    vertex  4.703046424939 0.793601067159 14.252130639657
    vertex  5.799907194057 16.479440856395 14.252130639657
    vertex  5.259131610913 0.792161035405 16.08116346556
  endloop
endfacet
facet normal  -0 0 -1
  outer loop
    vertex  13.637649567937 0.796216091281 0
    vertex  0.606993652871 0.811786084526 0
    vertex  14.64719545243 15.233394856249 0
  endloop
endfacet
facet normal  0.068564307019 0.997644442652 -0.002121756022
  outer loop
    vertex  9.915479436748 15.901719617466 4.24317128005
    vertex  11.588804773478 15.666657476407 3.342174558015
    vertex  1.74118606074 17.031493180352 0
  endloop
endfacet
facet normal  0.068564307019 -0.997644442652 -0.002121756022
  outer loop
    vertex  18.028648631775 0.783878100212 3.342174558015
    vertex  16.195384989365 0.787245839049 2.787343516069
    vertex  21.166345899531 0.782804116435 2.081350288064
  endloop
endfacet
facet normal  0.068564307019 0.997644442652 -0.002121756022
  outer loop
    vertex  1.74118606074 17.031493180352 0
    vertex  11.588804773478 15.666657476407 3.342174558015
    vertex  13.404531294127 15.412497212166 2.787343516069
  endloop
endfacet
facet normal  0.068564307019 0.997644442652 -0.002121756022
  outer loop
    vertex  15.292881646779 15.149006061164 2.6
    vertex  17.181287586379 14.886309840567 2.787343516069
    vertex  14.647204950073 15.233530678877 0.064019412182
  endloop
endfacet
facet normal  0.069955554456 0.997550109218 0
  outer loop
    vertex  24.786879723092 13.833209765302 14.252130639657
    vertex  27.318235289497 13.476935770298 14.759365476899
    vertex  24.972850425778 13.807035439546 12.35
  endloop
endfacet
facet normal  0.634393284164 -0 -0.773010453363
  outer loop
    vertex  9.915479436748 15.901719617466 20.45682871995
    vertex  8.858969457787 0.792923011464 20.45682871995
    vertex  8.448860238217 16.108650329088 19.244291116569
  endloop
endfacet
facet normal  0.881921264348 -0 -0.471396736826
  outer loop
    vertex  5.259131610913 0.792161035405 16.08116346556
    vertex  6.350781010912 16.403474774129 16.08116346556
    vertex  6.162207969239 0.790437721093 17.766809771941
  endloop
endfacet
facet normal  0 -0.55557023302 0.831469612303
  outer loop
    vertex  1.298445869808 10.700013471401 9.592283553372
    vertex  3.15543631544 9.301819375189 8.746869823206
    vertex  3.243695767815 10.5639883476 9.592283553372
  endloop
endfacet
facet normal  0.068564307019 0.997644442652 0.002121756022
  outer loop
    vertex  18.9971787317 14.63450381881 21.357825441985
    vertex  22.104489614988 14.198884292023 22.618649711936
    vertex  20.67077140439 14.403264760095 20.45682871995
  endloop
endfacet
facet normal  -1 0 0
  outer loop
    vertex  0.606993652871 0.811786084526 24.7
    vertex  1.001968172377 6.460184867881 15.953130176794
    vertex  0.913708720002 5.19801589547 15.107716446628
  endloop
endfacet
facet normal  0.069955554456 0.997550109218 0
  outer loop
    vertex  24.236114364845 13.910726877911 16.08116346556
    vertex  27.318235289497 13.476935770298 14.759365476899
    vertex  24.786879723092 13.833209765302 14.252130639657
  endloop
endfacet
facet normal  0.773010453363 -0 -0.634393284164
  outer loop
    vertex  6.162207969239 0.790437721093 17.766809771941
    vertex  7.245308531194 16.279497380072 17.766809771941
    vertex  7.377824107658 0.79212007709 19.244291116569
  endloop
endfacet
facet normal  0.068564307019 0.997644442652 -0.002121756022
  outer loop
    vertex  20.67077140439 14.403264760095 4.24317128005
    vertex  23.962662979786 13.943289061476 3.617231252346
    vertex  22.104489614988 14.198884292023 2.081350288064
  endloop
endfacet
facet normal  0.773010453363 -0 0.634393284164
  outer loop
    vertex  8.448860238217 16.108650329088 5.455708883431
    vertex  7.245308531194 16.279497380072 6.933190228059
    vertex  6.162207969239 0.790437721093 6.933190228059
  endloop
endfacet
facet normal  -0 0.195090322016 0.980785280403
  outer loop
    vertex  1.106077294905 7.949014683436 8.45
    vertex  2.947218070384 6.32415974408 8.746869823206
    vertex  3.051327192912 7.812989559634 8.45
  endloop
endfacet
facet normal  0.471396736826 0 0.881921264348
  outer loop
    vertex  22.104489614988 14.198884292023 22.618649711936
    vertex  19.984605562914 14.491787099729 23.759912226514
    vertex  19.026328221299 0.787782655923 23.759912226514
  endloop
endfacet
facet normal  0.634393284164 0 -0.773010453363
  outer loop
    vertex  7.377824107658 0.79212007709 19.244291116569
    vertex  8.448860238217 16.108650329088 19.244291116569
    vertex  8.858969457787 0.792923011464 20.45682871995
  endloop
endfacet
facet normal  0.068636856881 -0.997639739424 0.00198297735
  outer loop
    vertex  22.414120116095 0.771312123955 17.766809771941
    vertex  24.581250297286 0.771744614317 19.211292377792
    vertex  21.198921848936 0.77560560538 19.244291116569
  endloop
endfacet
facet normal  0.068564307019 0.997644442652 0.002121756022
  outer loop
    vertex  17.684476778842 14.810741393955 24.46269821298
    vertex  19.984605562914 14.491787099729 23.759912226514
    vertex  15.292881646779 15.149006061164 22.1
  endloop
endfacet
facet normal  0 0 1
  outer loop
    vertex  0.606993652871 0.811786084526 24.7
    vertex  13.637649567937 0.796216091281 24.7
    vertex  14.64719545243 15.233394856249 24.7
  endloop
endfacet
facet normal  0.068564307019 -0.997644442652 -0.002121756022
  outer loop
    vertex  7.377824107658 0.79212007709 5.455708883431
    vertex  0.606993652871 0.811786084526 0
    vertex  8.858969457787 0.792923011464 4.24317128005
  endloop
endfacet
facet normal  0.471396736826 -0 -0.881921264348
  outer loop
    vertex  8.858969457787 0.792923011464 20.45682871995
    vertex  9.915479436748 15.901719617466 20.45682871995
    vertex  10.548724434457 0.792815667897 21.357825441985
  endloop
endfacet
facet normal  0.634393284164 -0 -0.773010453363
  outer loop
    vertex  23.042007629702 0.777304162469 3.617231252346
    vertex  21.166345899531 0.782804116435 2.081350288064
    vertex  22.104489614988 14.198884292023 2.081350288064
  endloop
endfacet
facet normal  -0 0.195090322016 -0.980785280403
  outer loop
    vertex  1.106077294905 7.949014683436 16.25
    vertex  3.051327192912 7.812989559634 16.25
    vertex  1.001968172377 6.460184867881 15.953130176794
  endloop
endfacet
facet normal  -1 0 0
  outer loop
    vertex  1.74118606074 17.031493180352 0
    vertex  1.106077294905 7.949014683436 8.45
    vertex  1.210186417433 9.43784449899 8.746869823206
  endloop
endfacet
facet normal  0.066133300997 -0.997810746654 -0.00031679697
  outer loop
    vertex  4.703046424939 0.793601067159 10.447869360343
    vertex  0.606993652871 0.811786084526 0
    vertex  5.259131610913 0.792161035405 8.61883653444
  endloop
endfacet
facet normal  0.290284677254 0 -0.956940335732
  outer loop
    vertex  10.548724434457 0.792815667897 21.357825441985
    vertex  11.588804773478 15.666657476407 21.357825441985
    vertex  12.382152701538 0.791802171543 21.912656483932
  endloop
endfacet
facet normal  -1 -0 0
  outer loop
    vertex  0.606993652871 0.811786084526 24.7
    vertex  0.854735639331 4.354661550659 13.842465386224
    vertex  0.606993652871 0.811786084526 0
  endloop
endfacet
facet normal  0.068672875027 0.997637201279 0.002012674942
  outer loop
    vertex  22.137750376599 14.201479051768 19.244291116569
    vertex  23.962662979786 13.943289061476 21.082768747654
    vertex  23.341719954881 14.036607838206 17.766809771941
  endloop
endfacet
facet normal  0.290284677254 0 0.956940335732
  outer loop
    vertex  17.684476778842 14.810741393955 24.46269821298
    vertex  19.026328221299 0.787782655923 23.759912226514
    vertex  19.984605562914 14.491787099729 23.759912226514
  endloop
endfacet
facet normal  0.069955554456 0.997550109218 -0
  outer loop
    vertex  24.236114364845 13.910726877911 8.61883653444
    vertex  25.487699583096 13.734573329309 5.488707622208
    vertex  23.341719954881 14.036607838206 6.933190228059
  endloop
endfacet
facet normal  -1 -0 0
  outer loop
    vertex  3.243695767815 10.5639883476 15.107716446628
    vertex  3.15543631544 9.301819375189 8.746869823206
    vertex  3.15543631544 9.301819375189 15.953130176794
  endloop
endfacet
facet normal  0.068564307019 0.997644442652 0.002121756022
  outer loop
    vertex  9.915479436748 15.901719617466 20.45682871995
    vertex  8.448860238217 16.108650329088 19.244291116569
    vertex  14.64719545243 15.233394856249 24.7
  endloop
endfacet
facet normal  -1 0 -0
  outer loop
    vertex  0.606993652871 0.811786084526 0
    vertex  0.854735639331 4.354661550659 10.857534613776
    vertex  0.913708720002 5.19801589547 9.592283553372
  endloop
endfacet
facet normal  0.06717296821 0.997741345411 0
  outer loop
    vertex  5.799907194057 16.479440856395 14.252130639657
    vertex  1.741715865049 17.039069734949 21.128823529412
    vertex  6.350781010912 16.403474774129 16.08116346556
  endloop
endfacet
facet normal  0 -0 1
  outer loop
    vertex  14.64719545243 15.233394856249 24.7
    vertex  1.74118606074 17.031493180352 24.7
    vertex  0.606993652871 0.811786084526 24.7
  endloop
endfacet
facet normal  0.471396736826 -0 0.881921264348
  outer loop
    vertex  19.026328221299 0.787782655923 23.759912226514
    vertex  21.166345899531 0.782804116435 22.618649711936
    vertex  22.104489614988 14.198884292023 22.618649711936
  endloop
endfacet
facet normal  -1 -0 0
  outer loop
    vertex  1.106077294905 7.949014683436 8.45
    vertex  0.606993652871 0.811786084526 0
    vertex  1.001968172377 6.460184867881 8.746869823206
  endloop
endfacet
facet normal  0 0 -1
  outer loop
    vertex  1.74118606074 17.031493180352 0
    vertex  14.64719545243 15.233394856249 0
    vertex  0.606993652871 0.811786084526 0
  endloop
endfacet
facet normal  -0 -0.706579809452 -0.707633360488
  outer loop
    vertex  3.4363511753 13.319089032598 12.35
    vertex  1.298445869808 10.700013471401 15.107716446628
    vertex  1.491101277293 13.455114156399 12.35
  endloop
endfacet
facet normal  0.634393284164 -0 -0.773010453363
  outer loop
    vertex  23.042007629702 0.777304162469 3.617231252346
    vertex  22.104489614988 14.198884292023 2.081350288064
    vertex  23.962662979786 13.943289061476 3.617231252346
  endloop
endfacet
facet normal  0.066695917175 -0.997773154979 -0.000621156576
  outer loop
    vertex  5.259131610913 0.792161035405 8.61883653444
    vertex  0.606993652871 0.811786084526 0
    vertex  6.162207969239 0.790437721093 6.933190228059
  endloop
endfacet
facet normal  0.069955554456 -0.997550109218 -0
  outer loop
    vertex  24.581250297286 0.771744614317 19.211292377792
    vertex  23.31732958474 0.771492375882 16.08116346556
    vertex  25.725315624236 0.771972933424 17.076140389709
  endloop
endfacet
facet normal  -0.471396736826 -0 -0.881921264348
  outer loop
    vertex  18.028648631775 0.783878100212 21.357825441985
    vertex  18.9971787317 14.63450381881 21.357825441985
    vertex  20.67077140439 14.403264760095 20.45682871995
  endloop
endfacet
facet normal  -1 -0 0
  outer loop
    vertex  0.606993652871 0.811786084526 0
    vertex  0.854735639331 4.354661550659 13.842465386224
    vertex  0.834027047303 4.058514887422 12.35
  endloop
endfacet
facet normal  0.069955554456 -0.997550109218 -0
  outer loop
    vertex  23.873523229321 0.77160337447 10.447869360343
    vertex  23.31732958474 0.771492375882 8.61883653444
    vertex  26.429827574038 0.772113531636 9.940634523101
  endloop
endfacet
facet normal  -1 -0 0
  outer loop
    vertex  3.4363511753 13.319089032598 12.35
    vertex  3.15543631544 9.301819375189 8.746869823206
    vertex  3.243695767815 10.5639883476 15.107716446628
  endloop
endfacet
facet normal  -1 0 0
  outer loop
    vertex  1.74118606074 17.031493180352 0
    vertex  1.210186417433 9.43784449899 8.746869823206
    vertex  1.298445869808 10.700013471401 9.592283553372
  endloop
endfacet
facet normal  0 0.980785280403 0.195090322016
  outer loop
    vertex  0.834027047303 4.058514887422 12.35
    vertex  2.77927694531 3.922489763621 12.35
    vertex  0.854735639331 4.354661550659 10.857534613776
  endloop
endfacet
facet normal  -0.634393284164 -0 -0.773010453363
  outer loop
    vertex  19.718136272484 0.779947674301 20.45682871995
    vertex  20.67077140439 14.403264760095 20.45682871995
    vertex  21.198921848936 0.77560560538 19.244291116569
  endloop
endfacet
facet normal  -1 -0 0
  outer loop
    vertex  1.74118606074 17.031493180352 24.7
    vertex  1.210186417433 9.43784449899 15.953130176794
    vertex  0.606993652871 0.811786084526 24.7
  endloop
endfacet
facet normal  -0.773010453363 -0 0.634393284164
  outer loop
    vertex  22.137750376599 14.201479051768 5.455708883431
    vertex  22.414120116095 0.771312123955 6.933190228059
    vertex  23.341719954881 14.036607838206 6.933190228059
  endloop
endfacet
facet normal  0.06717296821 0.997741345411 0
  outer loop
    vertex  6.350781010912 16.403474774129 8.61883653444
    vertex  1.741715865049 17.039069734949 21.128823529412
    vertex  5.799907194057 16.479440856395 10.447869360343
  endloop
endfacet
facet normal  0.065698322885 -0.997839520708 -0.000145890882
  outer loop
    vertex  4.515279436257 0.794087306377 12.35
    vertex  0.606993652871 0.811786084526 0
    vertex  4.703046424939 0.793601067159 10.447869360343
  endloop
endfacet
facet normal  0.069955554456 -0.997550109218 0
  outer loop
    vertex  24.061326839993 0.771640854106 12.35
    vertex  25.725315624236 0.771972933424 17.076140389709
    vertex  23.873523229321 0.77160337447 14.252130639657
  endloop
endfacet
facet normal  0.068564307019 -0.997644442652 -0.002121756022
  outer loop
    vertex  13.637640070294 0.796080268654 0.064019412182
    vertex  16.195384989365 0.787245839049 2.787343516069
    vertex  0.606993652871 0.811786084526 0
  endloop
endfacet
facet normal  -1 0 0
  outer loop
    vertex  2.858958618009 5.061990771669 9.592283553372
    vertex  3.15543631544 9.301819375189 8.746869823206
    vertex  2.947218070384 6.32415974408 8.746869823206
  endloop
endfacet
facet normal  0.06717296821 0.997741345411 0
  outer loop
    vertex  6.350781010912 16.403474774129 8.61883653444
    vertex  1.741715865049 17.039069734949 14.180109236379
    vertex  1.741715865049 17.039069734949 21.128823529412
  endloop
endfacet
facet normal  0.956940335732 -0 -0.290284677254
  outer loop
    vertex  6.350781010912 16.403474774129 16.08116346556
    vertex  5.259131610913 0.792161035405 16.08116346556
    vertex  5.799907194057 16.479440856395 14.252130639657
  endloop
endfacet
facet normal  -0.881921264348 0 -0.471396736826
  outer loop
    vertex  22.414120116095 0.771312123955 17.766809771941
    vertex  23.341719954881 14.036607838206 17.766809771941
    vertex  23.31732958474 0.771492375882 16.08116346556
  endloop
endfacet
facet normal  0.06717296821 0.997741345411 -0
  outer loop
    vertex  5.799907194057 16.479440856395 10.447869360343
    vertex  1.741715865049 17.039069734949 21.128823529412
    vertex  5.613899869381 16.505091463296 12.35
  endloop
endfacet
facet normal  0.069955554456 0.997550109218 0
  outer loop
    vertex  24.236114364845 13.910726877911 16.08116346556
    vertex  26.62059916905 13.575124112936 17.076140389709
    vertex  27.318235289497 13.476935770298 14.759365476899
  endloop
endfacet
facet normal  -0 -0.195090322016 -0.980785280403
  outer loop
    vertex  1.106077294905 7.949014683436 16.25
    vertex  3.15543631544 9.301819375189 15.953130176794
    vertex  3.051327192912 7.812989559634 16.25
  endloop
endfacet
facet normal  0.09801714033 -0 0.995184726672
  outer loop
    vertex  16.704194274247 0.79204845845 24.46269821298
    vertex  15.292495922014 15.143489940044 24.7
    vertex  14.28918236369 0.795437591619 24.7
  endloop
endfacet
facet normal  -0.634393284164 -0 -0.773010453363
  outer loop
    vertex  21.198921848936 0.77560560538 19.244291116569
    vertex  20.67077140439 14.403264760095 20.45682871995
    vertex  22.137750376599 14.201479051768 19.244291116569
  endloop
endfacet
facet normal  -0.290284677254 0 0.956940335732
  outer loop
    vertex  18.9971787317 14.63450381881 3.342174558015
    vertex  17.181287586379 14.886309840567 2.787343516069
    vertex  18.028648631775 0.783878100212 3.342174558015
  endloop
endfacet
facet normal  0.068564307019 0.997644442652 -0.002121756022
  outer loop
    vertex  14.64719545243 15.233394856249 0
    vertex  1.74118606074 17.031493180352 0
    vertex  14.647204950073 15.233530678877 0.064019412182
  endloop
endfacet
facet normal  0.069955554456 -0.997550109218 -0
  outer loop
    vertex  23.873523229321 0.77160337447 14.252130639657
    vertex  25.725315624236 0.771972933424 17.076140389709
    vertex  23.31732958474 0.771492375882 16.08116346556
  endloop
endfacet
facet normal  0.290284677254 0 0.956940335732
  outer loop
    vertex  16.704194274247 0.79204845845 24.46269821298
    vertex  19.026328221299 0.787782655923 23.759912226514
    vertex  17.684476778842 14.810741393955 24.46269821298
  endloop
endfacet
facet normal  -1 0 -0
  outer loop
    vertex  2.799985537338 4.218636426858 13.842465386224
    vertex  3.15543631544 9.301819375189 8.746869823206
    vertex  2.77927694531 3.922489763621 12.35
  endloop
endfacet
facet normal  0.068564307019 -0.997644442652 -0.002121756022
  outer loop
    vertex  10.548724434457 0.792815667897 3.342174558015
    vertex  0.606993652871 0.811786084526 0
    vertex  12.382152701538 0.791802171543 2.787343516069
  endloop
endfacet
facet normal  0.068564307019 -0.997644442652 0.002121756022
  outer loop
    vertex  19.718136272484 0.779947674301 20.45682871995
    vertex  21.166345899531 0.782804116435 22.618649711936
    vertex  18.028648631775 0.783878100212 21.357825441985
  endloop
endfacet
facet normal  0.068564307019 0.997644442652 -0.002121756022
  outer loop
    vertex  17.684476778842 14.810741393955 0.23730178702
    vertex  15.292495922014 15.143489940044 0
    vertex  14.647204950073 15.233530678877 0.064019412182
  endloop
endfacet
facet normal  0.068564307019 -0.997644442652 -0.002121756022
  outer loop
    vertex  14.28918236369 0.795437591619 0
    vertex  21.166345899531 0.782804116435 2.081350288064
    vertex  13.637640070294 0.796080268654 0.064019412182
  endloop
endfacet
facet normal  0.069955554456 -0.997550109218 0
  outer loop
    vertex  25.725315624236 0.771972933424 17.076140389709
    vertex  24.061326839993 0.771640854106 12.35
    vertex  26.429827574038 0.772113531636 14.759365476899
  endloop
endfacet
facet normal  -0.09801714033 0 -0.995184726672
  outer loop
    vertex  16.195384989365 0.787245839049 21.912656483932
    vertex  14.288796638926 0.789921470499 22.1
    vertex  15.292881646779 15.149006061164 22.1
  endloop
endfacet
facet normal  -0.995184726672 -0 0.09801714033
  outer loop
    vertex  24.061326839993 0.771640854106 12.35
    vertex  24.786879723092 13.833209765302 10.447869360343
    vertex  23.873523229321 0.77160337447 10.447869360343
  endloop
endfacet
facet normal  -0.995184726672 -0 0.09801714033
  outer loop
    vertex  24.786879723092 13.833209765302 10.447869360343
    vertex  24.061326839993 0.771640854106 12.35
    vertex  24.972850425778 13.807035439546 12.35
  endloop
endfacet
facet normal  -0.09801714033 0 -0.995184726672
  outer loop
    vertex  13.637640070294 0.796080268654 0.064019412182
    vertex  14.647204950073 15.233530678877 0.064019412182
    vertex  15.292495922014 15.143489940044 0
  endloop
endfacet
facet normal  0.068564307019 0.997644442652 0.002121756022
  outer loop
    vertex  17.181287586379 14.886309840567 21.912656483932
    vertex  15.292881646779 15.149006061164 22.1
    vertex  22.104489614988 14.198884292023 22.618649711936
  endloop
endfacet
facet normal  -0 0.980785280403 0.195090322016
  outer loop
    vertex  0.854735639331 4.354661550659 10.857534613776
    vertex  2.77927694531 3.922489763621 12.35
    vertex  2.799985537338 4.218636426858 10.857534613776
  endloop
endfacet
facet normal  -0.09801714033 0 -0.995184726672
  outer loop
    vertex  14.28918236369 0.795437591619 0
    vertex  13.637640070294 0.796080268654 0.064019412182
    vertex  15.292495922014 15.143489940044 0
  endloop
endfacet
facet normal  0.881921264348 -0 -0.471396736826
  outer loop
    vertex  6.162207969239 0.790437721093 17.766809771941
    vertex  6.350781010912 16.403474774129 16.08116346556
    vertex  7.245308531194 16.279497380072 17.766809771941
  endloop
endfacet
facet normal  0.068564307019 0.997644442652 0.002121756022
  outer loop
    vertex  17.181287586379 14.886309840567 21.912656483932
    vertex  22.104489614988 14.198884292023 22.618649711936
    vertex  18.9971787317 14.63450381881 21.357825441985
  endloop
endfacet
facet normal  0.995184726672 0 0.09801714033
  outer loop
    vertex  27.318235289497 13.476935770298 14.759365476899
    vertex  26.667712147557 0.772161005843 12.35
    vertex  27.553798179566 13.443781624341 12.35
  endloop
endfacet
facet normal  -0.956940335732 0 0.290284677254
  outer loop
    vertex  24.236114364845 13.910726877911 8.61883653444
    vertex  23.31732958474 0.771492375882 8.61883653444
    vertex  24.786879723092 13.833209765302 10.447869360343
  endloop
endfacet
facet normal  0.069955554456 -0.997550109218 0
  outer loop
    vertex  23.31732958474 0.771492375882 16.08116346556
    vertex  24.581250297286 0.771744614317 19.211292377792
    vertex  22.414120116095 0.771312123955 17.766809771941
  endloop
endfacet
facet normal  0.068564307019 0.997644442652 0.002121756022
  outer loop
    vertex  13.404531294127 15.412497212166 21.912656483932
    vertex  11.588804773478 15.666657476407 21.357825441985
    vertex  14.64719545243 15.233394856249 24.7
  endloop
endfacet
facet normal  0.471396736826 0 -0.881921264348
  outer loop
    vertex  22.104489614988 14.198884292023 2.081350288064
    vertex  19.026328221299 0.787782655923 0.940087773486
    vertex  19.984605562914 14.491787099729 0.940087773486
  endloop
endfacet
facet normal  0.069955554456 -0.997550109218 -0
  outer loop
    vertex  26.429827574038 0.772113531636 9.940634523101
    vertex  23.31732958474 0.771492375882 8.61883653444
    vertex  25.725315624236 0.771972933424 7.623859610291
  endloop
endfacet
facet normal  0.069955554456 -0.997550109218 0
  outer loop
    vertex  23.31732958474 0.771492375882 8.61883653444
    vertex  22.414120116095 0.771312123955 6.933190228059
    vertex  24.581250297286 0.771744614317 5.488707622208
  endloop
endfacet
facet normal  0.068564307019 -0.997644442652 0.002121756022
  outer loop
    vertex  16.195384989365 0.787245839049 21.912656483932
    vertex  19.026328221299 0.787782655923 23.759912226514
    vertex  14.288796638926 0.789921470499 22.1
  endloop
endfacet
facet normal  0.068564307019 -0.997644442652 -0.002121756022
  outer loop
    vertex  14.288796638926 0.789921470499 2.6
    vertex  0.606993652871 0.811786084526 0
    vertex  16.195384989365 0.787245839049 2.787343516069
  endloop
endfacet
facet normal  -1 0 -0
  outer loop
    vertex  0.606993652871 0.811786084526 0
    vertex  0.913708720002 5.19801589547 9.592283553372
    vertex  1.001968172377 6.460184867881 8.746869823206
  endloop
endfacet
facet normal  0 -0.706579809452 0.707633360488
  outer loop
    vertex  1.491101277293 13.455114156399 12.35
    vertex  3.243695767815 10.5639883476 9.592283553372
    vertex  3.4363511753 13.319089032598 12.35
  endloop
endfacet
facet normal  0.09801714033 -0 -0.995184726672
  outer loop
    vertex  16.704194274247 0.79204845845 0.23730178702
    vertex  15.292495922014 15.143489940044 0
    vertex  17.684476778842 14.810741393955 0.23730178702
  endloop
endfacet
facet normal  -1 -0 0
  outer loop
    vertex  1.741715865049 17.039069734949 21.128823529412
    vertex  1.298445869808 10.700013471401 15.107716446628
    vertex  1.74118606074 17.031493180352 24.7
  endloop
endfacet
facet normal  -0.773010453363 0 -0.634393284164
  outer loop
    vertex  22.414120116095 0.771312123955 17.766809771941
    vertex  22.137750376599 14.201479051768 19.244291116569
    vertex  23.341719954881 14.036607838206 17.766809771941
  endloop
endfacet
facet normal  -0.773010453363 -0 0.634393284164
  outer loop
    vertex  22.414120116095 0.771312123955 6.933190228059
    vertex  22.137750376599 14.201479051768 5.455708883431
    vertex  21.198921848936 0.77560560538 5.455708883431
  endloop
endfacet
facet normal  0.068564307019 -0.997644442652 0.002121756022
  outer loop
    vertex  12.382152701538 0.791802171543 21.912656483932
    vertex  13.637640070294 0.796080268654 24.635980587818
    vertex  13.637649567937 0.796216091281 24.7
  endloop
endfacet
facet normal  0.773010453363 0 -0.634393284164
  outer loop
    vertex  24.581250297286 0.771744614317 5.488707622208
    vertex  23.042007629702 0.777304162469 3.617231252346
    vertex  25.487699583096 13.734573329309 5.488707622208
  endloop
endfacet
facet normal  0.068564307019 0.997644442652 0.002121756022
  outer loop
    vertex  14.647204950073 15.233530678877 24.635980587818
    vertex  15.292881646779 15.149006061164 22.1
    vertex  13.404531294127 15.412497212166 21.912656483932
  endloop
endfacet
facet normal  -0.881921264348 -0 -0.471396736826
  outer loop
    vertex  23.31732958474 0.771492375882 16.08116346556
    vertex  23.341719954881 14.036607838206 17.766809771941
    vertex  24.236114364845 13.910726877911 16.08116346556
  endloop
endfacet
facet normal  -0 0.980785280403 -0.195090322016
  outer loop
    vertex  2.77927694531 3.922489763621 12.35
    vertex  0.834027047303 4.058514887422 12.35
    vertex  0.854735639331 4.354661550659 13.842465386224
  endloop
endfacet
facet normal  0.068564307019 0.997644442652 0.002121756022
  outer loop
    vertex  1.74118606074 17.031493180352 24.7
    vertex  7.245308531194 16.279497380072 17.766809771941
    vertex  1.741715865049 17.039069734949 21.128823529412
  endloop
endfacet
facet normal  0.068564307019 -0.997644442652 0.002121756022
  outer loop
    vertex  19.026328221299 0.787782655923 23.759912226514
    vertex  18.028648631775 0.783878100212 21.357825441985
    vertex  21.166345899531 0.782804116435 22.618649711936
  endloop
endfacet
facet normal  -0.634393284164 -0 0.773010453363
  outer loop
    vertex  21.198921848936 0.77560560538 5.455708883431
    vertex  20.67077140439 14.403264760095 4.24317128005
    vertex  19.718136272484 0.779947674301 4.24317128005
  endloop
endfacet
facet normal  0.068637483016 -0.997639564503 -0.002048234394
  outer loop
    vertex  21.198921848936 0.77560560538 5.455708883431
    vertex  23.042007629702 0.777304162469 3.617231252346
    vertex  24.581250297286 0.771744614317 5.488707622208
  endloop
endfacet
facet normal  0.634393284164 0 0.773010453363
  outer loop
    vertex  23.962662979786 13.943289061476 21.082768747654
    vertex  22.104489614988 14.198884292023 22.618649711936
    vertex  23.042007629702 0.777304162469 21.082768747654
  endloop
endfacet
facet normal  0.995184726672 0 -0.09801714033
  outer loop
    vertex  26.429827574038 0.772113531636 9.940634523101
    vertex  27.318235289497 13.476935770298 9.940634523101
    vertex  27.553798179566 13.443781624341 12.35
  endloop
endfacet
facet normal  -0.09801714033 -0 0.995184726672
  outer loop
    vertex  14.647204950073 15.233530678877 24.635980587818
    vertex  14.28918236369 0.795437591619 24.7
    vertex  15.292495922014 15.143489940044 24.7
  endloop
endfacet
facet normal  0.068637483016 -0.997639564503 0.002048234394
  outer loop
    vertex  23.042007629702 0.777304162469 21.082768747654
    vertex  21.198921848936 0.77560560538 19.244291116569
    vertex  24.581250297286 0.771744614317 19.211292377792
  endloop
endfacet
facet normal  0.068564307019 -0.997644442652 -0.002121756022
  outer loop
    vertex  16.704194274247 0.79204845845 0.23730178702
    vertex  21.166345899531 0.782804116435 2.081350288064
    vertex  14.28918236369 0.795437591619 0
  endloop
endfacet
facet normal  0.068564307019 0.997644442652 0.002121756022
  outer loop
    vertex  1.74118606074 17.031493180352 24.7
    vertex  8.448860238217 16.108650329088 19.244291116569
    vertex  7.245308531194 16.279497380072 17.766809771941
  endloop
endfacet
facet normal  -0.471396736826 0 0.881921264348
  outer loop
    vertex  19.718136272484 0.779947674301 4.24317128005
    vertex  18.9971787317 14.63450381881 3.342174558015
    vertex  18.028648631775 0.783878100212 3.342174558015
  endloop
endfacet
facet normal  0.881921264348 -0 0.471396736826
  outer loop
    vertex  26.62059916905 13.575124112936 17.076140389709
    vertex  25.487699583096 13.734573329309 19.211292377792
    vertex  25.725315624236 0.771972933424 17.076140389709
  endloop
endfacet
facet normal  -0.290284677254 0 -0.956940335732
  outer loop
    vertex  16.195384989365 0.787245839049 21.912656483932
    vertex  17.181287586379 14.886309840567 21.912656483932
    vertex  18.028648631775 0.783878100212 21.357825441985
  endloop
endfacet
facet normal  -0.995184726672 -0 -0.09801714033
  outer loop
    vertex  24.972850425778 13.807035439546 12.35
    vertex  23.873523229321 0.77160337447 14.252130639657
    vertex  24.786879723092 13.833209765302 14.252130639657
  endloop
endfacet
facet normal  -1 -0 0
  outer loop
    vertex  1.001968172377 6.460184867881 15.953130176794
    vertex  0.606993652871 0.811786084526 24.7
    vertex  1.106077294905 7.949014683436 16.25
  endloop
endfacet
facet normal  0 -0.195090322016 -0.980785280403
  outer loop
    vertex  1.210186417433 9.43784449899 15.953130176794
    vertex  3.15543631544 9.301819375189 15.953130176794
    vertex  1.106077294905 7.949014683436 16.25
  endloop
endfacet
facet normal  0 0.980785280403 -0.195090322016
  outer loop
    vertex  0.854735639331 4.354661550659 13.842465386224
    vertex  2.799985537338 4.218636426858 13.842465386224
    vertex  2.77927694531 3.922489763621 12.35
  endloop
endfacet
facet normal  0.068564307019 -0.997644442652 0.002121756022
  outer loop
    vertex  0.606993652871 0.811786084526 24.7
    vertex  12.382152701538 0.791802171543 21.912656483932
    vertex  13.637649567937 0.796216091281 24.7
  endloop
endfacet
facet normal  0.09801714033 0 -0.995184726672
  outer loop
    vertex  14.28918236369 0.795437591619 0
    vertex  15.292495922014 15.143489940044 0
    vertex  16.704194274247 0.79204845845 0.23730178702
  endloop
endfacet
facet normal  0.956940335732 0 -0.290284677254
  outer loop
    vertex  25.725315624236 0.771972933424 7.623859610291
    vertex  27.318235289497 13.476935770298 9.940634523101
    vertex  26.429827574038 0.772113531636 9.940634523101
  endloop
endfacet
facet normal  0.068564307019 -0.997644442652 -0.002121756022
  outer loop
    vertex  6.162207969239 0.790437721093 6.933190228059
    vertex  0.606993652871 0.811786084526 0
    vertex  7.377824107658 0.79212007709 5.455708883431
  endloop
endfacet
facet normal  -1 0 0
  outer loop
    vertex  1.74118606074 17.031493180352 0
    vertex  0.606993652871 0.811786084526 0
    vertex  1.106077294905 7.949014683436 8.45
  endloop
endfacet
facet normal  0.066133300997 -0.997810746654 0.00031679697
  outer loop
    vertex  5.259131610913 0.792161035405 16.08116346556
    vertex  0.606993652871 0.811786084526 24.7
    vertex  4.703046424939 0.793601067159 14.252130639657
  endloop
endfacet
facet normal  0.068564307019 0.997644442652 0.002121756022
  outer loop
    vertex  1.74118606074 17.031493180352 24.7
    vertex  14.64719545243 15.233394856249 24.7
    vertex  8.448860238217 16.108650329088 19.244291116569
  endloop
endfacet
facet normal  0.068564307019 -0.997644442652 0.002121756022
  outer loop
    vertex  19.718136272484 0.779947674301 20.45682871995
    vertex  21.198921848936 0.77560560538 19.244291116569
    vertex  23.042007629702 0.777304162469 21.082768747654
  endloop
endfacet
facet normal  -0.09801714033 0 0.995184726672
  outer loop
    vertex  16.195384989365 0.787245839049 2.787343516069
    vertex  17.181287586379 14.886309840567 2.787343516069
    vertex  14.288796638926 0.789921470499 2.6
  endloop
endfacet
facet normal  -1 -0 -0
  outer loop
    vertex  0.606993652871 0.811786084526 24.7
    vertex  0.913708720002 5.19801589547 15.107716446628
    vertex  0.854735639331 4.354661550659 13.842465386224
  endloop
endfacet
facet normal  0.471396736826 0 -0.881921264348
  outer loop
    vertex  11.588804773478 15.666657476407 21.357825441985
    vertex  10.548724434457 0.792815667897 21.357825441985
    vertex  9.915479436748 15.901719617466 20.45682871995
  endloop
endfacet
facet normal  -0.09801714033 -0 0.995184726672
  outer loop
    vertex  15.292881646779 15.149006061164 2.6
    vertex  14.288796638926 0.789921470499 2.6
    vertex  17.181287586379 14.886309840567 2.787343516069
  endloop
endfacet
facet normal  -0 0.831469612303 -0.55557023302
  outer loop
    vertex  0.854735639331 4.354661550659 13.842465386224
    vertex  0.913708720002 5.19801589547 15.107716446628
    vertex  2.858958618009 5.061990771669 15.107716446628
  endloop
endfacet
facet normal  -0.773010453363 -0 -0.634393284164
  outer loop
    vertex  21.198921848936 0.77560560538 19.244291116569
    vertex  22.137750376599 14.201479051768 19.244291116569
    vertex  22.414120116095 0.771312123955 17.766809771941
  endloop
endfacet
facet normal  0.09801714033 -0 0.995184726672
  outer loop
    vertex  15.292881646779 15.149006061164 2.6
    vertex  13.404531294127 15.412497212166 2.787343516069
    vertex  12.382152701538 0.791802171543 2.787343516069
  endloop
endfacet
facet normal  0.471396736826 -0 -0.881921264348
  outer loop
    vertex  19.026328221299 0.787782655923 0.940087773486
    vertex  22.104489614988 14.198884292023 2.081350288064
    vertex  21.166345899531 0.782804116435 2.081350288064
  endloop
endfacet
facet normal  0 0.55557023302 0.831469612303
  outer loop
    vertex  2.858958618009 5.061990771669 9.592283553372
    vertex  1.001968172377 6.460184867881 8.746869823206
    vertex  0.913708720002 5.19801589547 9.592283553372
  endloop
endfacet
facet normal  0.995184726672 -0 0.09801714033
  outer loop
    vertex  4.515279436257 0.794087306377 12.35
    vertex  5.799907194057 16.479440856395 10.447869360343
    vertex  5.613899869381 16.505091463296 12.35
  endloop
endfacet
facet normal  0.068564307019 -0.997644442652 0.002121756022
  outer loop
    vertex  14.28918236369 0.795437591619 24.7
    vertex  13.637640070294 0.796080268654 24.635980587818
    vertex  12.382152701538 0.791802171543 21.912656483932
  endloop
endfacet
facet normal  0.068636856881 -0.997639739424 -0.00198297735
  outer loop
    vertex  21.198921848936 0.77560560538 5.455708883431
    vertex  24.581250297286 0.771744614317 5.488707622208
    vertex  22.414120116095 0.771312123955 6.933190228059
  endloop
endfacet
facet normal  0.068564307019 -0.997644442652 -0.002121756022
  outer loop
    vertex  19.026328221299 0.787782655923 0.940087773486
    vertex  21.166345899531 0.782804116435 2.081350288064
    vertex  16.704194274247 0.79204845845 0.23730178702
  endloop
endfacet
facet normal  0.068564307019 -0.997644442652 -0.002121756022
  outer loop
    vertex  0.606993652871 0.811786084526 0
    vertex  13.637649567937 0.796216091281 0
    vertex  13.637640070294 0.796080268654 0.064019412182
  endloop
endfacet
facet normal  0.290284677254 0 0.956940335732
  outer loop
    vertex  12.382152701538 0.791802171543 2.787343516069
    vertex  11.588804773478 15.666657476407 3.342174558015
    vertex  10.548724434457 0.792815667897 3.342174558015
  endloop
endfacet
facet normal  0.069955554456 0.997550109218 -0
  outer loop
    vertex  24.236114364845 13.910726877911 16.08116346556
    vertex  25.487699583096 13.734573329309 19.211292377792
    vertex  26.62059916905 13.575124112936 17.076140389709
  endloop
endfacet
facet normal  0.290284677254 0 -0.956940335732
  outer loop
    vertex  19.026328221299 0.787782655923 0.940087773486
    vertex  17.684476778842 14.810741393955 0.23730178702
    vertex  19.984605562914 14.491787099729 0.940087773486
  endloop
endfacet
facet normal  0.068564307019 -0.997644442652 0.002121756022
  outer loop
    vertex  12.382152701538 0.791802171543 21.912656483932
    vertex  14.288796638926 0.789921470499 22.1
    vertex  19.026328221299 0.787782655923 23.759912226514
  endloop
endfacet
facet normal  0.068564307019 -0.997644442652 0.002121756022
  outer loop
    vertex  8.858969457787 0.792923011464 20.45682871995
    vertex  10.548724434457 0.792815667897 21.357825441985
    vertex  0.606993652871 0.811786084526 24.7
  endloop
endfacet
facet normal  0.773010453363 -0 -0.634393284164
  outer loop
    vertex  7.377824107658 0.79212007709 19.244291116569
    vertex  7.245308531194 16.279497380072 17.766809771941
    vertex  8.448860238217 16.108650329088 19.244291116569
  endloop
endfacet
facet normal  0.068564307019 0.997644442652 -0.002121756022
  outer loop
    vertex  18.9971787317 14.63450381881 3.342174558015
    vertex  22.104489614988 14.198884292023 2.081350288064
    vertex  14.647204950073 15.233530678877 0.064019412182
  endloop
endfacet
facet normal  0.064361169113 -0.997926631839 0.000278166662
  outer loop
    vertex  4.703046424939 0.793601067159 14.252130639657
    vertex  0.606993652871 0.811786084526 0
    vertex  4.515279436257 0.794087306377 12.35
  endloop
endfacet
facet normal  0.068564307019 -0.997644442652 0.002121756022
  outer loop
    vertex  21.166345899531 0.782804116435 22.618649711936
    vertex  19.718136272484 0.779947674301 20.45682871995
    vertex  23.042007629702 0.777304162469 21.082768747654
  endloop
endfacet
facet normal  0 0.55557023302 -0.831469612303
  outer loop
    vertex  1.001968172377 6.460184867881 15.953130176794
    vertex  2.947218070384 6.32415974408 15.953130176794
    vertex  2.858958618009 5.061990771669 15.107716446628
  endloop
endfacet
facet normal  -1 -0 0
  outer loop
    vertex  1.741715865049 17.039069734949 14.180109236379
    vertex  1.298445869808 10.700013471401 15.107716446628
    vertex  1.741715865049 17.039069734949 21.128823529412
  endloop
endfacet
facet normal  0.471396736826 0 0.881921264348
  outer loop
    vertex  9.915479436748 15.901719617466 4.24317128005
    vertex  8.858969457787 0.792923011464 4.24317128005
    vertex  11.588804773478 15.666657476407 3.342174558015
  endloop
endfacet
facet normal  0.881921264348 0 -0.471396736826
  outer loop
    vertex  24.581250297286 0.771744614317 5.488707622208
    vertex  25.487699583096 13.734573329309 5.488707622208
    vertex  26.62059916905 13.575124112936 7.623859610291
  endloop
endfacet
facet normal  -0.290284677254 0 -0.956940335732
  outer loop
    vertex  18.9971787317 14.63450381881 21.357825441985
    vertex  18.028648631775 0.783878100212 21.357825441985
    vertex  17.181287586379 14.886309840567 21.912656483932
  endloop
endfacet
facet normal  0.068564307019 -0.997644442652 -0.002121756022
  outer loop
    vertex  18.028648631775 0.783878100212 3.342174558015
    vertex  23.042007629702 0.777304162469 3.617231252346
    vertex  19.718136272484 0.779947674301 4.24317128005
  endloop
endfacet
facet normal  0.06532700038 -0.997863910071 -0
  outer loop
    vertex  4.703046424939 0.793601067159 14.252130639657
    vertex  0.606993652871 0.811786084526 24.7
    vertex  0.606993652871 0.811786084526 0
  endloop
endfacet
facet normal  0.068564307019 0.997644442652 0.002121756022
  outer loop
    vertex  22.137750376599 14.201479051768 19.244291116569
    vertex  20.67077140439 14.403264760095 20.45682871995
    vertex  23.962662979786 13.943289061476 21.082768747654
  endloop
endfacet
facet normal  0.068564307019 0.997644442652 -0.002121756022
  outer loop
    vertex  1.74118606074 17.031493180352 0
    vertex  15.292881646779 15.149006061164 2.6
    vertex  14.647204950073 15.233530678877 0.064019412182
  endloop
endfacet
facet normal  0.290284677254 0 -0.956940335732
  outer loop
    vertex  12.382152701538 0.791802171543 21.912656483932
    vertex  11.588804773478 15.666657476407 21.357825441985
    vertex  13.404531294127 15.412497212166 21.912656483932
  endloop
endfacet
facet normal  0.069955554456 0.997550109218 0
  outer loop
    vertex  24.972850425778 13.807035439546 12.35
    vertex  27.553798179566 13.443781624341 12.35
    vertex  27.318235289497 13.476935770298 9.940634523101
  endloop
endfacet
facet normal  0.065962465729 0.997821588753 -0.001014955198
  outer loop
    vertex  7.245308531194 16.279497380072 6.933190228059
    vertex  1.741715865049 17.039069734949 14.180109236379
    vertex  6.350781010912 16.403474774129 8.61883653444
  endloop
endfacet
facet normal  0.068564307019 -0.997644442652 0.002121756022
  outer loop
    vertex  8.858969457787 0.792923011464 20.45682871995
    vertex  0.606993652871 0.811786084526 24.7
    vertex  7.377824107658 0.79212007709 19.244291116569
  endloop
endfacet
facet normal  0.068564307019 0.997644442652 0.002121756022
  outer loop
    vertex  14.647204950073 15.233530678877 24.635980587818
    vertex  13.404531294127 15.412497212166 21.912656483932
    vertex  14.64719545243 15.233394856249 24.7
  endloop
endfacet
facet normal  0.066695917175 -0.997773154979 0.000621156576
  outer loop
    vertex  6.162207969239 0.790437721093 17.766809771941
    vertex  0.606993652871 0.811786084526 24.7
    vertex  5.259131610913 0.792161035405 16.08116346556
  endloop
endfacet
facet normal  0.068564307019 0.997644442652 0.002121756022
  outer loop
    vertex  14.647204950073 15.233530678877 24.635980587818
    vertex  15.292495922014 15.143489940044 24.7
    vertex  15.292881646779 15.149006061164 22.1
  endloop
endfacet
facet normal  -0 0.195090322016 0.980785280403
  outer loop
    vertex  1.001968172377 6.460184867881 8.746869823206
    vertex  2.947218070384 6.32415974408 8.746869823206
    vertex  1.106077294905 7.949014683436 8.45
  endloop
endfacet
facet normal  0.773010453363 0 0.634393284164
  outer loop
    vertex  23.042007629702 0.777304162469 21.082768747654
    vertex  24.581250297286 0.771744614317 19.211292377792
    vertex  23.962662979786 13.943289061476 21.082768747654
  endloop
endfacet
facet normal  -1 -0 0
  outer loop
    vertex  3.243695767815 10.5639883476 9.592283553372
    vertex  3.15543631544 9.301819375189 8.746869823206
    vertex  3.4363511753 13.319089032598 12.35
  endloop
endfacet
facet normal  -0.09801714033 0 -0.995184726672
  outer loop
    vertex  17.181287586379 14.886309840567 21.912656483932
    vertex  16.195384989365 0.787245839049 21.912656483932
    vertex  15.292881646779 15.149006061164 22.1
  endloop
endfacet
facet normal  0.068564307019 -0.997644442652 0.002121756022
  outer loop
    vertex  18.028648631775 0.783878100212 21.357825441985
    vertex  19.026328221299 0.787782655923 23.759912226514
    vertex  16.195384989365 0.787245839049 21.912656483932
  endloop
endfacet
facet normal  0.068564307019 0.997644442652 -0.002121756022
  outer loop
    vertex  22.137750376599 14.201479051768 5.455708883431
    vertex  23.962662979786 13.943289061476 3.617231252346
    vertex  20.67077140439 14.403264760095 4.24317128005
  endloop
endfacet
facet normal  0.881921264348 -0 0.471396736826
  outer loop
    vertex  6.162207969239 0.790437721093 6.933190228059
    vertex  7.245308531194 16.279497380072 6.933190228059
    vertex  5.259131610913 0.792161035405 8.61883653444
  endloop
endfacet
facet normal  0.773010453363 -0 0.634393284164
  outer loop
    vertex  25.487699583096 13.734573329309 19.211292377792
    vertex  23.962662979786 13.943289061476 21.082768747654
    vertex  24.581250297286 0.771744614317 19.211292377792
  endloop
endfacet
facet normal  -1 0 0
  outer loop
    vertex  1.74118606074 17.031493180352 24.7
    vertex  1.298445869808 10.700013471401 15.107716446628
    vertex  1.210186417433 9.43784449899 15.953130176794
  endloop
endfacet
facet normal  0.881921264348 -0 0.471396736826
  outer loop
    vertex  6.350781010912 16.403474774129 8.61883653444
    vertex  5.259131610913 0.792161035405 8.61883653444
    vertex  7.245308531194 16.279497380072 6.933190228059
  endloop
endfacet
facet normal  0.290284677254 -0 -0.956940335732
  outer loop
    vertex  16.704194274247 0.79204845845 0.23730178702
    vertex  17.684476778842 14.810741393955 0.23730178702
    vertex  19.026328221299 0.787782655923 0.940087773486
  endloop
endfacet
facet normal  0.068564307019 0.997644442652 0.002121756022
  outer loop
    vertex  15.292495922014 15.143489940044 24.7
    vertex  17.684476778842 14.810741393955 24.46269821298
    vertex  15.292881646779 15.149006061164 22.1
  endloop
endfacet
facet normal  0.067422835759 0.997724464936 0.000230840527
  outer loop
    vertex  1.741715865049 17.039069734949 21.128823529412
    vertex  7.245308531194 16.279497380072 17.766809771941
    vertex  6.350781010912 16.403474774129 16.08116346556
  endloop
endfacet
facet normal  -1 0 0
  outer loop
    vertex  2.799985537338 4.218636426858 10.857534613776
    vertex  3.15543631544 9.301819375189 8.746869823206
    vertex  2.858958618009 5.061990771669 9.592283553372
  endloop
endfacet
facet normal  0.956940335732 -0 0.290284677254
  outer loop
    vertex  5.259131610913 0.792161035405 8.61883653444
    vertex  6.350781010912 16.403474774129 8.61883653444
    vertex  4.703046424939 0.793601067159 10.447869360343
  endloop
endfacet
facet normal  0.068637483016 0.997639564503 -0.002048234394
  outer loop
    vertex  22.137750376599 14.201479051768 5.455708883431
    vertex  25.487699583096 13.734573329309 5.488707622208
    vertex  23.962662979786 13.943289061476 3.617231252346
  endloop
endfacet
facet normal  0.995184726672 -0 0.09801714033
  outer loop
    vertex  26.429827574038 0.772113531636 14.759365476899
    vertex  26.667712147557 0.772161005843 12.35
    vertex  27.318235289497 13.476935770298 14.759365476899
  endloop
endfacet
facet normal  0.956940335732 0 0.290284677254
  outer loop
    vertex  5.799907194057 16.479440856395 10.447869360343
    vertex  4.703046424939 0.793601067159 10.447869360343
    vertex  6.350781010912 16.403474774129 8.61883653444
  endloop
endfacet
facet normal  0.068564307019 0.997644442652 0.002121756022
  outer loop
    vertex  11.588804773478 15.666657476407 21.357825441985
    vertex  9.915479436748 15.901719617466 20.45682871995
    vertex  14.64719545243 15.233394856249 24.7
  endloop
endfacet
endsolid
