solid Default
  facet normal 9.999998e-01 -5.723833e-04 -2.683144e-15
    outer loop
      vertex 1.843080e+01 -3.847089e+01 1.500000e+01
      vertex 1.844386e+01 -1.565491e+01 7.807259e+00
      vertex 1.844408e+01 -1.527556e+01 8.375000e+00
    endloop
  endfacet
  facet normal -9.999995e-01 9.595564e-04 -1.553357e-14
    outer loop
      vertex 1.157207e+01 -2.350456e+01 0.000000e+00
      vertex 1.158051e+01 -1.470782e+01 5.520774e+00
      vertex 1.158115e+01 -1.403812e+01 5.387563e+00
    endloop
  endfacet
  facet normal -1.433104e-16 -8.314696e-01 5.555702e-01
    outer loop
      vertex 1.844571e+01 -1.242134e+01 6.467867e+00
      vertex 1.158270e+01 -1.242134e+01 6.467867e+00
      vertex 1.844550e+01 -1.280069e+01 5.900126e+00
    endloop
  endfacet
  facet normal 9.999998e-01 -5.723833e-04 -1.750708e-15
    outer loop
      vertex 1.845647e+01 6.378906e+00 1.500000e+01
      vertex 1.845314e+01 5.537605e-01 7.807259e+00
      vertex 1.845322e+01 6.869736e-01 7.137563e+00
    endloop
  endfacet
  facet normal 9.999998e-01 -5.723833e-04 0.000000e+00
    outer loop
      vertex 1.845647e+01 6.378906e+00 1.500000e+01
      vertex 1.845322e+01 6.869736e-01 7.137563e+00
      vertex 1.845647e+01 6.378906e+00 0.000000e+00
    endloop
  endfacet
  facet normal 7.658076e-16 7.071068e-01 -7.071068e-01
    outer loop
      vertex 1.845221e+01 -1.063026e+00 9.612437e+00
      vertex 1.845151e+01 -2.300465e+00 8.375000e+00
      vertex 9.670216e+00 -2.300465e+00 8.375000e+00
    endloop
  endfacet
  facet normal -1.231423e-15 -9.807853e-01 1.950903e-01
    outer loop
      vertex 1.844579e+01 -1.228812e+01 7.137563e+00
      vertex 1.158283e+01 -1.228812e+01 7.137563e+00
      vertex 1.844571e+01 -1.242134e+01 6.467867e+00
    endloop
  endfacet
  facet normal -2.286094e-16 -9.807853e-01 1.950903e-01
    outer loop
      vertex 1.844571e+01 -1.242134e+01 6.467867e+00
      vertex 1.158283e+01 -1.228812e+01 7.137563e+00
      vertex 1.158270e+01 -1.242134e+01 6.467867e+00
    endloop
  endfacet
  facet normal -3.228076e-16 -5.555702e-01 8.314696e-01
    outer loop
      vertex 1.844550e+01 -1.280069e+01 5.900126e+00
      vertex 1.158234e+01 -1.280069e+01 5.900126e+00
      vertex 1.844517e+01 -1.336843e+01 5.520774e+00
    endloop
  endfacet
  facet normal -1.040775e-15 -5.555702e-01 8.314696e-01
    outer loop
      vertex 1.844517e+01 -1.336843e+01 5.520774e+00
      vertex 1.158234e+01 -1.280069e+01 5.900126e+00
      vertex 1.158179e+01 -1.336843e+01 5.520774e+00
    endloop
  endfacet
  facet normal -9.999995e-01 9.595564e-04 1.948546e-14
    outer loop
      vertex 1.158838e+01 -6.507542e+00 0.000000e+00
      vertex 1.158270e+01 -1.242134e+01 6.467867e+00
      vertex 1.158283e+01 -1.228812e+01 7.137563e+00
    endloop
  endfacet
  facet normal 7.078662e-01 7.063466e-01 0.000000e+00
    outer loop
      vertex -1.364316e+01 3.854760e+01 0.000000e+00
      vertex 1.845647e+01 6.378906e+00 1.500000e+01
      vertex 1.845647e+01 6.378906e+00 0.000000e+00
    endloop
  endfacet
  facet normal 0.000000e+00 0.000000e+00 1.000000e+00
    outer loop
      vertex 3.110390e+00 -2.700868e+01 1.500000e+01
      vertex 3.633102e+00 -3.854760e+01 1.500000e+01
      vertex 7.712288e+00 -2.853319e+01 1.500000e+01
    endloop
  endfacet
  facet normal 9.999998e-01 -5.723833e-04 1.343431e-14
    outer loop
      vertex 1.844386e+01 -1.565491e+01 6.467867e+00
      vertex 1.843080e+01 -3.847089e+01 0.000000e+00
      vertex 1.844408e+01 -1.527556e+01 5.900126e+00
    endloop
  endfacet
  facet normal -9.999995e-01 9.595564e-04 0.000000e+00
    outer loop
      vertex 1.158838e+01 -6.507542e+00 1.500000e+01
      vertex 1.158838e+01 -6.507542e+00 0.000000e+00
      vertex 1.158283e+01 -1.228812e+01 7.137563e+00
    endloop
  endfacet
  facet normal 0.000000e+00 0.000000e+00 -1.000000e+00
    outer loop
      vertex 3.110390e+00 -2.700868e+01 0.000000e+00
      vertex -9.524563e+00 -1.996427e+01 0.000000e+00
      vertex -6.439226e+00 -1.709379e+01 0.000000e+00
    endloop
  endfacet
  facet normal -9.999995e-01 9.595564e-04 2.129501e-15
    outer loop
      vertex 1.157960e+01 -1.565491e+01 6.467867e+00
      vertex 1.157207e+01 -2.350456e+01 0.000000e+00
      vertex 1.157947e+01 -1.578812e+01 7.137563e+00
    endloop
  endfacet
  facet normal -2.156931e-16 -8.314696e-01 5.555702e-01
    outer loop
      vertex 1.844550e+01 -1.280069e+01 5.900126e+00
      vertex 1.158270e+01 -1.242134e+01 6.467867e+00
      vertex 1.158234e+01 -1.280069e+01 5.900126e+00
    endloop
  endfacet
  facet normal 4.258689e-16 5.555702e-01 8.314696e-01
    outer loop
      vertex 1.845183e+01 -1.732723e+00 5.520774e+00
      vertex 9.670216e+00 -2.300465e+00 5.900126e+00
      vertex 1.845151e+01 -2.300465e+00 5.900126e+00
    endloop
  endfacet
  facet normal -9.098893e-01 -4.148512e-01 6.319060e-15
    outer loop
      vertex 8.368872e+00 5.537605e-01 7.807259e+00
      vertex 8.541832e+00 1.744118e-01 8.375000e+00
      vertex 3.114031e+00 1.207915e+01 1.500000e+01
    endloop
  endfacet
  facet normal -9.999995e-01 9.595564e-04 1.769615e-14
    outer loop
      vertex 1.157207e+01 -2.350456e+01 0.000000e+00
      vertex 1.157996e+01 -1.527556e+01 5.900126e+00
      vertex 1.158051e+01 -1.470782e+01 5.520774e+00
    endloop
  endfacet
  facet normal -9.999995e-01 9.595564e-04 -1.217098e-14
    outer loop
      vertex 1.158270e+01 -1.242134e+01 6.467867e+00
      vertex 1.158838e+01 -6.507542e+00 0.000000e+00
      vertex 1.158234e+01 -1.280069e+01 5.900126e+00
    endloop
  endfacet
  facet normal -9.999995e-01 9.595564e-04 -1.355037e-14
    outer loop
      vertex 1.158838e+01 -6.507542e+00 1.500000e+01
      vertex 1.158270e+01 -1.242134e+01 7.807259e+00
      vertex 1.158234e+01 -1.280069e+01 8.375000e+00
    endloop
  endfacet
  facet normal -9.999995e-01 9.595564e-04 1.286892e-15
    outer loop
      vertex 1.158838e+01 -6.507542e+00 0.000000e+00
      vertex 1.158179e+01 -1.336843e+01 5.520774e+00
      vertex 1.158234e+01 -1.280069e+01 5.900126e+00
    endloop
  endfacet
  facet normal -9.999995e-01 9.595564e-04 -1.133574e-14
    outer loop
      vertex 1.157996e+01 -1.527556e+01 5.900126e+00
      vertex 1.157207e+01 -2.350456e+01 0.000000e+00
      vertex 1.157960e+01 -1.565491e+01 6.467867e+00
    endloop
  endfacet
  facet normal 9.999998e-01 -5.723833e-04 -3.214327e-14
    outer loop
      vertex 1.844440e+01 -1.470782e+01 5.520774e+00
      vertex 1.843080e+01 -3.847089e+01 0.000000e+00
      vertex 1.844479e+01 -1.403812e+01 5.387563e+00
    endloop
  endfacet
  facet normal -1.583472e-16 -1.950903e-01 9.807853e-01
    outer loop
      vertex 9.106024e+00 -1.063026e+00 5.387563e+00
      vertex 1.845221e+01 -1.063026e+00 5.387563e+00
      vertex 1.845260e+01 -3.933296e-01 5.520774e+00
    endloop
  endfacet
  facet normal -9.894376e-16 -1.950903e-01 9.807853e-01
    outer loop
      vertex 1.844517e+01 -1.336843e+01 5.520774e+00
      vertex 1.158179e+01 -1.336843e+01 5.520774e+00
      vertex 1.844479e+01 -1.403812e+01 5.387563e+00
    endloop
  endfacet
  facet normal -9.999995e-01 9.595564e-04 -3.103643e-16
    outer loop
      vertex 1.158838e+01 -6.507542e+00 1.500000e+01
      vertex 1.158283e+01 -1.228812e+01 7.137563e+00
      vertex 1.158270e+01 -1.242134e+01 7.807259e+00
    endloop
  endfacet
  facet normal -9.098893e-01 -4.148512e-01 -2.925327e-15
    outer loop
      vertex 8.541832e+00 1.744118e-01 8.375000e+00
      vertex 9.106024e+00 -1.063026e+00 9.612437e+00
      vertex 3.114031e+00 1.207915e+01 1.500000e+01
    endloop
  endfacet
  facet normal -2.807789e-16 -8.314696e-01 5.555702e-01
    outer loop
      vertex 1.845314e+01 5.537605e-01 6.467867e+00
      vertex 8.368872e+00 5.537605e-01 6.467867e+00
      vertex 8.541832e+00 1.744118e-01 5.900126e+00
    endloop
  endfacet
  facet normal 9.999998e-01 -5.723833e-04 -4.291869e-15
    outer loop
      vertex 1.843080e+01 -3.847089e+01 1.500000e+01
      vertex 1.844408e+01 -1.527556e+01 8.375000e+00
      vertex 1.844479e+01 -1.403812e+01 9.612437e+00
    endloop
  endfacet
  facet normal -3.748203e-16 -1.950903e-01 9.807853e-01
    outer loop
      vertex 9.106024e+00 -1.063026e+00 5.387563e+00
      vertex 1.845260e+01 -3.933296e-01 5.520774e+00
      vertex 8.800686e+00 -3.933296e-01 5.520774e+00
    endloop
  endfacet
  facet normal 0.000000e+00 0.000000e+00 -1.000000e+00
    outer loop
      vertex 3.110390e+00 -2.700868e+01 0.000000e+00
      vertex -1.199222e+01 -2.280182e+01 0.000000e+00
      vertex -9.524563e+00 -1.996427e+01 0.000000e+00
    endloop
  endfacet
  facet normal -2.404295e-15 5.555702e-01 8.314696e-01
    outer loop
      vertex 1.158051e+01 -1.470782e+01 5.520774e+00
      vertex 1.157996e+01 -1.527556e+01 5.900126e+00
      vertex 1.844408e+01 -1.527556e+01 5.900126e+00
    endloop
  endfacet
  facet normal -2.952960e-16 -8.314696e-01 5.555702e-01
    outer loop
      vertex 1.845314e+01 5.537605e-01 6.467867e+00
      vertex 8.541832e+00 1.744118e-01 5.900126e+00
      vertex 1.845292e+01 1.744118e-01 5.900126e+00
    endloop
  endfacet
  facet normal -1.175949e-16 7.071068e-01 -7.071068e-01
    outer loop
      vertex 1.845221e+01 -1.063026e+00 9.612437e+00
      vertex 9.670216e+00 -2.300465e+00 8.375000e+00
      vertex 9.106024e+00 -1.063026e+00 9.612437e+00
    endloop
  endfacet
  facet normal -3.790143e-16 5.555702e-01 8.314696e-01
    outer loop
      vertex 1.844408e+01 -1.527556e+01 5.900126e+00
      vertex 1.844440e+01 -1.470782e+01 5.520774e+00
      vertex 1.158051e+01 -1.470782e+01 5.520774e+00
    endloop
  endfacet
  facet normal 9.999998e-01 -5.723833e-04 -3.080722e-15
    outer loop
      vertex 1.844408e+01 -1.527556e+01 5.900126e+00
      vertex 1.843080e+01 -3.847089e+01 0.000000e+00
      vertex 1.844440e+01 -1.470782e+01 5.520774e+00
    endloop
  endfacet
  facet normal -4.441573e-16 1.950903e-01 9.807853e-01
    outer loop
      vertex 1.158115e+01 -1.403812e+01 5.387563e+00
      vertex 1.158051e+01 -1.470782e+01 5.520774e+00
      vertex 1.844440e+01 -1.470782e+01 5.520774e+00
    endloop
  endfacet
  facet normal -4.945139e-16 1.950903e-01 9.807853e-01
    outer loop
      vertex 1.844440e+01 -1.470782e+01 5.520774e+00
      vertex 1.844479e+01 -1.403812e+01 5.387563e+00
      vertex 1.158115e+01 -1.403812e+01 5.387563e+00
    endloop
  endfacet
  facet normal 0.000000e+00 0.000000e+00 1.000000e+00
    outer loop
      vertex 3.110390e+00 -2.700868e+01 1.500000e+01
      vertex -1.199222e+01 -2.280182e+01 1.500000e+01
      vertex 3.633102e+00 -3.854760e+01 1.500000e+01
    endloop
  endfacet
  facet normal -3.938344e-16 -1.950903e-01 9.807853e-01
    outer loop
      vertex 1.158179e+01 -1.336843e+01 5.520774e+00
      vertex 1.158115e+01 -1.403812e+01 5.387563e+00
      vertex 1.844479e+01 -1.403812e+01 5.387563e+00
    endloop
  endfacet
  facet normal -9.999995e-01 9.595564e-04 -1.024079e-15
    outer loop
      vertex 1.158115e+01 -1.403812e+01 9.612437e+00
      vertex 1.157996e+01 -1.527556e+01 8.375000e+00
      vertex 1.157207e+01 -2.350456e+01 1.500000e+01
    endloop
  endfacet
  facet normal 6.602786e-16 9.807853e-01 1.950903e-01
    outer loop
      vertex 1.844379e+01 -1.578812e+01 7.137563e+00
      vertex 1.844386e+01 -1.565491e+01 6.467867e+00
      vertex 1.157960e+01 -1.565491e+01 6.467867e+00
    endloop
  endfacet
  facet normal -9.999995e-01 9.595564e-04 2.452535e-15
    outer loop
      vertex 1.158838e+01 -6.507542e+00 1.500000e+01
      vertex 1.158234e+01 -1.280069e+01 8.375000e+00
      vertex 1.158115e+01 -1.403812e+01 9.612437e+00
    endloop
  endfacet
  facet normal 2.880925e-15 9.807853e-01 1.950903e-01
    outer loop
      vertex 1.157960e+01 -1.565491e+01 6.467867e+00
      vertex 1.157947e+01 -1.578812e+01 7.137563e+00
      vertex 1.844379e+01 -1.578812e+01 7.137563e+00
    endloop
  endfacet
  facet normal 7.078662e-01 7.063466e-01 0.000000e+00
    outer loop
      vertex -1.364316e+01 3.854760e+01 0.000000e+00
      vertex -1.364316e+01 3.854760e+01 1.500000e+01
      vertex 1.845647e+01 6.378906e+00 1.500000e+01
    endloop
  endfacet
  facet normal -9.098893e-01 -4.148512e-01 4.519415e-16
    outer loop
      vertex 9.106024e+00 -1.063026e+00 9.612437e+00
      vertex 1.158838e+01 -6.507542e+00 1.500000e+01
      vertex 3.114031e+00 1.207915e+01 1.500000e+01
    endloop
  endfacet
  facet normal -9.999995e-01 9.595564e-04 -2.111086e-16
    outer loop
      vertex 1.158838e+01 -6.507542e+00 1.500000e+01
      vertex 1.158115e+01 -1.403812e+01 9.612437e+00
      vertex 1.157207e+01 -2.350456e+01 1.500000e+01
    endloop
  endfacet
  facet normal 0.000000e+00 0.000000e+00 -1.000000e+00
    outer loop
      vertex -1.612683e+01 3.600310e+01 0.000000e+00
      vertex 3.114031e+00 1.207915e+01 0.000000e+00
      vertex -1.845647e+01 3.345860e+01 0.000000e+00
    endloop
  endfacet
  facet normal 0.000000e+00 0.000000e+00 1.000000e+00
    outer loop
      vertex 7.712288e+00 -2.853319e+01 1.500000e+01
      vertex 1.843080e+01 -3.847089e+01 1.500000e+01
      vertex 1.157207e+01 -2.350456e+01 1.500000e+01
    endloop
  endfacet
  facet normal -9.098893e-01 -4.148512e-01 3.339083e-15
    outer loop
      vertex 8.800686e+00 -3.933296e-01 5.520774e+00
      vertex 8.541832e+00 1.744118e-01 5.900126e+00
      vertex 3.114031e+00 1.207915e+01 0.000000e+00
    endloop
  endfacet
  facet normal -3.109329e-16 -9.807853e-01 1.950903e-01
    outer loop
      vertex 8.368872e+00 5.537605e-01 6.467867e+00
      vertex 1.845314e+01 5.537605e-01 6.467867e+00
      vertex 8.308136e+00 6.869736e-01 7.137563e+00
    endloop
  endfacet
  facet normal -9.098893e-01 -4.148512e-01 3.495072e-15
    outer loop
      vertex 9.843176e+00 -2.679817e+00 6.467867e+00
      vertex 1.158838e+01 -6.507542e+00 0.000000e+00
      vertex 9.903912e+00 -2.813026e+00 7.137563e+00
    endloop
  endfacet
  facet normal -7.375606e-01 6.752809e-01 0.000000e+00
    outer loop
      vertex -1.612683e+01 3.600310e+01 0.000000e+00
      vertex -1.845647e+01 3.345860e+01 0.000000e+00
      vertex -1.845647e+01 3.345860e+01 1.500000e+01
    endloop
  endfacet
  facet normal 9.999998e-01 -5.723833e-04 -1.185107e-14
    outer loop
      vertex 1.845647e+01 6.378906e+00 0.000000e+00
      vertex 1.845292e+01 1.744118e-01 5.900126e+00
      vertex 1.845260e+01 -3.933296e-01 5.520774e+00
    endloop
  endfacet
  facet normal -3.886074e-16 -9.807853e-01 -1.950903e-01
    outer loop
      vertex 1.845314e+01 5.537605e-01 7.807259e+00
      vertex 8.368872e+00 5.537605e-01 7.807259e+00
      vertex 1.845322e+01 6.869736e-01 7.137563e+00
    endloop
  endfacet
  facet normal -3.724022e-16 -8.314696e-01 -5.555702e-01
    outer loop
      vertex 1.845314e+01 5.537605e-01 7.807259e+00
      vertex 8.541832e+00 1.744118e-01 8.375000e+00
      vertex 8.368872e+00 5.537605e-01 7.807259e+00
    endloop
  endfacet
  facet normal -6.811546e-01 7.321396e-01 0.000000e+00
    outer loop
      vertex -9.524563e+00 -1.996427e+01 1.500000e+01
      vertex -6.439226e+00 -1.709379e+01 1.500000e+01
      vertex -6.439226e+00 -1.709379e+01 0.000000e+00
    endloop
  endfacet
  facet normal -3.466060e-16 -9.807853e-01 -1.950903e-01
    outer loop
      vertex 1.845322e+01 6.869736e-01 7.137563e+00
      vertex 8.368872e+00 5.537605e-01 7.807259e+00
      vertex 8.308136e+00 6.869736e-01 7.137563e+00
    endloop
  endfacet
  facet normal 0.000000e+00 0.000000e+00 -1.000000e+00
    outer loop
      vertex 1.157207e+01 -2.350456e+01 0.000000e+00
      vertex 1.843080e+01 -3.847089e+01 0.000000e+00
      vertex 7.712288e+00 -2.853319e+01 0.000000e+00
    endloop
  endfacet
  facet normal -7.156087e-01 6.985014e-01 0.000000e+00
    outer loop
      vertex -1.612683e+01 3.600310e+01 1.500000e+01
      vertex -1.364316e+01 3.854760e+01 1.500000e+01
      vertex -1.612683e+01 3.600310e+01 0.000000e+00
    endloop
  endfacet
  facet normal -5.152288e-16 8.314696e-01 -5.555702e-01
    outer loop
      vertex 1.845129e+01 -2.679817e+00 7.807259e+00
      vertex 9.843176e+00 -2.679817e+00 7.807259e+00
      vertex 1.845151e+01 -2.300465e+00 8.375000e+00
    endloop
  endfacet
  facet normal -6.811546e-01 7.321396e-01 0.000000e+00
    outer loop
      vertex -9.524563e+00 -1.996427e+01 0.000000e+00
      vertex -9.524563e+00 -1.996427e+01 1.500000e+01
      vertex -6.439226e+00 -1.709379e+01 0.000000e+00
    endloop
  endfacet
  facet normal 3.144728e-01 9.492665e-01 0.000000e+00
    outer loop
      vertex 7.712288e+00 -2.853319e+01 0.000000e+00
      vertex 3.110390e+00 -2.700868e+01 1.500000e+01
      vertex 7.712288e+00 -2.853319e+01 1.500000e+01
    endloop
  endfacet
  facet normal -7.375606e-01 6.752809e-01 0.000000e+00
    outer loop
      vertex -1.612683e+01 3.600310e+01 1.500000e+01
      vertex -1.612683e+01 3.600310e+01 0.000000e+00
      vertex -1.845647e+01 3.345860e+01 1.500000e+01
    endloop
  endfacet
  facet normal 3.144728e-01 9.492665e-01 0.000000e+00
    outer loop
      vertex 7.712288e+00 -2.853319e+01 0.000000e+00
      vertex 3.110390e+00 -2.700868e+01 0.000000e+00
      vertex 3.110390e+00 -2.700868e+01 1.500000e+01
    endloop
  endfacet
  facet normal 7.202497e-01 6.937150e-01 0.000000e+00
    outer loop
      vertex 3.110390e+00 -2.700868e+01 0.000000e+00
      vertex -6.439226e+00 -1.709379e+01 1.500000e+01
      vertex 3.110390e+00 -2.700868e+01 1.500000e+01
    endloop
  endfacet
  facet normal -8.399638e-17 -7.071068e-01 -7.071068e-01
    outer loop
      vertex 9.106024e+00 -1.063026e+00 9.612437e+00
      vertex 1.845292e+01 1.744118e-01 8.375000e+00
      vertex 1.845221e+01 -1.063026e+00 9.612437e+00
    endloop
  endfacet
  facet normal -9.098893e-01 -4.148512e-01 -5.793607e-15
    outer loop
      vertex 8.541832e+00 1.744118e-01 5.900126e+00
      vertex 8.368872e+00 5.537605e-01 6.467867e+00
      vertex 3.114031e+00 1.207915e+01 0.000000e+00
    endloop
  endfacet
  facet normal 9.999998e-01 -5.723833e-04 1.584289e-14
    outer loop
      vertex 1.845647e+01 6.378906e+00 0.000000e+00
      vertex 1.845314e+01 5.537605e-01 6.467867e+00
      vertex 1.845292e+01 1.744118e-01 5.900126e+00
    endloop
  endfacet
  facet normal 0.000000e+00 0.000000e+00 1.000000e+00
    outer loop
      vertex -1.845647e+01 3.345860e+01 1.500000e+01
      vertex 3.114031e+00 1.207915e+01 1.500000e+01
      vertex -1.612683e+01 3.600310e+01 1.500000e+01
    endloop
  endfacet
  facet normal -7.039542e-01 -7.102454e-01 -0.000000e+00
    outer loop
      vertex -1.845647e+01 3.345860e+01 1.500000e+01
      vertex -1.845647e+01 3.345860e+01 0.000000e+00
      vertex 3.114031e+00 1.207915e+01 1.500000e+01
    endloop
  endfacet
  facet normal 2.222648e-16 -8.314696e-01 -5.555702e-01
    outer loop
      vertex 1.845292e+01 1.744118e-01 8.375000e+00
      vertex 8.541832e+00 1.744118e-01 8.375000e+00
      vertex 1.845314e+01 5.537605e-01 7.807259e+00
    endloop
  endfacet
  facet normal 0.000000e+00 0.000000e+00 1.000000e+00
    outer loop
      vertex -9.524563e+00 -1.996427e+01 1.500000e+01
      vertex 3.110390e+00 -2.700868e+01 1.500000e+01
      vertex -6.439226e+00 -1.709379e+01 1.500000e+01
    endloop
  endfacet
  facet normal -9.098893e-01 -4.148512e-01 3.493349e-16
    outer loop
      vertex 1.158838e+01 -6.507542e+00 0.000000e+00
      vertex 9.843176e+00 -2.679817e+00 6.467867e+00
      vertex 9.670216e+00 -2.300465e+00 5.900126e+00
    endloop
  endfacet
  facet normal 0.000000e+00 0.000000e+00 -1.000000e+00
    outer loop
      vertex 3.633102e+00 -3.854760e+01 0.000000e+00
      vertex 3.110390e+00 -2.700868e+01 0.000000e+00
      vertex 7.712288e+00 -2.853319e+01 0.000000e+00
    endloop
  endfacet
  facet normal -7.156087e-01 6.985014e-01 0.000000e+00
    outer loop
      vertex -1.612683e+01 3.600310e+01 0.000000e+00
      vertex -1.364316e+01 3.854760e+01 1.500000e+01
      vertex -1.364316e+01 3.854760e+01 0.000000e+00
    endloop
  endfacet
  facet normal -2.797150e-16 -5.555702e-01 8.314696e-01
    outer loop
      vertex 1.845292e+01 1.744118e-01 5.900126e+00
      vertex 8.541832e+00 1.744118e-01 5.900126e+00
      vertex 8.800686e+00 -3.933296e-01 5.520774e+00
    endloop
  endfacet
  facet normal -3.891706e-16 -5.555702e-01 8.314696e-01
    outer loop
      vertex 8.800686e+00 -3.933296e-01 5.520774e+00
      vertex 1.845260e+01 -3.933296e-01 5.520774e+00
      vertex 1.845292e+01 1.744118e-01 5.900126e+00
    endloop
  endfacet
  facet normal -3.539483e-16 5.555702e-01 8.314696e-01
    outer loop
      vertex 1.845183e+01 -1.732723e+00 5.520774e+00
      vertex 9.411362e+00 -1.732723e+00 5.520774e+00
      vertex 9.670216e+00 -2.300465e+00 5.900126e+00
    endloop
  endfacet
  facet normal 0.000000e+00 0.000000e+00 -1.000000e+00
    outer loop
      vertex 1.158838e+01 -6.507542e+00 0.000000e+00
      vertex 3.114031e+00 1.207915e+01 0.000000e+00
      vertex 1.845647e+01 6.378906e+00 0.000000e+00
    endloop
  endfacet
  facet normal 9.999998e-01 -5.723833e-04 -9.574275e-16
    outer loop
      vertex 1.845292e+01 1.744118e-01 8.375000e+00
      vertex 1.845314e+01 5.537605e-01 7.807259e+00
      vertex 1.845647e+01 6.378906e+00 1.500000e+01
    endloop
  endfacet
  facet normal 0.000000e+00 0.000000e+00 1.000000e+00
    outer loop
      vertex 1.158838e+01 -6.507542e+00 1.500000e+01
      vertex 1.845647e+01 6.378906e+00 1.500000e+01
      vertex 3.114031e+00 1.207915e+01 1.500000e+01
    endloop
  endfacet
  facet normal 7.994125e-16 8.314696e-01 -5.555702e-01
    outer loop
      vertex 1.845151e+01 -2.300465e+00 8.375000e+00
      vertex 9.843176e+00 -2.679817e+00 7.807259e+00
      vertex 9.670216e+00 -2.300465e+00 8.375000e+00
    endloop
  endfacet
  facet normal 9.999998e-01 -5.723833e-04 -6.706363e-15
    outer loop
      vertex 1.845314e+01 5.537605e-01 6.467867e+00
      vertex 1.845647e+01 6.378906e+00 0.000000e+00
      vertex 1.845322e+01 6.869736e-01 7.137563e+00
    endloop
  endfacet
  facet normal 7.202497e-01 6.937150e-01 0.000000e+00
    outer loop
      vertex -6.439226e+00 -1.709379e+01 1.500000e+01
      vertex 3.110390e+00 -2.700868e+01 0.000000e+00
      vertex -6.439226e+00 -1.709379e+01 0.000000e+00
    endloop
  endfacet
  facet normal 0.000000e+00 0.000000e+00 -1.000000e+00
    outer loop
      vertex 3.633102e+00 -3.854760e+01 0.000000e+00
      vertex -1.199222e+01 -2.280182e+01 0.000000e+00
      vertex 3.110390e+00 -2.700868e+01 0.000000e+00
    endloop
  endfacet
  facet normal 2.415870e-16 -7.071068e-01 -7.071068e-01
    outer loop
      vertex 1.845292e+01 1.744118e-01 8.375000e+00
      vertex 9.106024e+00 -1.063026e+00 9.612437e+00
      vertex 8.541832e+00 1.744118e-01 8.375000e+00
    endloop
  endfacet
  facet normal -9.098893e-01 -4.148512e-01 -3.767528e-15
    outer loop
      vertex 3.114031e+00 1.207915e+01 0.000000e+00
      vertex 8.368872e+00 5.537605e-01 6.467867e+00
      vertex 8.308136e+00 6.869736e-01 7.137563e+00
    endloop
  endfacet
  facet normal 0.000000e+00 0.000000e+00 1.000000e+00
    outer loop
      vertex -9.524563e+00 -1.996427e+01 1.500000e+01
      vertex -1.199222e+01 -2.280182e+01 1.500000e+01
      vertex 3.110390e+00 -2.700868e+01 1.500000e+01
    endloop
  endfacet
  facet normal 0.000000e+00 0.000000e+00 -1.000000e+00
    outer loop
      vertex -1.612683e+01 3.600310e+01 0.000000e+00
      vertex -1.364316e+01 3.854760e+01 0.000000e+00
      vertex 3.114031e+00 1.207915e+01 0.000000e+00
    endloop
  endfacet
  facet normal -7.039542e-01 -7.102454e-01 -0.000000e+00
    outer loop
      vertex 3.114031e+00 1.207915e+01 1.500000e+01
      vertex -1.845647e+01 3.345860e+01 0.000000e+00
      vertex 3.114031e+00 1.207915e+01 0.000000e+00
    endloop
  endfacet
  facet normal -9.098893e-01 -4.148512e-01 -1.483819e-15
    outer loop
      vertex 1.158838e+01 -6.507542e+00 1.500000e+01
      vertex 9.670216e+00 -2.300465e+00 8.375000e+00
      vertex 9.843176e+00 -2.679817e+00 7.807259e+00
    endloop
  endfacet
  facet normal 0.000000e+00 0.000000e+00 1.000000e+00
    outer loop
      vertex 3.114031e+00 1.207915e+01 1.500000e+01
      vertex -1.364316e+01 3.854760e+01 1.500000e+01
      vertex -1.612683e+01 3.600310e+01 1.500000e+01
    endloop
  endfacet
  facet normal 0.000000e+00 0.000000e+00 -1.000000e+00
    outer loop
      vertex 3.114031e+00 1.207915e+01 0.000000e+00
      vertex -1.364316e+01 3.854760e+01 0.000000e+00
      vertex 1.845647e+01 6.378906e+00 0.000000e+00
    endloop
  endfacet
  facet normal -3.188515e-16 -9.807853e-01 1.950903e-01
    outer loop
      vertex 8.308136e+00 6.869736e-01 7.137563e+00
      vertex 1.845314e+01 5.537605e-01 6.467867e+00
      vertex 1.845322e+01 6.869736e-01 7.137563e+00
    endloop
  endfacet
  facet normal 0.000000e+00 0.000000e+00 1.000000e+00
    outer loop
      vertex 1.845647e+01 6.378906e+00 1.500000e+01
      vertex -1.364316e+01 3.854760e+01 1.500000e+01
      vertex 3.114031e+00 1.207915e+01 1.500000e+01
    endloop
  endfacet
  facet normal 9.999998e-01 -5.723833e-04 9.092833e-16
    outer loop
      vertex 1.845221e+01 -1.063026e+00 9.612437e+00
      vertex 1.845292e+01 1.744118e-01 8.375000e+00
      vertex 1.845647e+01 6.378906e+00 1.500000e+01
    endloop
  endfacet
  facet normal 0.000000e+00 0.000000e+00 -1.000000e+00
    outer loop
      vertex 1.843080e+01 -3.847089e+01 0.000000e+00
      vertex 3.633102e+00 -3.854760e+01 0.000000e+00
      vertex 7.712288e+00 -2.853319e+01 0.000000e+00
    endloop
  endfacet
  facet normal -9.098893e-01 -4.148512e-01 1.356552e-15
    outer loop
      vertex 9.670216e+00 -2.300465e+00 8.375000e+00
      vertex 1.158838e+01 -6.507542e+00 1.500000e+01
      vertex 9.106024e+00 -1.063026e+00 9.612437e+00
    endloop
  endfacet
  facet normal 0.000000e+00 0.000000e+00 1.000000e+00
    outer loop
      vertex 3.633102e+00 -3.854760e+01 1.500000e+01
      vertex 1.843080e+01 -3.847089e+01 1.500000e+01
      vertex 7.712288e+00 -2.853319e+01 1.500000e+01
    endloop
  endfacet
  facet normal -1.212680e-16 1.950903e-01 9.807853e-01
    outer loop
      vertex 1.845221e+01 -1.063026e+00 5.387563e+00
      vertex 9.106024e+00 -1.063026e+00 5.387563e+00
      vertex 9.411362e+00 -1.732723e+00 5.520774e+00
    endloop
  endfacet
  facet normal -4.293969e-16 1.950903e-01 9.807853e-01
    outer loop
      vertex 1.845221e+01 -1.063026e+00 5.387563e+00
      vertex 9.411362e+00 -1.732723e+00 5.520774e+00
      vertex 1.845183e+01 -1.732723e+00 5.520774e+00
    endloop
  endfacet
  facet normal 9.999998e-01 -5.723833e-04 -8.812837e-15
    outer loop
      vertex 1.845647e+01 6.378906e+00 0.000000e+00
      vertex 1.845260e+01 -3.933296e-01 5.520774e+00
      vertex 1.845221e+01 -1.063026e+00 5.387563e+00
    endloop
  endfacet
  facet normal -7.545761e-01 6.562126e-01 0.000000e+00
    outer loop
      vertex -1.199222e+01 -2.280182e+01 1.500000e+01
      vertex -9.524563e+00 -1.996427e+01 1.500000e+01
      vertex -9.524563e+00 -1.996427e+01 0.000000e+00
    endloop
  endfacet
  facet normal -7.545761e-01 6.562126e-01 0.000000e+00
    outer loop
      vertex -1.199222e+01 -2.280182e+01 1.500000e+01
      vertex -9.524563e+00 -1.996427e+01 0.000000e+00
      vertex -1.199222e+01 -2.280182e+01 0.000000e+00
    endloop
  endfacet
  facet normal -9.098893e-01 -4.148512e-01 -6.655047e-15
    outer loop
      vertex 1.158838e+01 -6.507542e+00 1.500000e+01
      vertex 9.843176e+00 -2.679817e+00 7.807259e+00
      vertex 9.903912e+00 -2.813026e+00 7.137563e+00
    endloop
  endfacet
  facet normal -9.098893e-01 -4.148512e-01 -0.000000e+00
    outer loop
      vertex 1.158838e+01 -6.507542e+00 1.500000e+01
      vertex 9.903912e+00 -2.813026e+00 7.137563e+00
      vertex 1.158838e+01 -6.507542e+00 0.000000e+00
    endloop
  endfacet
  facet normal 3.789201e-16 8.314696e-01 5.555702e-01
    outer loop
      vertex 1.845151e+01 -2.300465e+00 5.900126e+00
      vertex 9.670216e+00 -2.300465e+00 5.900126e+00
      vertex 9.843176e+00 -2.679817e+00 6.467867e+00
    endloop
  endfacet
  facet normal -2.172183e-16 8.314696e-01 5.555702e-01
    outer loop
      vertex 1.845151e+01 -2.300465e+00 5.900126e+00
      vertex 9.843176e+00 -2.679817e+00 6.467867e+00
      vertex 1.845129e+01 -2.679817e+00 6.467867e+00
    endloop
  endfacet
  facet normal -9.098893e-01 -4.148512e-01 1.960837e-15
    outer loop
      vertex 1.158838e+01 -6.507542e+00 0.000000e+00
      vertex 9.670216e+00 -2.300465e+00 5.900126e+00
      vertex 9.411362e+00 -1.732723e+00 5.520774e+00
    endloop
  endfacet
  facet normal -1.830168e-16 -7.071068e-01 -7.071068e-01
    outer loop
      vertex 1.158234e+01 -1.280069e+01 8.375000e+00
      vertex 1.844550e+01 -1.280069e+01 8.375000e+00
      vertex 1.844479e+01 -1.403812e+01 9.612437e+00
    endloop
  endfacet
  facet normal -2.107427e-15 -7.071068e-01 -7.071068e-01
    outer loop
      vertex 1.158234e+01 -1.280069e+01 8.375000e+00
      vertex 1.844479e+01 -1.403812e+01 9.612437e+00
      vertex 1.158115e+01 -1.403812e+01 9.612437e+00
    endloop
  endfacet
  facet normal 9.999998e-01 -5.723833e-04 -2.587889e-15
    outer loop
      vertex 1.843080e+01 -3.847089e+01 1.500000e+01
      vertex 1.844379e+01 -1.578812e+01 7.137563e+00
      vertex 1.844386e+01 -1.565491e+01 7.807259e+00
    endloop
  endfacet
  facet normal -9.999995e-01 9.595564e-04 7.011236e-15
    outer loop
      vertex 1.157960e+01 -1.565491e+01 7.807259e+00
      vertex 1.157207e+01 -2.350456e+01 1.500000e+01
      vertex 1.157996e+01 -1.527556e+01 8.375000e+00
    endloop
  endfacet
  facet normal -2.084512e-15 8.314696e-01 5.555702e-01
    outer loop
      vertex 1.844386e+01 -1.565491e+01 6.467867e+00
      vertex 1.844408e+01 -1.527556e+01 5.900126e+00
      vertex 1.157996e+01 -1.527556e+01 5.900126e+00
    endloop
  endfacet
  facet normal 3.579667e-16 8.314696e-01 5.555702e-01
    outer loop
      vertex 1.844386e+01 -1.565491e+01 6.467867e+00
      vertex 1.157996e+01 -1.527556e+01 5.900126e+00
      vertex 1.157960e+01 -1.565491e+01 6.467867e+00
    endloop
  endfacet
  facet normal 5.183993e-03 -9.999866e-01 0.000000e+00
    outer loop
      vertex 1.843080e+01 -3.847089e+01 1.500000e+01
      vertex 3.633102e+00 -3.854760e+01 1.500000e+01
      vertex 3.633102e+00 -3.854760e+01 0.000000e+00
    endloop
  endfacet
  facet normal 5.183993e-03 -9.999866e-01 0.000000e+00
    outer loop
      vertex 1.843080e+01 -3.847089e+01 1.500000e+01
      vertex 3.633102e+00 -3.854760e+01 0.000000e+00
      vertex 1.843080e+01 -3.847089e+01 0.000000e+00
    endloop
  endfacet
  facet normal -1.051308e-15 -9.807853e-01 -1.950903e-01
    outer loop
      vertex 1.844579e+01 -1.228812e+01 7.137563e+00
      vertex 1.844571e+01 -1.242134e+01 7.807259e+00
      vertex 1.158270e+01 -1.242134e+01 7.807259e+00
    endloop
  endfacet
  facet normal -1.307167e-15 -9.807853e-01 -1.950903e-01
    outer loop
      vertex 1.844579e+01 -1.228812e+01 7.137563e+00
      vertex 1.158270e+01 -1.242134e+01 7.807259e+00
      vertex 1.158283e+01 -1.228812e+01 7.137563e+00
    endloop
  endfacet
  facet normal -2.745061e-16 7.071068e-01 -7.071068e-01
    outer loop
      vertex 1.158115e+01 -1.403812e+01 9.612437e+00
      vertex 1.844479e+01 -1.403812e+01 9.612437e+00
      vertex 1.844408e+01 -1.527556e+01 8.375000e+00
    endloop
  endfacet
  facet normal -8.133361e-16 7.071068e-01 -7.071068e-01
    outer loop
      vertex 1.158115e+01 -1.403812e+01 9.612437e+00
      vertex 1.844408e+01 -1.527556e+01 8.375000e+00
      vertex 1.157996e+01 -1.527556e+01 8.375000e+00
    endloop
  endfacet
  facet normal -9.686874e-16 -8.314696e-01 -5.555702e-01
    outer loop
      vertex 1.158270e+01 -1.242134e+01 7.807259e+00
      vertex 1.844571e+01 -1.242134e+01 7.807259e+00
      vertex 1.844550e+01 -1.280069e+01 8.375000e+00
    endloop
  endfacet
  facet normal -2.842913e-16 -8.314696e-01 -5.555702e-01
    outer loop
      vertex 1.158270e+01 -1.242134e+01 7.807259e+00
      vertex 1.844550e+01 -1.280069e+01 8.375000e+00
      vertex 1.158234e+01 -1.280069e+01 8.375000e+00
    endloop
  endfacet
  facet normal -9.098893e-01 -4.148512e-01 -2.237955e-15
    outer loop
      vertex 1.158838e+01 -6.507542e+00 0.000000e+00
      vertex 9.411362e+00 -1.732723e+00 5.520774e+00
      vertex 9.106024e+00 -1.063026e+00 5.387563e+00
    endloop
  endfacet
  facet normal -7.098166e-01 -7.043865e-01 0.000000e+00
    outer loop
      vertex 3.633102e+00 -3.854760e+01 1.500000e+01
      vertex -1.199222e+01 -2.280182e+01 1.500000e+01
      vertex -1.199222e+01 -2.280182e+01 0.000000e+00
    endloop
  endfacet
  facet normal -7.098166e-01 -7.043865e-01 -0.000000e+00
    outer loop
      vertex 3.633102e+00 -3.854760e+01 1.500000e+01
      vertex -1.199222e+01 -2.280182e+01 0.000000e+00
      vertex 3.633102e+00 -3.854760e+01 0.000000e+00
    endloop
  endfacet
  facet normal -9.999995e-01 9.595564e-04 2.120179e-16
    outer loop
      vertex 1.158838e+01 -6.507542e+00 0.000000e+00
      vertex 1.157207e+01 -2.350456e+01 0.000000e+00
      vertex 1.158115e+01 -1.403812e+01 5.387563e+00
    endloop
  endfacet
  facet normal -9.999995e-01 9.595564e-04 4.636275e-15
    outer loop
      vertex 1.158838e+01 -6.507542e+00 0.000000e+00
      vertex 1.158115e+01 -1.403812e+01 5.387563e+00
      vertex 1.158179e+01 -1.336843e+01 5.520774e+00
    endloop
  endfacet
  facet normal -4.296731e-16 9.807853e-01 -1.950903e-01
    outer loop
      vertex 9.843176e+00 -2.679817e+00 7.807259e+00
      vertex 1.845129e+01 -2.679817e+00 7.807259e+00
      vertex 1.845121e+01 -2.813026e+00 7.137563e+00
    endloop
  endfacet
  facet normal 1.521834e-16 9.807853e-01 -1.950903e-01
    outer loop
      vertex 9.843176e+00 -2.679817e+00 7.807259e+00
      vertex 1.845121e+01 -2.813026e+00 7.137563e+00
      vertex 9.903912e+00 -2.813026e+00 7.137563e+00
    endloop
  endfacet
  facet normal -7.932640e-01 6.088779e-01 0.000000e+00
    outer loop
      vertex 7.712288e+00 -2.853319e+01 0.000000e+00
      vertex 7.712288e+00 -2.853319e+01 1.500000e+01
      vertex 1.157207e+01 -2.350456e+01 1.500000e+01
    endloop
  endfacet
  facet normal -7.932640e-01 6.088779e-01 0.000000e+00
    outer loop
      vertex 7.712288e+00 -2.853319e+01 0.000000e+00
      vertex 1.157207e+01 -2.350456e+01 1.500000e+01
      vertex 1.157207e+01 -2.350456e+01 0.000000e+00
    endloop
  endfacet
  facet normal -9.098893e-01 -4.148512e-01 8.149749e-16
    outer loop
      vertex 8.308136e+00 6.869736e-01 7.137563e+00
      vertex 8.368872e+00 5.537605e-01 7.807259e+00
      vertex 3.114031e+00 1.207915e+01 1.500000e+01
    endloop
  endfacet
  facet normal -9.098893e-01 -4.148512e-01 0.000000e+00
    outer loop
      vertex 8.308136e+00 6.869736e-01 7.137563e+00
      vertex 3.114031e+00 1.207915e+01 1.500000e+01
      vertex 3.114031e+00 1.207915e+01 0.000000e+00
    endloop
  endfacet
  facet normal 0.000000e+00 0.000000e+00 1.000000e+00
    outer loop
      vertex 1.845647e+01 6.378906e+00 1.500000e+01
      vertex 1.158838e+01 -6.507542e+00 1.500000e+01
      vertex 1.157207e+01 -2.350456e+01 1.500000e+01
    endloop
  endfacet
  facet normal 0.000000e+00 0.000000e+00 1.000000e+00
    outer loop
      vertex 1.845647e+01 6.378906e+00 1.500000e+01
      vertex 1.157207e+01 -2.350456e+01 1.500000e+01
      vertex 1.843080e+01 -3.847089e+01 1.500000e+01
    endloop
  endfacet
  facet normal 0.000000e+00 0.000000e+00 -1.000000e+00
    outer loop
      vertex 1.157207e+01 -2.350456e+01 0.000000e+00
      vertex 1.158838e+01 -6.507542e+00 0.000000e+00
      vertex 1.845647e+01 6.378906e+00 0.000000e+00
    endloop
  endfacet
  facet normal 0.000000e+00 0.000000e+00 -1.000000e+00
    outer loop
      vertex 1.157207e+01 -2.350456e+01 0.000000e+00
      vertex 1.845647e+01 6.378906e+00 0.000000e+00
      vertex 1.843080e+01 -3.847089e+01 0.000000e+00
    endloop
  endfacet
  facet normal -2.529916e-16 9.807853e-01 1.950903e-01
    outer loop
      vertex 1.845129e+01 -2.679817e+00 6.467867e+00
      vertex 9.843176e+00 -2.679817e+00 6.467867e+00
      vertex 9.903912e+00 -2.813026e+00 7.137563e+00
    endloop
  endfacet
  facet normal 1.545613e-16 9.807853e-01 1.950903e-01
    outer loop
      vertex 1.845129e+01 -2.679817e+00 6.467867e+00
      vertex 9.903912e+00 -2.813026e+00 7.137563e+00
      vertex 1.845121e+01 -2.813026e+00 7.137563e+00
    endloop
  endfacet
  facet normal -9.999995e-01 9.595564e-04 0.000000e+00
    outer loop
      vertex 1.157947e+01 -1.578812e+01 7.137563e+00
      vertex 1.157207e+01 -2.350456e+01 0.000000e+00
      vertex 1.157207e+01 -2.350456e+01 1.500000e+01
    endloop
  endfacet
  facet normal -9.999995e-01 9.595564e-04 -2.094287e-15
    outer loop
      vertex 1.157947e+01 -1.578812e+01 7.137563e+00
      vertex 1.157207e+01 -2.350456e+01 1.500000e+01
      vertex 1.157960e+01 -1.565491e+01 7.807259e+00
    endloop
  endfacet
  facet normal 9.999998e-01 -5.723833e-04 0.000000e+00
    outer loop
      vertex 1.843080e+01 -3.847089e+01 1.500000e+01
      vertex 1.843080e+01 -3.847089e+01 0.000000e+00
      vertex 1.844386e+01 -1.565491e+01 6.467867e+00
    endloop
  endfacet
  facet normal 9.999998e-01 -5.723833e-04 -8.422914e-15
    outer loop
      vertex 1.843080e+01 -3.847089e+01 1.500000e+01
      vertex 1.844386e+01 -1.565491e+01 6.467867e+00
      vertex 1.844379e+01 -1.578812e+01 7.137563e+00
    endloop
  endfacet
  facet normal -7.897883e-16 8.314696e-01 -5.555702e-01
    outer loop
      vertex 1.157996e+01 -1.527556e+01 8.375000e+00
      vertex 1.844408e+01 -1.527556e+01 8.375000e+00
      vertex 1.844386e+01 -1.565491e+01 7.807259e+00
    endloop
  endfacet
  facet normal 1.077764e-15 8.314696e-01 -5.555702e-01
    outer loop
      vertex 1.157996e+01 -1.527556e+01 8.375000e+00
      vertex 1.844386e+01 -1.565491e+01 7.807259e+00
      vertex 1.157960e+01 -1.565491e+01 7.807259e+00
    endloop
  endfacet
  facet normal -9.098893e-01 -4.148512e-01 -6.728083e-15
    outer loop
      vertex 1.158838e+01 -6.507542e+00 0.000000e+00
      vertex 9.106024e+00 -1.063026e+00 5.387563e+00
      vertex 8.800686e+00 -3.933296e-01 5.520774e+00
    endloop
  endfacet
  facet normal -9.098893e-01 -4.148512e-01 5.040418e-16
    outer loop
      vertex 1.158838e+01 -6.507542e+00 0.000000e+00
      vertex 8.800686e+00 -3.933296e-01 5.520774e+00
      vertex 3.114031e+00 1.207915e+01 0.000000e+00
    endloop
  endfacet
  facet normal 1.269054e-15 9.807853e-01 -1.950903e-01
    outer loop
      vertex 1.157960e+01 -1.565491e+01 7.807259e+00
      vertex 1.844386e+01 -1.565491e+01 7.807259e+00
      vertex 1.844379e+01 -1.578812e+01 7.137563e+00
    endloop
  endfacet
  facet normal 2.703273e-15 9.807853e-01 -1.950903e-01
    outer loop
      vertex 1.157960e+01 -1.565491e+01 7.807259e+00
      vertex 1.844379e+01 -1.578812e+01 7.137563e+00
      vertex 1.157947e+01 -1.578812e+01 7.137563e+00
    endloop
  endfacet
  facet normal 9.999998e-01 -5.723833e-04 -3.682319e-15
    outer loop
      vertex 1.844571e+01 -1.242134e+01 7.807259e+00
      vertex 1.845129e+01 -2.679817e+00 7.807259e+00
      vertex 1.845151e+01 -2.300465e+00 8.375000e+00
    endloop
  endfacet
  facet normal 9.999998e-01 -5.723833e-04 9.444154e-15
    outer loop
      vertex 1.844571e+01 -1.242134e+01 7.807259e+00
      vertex 1.845151e+01 -2.300465e+00 8.375000e+00
      vertex 1.844550e+01 -1.280069e+01 8.375000e+00
    endloop
  endfacet
  facet normal 9.999998e-01 -5.723833e-04 3.132641e-15
    outer loop
      vertex 1.844550e+01 -1.280069e+01 8.375000e+00
      vertex 1.845151e+01 -2.300465e+00 8.375000e+00
      vertex 1.845221e+01 -1.063026e+00 9.612437e+00
    endloop
  endfacet
  facet normal 9.999998e-01 -5.723833e-04 -7.730474e-15
    outer loop
      vertex 1.844550e+01 -1.280069e+01 8.375000e+00
      vertex 1.845221e+01 -1.063026e+00 9.612437e+00
      vertex 1.844479e+01 -1.403812e+01 9.612437e+00
    endloop
  endfacet
  facet normal 9.999998e-01 -5.723833e-04 9.426009e-16
    outer loop
      vertex 1.844479e+01 -1.403812e+01 9.612437e+00
      vertex 1.845221e+01 -1.063026e+00 9.612437e+00
      vertex 1.845647e+01 6.378906e+00 1.500000e+01
    endloop
  endfacet
  facet normal 9.999998e-01 -5.723833e-04 3.394336e-15
    outer loop
      vertex 1.844479e+01 -1.403812e+01 9.612437e+00
      vertex 1.845647e+01 6.378906e+00 1.500000e+01
      vertex 1.843080e+01 -3.847089e+01 1.500000e+01
    endloop
  endfacet
  facet normal 9.999998e-01 -5.723833e-04 -3.188410e-14
    outer loop
      vertex 1.845183e+01 -1.732723e+00 5.520774e+00
      vertex 1.845151e+01 -2.300465e+00 5.900126e+00
      vertex 1.844550e+01 -1.280069e+01 5.900126e+00
    endloop
  endfacet
  facet normal 9.999998e-01 -5.723833e-04 2.053042e-15
    outer loop
      vertex 1.845183e+01 -1.732723e+00 5.520774e+00
      vertex 1.844550e+01 -1.280069e+01 5.900126e+00
      vertex 1.844517e+01 -1.336843e+01 5.520774e+00
    endloop
  endfacet
  facet normal 9.999998e-01 -5.723833e-04 3.676360e-15
    outer loop
      vertex 1.845151e+01 -2.300465e+00 5.900126e+00
      vertex 1.845129e+01 -2.679817e+00 6.467867e+00
      vertex 1.844571e+01 -1.242134e+01 6.467867e+00
    endloop
  endfacet
  facet normal 9.999998e-01 -5.723833e-04 -3.399954e-15
    outer loop
      vertex 1.845151e+01 -2.300465e+00 5.900126e+00
      vertex 1.844571e+01 -1.242134e+01 6.467867e+00
      vertex 1.844550e+01 -1.280069e+01 5.900126e+00
    endloop
  endfacet
  facet normal 9.999998e-01 -5.723833e-04 1.894643e-14
    outer loop
      vertex 1.845129e+01 -2.679817e+00 6.467867e+00
      vertex 1.845121e+01 -2.813026e+00 7.137563e+00
      vertex 1.844579e+01 -1.228812e+01 7.137563e+00
    endloop
  endfacet
  facet normal 9.999998e-01 -5.723833e-04 7.723995e-15
    outer loop
      vertex 1.845129e+01 -2.679817e+00 6.467867e+00
      vertex 1.844579e+01 -1.228812e+01 7.137563e+00
      vertex 1.844571e+01 -1.242134e+01 6.467867e+00
    endloop
  endfacet
  facet normal 9.999998e-01 -5.723833e-04 -1.878980e-14
    outer loop
      vertex 1.845121e+01 -2.813026e+00 7.137563e+00
      vertex 1.845129e+01 -2.679817e+00 7.807259e+00
      vertex 1.844571e+01 -1.242134e+01 7.807259e+00
    endloop
  endfacet
  facet normal 9.999998e-01 -5.723833e-04 -7.574849e-15
    outer loop
      vertex 1.845121e+01 -2.813026e+00 7.137563e+00
      vertex 1.844571e+01 -1.242134e+01 7.807259e+00
      vertex 1.844579e+01 -1.228812e+01 7.137563e+00
    endloop
  endfacet
  facet normal 9.999998e-01 -5.723833e-04 -9.671848e-17
    outer loop
      vertex 1.844479e+01 -1.403812e+01 5.387563e+00
      vertex 1.843080e+01 -3.847089e+01 0.000000e+00
      vertex 1.845647e+01 6.378906e+00 0.000000e+00
    endloop
  endfacet
  facet normal 9.999998e-01 -5.723833e-04 1.737631e-14
    outer loop
      vertex 1.845221e+01 -1.063026e+00 5.387563e+00
      vertex 1.845183e+01 -1.732723e+00 5.520774e+00
      vertex 1.844517e+01 -1.336843e+01 5.520774e+00
    endloop
  endfacet
  facet normal 9.999998e-01 -5.723833e-04 -7.587660e-16
    outer loop
      vertex 1.844479e+01 -1.403812e+01 5.387563e+00
      vertex 1.845647e+01 6.378906e+00 0.000000e+00
      vertex 1.845221e+01 -1.063026e+00 5.387563e+00
    endloop
  endfacet
  facet normal 9.999998e-01 -5.723833e-04 -9.148674e-14
    outer loop
      vertex 1.844479e+01 -1.403812e+01 5.387563e+00
      vertex 1.845221e+01 -1.063026e+00 5.387563e+00
      vertex 1.844517e+01 -1.336843e+01 5.520774e+00
    endloop
  endfacet
endsolid Default
