solid "union"; Produced by Art of Illusion 2.7, Sat Mar 07 20:44:46 CET 2009
facet normal  0 -1 0
  outer loop
    vertex  9.301697795763 0.860369601011 1
    vertex  1.301697795763 0.860369601011 1
    vertex  5.301697795763 0.860369601011 0.5
  endloop
endfacet
facet normal  0 -1 0
  outer loop
    vertex  9.301697795763 0.860369601011 0
    vertex  9.301697795763 0.860369601011 1
    vertex  5.301697795763 0.860369601011 0.5
  endloop
endfacet
facet normal  0 -1 0
  outer loop
    vertex  1.301697795763 0.860369601011 0
    vertex  9.301697795763 0.860369601011 0
    vertex  5.301697795763 0.860369601011 0.5
  endloop
endfacet
facet normal  0 -1 0
  outer loop
    vertex  1.301697795763 0.860369601011 1
    vertex  1.301697795763 0.860369601011 0
    vertex  5.301697795763 0.860369601011 0.5
  endloop
endfacet
facet normal  -1 0 0
  outer loop
    vertex  1.301697795763 0.860369601011 0
    vertex  1.301697795763 0.860369601011 1
    vertex  1.301697795763 8.360369601011 0.5
  endloop
endfacet
facet normal  -1 0 0
  outer loop
    vertex  1.301697795763 0.860369601011 1
    vertex  1.301697795763 15.860369601011 1
    vertex  1.301697795763 8.360369601011 0.5
  endloop
endfacet
facet normal  -1 0 0
  outer loop
    vertex  1.301697795763 15.860369601011 1
    vertex  1.301697795763 15.860369601011 0
    vertex  1.301697795763 8.360369601011 0.5
  endloop
endfacet
facet normal  -1 0 0
  outer loop
    vertex  1.301697795763 15.860369601011 0
    vertex  1.301697795763 0.860369601011 0
    vertex  1.301697795763 8.360369601011 0.5
  endloop
endfacet
facet normal  0 1 0
  outer loop
    vertex  1.301697795763 15.860369601011 1
    vertex  9.301697795763 15.860369601011 1
    vertex  5.301697795763 15.860369601011 0.5
  endloop
endfacet
facet normal  0 1 0
  outer loop
    vertex  9.301697795763 15.860369601011 1
    vertex  9.301697795763 15.860369601011 0
    vertex  5.301697795763 15.860369601011 0.5
  endloop
endfacet
facet normal  0 1 0
  outer loop
    vertex  9.301697795763 15.860369601011 0
    vertex  1.301697795763 15.860369601011 0
    vertex  5.301697795763 15.860369601011 0.5
  endloop
endfacet
facet normal  0 1 0
  outer loop
    vertex  1.301697795763 15.860369601011 0
    vertex  1.301697795763 15.860369601011 1
    vertex  5.301697795763 15.860369601011 0.5
  endloop
endfacet
facet normal  0 0 -1
  outer loop
    vertex  9.301697795763 0.860369601011 0
    vertex  1.301697795763 0.860369601011 0
    vertex  5.301697795763 8.360369601011 0
  endloop
endfacet
facet normal  0 0 -1
  outer loop
    vertex  1.301697795763 0.860369601011 0
    vertex  1.301697795763 15.860369601011 0
    vertex  5.301697795763 8.360369601011 0
  endloop
endfacet
facet normal  0 0 -1
  outer loop
    vertex  1.301697795763 15.860369601011 0
    vertex  9.301697795763 15.860369601011 0
    vertex  5.301697795763 8.360369601011 0
  endloop
endfacet
facet normal  0 0 1
  outer loop
    vertex  9.301697795763 0.860369601011 1
    vertex  6.901697795763 3.360369601011 1
    vertex  6.261697795763 3.360369601011 1
  endloop
endfacet
facet normal  0 0 1
  outer loop
    vertex  9.301697795763 0.860369601011 1
    vertex  6.261697795763 3.360369601011 1
    vertex  1.301697795763 0.860369601011 1
  endloop
endfacet
facet normal  0 0 1
  outer loop
    vertex  9.301697795763 15.860369601011 1
    vertex  6.901697795763 11.360369601011 1
    vertex  6.901697795763 5.360369601011 1
  endloop
endfacet
facet normal  0 0 1
  outer loop
    vertex  6.901697795763 11.360369601011 1
    vertex  9.301697795763 15.860369601011 1
    vertex  6.901697795763 13.360369601011 1
  endloop
endfacet
facet normal  0 0 1
  outer loop
    vertex  9.301697795763 15.860369601011 1
    vertex  1.301697795763 15.860369601011 1
    vertex  6.901697795763 13.360369601011 1
  endloop
endfacet
facet normal  0 0 1
  outer loop
    vertex  1.301697795763 0.860369601011 1
    vertex  3.701697795763 5.360369601011 1
    vertex  3.701697795763 11.360369601011 1
  endloop
endfacet
facet normal  0 0 1
  outer loop
    vertex  1.301697795763 0.860369601011 1
    vertex  3.701697795763 11.360369601011 1
    vertex  1.301697795763 15.860369601011 1
  endloop
endfacet
facet normal  0 0 1
  outer loop
    vertex  9.301697795763 0.860369601011 1
    vertex  6.901697795763 5.360369601011 1
    vertex  6.901697795763 3.360369601011 1
  endloop
endfacet
facet normal  0 0 1
  outer loop
    vertex  1.301697795763 0.860369601011 1
    vertex  6.261697795763 3.360369601011 1
    vertex  4.341697795763 3.360369601011 1
  endloop
endfacet
facet normal  0 0 1
  outer loop
    vertex  1.301697795763 15.860369601011 1
    vertex  3.701697795763 11.360369601011 1
    vertex  3.701697795763 13.360369601011 1
  endloop
endfacet
facet normal  0 0 1
  outer loop
    vertex  1.301697795763 0.860369601011 1
    vertex  4.341697795763 3.360369601011 1
    vertex  3.701697795763 3.360369601011 1
  endloop
endfacet
facet normal  0 0 1
  outer loop
    vertex  6.261697795763 13.360369601011 1
    vertex  6.901697795763 13.360369601011 1
    vertex  1.301697795763 15.860369601011 1
  endloop
endfacet
facet normal  0 0 1
  outer loop
    vertex  3.701697795763 5.360369601011 1
    vertex  1.301697795763 0.860369601011 1
    vertex  3.701697795763 3.360369601011 1
  endloop
endfacet
facet normal  0 0 1
  outer loop
    vertex  3.701697795763 13.360369601011 1
    vertex  4.341697795763 13.360369601011 1
    vertex  1.301697795763 15.860369601011 1
  endloop
endfacet
facet normal  0 0 1
  outer loop
    vertex  4.341697795763 13.360369601011 1
    vertex  6.261697795763 13.360369601011 1
    vertex  1.301697795763 15.860369601011 1
  endloop
endfacet
facet normal  0 -1 0
  outer loop
    vertex  6.901697795763 3.360369601011 3
    vertex  3.701697795763 3.360369601011 3
    vertex  5.301697795763 3.360369601011 1.75
  endloop
endfacet
facet normal  1 0 0
  outer loop
    vertex  6.901697795763 13.360369601011 3
    vertex  6.901697795763 3.360369601011 3
    vertex  6.901697795763 8.360369601011 1.75
  endloop
endfacet
facet normal  0 0 1
  outer loop
    vertex  3.701697795763 3.360369601011 3
    vertex  6.901697795763 3.360369601011 3
    vertex  5.301697795763 8.360369601011 3
  endloop
endfacet
facet normal  0 0 1
  outer loop
    vertex  6.901697795763 3.360369601011 3
    vertex  6.901697795763 13.360369601011 3
    vertex  5.301697795763 8.360369601011 3
  endloop
endfacet
facet normal  0 0 1
  outer loop
    vertex  6.901697795763 13.360369601011 3
    vertex  3.701697795763 13.360369601011 3
    vertex  5.301697795763 8.360369601011 3
  endloop
endfacet
facet normal  0 0 1
  outer loop
    vertex  3.701697795763 13.360369601011 3
    vertex  3.701697795763 3.360369601011 3
    vertex  5.301697795763 8.360369601011 3
  endloop
endfacet
facet normal  -1 0 0
  outer loop
    vertex  3.701697795763 3.360369601011 3
    vertex  3.701697795763 13.360369601011 3
    vertex  3.701697795763 8.360369601011 1.75
  endloop
endfacet
facet normal  0 1 0
  outer loop
    vertex  3.701697795763 13.360369601011 3
    vertex  6.901697795763 13.360369601011 3
    vertex  5.301697795763 13.360369601011 1.75
  endloop
endfacet
facet normal  0 -1 0
  outer loop
    vertex  5.301697795763 3.360369601011 1.75
    vertex  6.261697795763 3.360369601011 1
    vertex  6.901697795763 3.360369601011 1
  endloop
endfacet
facet normal  0 -1 0
  outer loop
    vertex  5.301697795763 3.360369601011 1.75
    vertex  6.901697795763 3.360369601011 1
    vertex  6.901697795763 3.360369601011 3
  endloop
endfacet
facet normal  0 -1 0
  outer loop
    vertex  6.261697795763 3.360369601011 1
    vertex  5.301697795763 3.360369601011 1.75
    vertex  4.341697795763 3.360369601011 1
  endloop
endfacet
facet normal  0 -1 0
  outer loop
    vertex  3.701697795763 3.360369601011 3
    vertex  3.701697795763 3.360369601011 1
    vertex  4.341697795763 3.360369601011 1
  endloop
endfacet
facet normal  0 -1 0
  outer loop
    vertex  3.701697795763 3.360369601011 3
    vertex  4.341697795763 3.360369601011 1
    vertex  5.301697795763 3.360369601011 1.75
  endloop
endfacet
facet normal  1 0 0
  outer loop
    vertex  6.901697795763 3.360369601011 3
    vertex  6.901697795763 3.360369601011 1
    vertex  6.901697795763 5.360369601011 1
  endloop
endfacet
facet normal  1 0 0
  outer loop
    vertex  6.901697795763 3.360369601011 3
    vertex  6.901697795763 5.360369601011 1
    vertex  6.901697795763 8.360369601011 1.75
  endloop
endfacet
facet normal  1 0 0
  outer loop
    vertex  6.901697795763 11.360369601011 1
    vertex  6.901697795763 8.360369601011 1.75
    vertex  6.901697795763 5.360369601011 1
  endloop
endfacet
facet normal  1 0 0
  outer loop
    vertex  6.901697795763 8.360369601011 1.75
    vertex  6.901697795763 11.360369601011 1
    vertex  6.901697795763 13.360369601011 1
  endloop
endfacet
facet normal  1 0 0
  outer loop
    vertex  6.901697795763 8.360369601011 1.75
    vertex  6.901697795763 13.360369601011 1
    vertex  6.901697795763 13.360369601011 3
  endloop
endfacet
facet normal  -1 0 -0
  outer loop
    vertex  3.701697795763 8.360369601011 1.75
    vertex  3.701697795763 5.360369601011 1
    vertex  3.701697795763 3.360369601011 1
  endloop
endfacet
facet normal  -1 0 0
  outer loop
    vertex  3.701697795763 8.360369601011 1.75
    vertex  3.701697795763 3.360369601011 1
    vertex  3.701697795763 3.360369601011 3
  endloop
endfacet
facet normal  -1 0 0
  outer loop
    vertex  3.701697795763 13.360369601011 3
    vertex  3.701697795763 13.360369601011 1
    vertex  3.701697795763 11.360369601011 1
  endloop
endfacet
facet normal  -1 0 0
  outer loop
    vertex  3.701697795763 13.360369601011 3
    vertex  3.701697795763 11.360369601011 1
    vertex  3.701697795763 8.360369601011 1.75
  endloop
endfacet
facet normal  -1 0 0
  outer loop
    vertex  3.701697795763 5.360369601011 1
    vertex  3.701697795763 8.360369601011 1.75
    vertex  3.701697795763 11.360369601011 1
  endloop
endfacet
facet normal  0 1 0
  outer loop
    vertex  6.901697795763 13.360369601011 3
    vertex  6.901697795763 13.360369601011 1
    vertex  6.261697795763 13.360369601011 1
  endloop
endfacet
facet normal  0 1 0
  outer loop
    vertex  6.901697795763 13.360369601011 3
    vertex  6.261697795763 13.360369601011 1
    vertex  5.301697795763 13.360369601011 1.75
  endloop
endfacet
facet normal  0 1 0
  outer loop
    vertex  4.341697795763 13.360369601011 1
    vertex  5.301697795763 13.360369601011 1.75
    vertex  6.261697795763 13.360369601011 1
  endloop
endfacet
facet normal  0 1 0
  outer loop
    vertex  5.301697795763 13.360369601011 1.75
    vertex  4.341697795763 13.360369601011 1
    vertex  3.701697795763 13.360369601011 1
  endloop
endfacet
facet normal  0 1 0
  outer loop
    vertex  5.301697795763 13.360369601011 1.75
    vertex  3.701697795763 13.360369601011 1
    vertex  3.701697795763 13.360369601011 3
  endloop
endfacet
facet normal  1 0 0
  outer loop
    vertex  9.301697795763 0.860369601011 0
    vertex  9.301697795763 4.260369601011 0.226666666667
    vertex  9.301697795763 4.260369601011 0.773333333333
  endloop
endfacet
facet normal  1 0 0
  outer loop
    vertex  9.301697795763 0.860369601011 0
    vertex  9.301697795763 4.260369601011 0.773333333333
    vertex  9.301697795763 0.860369601011 1
  endloop
endfacet
facet normal  1 0 0
  outer loop
    vertex  9.301697795763 0.860369601011 0
    vertex  9.301697795763 4.260369601011 0
    vertex  9.301697795763 4.260369601011 0.070588235294
  endloop
endfacet
facet normal  1 0 0
  outer loop
    vertex  9.301697795763 15.860369601011 1
    vertex  9.301697795763 12.460369601011 0.773333333333
    vertex  9.301697795763 12.460369601011 0.226666666667
  endloop
endfacet
facet normal  1 0 0
  outer loop
    vertex  9.301697795763 15.860369601011 1
    vertex  9.301697795763 12.460369601011 0.226666666667
    vertex  9.301697795763 15.860369601011 0
  endloop
endfacet
facet normal  1 0 0
  outer loop
    vertex  9.301697795763 4.260369601011 1
    vertex  9.301697795763 0.860369601011 1
    vertex  9.301697795763 4.260369601011 0.773333333333
  endloop
endfacet
facet normal  -0 -0 -1
  outer loop
    vertex  9.301697795763 4.260369601011 0
    vertex  9.301697795763 0.860369601011 0
    vertex  8.801697795763 4.260369601011 0
  endloop
endfacet
facet normal  0 0 -1
  outer loop
    vertex  9.301697795763 0.860369601011 0
    vertex  5.301697795763 8.360369601011 0
    vertex  8.801697795763 4.260369601011 0
  endloop
endfacet
facet normal  0 0 1
  outer loop
    vertex  6.901697795763 5.360369601011 1
    vertex  9.301697795763 0.860369601011 1
    vertex  8.801697795763 4.260369601011 1
  endloop
endfacet
facet normal  1 0 0
  outer loop
    vertex  9.301697795763 12.460369601011 0
    vertex  9.301697795763 15.860369601011 0
    vertex  9.301697795763 12.460369601011 0.020689655172
  endloop
endfacet
facet normal  1 0 0
  outer loop
    vertex  9.301697795763 12.460369601011 0.020689655172
    vertex  9.301697795763 15.860369601011 0
    vertex  9.301697795763 12.460369601011 0.070588235294
  endloop
endfacet
facet normal  1 0 0
  outer loop
    vertex  9.301697795763 4.260369601011 0.226666666667
    vertex  9.301697795763 0.860369601011 0
    vertex  9.301697795763 4.260369601011 0.070588235294
  endloop
endfacet
facet normal  1 0 0
  outer loop
    vertex  9.301697795763 12.460369601011 0.933563218391
    vertex  9.301697795763 15.860369601011 1
    vertex  9.301697795763 12.460369601011 1
  endloop
endfacet
facet normal  1 0 0
  outer loop
    vertex  9.301697795763 12.460369601011 0.773333333333
    vertex  9.301697795763 15.860369601011 1
    vertex  9.301697795763 12.460369601011 0.933563218391
  endloop
endfacet
facet normal  0 0 -1
  outer loop
    vertex  8.801697795763 4.260369601011 0
    vertex  9.155146071625 12.460369601011 0
    vertex  9.301697795763 12.460369601011 0
  endloop
endfacet
facet normal  0 0 -1
  outer loop
    vertex  8.801697795763 4.260369601011 0
    vertex  9.301697795763 12.460369601011 0
    vertex  9.301697795763 4.260369601011 0
  endloop
endfacet
facet normal  0 0 -1
  outer loop
    vertex  9.155146071625 12.460369601011 0
    vertex  9.301697795763 15.860369601011 0
    vertex  9.301697795763 12.460369601011 0
  endloop
endfacet
facet normal  0 0 -1
  outer loop
    vertex  5.301697795763 8.360369601011 0
    vertex  9.301697795763 15.860369601011 0
    vertex  8.801697795763 12.460369601011 0
  endloop
endfacet
facet normal  0 0 -1
  outer loop
    vertex  8.801697795763 4.260369601011 0
    vertex  5.301697795763 8.360369601011 0
    vertex  8.801697795763 12.460369601011 0
  endloop
endfacet
facet normal  0 0 1
  outer loop
    vertex  6.901697795763 5.360369601011 1
    vertex  8.801697795763 4.260369601011 1
    vertex  8.801697795763 5.627036267678 1
  endloop
endfacet
facet normal  1 0 0
  outer loop
    vertex  9.301697795763 15.860369601011 0
    vertex  9.301697795763 12.460369601011 0.226666666667
    vertex  9.301697795763 12.460369601011 0.070588235294
  endloop
endfacet
facet normal  0 0 -1
  outer loop
    vertex  9.301697795763 15.860369601011 0
    vertex  9.155146071625 12.460369601011 0
    vertex  8.801697795763 12.460369601011 0
  endloop
endfacet
facet normal  0 0 -1
  outer loop
    vertex  9.155146071625 12.460369601011 0
    vertex  8.801697795763 4.260369601011 0
    vertex  8.801697795763 12.460369601011 0
  endloop
endfacet
facet normal  0 0 1
  outer loop
    vertex  9.155146071625 12.460369601011 1
    vertex  9.301697795763 15.860369601011 1
    vertex  9.135574017262 12.460369601011 1
  endloop
endfacet
facet normal  0 0 1
  outer loop
    vertex  6.901697795763 5.360369601011 1
    vertex  8.801697795763 5.627036267678 1
    vertex  8.801697795763 11.093702934345 1
  endloop
endfacet
facet normal  0 0 1
  outer loop
    vertex  9.301697795763 15.860369601011 1
    vertex  6.901697795763 5.360369601011 1
    vertex  8.801697795763 12.460369601011 1
  endloop
endfacet
facet normal  0 0 1
  outer loop
    vertex  6.901697795763 5.360369601011 1
    vertex  8.801697795763 11.093702934345 1
    vertex  8.801697795763 12.460369601011 1
  endloop
endfacet
facet normal  0 0 1
  outer loop
    vertex  8.94505443912 12.460369601011 1
    vertex  9.301697795763 15.860369601011 1
    vertex  8.801697795763 12.460369601011 1
  endloop
endfacet
facet normal  0 0 1
  outer loop
    vertex  9.301697795763 4.260369601011 1
    vertex  9.036072795763 4.260369601011 1
    vertex  9.301697795763 0.860369601011 1
  endloop
endfacet
facet normal  0 0 1
  outer loop
    vertex  9.036072795763 4.260369601011 1
    vertex  8.904437521791 4.260369601011 1
    vertex  9.301697795763 0.860369601011 1
  endloop
endfacet
facet normal  0 0 1
  outer loop
    vertex  8.904437521791 4.260369601011 1
    vertex  8.801697795763 4.260369601011 1
    vertex  9.301697795763 0.860369601011 1
  endloop
endfacet
facet normal  0 0 1
  outer loop
    vertex  9.155146071625 12.460369601011 1
    vertex  9.177021350552 12.460369601011 1
    vertex  9.301697795763 15.860369601011 1
  endloop
endfacet
facet normal  0 0 1
  outer loop
    vertex  9.177021350552 12.460369601011 1
    vertex  9.301697795763 12.460369601011 1
    vertex  9.301697795763 15.860369601011 1
  endloop
endfacet
facet normal  0 0 1
  outer loop
    vertex  8.94505443912 12.460369601011 1
    vertex  9.036072795763 12.460369601011 1
    vertex  9.301697795763 15.860369601011 1
  endloop
endfacet
facet normal  0 0 1
  outer loop
    vertex  9.036072795763 12.460369601011 1
    vertex  9.135574017262 12.460369601011 1
    vertex  9.301697795763 15.860369601011 1
  endloop
endfacet
facet normal  1 0 0
  outer loop
    vertex  17.301697795763 4.260369601011 1.2
    vertex  17.301697795763 4.260369601011 0
    vertex  17.301697795763 8.360369601011 0.6
  endloop
endfacet
facet normal  1 0 0
  outer loop
    vertex  17.301697795763 4.260369601011 0
    vertex  17.301697795763 12.460369601011 0
    vertex  17.301697795763 8.360369601011 0.6
  endloop
endfacet
facet normal  1 0 0
  outer loop
    vertex  17.301697795763 12.460369601011 0
    vertex  17.301697795763 12.460369601011 1.2
    vertex  17.301697795763 8.360369601011 0.6
  endloop
endfacet
facet normal  1 0 0
  outer loop
    vertex  17.301697795763 12.460369601011 1.2
    vertex  17.301697795763 4.260369601011 1.2
    vertex  17.301697795763 8.360369601011 0.6
  endloop
endfacet
facet normal  0 0 1
  outer loop
    vertex  8.801697795763 12.460369601011 1.2
    vertex  8.801697795763 4.260369601011 1.2
    vertex  13.051697795763 8.360369601011 1.2
  endloop
endfacet
facet normal  0 0 -1
  outer loop
    vertex  17.301697795763 12.460369601011 0
    vertex  17.301697795763 4.260369601011 0
    vertex  13.051697795763 8.360369601011 0
  endloop
endfacet
facet normal  0 -1 0
  outer loop
    vertex  13.051697795763 4.260369601011 0.6
    vertex  9.301697795763 4.260369601011 0.070588235294
    vertex  9.301697795763 4.260369601011 0
  endloop
endfacet
facet normal  0 -1 0
  outer loop
    vertex  13.051697795763 4.260369601011 0.6
    vertex  9.301697795763 4.260369601011 0
    vertex  17.301697795763 4.260369601011 0
  endloop
endfacet
facet normal  0 -1 0
  outer loop
    vertex  13.051697795763 4.260369601011 0.6
    vertex  9.301697795763 4.260369601011 0.773333333333
    vertex  9.301697795763 4.260369601011 0.226666666667
  endloop
endfacet
facet normal  -1 0 0
  outer loop
    vertex  8.801697795763 4.260369601011 1
    vertex  8.801697795763 4.260369601011 1.2
    vertex  8.801697795763 5.627036267678 1
  endloop
endfacet
facet normal  -1 0 0
  outer loop
    vertex  8.801697795763 12.460369601011 1.2
    vertex  8.801697795763 11.093702934345 1
    vertex  8.801697795763 5.627036267678 1
  endloop
endfacet
facet normal  -1 0 0
  outer loop
    vertex  8.801697795763 12.460369601011 1.2
    vertex  8.801697795763 5.627036267678 1
    vertex  8.801697795763 4.260369601011 1.2
  endloop
endfacet
facet normal  -1 0 0
  outer loop
    vertex  8.801697795763 11.093702934345 1
    vertex  8.801697795763 12.460369601011 1.2
    vertex  8.801697795763 12.460369601011 1
  endloop
endfacet
facet normal  0 1 0
  outer loop
    vertex  13.051697795763 12.460369601011 0.6
    vertex  17.301697795763 12.460369601011 0
    vertex  9.301697795763 12.460369601011 0.020689655172
  endloop
endfacet
facet normal  0 1 0
  outer loop
    vertex  13.051697795763 12.460369601011 0.6
    vertex  9.301697795763 12.460369601011 0.226666666667
    vertex  9.301697795763 12.460369601011 0.773333333333
  endloop
endfacet
facet normal  0 0 -1
  outer loop
    vertex  17.301697795763 4.260369601011 0
    vertex  9.301697795763 4.260369601011 0
    vertex  9.301697795763 4.742722542188 0
  endloop
endfacet
facet normal  0 0 -1
  outer loop
    vertex  17.301697795763 4.260369601011 0
    vertex  9.301697795763 4.742722542188 0
    vertex  13.051697795763 8.360369601011 0
  endloop
endfacet
facet normal  0 0 -1
  outer loop
    vertex  9.301697795763 11.978016659835 0
    vertex  13.051697795763 8.360369601011 0
    vertex  9.301697795763 4.742722542188 0
  endloop
endfacet
facet normal  0 0 -1
  outer loop
    vertex  13.051697795763 8.360369601011 0
    vertex  9.301697795763 11.978016659835 0
    vertex  9.301697795763 12.460369601011 0
  endloop
endfacet
facet normal  0 0 -1
  outer loop
    vertex  13.051697795763 8.360369601011 0
    vertex  9.301697795763 12.460369601011 0
    vertex  17.301697795763 12.460369601011 0
  endloop
endfacet
facet normal  0 -1 0
  outer loop
    vertex  9.301697795763 4.260369601011 0.773333333333
    vertex  13.051697795763 4.260369601011 0.6
    vertex  9.301697795763 4.260369601011 1
  endloop
endfacet
facet normal  0 -1 0
  outer loop
    vertex  13.051697795763 4.260369601011 0.6
    vertex  8.801697795763 4.260369601011 1.2
    vertex  9.301697795763 4.260369601011 1
  endloop
endfacet
facet normal  0 -1 0
  outer loop
    vertex  9.036072795763 4.260369601011 1
    vertex  8.801697795763 4.260369601011 1.2
    vertex  8.904437521791 4.260369601011 1
  endloop
endfacet
facet normal  0 -1 0
  outer loop
    vertex  9.301697795763 4.260369601011 0.070588235294
    vertex  13.051697795763 4.260369601011 0.6
    vertex  9.301697795763 4.260369601011 0.226666666667
  endloop
endfacet
facet normal  0 -1 0
  outer loop
    vertex  8.904437521791 4.260369601011 1
    vertex  8.801697795763 4.260369601011 1.2
    vertex  8.801697795763 4.260369601011 1
  endloop
endfacet
facet normal  0 1 0
  outer loop
    vertex  17.301697795763 12.460369601011 0
    vertex  9.301697795763 12.460369601011 0
    vertex  9.301697795763 12.460369601011 0.020689655172
  endloop
endfacet
facet normal  0 1 0
  outer loop
    vertex  9.301697795763 12.460369601011 0.070588235294
    vertex  13.051697795763 12.460369601011 0.6
    vertex  9.301697795763 12.460369601011 0.020689655172
  endloop
endfacet
facet normal  0 1 0
  outer loop
    vertex  13.051697795763 12.460369601011 0.6
    vertex  9.301697795763 12.460369601011 0.070588235294
    vertex  9.301697795763 12.460369601011 0.226666666667
  endloop
endfacet
facet normal  0 1 0
  outer loop
    vertex  8.801697795763 12.460369601011 1.2
    vertex  13.051697795763 12.460369601011 0.6
    vertex  9.301697795763 12.460369601011 1
  endloop
endfacet
facet normal  0 1 0
  outer loop
    vertex  13.051697795763 12.460369601011 0.6
    vertex  9.301697795763 12.460369601011 0.933563218391
    vertex  9.301697795763 12.460369601011 1
  endloop
endfacet
facet normal  0 1 0
  outer loop
    vertex  13.051697795763 12.460369601011 0.6
    vertex  9.301697795763 12.460369601011 0.773333333333
    vertex  9.301697795763 12.460369601011 0.933563218391
  endloop
endfacet
facet normal  0 1 0
  outer loop
    vertex  8.801697795763 12.460369601011 1.2
    vertex  9.036072795763 12.460369601011 1
    vertex  8.94505443912 12.460369601011 1
  endloop
endfacet
facet normal  0 -1 0
  outer loop
    vertex  8.801697795763 4.260369601011 1.2
    vertex  9.036072795763 4.260369601011 1
    vertex  9.301697795763 4.260369601011 1
  endloop
endfacet
facet normal  0 1 0
  outer loop
    vertex  9.177021350552 12.460369601011 1
    vertex  8.801697795763 12.460369601011 1.2
    vertex  9.301697795763 12.460369601011 1
  endloop
endfacet
facet normal  0 1 0
  outer loop
    vertex  8.801697795763 12.460369601011 1.2
    vertex  9.177021350552 12.460369601011 1
    vertex  9.155146071625 12.460369601011 1
  endloop
endfacet
facet normal  0 1 0
  outer loop
    vertex  8.801697795763 12.460369601011 1
    vertex  8.801697795763 12.460369601011 1.2
    vertex  8.94505443912 12.460369601011 1
  endloop
endfacet
facet normal  0 1 0
  outer loop
    vertex  8.801697795763 12.460369601011 1.2
    vertex  9.155146071625 12.460369601011 1
    vertex  9.135574017262 12.460369601011 1
  endloop
endfacet
facet normal  0 1 0
  outer loop
    vertex  9.036072795763 12.460369601011 1
    vertex  8.801697795763 12.460369601011 1.2
    vertex  9.135574017262 12.460369601011 1
  endloop
endfacet
facet normal  0 -1 0
  outer loop
    vertex  17.051697795763 4.260369601011 1.164705882353
    vertex  17.301697795763 4.260369601011 1.2
    vertex  17.051697795763 4.260369601011 1.2
  endloop
endfacet
facet normal  0 -1 0
  outer loop
    vertex  17.301697795763 4.260369601011 1.2
    vertex  17.051697795763 4.260369601011 1.164705882353
    vertex  17.051697795763 4.260369601011 0.35
  endloop
endfacet
facet normal  0 -1 0
  outer loop
    vertex  17.301697795763 4.260369601011 0
    vertex  17.301697795763 4.260369601011 1.2
    vertex  17.051697795763 4.260369601011 0.35
  endloop
endfacet
facet normal  0 0 1
  outer loop
    vertex  17.301697795763 4.260369601011 1.2
    vertex  17.301697795763 12.460369601011 1.2
    vertex  17.051697795763 7.745369601011 1.2
  endloop
endfacet
facet normal  0 0 1
  outer loop
    vertex  17.051697795763 12.219193130423 1.2
    vertex  17.301697795763 12.460369601011 1.2
    vertex  17.051697795763 12.460369601011 1.2
  endloop
endfacet
facet normal  0 1 0
  outer loop
    vertex  17.051697795763 12.460369601011 1.2
    vertex  17.301697795763 12.460369601011 1.2
    vertex  17.051697795763 12.460369601011 1.164705882353
  endloop
endfacet
facet normal  0 1 0
  outer loop
    vertex  17.301697795763 12.460369601011 1.2
    vertex  17.301697795763 12.460369601011 0
    vertex  17.051697795763 12.460369601011 0.35
  endloop
endfacet
facet normal  0 -1 0
  outer loop
    vertex  17.051697795763 4.260369601011 1.2
    vertex  15.051697795763 4.260369601011 0.9
    vertex  15.051697795763 4.260369601011 0.882352941176
  endloop
endfacet
facet normal  0 -1 0
  outer loop
    vertex  17.051697795763 4.260369601011 1.2
    vertex  15.051697795763 4.260369601011 0.882352941176
    vertex  17.051697795763 4.260369601011 1.164705882353
  endloop
endfacet
facet normal  0 -1 0
  outer loop
    vertex  15.051697795763 4.260369601011 0.9
    vertex  13.051697795763 4.260369601011 0.6
    vertex  15.051697795763 4.260369601011 0.882352941176
  endloop
endfacet
facet normal  0 -1 0
  outer loop
    vertex  13.051697795763 4.260369601011 0.6
    vertex  15.051697795763 4.260369601011 0.9
    vertex  15.051697795763 4.260369601011 1.2
  endloop
endfacet
facet normal  0 -1 0
  outer loop
    vertex  13.051697795763 4.260369601011 0.6
    vertex  15.051697795763 4.260369601011 1.2
    vertex  8.801697795763 4.260369601011 1.2
  endloop
endfacet
facet normal  0 -1 0
  outer loop
    vertex  15.051697795763 4.260369601011 0.9
    vertex  17.051697795763 4.260369601011 1.2
    vertex  15.051697795763 4.260369601011 1.2
  endloop
endfacet
facet normal  0 -1 0
  outer loop
    vertex  17.051697795763 4.260369601011 1.164705882353
    vertex  15.051697795763 4.260369601011 0.882352941176
    vertex  15.051697795763 4.260369601011 0.475
  endloop
endfacet
facet normal  0 -1 0
  outer loop
    vertex  17.051697795763 4.260369601011 1.164705882353
    vertex  15.051697795763 4.260369601011 0.475
    vertex  17.051697795763 4.260369601011 0.35
  endloop
endfacet
facet normal  0 -1 0
  outer loop
    vertex  15.051697795763 4.260369601011 0.882352941176
    vertex  13.051697795763 4.260369601011 0.6
    vertex  15.051697795763 4.260369601011 0.475
  endloop
endfacet
facet normal  0 -1 0
  outer loop
    vertex  17.051697795763 4.260369601011 0.35
    vertex  15.051697795763 4.260369601011 0.475
    vertex  15.051697795763 4.260369601011 0.35
  endloop
endfacet
facet normal  -0 -1 -0
  outer loop
    vertex  15.051697795763 4.260369601011 0.475
    vertex  13.051697795763 4.260369601011 0.6
    vertex  15.051697795763 4.260369601011 0.35
  endloop
endfacet
facet normal  0 -1 0
  outer loop
    vertex  13.051697795763 4.260369601011 0.6
    vertex  17.301697795763 4.260369601011 0
    vertex  15.051697795763 4.260369601011 0.35
  endloop
endfacet
facet normal  0 -1 0
  outer loop
    vertex  17.301697795763 4.260369601011 0
    vertex  17.051697795763 4.260369601011 0.35
    vertex  15.051697795763 4.260369601011 0.35
  endloop
endfacet
facet normal  0 0 1
  outer loop
    vertex  15.051697795763 6.310369601011 1.2
    vertex  13.051697795763 8.360369601011 1.2
    vertex  15.051697795763 5.757194997837 1.2
  endloop
endfacet
facet normal  0 0 1
  outer loop
    vertex  17.301697795763 4.260369601011 1.2
    vertex  17.051697795763 4.5015460716 1.2
    vertex  17.051697795763 4.260369601011 1.2
  endloop
endfacet
facet normal  0 0 1
  outer loop
    vertex  17.051697795763 7.745369601011 1.2
    vertex  17.301697795763 12.460369601011 1.2
    vertex  17.051697795763 8.975369601011 1.2
  endloop
endfacet
facet normal  0 0 1
  outer loop
    vertex  15.051697795763 10.410369601011 1.2
    vertex  13.051697795763 8.360369601011 1.2
    vertex  15.051697795763 10.289781365717 1.2
  endloop
endfacet
facet normal  0 0 1
  outer loop
    vertex  13.051697795763 8.360369601011 1.2
    vertex  15.051697795763 10.410369601011 1.2
    vertex  15.051697795763 12.460369601011 1.2
  endloop
endfacet
facet normal  0 0 1
  outer loop
    vertex  13.051697795763 8.360369601011 1.2
    vertex  15.051697795763 12.460369601011 1.2
    vertex  8.801697795763 12.460369601011 1.2
  endloop
endfacet
facet normal  0 1 0
  outer loop
    vertex  17.051697795763 12.460369601011 1.164705882353
    vertex  15.051697795763 12.460369601011 1.173262032086
    vertex  15.051697795763 12.460369601011 1.2
  endloop
endfacet
facet normal  0 1 0
  outer loop
    vertex  17.051697795763 12.460369601011 1.164705882353
    vertex  15.051697795763 12.460369601011 1.2
    vertex  17.051697795763 12.460369601011 1.2
  endloop
endfacet
facet normal  0 1 0
  outer loop
    vertex  15.051697795763 12.460369601011 1.173262032086
    vertex  8.801697795763 12.460369601011 1.2
    vertex  15.051697795763 12.460369601011 1.2
  endloop
endfacet
facet normal  0 1 0
  outer loop
    vertex  8.801697795763 12.460369601011 1.2
    vertex  15.051697795763 12.460369601011 1.173262032086
    vertex  15.051697795763 12.460369601011 0.882352941176
  endloop
endfacet
facet normal  0 1 0
  outer loop
    vertex  8.801697795763 12.460369601011 1.2
    vertex  15.051697795763 12.460369601011 0.882352941176
    vertex  13.051697795763 12.460369601011 0.6
  endloop
endfacet
facet normal  0 1 0
  outer loop
    vertex  15.051697795763 12.460369601011 1.173262032086
    vertex  17.051697795763 12.460369601011 1.164705882353
    vertex  15.051697795763 12.460369601011 0.882352941176
  endloop
endfacet
facet normal  0 1 0
  outer loop
    vertex  13.051697795763 12.460369601011 0.6
    vertex  15.051697795763 12.460369601011 0.475
    vertex  15.051697795763 12.460369601011 0.35
  endloop
endfacet
facet normal  0 1 0
  outer loop
    vertex  15.051697795763 12.460369601011 0.475
    vertex  17.051697795763 12.460369601011 0.35
    vertex  15.051697795763 12.460369601011 0.35
  endloop
endfacet
facet normal  0 1 0
  outer loop
    vertex  17.051697795763 12.460369601011 0.35
    vertex  17.301697795763 12.460369601011 0
    vertex  15.051697795763 12.460369601011 0.35
  endloop
endfacet
facet normal  0 1 0
  outer loop
    vertex  17.301697795763 12.460369601011 0
    vertex  13.051697795763 12.460369601011 0.6
    vertex  15.051697795763 12.460369601011 0.35
  endloop
endfacet
facet normal  0 1 0
  outer loop
    vertex  17.051697795763 12.460369601011 1.164705882353
    vertex  17.301697795763 12.460369601011 1.2
    vertex  17.051697795763 12.460369601011 0.35
  endloop
endfacet
facet normal  0 0 1
  outer loop
    vertex  8.801697795763 4.260369601011 1.2
    vertex  15.051697795763 4.260369601011 1.2
    vertex  13.051697795763 8.360369601011 1.2
  endloop
endfacet
facet normal  0 0 1
  outer loop
    vertex  15.051697795763 5.757194997837 1.2
    vertex  13.051697795763 8.360369601011 1.2
    vertex  15.051697795763 5.483176618555 1.2
  endloop
endfacet
facet normal  0 0 1
  outer loop
    vertex  15.051697795763 6.430957836306 1.2
    vertex  13.051697795763 8.360369601011 1.2
    vertex  15.051697795763 6.310369601011 1.2
  endloop
endfacet
facet normal  0 0 1
  outer loop
    vertex  15.051697795763 8.052869601011 1.2
    vertex  13.051697795763 8.360369601011 1.2
    vertex  15.051697795763 7.745369601011 1.2
  endloop
endfacet
facet normal  0 0 1
  outer loop
    vertex  17.301697795763 12.460369601011 1.2
    vertex  17.051697795763 12.219193130423 1.2
    vertex  17.051697795763 8.975369601011 1.2
  endloop
endfacet
facet normal  0 0 1
  outer loop
    vertex  15.051697795763 8.667869601011 1.2
    vertex  13.051697795763 8.360369601011 1.2
    vertex  15.051697795763 8.052869601011 1.2
  endloop
endfacet
facet normal  0 1 0
  outer loop
    vertex  17.051697795763 12.460369601011 0.35
    vertex  15.051697795763 12.460369601011 0.475
    vertex  15.051697795763 12.460369601011 0.882352941176
  endloop
endfacet
facet normal  0 1 0
  outer loop
    vertex  17.051697795763 12.460369601011 0.35
    vertex  15.051697795763 12.460369601011 0.882352941176
    vertex  17.051697795763 12.460369601011 1.164705882353
  endloop
endfacet
facet normal  0 1 0
  outer loop
    vertex  15.051697795763 12.460369601011 0.475
    vertex  13.051697795763 12.460369601011 0.6
    vertex  15.051697795763 12.460369601011 0.882352941176
  endloop
endfacet
facet normal  0 0 1
  outer loop
    vertex  15.051697795763 5.483176618555 1.2
    vertex  13.051697795763 8.360369601011 1.2
    vertex  15.051697795763 4.260369601011 1.2
  endloop
endfacet
facet normal  0 0 1
  outer loop
    vertex  15.051697795763 10.289781365717 1.2
    vertex  13.051697795763 8.360369601011 1.2
    vertex  15.051697795763 8.975369601011 1.2
  endloop
endfacet
facet normal  0 0 1
  outer loop
    vertex  13.051697795763 8.360369601011 1.2
    vertex  15.051697795763 8.667869601011 1.2
    vertex  15.051697795763 8.975369601011 1.2
  endloop
endfacet
facet normal  0 0 1
  outer loop
    vertex  17.051697795763 7.745369601011 1.2
    vertex  17.051697795763 5.041321981964 1.2
    vertex  17.301697795763 4.260369601011 1.2
  endloop
endfacet
facet normal  0 0 1
  outer loop
    vertex  17.051697795763 5.041321981964 1.2
    vertex  17.051697795763 4.5015460716 1.2
    vertex  17.301697795763 4.260369601011 1.2
  endloop
endfacet
facet normal  0 0 1
  outer loop
    vertex  15.051697795763 6.430957836306 1.2
    vertex  15.051697795763 6.993702934345 1.2
    vertex  13.051697795763 8.360369601011 1.2
  endloop
endfacet
facet normal  0 0 1
  outer loop
    vertex  15.051697795763 6.993702934345 1.2
    vertex  15.051697795763 7.045275261389 1.2
    vertex  13.051697795763 8.360369601011 1.2
  endloop
endfacet
facet normal  0 0 1
  outer loop
    vertex  15.051697795763 7.045275261389 1.2
    vertex  15.051697795763 7.657512458154 1.2
    vertex  13.051697795763 8.360369601011 1.2
  endloop
endfacet
facet normal  0 0 1
  outer loop
    vertex  15.051697795763 7.657512458154 1.2
    vertex  15.051697795763 7.745369601011 1.2
    vertex  13.051697795763 8.360369601011 1.2
  endloop
endfacet
facet normal  0 -1 0
  outer loop
    vertex  17.051697795763 4.260369601011 2.35
    vertex  15.051697795763 4.260369601011 2.35
    vertex  16.051697795763 4.260369601011 1.35
  endloop
endfacet
facet normal  1 0 0
  outer loop
    vertex  17.051697795763 12.460369601011 2.35
    vertex  17.051697795763 4.260369601011 2.35
    vertex  17.051697795763 8.360369601011 1.35
  endloop
endfacet
facet normal  0 0 1
  outer loop
    vertex  15.051697795763 4.260369601011 2.35
    vertex  17.051697795763 4.260369601011 2.35
    vertex  16.051697795763 8.360369601011 2.35
  endloop
endfacet
facet normal  0 0 1
  outer loop
    vertex  17.051697795763 4.260369601011 2.35
    vertex  17.051697795763 12.460369601011 2.35
    vertex  16.051697795763 8.360369601011 2.35
  endloop
endfacet
facet normal  0 0 1
  outer loop
    vertex  17.051697795763 12.460369601011 2.35
    vertex  15.051697795763 12.460369601011 2.35
    vertex  16.051697795763 8.360369601011 2.35
  endloop
endfacet
facet normal  0 0 1
  outer loop
    vertex  15.051697795763 12.460369601011 2.35
    vertex  15.051697795763 4.260369601011 2.35
    vertex  16.051697795763 8.360369601011 2.35
  endloop
endfacet
facet normal  -1 0 0
  outer loop
    vertex  15.051697795763 4.260369601011 2.35
    vertex  15.051697795763 12.460369601011 2.35
    vertex  15.051697795763 8.360369601011 1.35
  endloop
endfacet
facet normal  0 1 0
  outer loop
    vertex  15.051697795763 12.460369601011 2.35
    vertex  17.051697795763 12.460369601011 2.35
    vertex  16.051697795763 12.460369601011 1.35
  endloop
endfacet
facet normal  0 -1 0
  outer loop
    vertex  16.051697795763 4.260369601011 1.35
    vertex  16.201697795763 4.260369601011 1.2
    vertex  17.051697795763 4.260369601011 1.2
  endloop
endfacet
facet normal  0 -1 0
  outer loop
    vertex  16.051697795763 4.260369601011 1.35
    vertex  17.051697795763 4.260369601011 1.2
    vertex  17.051697795763 4.260369601011 2.35
  endloop
endfacet
facet normal  0 -1 0
  outer loop
    vertex  16.201697795763 4.260369601011 1.2
    vertex  16.051697795763 4.260369601011 1.35
    vertex  15.901697795763 4.260369601011 1.2
  endloop
endfacet
facet normal  0 -1 0
  outer loop
    vertex  15.051697795763 4.260369601011 2.35
    vertex  15.051697795763 4.260369601011 1.2
    vertex  15.901697795763 4.260369601011 1.2
  endloop
endfacet
facet normal  0 -1 0
  outer loop
    vertex  15.051697795763 4.260369601011 2.35
    vertex  15.901697795763 4.260369601011 1.2
    vertex  16.051697795763 4.260369601011 1.35
  endloop
endfacet
facet normal  1 0 0
  outer loop
    vertex  17.051697795763 4.260369601011 2.35
    vertex  17.051697795763 4.260369601011 1.2
    vertex  17.051697795763 8.360369601011 1.35
  endloop
endfacet
facet normal  1 0 0
  outer loop
    vertex  17.051697795763 8.975369601011 1.2
    vertex  17.051697795763 8.360369601011 1.35
    vertex  17.051697795763 7.745369601011 1.2
  endloop
endfacet
facet normal  1 0 0
  outer loop
    vertex  17.051697795763 12.460369601011 1.2
    vertex  17.051697795763 12.460369601011 2.35
    vertex  17.051697795763 12.219193130423 1.2
  endloop
endfacet
facet normal  1 0 0
  outer loop
    vertex  17.051697795763 12.460369601011 2.35
    vertex  17.051697795763 8.360369601011 1.35
    vertex  17.051697795763 12.219193130423 1.2
  endloop
endfacet
facet normal  -1 0 0
  outer loop
    vertex  15.051697795763 12.460369601011 2.35
    vertex  15.051697795763 10.410369601011 1.2
    vertex  15.051697795763 10.289781365717 1.2
  endloop
endfacet
facet normal  -1 0 0
  outer loop
    vertex  15.051697795763 12.460369601011 2.35
    vertex  15.051697795763 10.289781365717 1.2
    vertex  15.051697795763 8.360369601011 1.35
  endloop
endfacet
facet normal  -1 0 0
  outer loop
    vertex  15.051697795763 7.745369601011 1.2
    vertex  15.051697795763 8.360369601011 1.35
    vertex  15.051697795763 8.052869601011 1.2
  endloop
endfacet
facet normal  0 1 0
  outer loop
    vertex  17.051697795763 12.460369601011 2.35
    vertex  17.051697795763 12.460369601011 1.2
    vertex  16.201697795763 12.460369601011 1.2
  endloop
endfacet
facet normal  0 1 0
  outer loop
    vertex  17.051697795763 12.460369601011 2.35
    vertex  16.201697795763 12.460369601011 1.2
    vertex  16.051697795763 12.460369601011 1.35
  endloop
endfacet
facet normal  0 1 0
  outer loop
    vertex  15.901697795763 12.460369601011 1.2
    vertex  16.051697795763 12.460369601011 1.35
    vertex  16.201697795763 12.460369601011 1.2
  endloop
endfacet
facet normal  0 1 0
  outer loop
    vertex  16.051697795763 12.460369601011 1.35
    vertex  15.901697795763 12.460369601011 1.2
    vertex  15.051697795763 12.460369601011 1.2
  endloop
endfacet
facet normal  0 1 0
  outer loop
    vertex  16.051697795763 12.460369601011 1.35
    vertex  15.051697795763 12.460369601011 1.2
    vertex  15.051697795763 12.460369601011 2.35
  endloop
endfacet
facet normal  1 0 0
  outer loop
    vertex  17.051697795763 5.041321981964 1.2
    vertex  17.051697795763 8.360369601011 1.35
    vertex  17.051697795763 4.5015460716 1.2
  endloop
endfacet
facet normal  1 0 0
  outer loop
    vertex  17.051697795763 8.360369601011 1.35
    vertex  17.051697795763 4.260369601011 1.2
    vertex  17.051697795763 4.5015460716 1.2
  endloop
endfacet
facet normal  1 0 0
  outer loop
    vertex  17.051697795763 7.745369601011 1.2
    vertex  17.051697795763 8.360369601011 1.35
    vertex  17.051697795763 5.041321981964 1.2
  endloop
endfacet
facet normal  1 0 0
  outer loop
    vertex  17.051697795763 8.360369601011 1.35
    vertex  17.051697795763 8.975369601011 1.2
    vertex  17.051697795763 12.219193130423 1.2
  endloop
endfacet
facet normal  -1 0 0
  outer loop
    vertex  15.051697795763 6.993702934345 1.2
    vertex  15.051697795763 8.360369601011 1.35
    vertex  15.051697795763 7.045275261389 1.2
  endloop
endfacet
facet normal  -1 0 0
  outer loop
    vertex  15.051697795763 4.260369601011 1.2
    vertex  15.051697795763 4.260369601011 2.35
    vertex  15.051697795763 8.360369601011 1.35
  endloop
endfacet
facet normal  -1 0 0
  outer loop
    vertex  15.051697795763 12.460369601011 2.35
    vertex  15.051697795763 12.460369601011 1.2
    vertex  15.051697795763 10.410369601011 1.2
  endloop
endfacet
facet normal  -1 0 0
  outer loop
    vertex  15.051697795763 8.975369601011 1.2
    vertex  15.051697795763 8.360369601011 1.35
    vertex  15.051697795763 10.289781365717 1.2
  endloop
endfacet
facet normal  -1 0 0
  outer loop
    vertex  15.051697795763 8.052869601011 1.2
    vertex  15.051697795763 8.360369601011 1.35
    vertex  15.051697795763 8.667869601011 1.2
  endloop
endfacet
facet normal  -1 0 0
  outer loop
    vertex  15.051697795763 7.657512458154 1.2
    vertex  15.051697795763 8.360369601011 1.35
    vertex  15.051697795763 7.745369601011 1.2
  endloop
endfacet
facet normal  -1 0 0
  outer loop
    vertex  15.051697795763 7.045275261389 1.2
    vertex  15.051697795763 8.360369601011 1.35
    vertex  15.051697795763 7.657512458154 1.2
  endloop
endfacet
facet normal  -1 0 0
  outer loop
    vertex  15.051697795763 8.360369601011 1.35
    vertex  15.051697795763 6.310369601011 1.2
    vertex  15.051697795763 5.757194997837 1.2
  endloop
endfacet
facet normal  -1 0 0
  outer loop
    vertex  15.051697795763 8.360369601011 1.35
    vertex  15.051697795763 8.975369601011 1.2
    vertex  15.051697795763 8.667869601011 1.2
  endloop
endfacet
facet normal  -1 0 0
  outer loop
    vertex  15.051697795763 8.360369601011 1.35
    vertex  15.051697795763 6.993702934345 1.2
    vertex  15.051697795763 6.430957836306 1.2
  endloop
endfacet
facet normal  -1 0 0
  outer loop
    vertex  15.051697795763 6.310369601011 1.2
    vertex  15.051697795763 8.360369601011 1.35
    vertex  15.051697795763 6.430957836306 1.2
  endloop
endfacet
facet normal  -1 0 0
  outer loop
    vertex  15.051697795763 5.757194997837 1.2
    vertex  15.051697795763 5.483176618555 1.2
    vertex  15.051697795763 8.360369601011 1.35
  endloop
endfacet
facet normal  -1 0 0
  outer loop
    vertex  15.051697795763 5.483176618555 1.2
    vertex  15.051697795763 4.260369601011 1.2
    vertex  15.051697795763 8.360369601011 1.35
  endloop
endfacet
endsolid
