solid "Boolean_1"; Produced by Art of Illusion 2.0, Sun Jan 07 09:35:15 NZDT 2007
facet normal  0.993310910008 -0.061336948693 0.097832585497
  outer loop
    vertex  24.765 0 13
    vertex  26 20 13
    vertex  25.750208645242 20 15.53617418621
  endloop
endfacet
facet normal  0.955138528791 -0.061336948693 0.289738105094
  outer loop
    vertex  24.538938823944 0 15.29523763852
    vertex  25.750208645242 20 15.53617418621
    vertex  25.010433922647 20 17.974884620746
  endloop
endfacet
facet normal  0.880260709561 -0.061336948693 0.4705091518
  outer loop
    vertex  23.869442699995 0 17.502270581775
    vertex  25.010433922647 20 17.974884620746
    vertex  23.809104959933 20 20.222413029255
  endloop
endfacet
facet normal  0.771554964919 -0.061336948693 0.633198795667
  outer loop
    vertex  22.782239988739 0 19.536283791476
    vertex  23.809104959933 20 20.222413029255
    vertex  22.192388155425 20 22.192388155425
  endloop
endfacet
facet normal  0.633198795667 -0.061336948693 0.771554964919
  outer loop
    vertex  21.31911128066 0 21.31911128066
    vertex  22.192388155425 20 22.192388155425
    vertex  20.222413029255 20 23.809104959933
  endloop
endfacet
facet normal  0.4705091518 -0.061336948693 0.880260709561
  outer loop
    vertex  19.536283791476 0 22.782239988739
    vertex  20.222413029255 20 23.809104959933
    vertex  17.974884620746 20 25.010433922647
  endloop
endfacet
facet normal  0.289738105094 -0.061336948693 0.955138528791
  outer loop
    vertex  17.502270581775 0 23.869442699995
    vertex  17.974884620746 20 25.010433922647
    vertex  15.53617418621 20 25.750208645242
  endloop
endfacet
facet normal  0.097832585497 -0.061336948693 0.993310910008
  outer loop
    vertex  15.29523763852 0 24.538938823944
    vertex  15.53617418621 20 25.750208645242
    vertex  13 20 26
  endloop
endfacet
facet normal  -0.097832585497 -0.061336948693 0.993310910008
  outer loop
    vertex  13 0 24.765
    vertex  13 20 26
    vertex  10.46382581379 20 25.750208645242
  endloop
endfacet
facet normal  -0.289738105094 -0.061336948693 0.955138528791
  outer loop
    vertex  10.70476236148 0 24.538938823944
    vertex  10.46382581379 20 25.750208645242
    vertex  8.025115379254 20 25.010433922647
  endloop
endfacet
facet normal  -0.4705091518 -0.061336948693 0.880260709561
  outer loop
    vertex  8.497729418225 0 23.869442699995
    vertex  8.025115379254 20 25.010433922647
    vertex  5.777586970745 20 23.809104959933
  endloop
endfacet
facet normal  -0.633198795667 -0.061336948693 0.771554964919
  outer loop
    vertex  6.463716208524 0 22.782239988739
    vertex  5.777586970745 20 23.809104959933
    vertex  3.807611844575 20 22.192388155425
  endloop
endfacet
facet normal  -0.771554964919 -0.061336948693 0.633198795667
  outer loop
    vertex  4.68088871934 0 21.31911128066
    vertex  3.807611844575 20 22.192388155425
    vertex  2.190895040067 20 20.222413029255
  endloop
endfacet
facet normal  -0.880260709561 -0.061336948693 0.4705091518
  outer loop
    vertex  3.217760011261 0 19.536283791476
    vertex  2.190895040067 20 20.222413029255
    vertex  0.989566077353 20 17.974884620746
  endloop
endfacet
facet normal  -0.955138528791 -0.061336948693 0.289738105094
  outer loop
    vertex  2.130557300005 0 17.502270581775
    vertex  0.989566077353 20 17.974884620746
    vertex  0.249791354758 20 15.53617418621
  endloop
endfacet
facet normal  -0.993310910008 -0.061336948693 0.097832585497
  outer loop
    vertex  1.461061176056 0 15.29523763852
    vertex  0.249791354758 20 15.53617418621
    vertex  0 20 13
  endloop
endfacet
facet normal  -0.993310910008 -0.061336948693 -0.097832585497
  outer loop
    vertex  1.235 0 13
    vertex  0 20 13
    vertex  0.249791354758 20 10.46382581379
  endloop
endfacet
facet normal  -0.955138528791 -0.061336948693 -0.289738105094
  outer loop
    vertex  1.461061176056 0 10.70476236148
    vertex  0.249791354758 20 10.46382581379
    vertex  0.989566077353 20 8.025115379254
  endloop
endfacet
facet normal  -0.880260709561 -0.061336948693 -0.4705091518
  outer loop
    vertex  2.130557300005 0 8.497729418225
    vertex  0.989566077353 20 8.025115379254
    vertex  2.190895040067 20 5.777586970745
  endloop
endfacet
facet normal  -0.771554964919 -0.061336948693 -0.633198795667
  outer loop
    vertex  3.217760011261 0 6.463716208524
    vertex  2.190895040067 20 5.777586970745
    vertex  3.807611844575 20 3.807611844575
  endloop
endfacet
facet normal  -0.633198795667 -0.061336948693 -0.771554964919
  outer loop
    vertex  4.68088871934 0 4.68088871934
    vertex  3.807611844575 20 3.807611844575
    vertex  5.777586970745 20 2.190895040067
  endloop
endfacet
facet normal  -0.4705091518 -0.061336948693 -0.880260709561
  outer loop
    vertex  6.463716208524 0 3.217760011261
    vertex  5.777586970745 20 2.190895040067
    vertex  8.025115379254 20 0.989566077353
  endloop
endfacet
facet normal  -0.289738105094 -0.061336948693 -0.955138528791
  outer loop
    vertex  8.497729418225 0 2.130557300005
    vertex  8.025115379254 20 0.989566077353
    vertex  10.46382581379 20 0.249791354758
  endloop
endfacet
facet normal  -0.097832585497 -0.061336948693 -0.993310910008
  outer loop
    vertex  10.70476236148 0 1.461061176056
    vertex  10.46382581379 20 0.249791354758
    vertex  13 20 0
  endloop
endfacet
facet normal  0.097832585497 -0.061336948693 -0.993310910008
  outer loop
    vertex  13 0 1.235
    vertex  13 20 0
    vertex  15.53617418621 20 0.249791354758
  endloop
endfacet
facet normal  0.289738105094 -0.061336948693 -0.955138528791
  outer loop
    vertex  15.29523763852 0 1.461061176056
    vertex  15.53617418621 20 0.249791354758
    vertex  17.974884620746 20 0.989566077353
  endloop
endfacet
facet normal  0.4705091518 -0.061336948693 -0.880260709561
  outer loop
    vertex  17.502270581775 0 2.130557300005
    vertex  17.974884620746 20 0.989566077353
    vertex  20.222413029255 20 2.190895040067
  endloop
endfacet
facet normal  0.633198795667 -0.061336948693 -0.771554964919
  outer loop
    vertex  19.536283791476 0 3.217760011261
    vertex  20.222413029255 20 2.190895040067
    vertex  22.192388155425 20 3.807611844575
  endloop
endfacet
facet normal  0.771554964919 -0.061336948693 -0.633198795667
  outer loop
    vertex  21.31911128066 0 4.68088871934
    vertex  22.192388155425 20 3.807611844575
    vertex  23.809104959933 20 5.777586970745
  endloop
endfacet
facet normal  0.880260709561 -0.061336948693 -0.4705091518
  outer loop
    vertex  22.782239988739 0 6.463716208524
    vertex  23.809104959933 20 5.777586970745
    vertex  25.010433922647 20 8.025115379254
  endloop
endfacet
facet normal  0.955138528791 -0.061336948693 -0.289738105094
  outer loop
    vertex  23.869442699995 0 8.497729418225
    vertex  25.010433922647 20 8.025115379254
    vertex  25.750208645242 20 10.46382581379
  endloop
endfacet
facet normal  0.993310910008 -0.061336948693 -0.097832585497
  outer loop
    vertex  24.538938823944 0 10.70476236148
    vertex  25.750208645242 20 10.46382581379
    vertex  26 20 13
  endloop
endfacet
facet normal  0.993310910008 -0.061336948693 0.097832585497
  outer loop
    vertex  24.765 0 13
    vertex  25.750208645242 20 15.53617418621
    vertex  24.538938823944 0 15.29523763852
  endloop
endfacet
facet normal  0.955138528791 -0.061336948693 0.289738105094
  outer loop
    vertex  24.538938823944 0 15.29523763852
    vertex  25.010433922647 20 17.974884620746
    vertex  23.869442699995 0 17.502270581775
  endloop
endfacet
facet normal  0.880260709561 -0.061336948693 0.4705091518
  outer loop
    vertex  23.869442699995 0 17.502270581775
    vertex  23.809104959933 20 20.222413029255
    vertex  22.782239988739 0 19.536283791476
  endloop
endfacet
facet normal  0.771554964919 -0.061336948693 0.633198795667
  outer loop
    vertex  22.782239988739 0 19.536283791476
    vertex  22.192388155425 20 22.192388155425
    vertex  21.31911128066 0 21.31911128066
  endloop
endfacet
facet normal  0.633198795667 -0.061336948693 0.771554964919
  outer loop
    vertex  21.31911128066 0 21.31911128066
    vertex  20.222413029255 20 23.809104959933
    vertex  19.536283791476 0 22.782239988739
  endloop
endfacet
facet normal  0.4705091518 -0.061336948693 0.880260709561
  outer loop
    vertex  19.536283791476 0 22.782239988739
    vertex  17.974884620746 20 25.010433922647
    vertex  17.502270581775 0 23.869442699995
  endloop
endfacet
facet normal  0.289738105094 -0.061336948693 0.955138528791
  outer loop
    vertex  17.502270581775 0 23.869442699995
    vertex  15.53617418621 20 25.750208645242
    vertex  15.29523763852 0 24.538938823944
  endloop
endfacet
facet normal  0.097832585497 -0.061336948693 0.993310910008
  outer loop
    vertex  15.29523763852 0 24.538938823944
    vertex  13 20 26
    vertex  13 0 24.765
  endloop
endfacet
facet normal  -0.097832585497 -0.061336948693 0.993310910008
  outer loop
    vertex  13 0 24.765
    vertex  10.46382581379 20 25.750208645242
    vertex  10.70476236148 0 24.538938823944
  endloop
endfacet
facet normal  -0.289738105094 -0.061336948693 0.955138528791
  outer loop
    vertex  10.70476236148 0 24.538938823944
    vertex  8.025115379254 20 25.010433922647
    vertex  8.497729418225 0 23.869442699995
  endloop
endfacet
facet normal  -0.4705091518 -0.061336948693 0.880260709561
  outer loop
    vertex  8.497729418225 0 23.869442699995
    vertex  5.777586970745 20 23.809104959933
    vertex  6.463716208524 0 22.782239988739
  endloop
endfacet
facet normal  -0.633198795667 -0.061336948693 0.771554964919
  outer loop
    vertex  6.463716208524 0 22.782239988739
    vertex  3.807611844575 20 22.192388155425
    vertex  4.68088871934 0 21.31911128066
  endloop
endfacet
facet normal  -0.771554964919 -0.061336948693 0.633198795667
  outer loop
    vertex  4.68088871934 0 21.31911128066
    vertex  2.190895040067 20 20.222413029255
    vertex  3.217760011261 0 19.536283791476
  endloop
endfacet
facet normal  -0.880260709561 -0.061336948693 0.4705091518
  outer loop
    vertex  3.217760011261 0 19.536283791476
    vertex  0.989566077353 20 17.974884620746
    vertex  2.130557300005 0 17.502270581775
  endloop
endfacet
facet normal  -0.955138528791 -0.061336948693 0.289738105094
  outer loop
    vertex  2.130557300005 0 17.502270581775
    vertex  0.249791354758 20 15.53617418621
    vertex  1.461061176056 0 15.29523763852
  endloop
endfacet
facet normal  -0.993310910008 -0.061336948693 0.097832585497
  outer loop
    vertex  1.461061176056 0 15.29523763852
    vertex  0 20 13
    vertex  1.235 0 13
  endloop
endfacet
facet normal  -0.993310910008 -0.061336948693 -0.097832585497
  outer loop
    vertex  1.235 0 13
    vertex  0.249791354758 20 10.46382581379
    vertex  1.461061176056 0 10.70476236148
  endloop
endfacet
facet normal  -0.955138528791 -0.061336948693 -0.289738105094
  outer loop
    vertex  1.461061176056 0 10.70476236148
    vertex  0.989566077353 20 8.025115379254
    vertex  2.130557300005 0 8.497729418225
  endloop
endfacet
facet normal  -0.880260709561 -0.061336948693 -0.4705091518
  outer loop
    vertex  2.130557300005 0 8.497729418225
    vertex  2.190895040067 20 5.777586970745
    vertex  3.217760011261 0 6.463716208524
  endloop
endfacet
facet normal  -0.771554964919 -0.061336948693 -0.633198795667
  outer loop
    vertex  3.217760011261 0 6.463716208524
    vertex  3.807611844575 20 3.807611844575
    vertex  4.68088871934 0 4.68088871934
  endloop
endfacet
facet normal  -0.633198795667 -0.061336948693 -0.771554964919
  outer loop
    vertex  4.68088871934 0 4.68088871934
    vertex  5.777586970745 20 2.190895040067
    vertex  6.463716208524 0 3.217760011261
  endloop
endfacet
facet normal  -0.4705091518 -0.061336948693 -0.880260709561
  outer loop
    vertex  6.463716208524 0 3.217760011261
    vertex  8.025115379254 20 0.989566077353
    vertex  8.497729418225 0 2.130557300005
  endloop
endfacet
facet normal  -0.289738105094 -0.061336948693 -0.955138528791
  outer loop
    vertex  8.497729418225 0 2.130557300005
    vertex  10.46382581379 20 0.249791354758
    vertex  10.70476236148 0 1.461061176056
  endloop
endfacet
facet normal  -0.097832585497 -0.061336948693 -0.993310910008
  outer loop
    vertex  10.70476236148 0 1.461061176056
    vertex  13 20 0
    vertex  13 0 1.235
  endloop
endfacet
facet normal  0.097832585497 -0.061336948693 -0.993310910008
  outer loop
    vertex  13 0 1.235
    vertex  15.53617418621 20 0.249791354758
    vertex  15.29523763852 0 1.461061176056
  endloop
endfacet
facet normal  0.289738105094 -0.061336948693 -0.955138528791
  outer loop
    vertex  15.29523763852 0 1.461061176056
    vertex  17.974884620746 20 0.989566077353
    vertex  17.502270581775 0 2.130557300005
  endloop
endfacet
facet normal  0.4705091518 -0.061336948693 -0.880260709561
  outer loop
    vertex  17.502270581775 0 2.130557300005
    vertex  20.222413029255 20 2.190895040067
    vertex  19.536283791476 0 3.217760011261
  endloop
endfacet
facet normal  0.633198795667 -0.061336948693 -0.771554964919
  outer loop
    vertex  19.536283791476 0 3.217760011261
    vertex  22.192388155425 20 3.807611844575
    vertex  21.31911128066 0 4.68088871934
  endloop
endfacet
facet normal  0.771554964919 -0.061336948693 -0.633198795667
  outer loop
    vertex  21.31911128066 0 4.68088871934
    vertex  23.809104959933 20 5.777586970745
    vertex  22.782239988739 0 6.463716208524
  endloop
endfacet
facet normal  0.880260709561 -0.061336948693 -0.4705091518
  outer loop
    vertex  22.782239988739 0 6.463716208524
    vertex  25.010433922647 20 8.025115379254
    vertex  23.869442699995 0 8.497729418225
  endloop
endfacet
facet normal  0.955138528791 -0.061336948693 -0.289738105094
  outer loop
    vertex  23.869442699995 0 8.497729418225
    vertex  25.750208645242 20 10.46382581379
    vertex  24.538938823944 0 10.70476236148
  endloop
endfacet
facet normal  0.993310910008 -0.061336948693 -0.097832585497
  outer loop
    vertex  24.538938823944 0 10.70476236148
    vertex  26 20 13
    vertex  24.765 0 13
  endloop
endfacet
facet normal  -0.470760737047 0.051928246684 0.880731392452
  outer loop
    vertex  19.053215473865 20 3.940722839158
    vertex  16.809613569194 2 3.80277925385
    vertex  18.53070166971 2 4.722720009528
  endloop
endfacet
facet normal  0 -1 0
  outer loop
    vertex  24.765 0 13
    vertex  24.538938823944 0 15.29523763852
    vertex  23.869442699995 0 17.502270581775
  endloop
endfacet
facet normal  0 -1 0
  outer loop
    vertex  24.765 0 13
    vertex  23.869442699995 0 17.502270581775
    vertex  22.782239988739 0 19.536283791476
  endloop
endfacet
facet normal  -0 -1 -0
  outer loop
    vertex  24.765 0 13
    vertex  22.782239988739 0 19.536283791476
    vertex  21.31911128066 0 21.31911128066
  endloop
endfacet
facet normal  0 -1 0
  outer loop
    vertex  24.765 0 13
    vertex  21.31911128066 0 21.31911128066
    vertex  19.536283791476 0 22.782239988739
  endloop
endfacet
facet normal  0 -1 0
  outer loop
    vertex  24.765 0 13
    vertex  19.536283791476 0 22.782239988739
    vertex  17.502270581775 0 23.869442699995
  endloop
endfacet
facet normal  0 -1 0
  outer loop
    vertex  24.765 0 13
    vertex  17.502270581775 0 23.869442699995
    vertex  15.29523763852 0 24.538938823944
  endloop
endfacet
facet normal  0 -1 0
  outer loop
    vertex  24.765 0 13
    vertex  15.29523763852 0 24.538938823944
    vertex  13 0 24.765
  endloop
endfacet
facet normal  -0 -1 0
  outer loop
    vertex  24.765 0 13
    vertex  13 0 24.765
    vertex  10.70476236148 0 24.538938823944
  endloop
endfacet
facet normal  -0 -1 0
  outer loop
    vertex  24.765 0 13
    vertex  10.70476236148 0 24.538938823944
    vertex  8.497729418225 0 23.869442699995
  endloop
endfacet
facet normal  -0 -1 0
  outer loop
    vertex  24.765 0 13
    vertex  8.497729418225 0 23.869442699995
    vertex  6.463716208524 0 22.782239988739
  endloop
endfacet
facet normal  -0 -1 0
  outer loop
    vertex  24.765 0 13
    vertex  6.463716208524 0 22.782239988739
    vertex  4.68088871934 0 21.31911128066
  endloop
endfacet
facet normal  0 -1 0
  outer loop
    vertex  24.765 0 13
    vertex  4.68088871934 0 21.31911128066
    vertex  3.217760011261 0 19.536283791476
  endloop
endfacet
facet normal  0 -1 0
  outer loop
    vertex  24.765 0 13
    vertex  3.217760011261 0 19.536283791476
    vertex  2.130557300005 0 17.502270581775
  endloop
endfacet
facet normal  0 -1 0
  outer loop
    vertex  24.765 0 13
    vertex  2.130557300005 0 17.502270581775
    vertex  1.461061176056 0 15.29523763852
  endloop
endfacet
facet normal  0 -1 0
  outer loop
    vertex  24.765 0 13
    vertex  1.461061176056 0 15.29523763852
    vertex  1.235 0 13
  endloop
endfacet
facet normal  -0 -1 0
  outer loop
    vertex  24.765 0 13
    vertex  1.235 0 13
    vertex  1.461061176056 0 10.70476236148
  endloop
endfacet
facet normal  0 -1 0
  outer loop
    vertex  24.765 0 13
    vertex  1.461061176056 0 10.70476236148
    vertex  2.130557300005 0 8.497729418225
  endloop
endfacet
facet normal  0 -1 0
  outer loop
    vertex  24.765 0 13
    vertex  2.130557300005 0 8.497729418225
    vertex  3.217760011261 0 6.463716208524
  endloop
endfacet
facet normal  -0 -1 0
  outer loop
    vertex  24.765 0 13
    vertex  3.217760011261 0 6.463716208524
    vertex  4.68088871934 0 4.68088871934
  endloop
endfacet
facet normal  0 -1 0
  outer loop
    vertex  24.765 0 13
    vertex  4.68088871934 0 4.68088871934
    vertex  6.463716208524 0 3.217760011261
  endloop
endfacet
facet normal  0 -1 0
  outer loop
    vertex  24.765 0 13
    vertex  6.463716208524 0 3.217760011261
    vertex  8.497729418225 0 2.130557300005
  endloop
endfacet
facet normal  0 -1 0
  outer loop
    vertex  24.765 0 13
    vertex  8.497729418225 0 2.130557300005
    vertex  10.70476236148 0 1.461061176056
  endloop
endfacet
facet normal  0 -1 0
  outer loop
    vertex  24.765 0 13
    vertex  10.70476236148 0 1.461061176056
    vertex  13 0 1.235
  endloop
endfacet
facet normal  -0 -1 0
  outer loop
    vertex  24.765 0 13
    vertex  13 0 1.235
    vertex  15.29523763852 0 1.461061176056
  endloop
endfacet
facet normal  -0 -1 0
  outer loop
    vertex  24.765 0 13
    vertex  15.29523763852 0 1.461061176056
    vertex  17.502270581775 0 2.130557300005
  endloop
endfacet
facet normal  -0 -1 0
  outer loop
    vertex  24.765 0 13
    vertex  17.502270581775 0 2.130557300005
    vertex  19.536283791476 0 3.217760011261
  endloop
endfacet
facet normal  -0 -1 0
  outer loop
    vertex  24.765 0 13
    vertex  19.536283791476 0 3.217760011261
    vertex  21.31911128066 0 4.68088871934
  endloop
endfacet
facet normal  0 -1 -0
  outer loop
    vertex  24.765 0 13
    vertex  21.31911128066 0 4.68088871934
    vertex  22.782239988739 0 6.463716208524
  endloop
endfacet
facet normal  0 -1 0
  outer loop
    vertex  24.765 0 13
    vertex  22.782239988739 0 6.463716208524
    vertex  23.869442699995 0 8.497729418225
  endloop
endfacet
facet normal  0 -1 0
  outer loop
    vertex  24.765 0 13
    vertex  23.869442699995 0 8.497729418225
    vertex  24.538938823944 0 10.70476236148
  endloop
endfacet
facet normal  -0.633537372451 0.051928246684 -0.771967521923
  outer loop
    vertex  20.704281934418 20 20.704281934418
    vertex  20.039248006712 2 20.039248006712
    vertex  19.053215473865 20 22.059277160842
  endloop
endfacet
facet normal  0 1 -0
  outer loop
    vertex  26 20 13
    vertex  23.8955 20 13
    vertex  23.686146022633 20 15.125606603527
  endloop
endfacet
facet normal  0 1 0
  outer loop
    vertex  25.750208645242 20 15.53617418621
    vertex  26 20 13
    vertex  23.686146022633 20 15.125606603527
  endloop
endfacet
facet normal  -0.880731392452 0.051928246684 0.470760737047
  outer loop
    vertex  21.277279990472 2 7.46929833029
    vertex  23.066129446477 20 8.830472662666
    vertex  22.059277160842 20 6.946784526135
  endloop
endfacet
facet normal  0 1 0
  outer loop
    vertex  25.010433922647 20 17.974884620746
    vertex  25.750208645242 20 15.53617418621
    vertex  23.686146022633 20 15.125606603527
  endloop
endfacet
facet normal  -0 1 -0
  outer loop
    vertex  25.010433922647 20 17.974884620746
    vertex  23.066129446477 20 17.169527337334
    vertex  22.059277160842 20 19.053215473865
  endloop
endfacet
facet normal  0 1 0
  outer loop
    vertex  23.809104959933 20 20.222413029255
    vertex  25.010433922647 20 17.974884620746
    vertex  22.059277160842 20 19.053215473865
  endloop
endfacet
facet normal  0.097884897413 0.051928246684 -0.993842041803
  outer loop
    vertex  10.874393396473 20 23.686146022633
    vertex  13 2 22.955
    vertex  11.057875844329 2 22.763717466414
  endloop
endfacet
facet normal  0 1 -0
  outer loop
    vertex  22.192388155425 20 22.192388155425
    vertex  23.809104959933 20 20.222413029255
    vertex  22.059277160842 20 19.053215473865
  endloop
endfacet
facet normal  -0.880731392452 0.051928246684 -0.470760737047
  outer loop
    vertex  22.059277160842 20 19.053215473865
    vertex  22.19722074615 2 16.809613569194
    vertex  21.277279990472 2 18.53070166971
  endloop
endfacet
facet normal  -0 1 -0
  outer loop
    vertex  20.222413029255 20 23.809104959933
    vertex  22.192388155425 20 22.192388155425
    vertex  20.704281934418 20 20.704281934418
  endloop
endfacet
facet normal  0 1 -0
  outer loop
    vertex  20.222413029255 20 23.809104959933
    vertex  19.053215473865 20 22.059277160842
    vertex  17.169527337334 20 23.066129446477
  endloop
endfacet
facet normal  0 1 0
  outer loop
    vertex  17.974884620746 20 25.010433922647
    vertex  20.222413029255 20 23.809104959933
    vertex  17.169527337334 20 23.066129446477
  endloop
endfacet
facet normal  -0 1 0
  outer loop
    vertex  17.974884620746 20 25.010433922647
    vertex  17.169527337334 20 23.066129446477
    vertex  15.125606603527 20 23.686146022633
  endloop
endfacet
facet normal  -0 1 -0
  outer loop
    vertex  15.53617418621 20 25.750208645242
    vertex  17.974884620746 20 25.010433922647
    vertex  15.125606603527 20 23.686146022633
  endloop
endfacet
facet normal  0 1 -0
  outer loop
    vertex  15.53617418621 20 25.750208645242
    vertex  15.125606603527 20 23.686146022633
    vertex  13 20 23.8955
  endloop
endfacet
facet normal  0 1 0
  outer loop
    vertex  13 20 26
    vertex  15.53617418621 20 25.750208645242
    vertex  13 20 23.8955
  endloop
endfacet
facet normal  0 1 -0
  outer loop
    vertex  13 20 26
    vertex  13 20 23.8955
    vertex  10.874393396473 20 23.686146022633
  endloop
endfacet
facet normal  -0 1 0
  outer loop
    vertex  10.46382581379 20 25.750208645242
    vertex  13 20 26
    vertex  10.874393396473 20 23.686146022633
  endloop
endfacet
facet normal  -0 1 0
  outer loop
    vertex  10.46382581379 20 25.750208645242
    vertex  10.874393396473 20 23.686146022633
    vertex  8.830472662666 20 23.066129446477
  endloop
endfacet
facet normal  -0 1 0
  outer loop
    vertex  8.025115379254 20 25.010433922647
    vertex  10.46382581379 20 25.750208645242
    vertex  8.830472662666 20 23.066129446477
  endloop
endfacet
facet normal  -0 1 0
  outer loop
    vertex  8.025115379254 20 25.010433922647
    vertex  8.830472662666 20 23.066129446477
    vertex  6.946784526135 20 22.059277160842
  endloop
endfacet
facet normal  -0 1 0
  outer loop
    vertex  5.777586970745 20 23.809104959933
    vertex  8.025115379254 20 25.010433922647
    vertex  6.946784526135 20 22.059277160842
  endloop
endfacet
facet normal  0 1 0
  outer loop
    vertex  5.777586970745 20 23.809104959933
    vertex  6.946784526135 20 22.059277160842
    vertex  5.295718065582 20 20.704281934418
  endloop
endfacet
facet normal  -0 1 0
  outer loop
    vertex  3.807611844575 20 22.192388155425
    vertex  5.777586970745 20 23.809104959933
    vertex  5.295718065582 20 20.704281934418
  endloop
endfacet
facet normal  -0.993842041803 0.051928246684 0.097884897413
  outer loop
    vertex  22.763717466414 2 11.057875844329
    vertex  23.8955 20 13
    vertex  23.686146022633 20 10.874393396473
  endloop
endfacet
facet normal  -0 1 0
  outer loop
    vertex  2.190895040067 20 20.222413029255
    vertex  3.807611844575 20 22.192388155425
    vertex  5.295718065582 20 20.704281934418
  endloop
endfacet
facet normal  0 1 0
  outer loop
    vertex  2.190895040067 20 20.222413029255
    vertex  3.940722839158 20 19.053215473865
    vertex  2.933870553523 20 17.169527337334
  endloop
endfacet
facet normal  -0 1 0
  outer loop
    vertex  0.989566077353 20 17.974884620746
    vertex  2.190895040067 20 20.222413029255
    vertex  2.933870553523 20 17.169527337334
  endloop
endfacet
facet normal  0 1 0
  outer loop
    vertex  0.989566077353 20 17.974884620746
    vertex  2.933870553523 20 17.169527337334
    vertex  2.313853977367 20 15.125606603527
  endloop
endfacet
facet normal  -0 1 0
  outer loop
    vertex  0.249791354758 20 15.53617418621
    vertex  0.989566077353 20 17.974884620746
    vertex  2.313853977367 20 15.125606603527
  endloop
endfacet
facet normal  -0.993842041803 0.051928246684 0.097884897413
  outer loop
    vertex  23.8955 20 13
    vertex  22.763717466414 2 11.057875844329
    vertex  22.955 2 13
  endloop
endfacet
facet normal  -0 1 0
  outer loop
    vertex  0 20 13
    vertex  0.249791354758 20 15.53617418621
    vertex  2.313853977367 20 15.125606603527
  endloop
endfacet
facet normal  -0 1 -0
  outer loop
    vertex  0 20 13
    vertex  2.1045 20 13
    vertex  2.313853977367 20 10.874393396473
  endloop
endfacet
facet normal  -0 1 -0
  outer loop
    vertex  0.249791354758 20 10.46382581379
    vertex  0 20 13
    vertex  2.313853977367 20 10.874393396473
  endloop
endfacet
facet normal  -0 1 -0
  outer loop
    vertex  0.249791354758 20 10.46382581379
    vertex  2.313853977367 20 10.874393396473
    vertex  2.933870553523 20 8.830472662666
  endloop
endfacet
facet normal  -0 1 -0
  outer loop
    vertex  0.989566077353 20 8.025115379254
    vertex  0.249791354758 20 10.46382581379
    vertex  2.933870553523 20 8.830472662666
  endloop
endfacet
facet normal  -0 1 -0
  outer loop
    vertex  0.989566077353 20 8.025115379254
    vertex  2.933870553523 20 8.830472662666
    vertex  3.940722839158 20 6.946784526135
  endloop
endfacet
facet normal  0 1 0
  outer loop
    vertex  2.190895040067 20 5.777586970745
    vertex  0.989566077353 20 8.025115379254
    vertex  3.940722839158 20 6.946784526135
  endloop
endfacet
facet normal  0 1 -0
  outer loop
    vertex  2.190895040067 20 5.777586970745
    vertex  3.940722839158 20 6.946784526135
    vertex  5.295718065582 20 5.295718065582
  endloop
endfacet
facet normal  0 1 0
  outer loop
    vertex  3.807611844575 20 3.807611844575
    vertex  2.190895040067 20 5.777586970745
    vertex  5.295718065582 20 5.295718065582
  endloop
endfacet
facet normal  0 1 0
  outer loop
    vertex  3.807611844575 20 3.807611844575
    vertex  5.295718065582 20 5.295718065582
    vertex  6.946784526135 20 3.940722839158
  endloop
endfacet
facet normal  0 1 0
  outer loop
    vertex  5.777586970745 20 2.190895040067
    vertex  3.807611844575 20 3.807611844575
    vertex  6.946784526135 20 3.940722839158
  endloop
endfacet
facet normal  -0.955649249489 0.051928246684 -0.289893030524
  outer loop
    vertex  23.066129446477 20 17.169527337334
    vertex  22.763717466414 2 14.942124155671
    vertex  22.19722074615 2 16.809613569194
  endloop
endfacet
facet normal  0 1 0
  outer loop
    vertex  8.025115379254 20 0.989566077353
    vertex  5.777586970745 20 2.190895040067
    vertex  6.946784526135 20 3.940722839158
  endloop
endfacet
facet normal  -0.993842041803 0.051928246684 -0.097884897413
  outer loop
    vertex  23.686146022633 20 15.125606603527
    vertex  22.955 2 13
    vertex  22.763717466414 2 14.942124155671
  endloop
endfacet
facet normal  0 1 0
  outer loop
    vertex  10.46382581379 20 0.249791354758
    vertex  8.025115379254 20 0.989566077353
    vertex  8.830472662666 20 2.933870553523
  endloop
endfacet
facet normal  0 1 0
  outer loop
    vertex  10.46382581379 20 0.249791354758
    vertex  10.874393396473 20 2.313853977367
    vertex  13 20 2.1045
  endloop
endfacet
facet normal  0 1 -0
  outer loop
    vertex  13 20 0
    vertex  10.46382581379 20 0.249791354758
    vertex  13 20 2.1045
  endloop
endfacet
facet normal  -0.771967521923 0.051928246684 -0.633537372451
  outer loop
    vertex  20.704281934418 20 20.704281934418
    vertex  21.277279990472 2 18.53070166971
    vertex  20.039248006712 2 20.039248006712
  endloop
endfacet
facet normal  0 1 0
  outer loop
    vertex  15.53617418621 20 0.249791354758
    vertex  13 20 0
    vertex  13 20 2.1045
  endloop
endfacet
facet normal  0 1 -0
  outer loop
    vertex  15.53617418621 20 0.249791354758
    vertex  15.125606603527 20 2.313853977367
    vertex  17.169527337334 20 2.933870553523
  endloop
endfacet
facet normal  0 1 -0
  outer loop
    vertex  17.974884620746 20 0.989566077353
    vertex  15.53617418621 20 0.249791354758
    vertex  17.169527337334 20 2.933870553523
  endloop
endfacet
facet normal  0 1 0
  outer loop
    vertex  17.974884620746 20 0.989566077353
    vertex  17.169527337334 20 2.933870553523
    vertex  19.053215473865 20 3.940722839158
  endloop
endfacet
facet normal  -0 1 0
  outer loop
    vertex  20.222413029255 20 2.190895040067
    vertex  17.974884620746 20 0.989566077353
    vertex  19.053215473865 20 3.940722839158
  endloop
endfacet
facet normal  -0 1 -0
  outer loop
    vertex  20.222413029255 20 2.190895040067
    vertex  19.053215473865 20 3.940722839158
    vertex  20.704281934418 20 5.295718065582
  endloop
endfacet
facet normal  0 1 -0
  outer loop
    vertex  22.192388155425 20 3.807611844575
    vertex  20.222413029255 20 2.190895040067
    vertex  20.704281934418 20 5.295718065582
  endloop
endfacet
facet normal  -0 1 -0
  outer loop
    vertex  22.192388155425 20 3.807611844575
    vertex  20.704281934418 20 5.295718065582
    vertex  22.059277160842 20 6.946784526135
  endloop
endfacet
facet normal  0 1 -0
  outer loop
    vertex  23.809104959933 20 5.777586970745
    vertex  22.192388155425 20 3.807611844575
    vertex  22.059277160842 20 6.946784526135
  endloop
endfacet
facet normal  0 1 0
  outer loop
    vertex  23.809104959933 20 5.777586970745
    vertex  22.059277160842 20 6.946784526135
    vertex  23.066129446477 20 8.830472662666
  endloop
endfacet
facet normal  -0 1 0
  outer loop
    vertex  25.010433922647 20 8.025115379254
    vertex  23.809104959933 20 5.777586970745
    vertex  23.066129446477 20 8.830472662666
  endloop
endfacet
facet normal  -0 1 -0
  outer loop
    vertex  25.010433922647 20 8.025115379254
    vertex  23.066129446477 20 8.830472662666
    vertex  23.686146022633 20 10.874393396473
  endloop
endfacet
facet normal  0 1 -0
  outer loop
    vertex  25.750208645242 20 10.46382581379
    vertex  25.010433922647 20 8.025115379254
    vertex  23.686146022633 20 10.874393396473
  endloop
endfacet
facet normal  0 1 0
  outer loop
    vertex  25.750208645242 20 10.46382581379
    vertex  23.686146022633 20 10.874393396473
    vertex  23.8955 20 13
  endloop
endfacet
facet normal  0 1 0
  outer loop
    vertex  26 20 13
    vertex  25.750208645242 20 10.46382581379
    vertex  23.8955 20 13
  endloop
endfacet
facet normal  -0.470760737047 0.051928246684 -0.880731392452
  outer loop
    vertex  17.169527337334 20 23.066129446477
    vertex  18.53070166971 2 21.277279990472
    vertex  16.809613569194 2 22.19722074615
  endloop
endfacet
facet normal  -0 1 0
  outer loop
    vertex  23.066129446477 20 17.169527337334
    vertex  25.010433922647 20 17.974884620746
    vertex  23.686146022633 20 15.125606603527
  endloop
endfacet
facet normal  0.955649249489 0.051928246684 0.289893030524
  outer loop
    vertex  2.933870553523 20 8.830472662666
    vertex  3.236282533586 2 11.057875844329
    vertex  3.80277925385 2 9.190386430806
  endloop
endfacet
facet normal  -0 1 -0
  outer loop
    vertex  20.704281934418 20 20.704281934418
    vertex  22.192388155425 20 22.192388155425
    vertex  22.059277160842 20 19.053215473865
  endloop
endfacet
facet normal  -0 1 -0
  outer loop
    vertex  19.053215473865 20 22.059277160842
    vertex  20.222413029255 20 23.809104959933
    vertex  20.704281934418 20 20.704281934418
  endloop
endfacet
facet normal  0.633537372451 0.051928246684 -0.771967521923
  outer loop
    vertex  5.295718065582 20 20.704281934418
    vertex  7.46929833029 2 21.277279990472
    vertex  5.960751993288 2 20.039248006712
  endloop
endfacet
facet normal  0.470760737047 0.051928246684 -0.880731392452
  outer loop
    vertex  6.946784526135 20 22.059277160842
    vertex  9.190386430806 2 22.19722074615
    vertex  7.46929833029 2 21.277279990472
  endloop
endfacet
facet normal  -0.097884897413 0.051928246684 0.993842041803
  outer loop
    vertex  15.125606603527 20 2.313853977367
    vertex  13 2 3.045
    vertex  14.942124155671 2 3.236282533586
  endloop
endfacet
facet normal  0.289893030524 0.051928246684 -0.955649249489
  outer loop
    vertex  8.830472662666 20 23.066129446477
    vertex  11.057875844329 2 22.763717466414
    vertex  9.190386430806 2 22.19722074615
  endloop
endfacet
facet normal  -0.955649249489 0.051928246684 0.289893030524
  outer loop
    vertex  23.686146022633 20 10.874393396473
    vertex  22.19722074615 2 9.190386430806
    vertex  22.763717466414 2 11.057875844329
  endloop
endfacet
facet normal  -0.771967521923 0.051928246684 0.633537372451
  outer loop
    vertex  22.059277160842 20 6.946784526135
    vertex  20.039248006712 2 5.960751993288
    vertex  21.277279990472 2 7.46929833029
  endloop
endfacet
facet normal  0.993842041803 0.051928246684 0.097884897413
  outer loop
    vertex  2.313853977367 20 10.874393396473
    vertex  3.045 2 13
    vertex  3.236282533586 2 11.057875844329
  endloop
endfacet
facet normal  -0 1 -0
  outer loop
    vertex  3.940722839158 20 19.053215473865
    vertex  2.190895040067 20 20.222413029255
    vertex  5.295718065582 20 20.704281934418
  endloop
endfacet
facet normal  0.097884897413 0.051928246684 0.993842041803
  outer loop
    vertex  13 20 2.1045
    vertex  11.057875844329 2 3.236282533586
    vertex  13 2 3.045
  endloop
endfacet
facet normal  -0.097884897413 0.051928246684 -0.993842041803
  outer loop
    vertex  13 20 23.8955
    vertex  14.942124155671 2 22.763717466414
    vertex  13 2 22.955
  endloop
endfacet
facet normal  -0 1 0
  outer loop
    vertex  2.1045 20 13
    vertex  0 20 13
    vertex  2.313853977367 20 15.125606603527
  endloop
endfacet
facet normal  0.289893030524 0.051928246684 0.955649249489
  outer loop
    vertex  10.874393396473 20 2.313853977367
    vertex  9.190386430806 2 3.80277925385
    vertex  11.057875844329 2 3.236282533586
  endloop
endfacet
facet normal  -0.633537372451 0.051928246684 0.771967521923
  outer loop
    vertex  20.704281934418 20 5.295718065582
    vertex  18.53070166971 2 4.722720009528
    vertex  20.039248006712 2 5.960751993288
  endloop
endfacet
facet normal  0.470760737047 0.051928246684 0.880731392452
  outer loop
    vertex  8.830472662666 20 2.933870553523
    vertex  7.46929833029 2 4.722720009528
    vertex  9.190386430806 2 3.80277925385
  endloop
endfacet
facet normal  0.993842041803 0.051928246684 -0.097884897413
  outer loop
    vertex  2.1045 20 13
    vertex  3.236282533586 2 14.942124155671
    vertex  3.045 2 13
  endloop
endfacet
facet normal  -0.880731392452 0.051928246684 0.470760737047
  outer loop
    vertex  23.066129446477 20 8.830472662666
    vertex  21.277279990472 2 7.46929833029
    vertex  22.19722074615 2 9.190386430806
  endloop
endfacet
facet normal  0 1 0
  outer loop
    vertex  8.830472662666 20 2.933870553523
    vertex  8.025115379254 20 0.989566077353
    vertex  6.946784526135 20 3.940722839158
  endloop
endfacet
facet normal  -0 1 0
  outer loop
    vertex  10.874393396473 20 2.313853977367
    vertex  10.46382581379 20 0.249791354758
    vertex  8.830472662666 20 2.933870553523
  endloop
endfacet
facet normal  0.633537372451 0.051928246684 0.771967521923
  outer loop
    vertex  6.946784526135 20 3.940722839158
    vertex  5.960751993288 2 5.960751993288
    vertex  7.46929833029 2 4.722720009528
  endloop
endfacet
facet normal  -0 1 -0
  outer loop
    vertex  15.125606603527 20 2.313853977367
    vertex  15.53617418621 20 0.249791354758
    vertex  13 20 2.1045
  endloop
endfacet
facet normal  0.955649249489 0.051928246684 -0.289893030524
  outer loop
    vertex  2.313853977367 20 15.125606603527
    vertex  3.80277925385 2 16.809613569194
    vertex  3.236282533586 2 14.942124155671
  endloop
endfacet
facet normal  0.880731392452 0.051928246684 -0.470760737047
  outer loop
    vertex  2.933870553523 20 17.169527337334
    vertex  4.722720009528 2 18.53070166971
    vertex  3.80277925385 2 16.809613569194
  endloop
endfacet
facet normal  0.771967521923 0.051928246684 0.633537372451
  outer loop
    vertex  5.295718065582 20 5.295718065582
    vertex  4.722720009528 2 7.46929833029
    vertex  5.960751993288 2 5.960751993288
  endloop
endfacet
facet normal  0.880731392452 0.051928246684 0.470760737047
  outer loop
    vertex  3.940722839158 20 6.946784526135
    vertex  3.80277925385 2 9.190386430806
    vertex  4.722720009528 2 7.46929833029
  endloop
endfacet
facet normal  -0.633537372451 0.051928246684 -0.771967521923
  outer loop
    vertex  19.053215473865 20 22.059277160842
    vertex  20.039248006712 2 20.039248006712
    vertex  18.53070166971 2 21.277279990472
  endloop
endfacet
facet normal  -0.289893030524 0.051928246684 -0.955649249489
  outer loop
    vertex  15.125606603527 20 23.686146022633
    vertex  16.809613569194 2 22.19722074615
    vertex  14.942124155671 2 22.763717466414
  endloop
endfacet
facet normal  0.771967521923 0.051928246684 -0.633537372451
  outer loop
    vertex  3.940722839158 20 19.053215473865
    vertex  5.960751993288 2 20.039248006712
    vertex  4.722720009528 2 18.53070166971
  endloop
endfacet
facet normal  0 1 0
  outer loop
    vertex  22.955 2 13
    vertex  16.809613569194 2 22.19722074615
    vertex  22.763717466414 2 14.942124155671
  endloop
endfacet
facet normal  0 1 0
  outer loop
    vertex  22.763717466414 2 14.942124155671
    vertex  16.809613569194 2 22.19722074615
    vertex  22.19722074615 2 16.809613569194
  endloop
endfacet
facet normal  0 1 0
  outer loop
    vertex  22.19722074615 2 16.809613569194
    vertex  16.809613569194 2 22.19722074615
    vertex  21.277279990472 2 18.53070166971
  endloop
endfacet
facet normal  0 1 0
  outer loop
    vertex  21.277279990472 2 18.53070166971
    vertex  16.809613569194 2 22.19722074615
    vertex  20.039248006712 2 20.039248006712
  endloop
endfacet
facet normal  -0 1 -0
  outer loop
    vertex  20.039248006712 2 20.039248006712
    vertex  16.809613569194 2 22.19722074615
    vertex  18.53070166971 2 21.277279990472
  endloop
endfacet
facet normal  -0.289893030524 0.051928246684 0.955649249489
  outer loop
    vertex  17.169527337334 20 2.933870553523
    vertex  14.942124155671 2 3.236282533586
    vertex  16.809613569194 2 3.80277925385
  endloop
endfacet
facet normal  -0.097884897413 0.051928246684 0.993842041803
  outer loop
    vertex  13 20 2.1045
    vertex  13 2 3.045
    vertex  15.125606603527 20 2.313853977367
  endloop
endfacet
facet normal  0 1 0
  outer loop
    vertex  14.942124155671 2 22.763717466414
    vertex  16.809613569194 2 22.19722074615
    vertex  13 2 22.955
  endloop
endfacet
facet normal  0 1 0
  outer loop
    vertex  13 2 22.955
    vertex  16.809613569194 2 22.19722074615
    vertex  11.057875844329 2 22.763717466414
  endloop
endfacet
facet normal  0 1 0
  outer loop
    vertex  11.057875844329 2 22.763717466414
    vertex  16.809613569194 2 22.19722074615
    vertex  9.190386430806 2 22.19722074615
  endloop
endfacet
facet normal  -0 1 0
  outer loop
    vertex  9.190386430806 2 22.19722074615
    vertex  16.809613569194 2 22.19722074615
    vertex  7.46929833029 2 21.277279990472
  endloop
endfacet
facet normal  0 1 -0
  outer loop
    vertex  7.46929833029 2 21.277279990472
    vertex  16.809613569194 2 22.19722074615
    vertex  5.960751993288 2 20.039248006712
  endloop
endfacet
facet normal  -0 1 0
  outer loop
    vertex  5.960751993288 2 20.039248006712
    vertex  16.809613569194 2 22.19722074615
    vertex  4.722720009528 2 18.53070166971
  endloop
endfacet
facet normal  -0 1 0
  outer loop
    vertex  4.722720009528 2 18.53070166971
    vertex  16.809613569194 2 22.19722074615
    vertex  3.80277925385 2 16.809613569194
  endloop
endfacet
facet normal  -0 1 0
  outer loop
    vertex  3.80277925385 2 16.809613569194
    vertex  16.809613569194 2 22.19722074615
    vertex  3.236282533586 2 14.942124155671
  endloop
endfacet
facet normal  -0 1 0
  outer loop
    vertex  3.236282533586 2 14.942124155671
    vertex  16.809613569194 2 22.19722074615
    vertex  3.045 2 13
  endloop
endfacet
facet normal  -0 1 -0
  outer loop
    vertex  3.045 2 13
    vertex  16.809613569194 2 22.19722074615
    vertex  3.236282533586 2 11.057875844329
  endloop
endfacet
facet normal  -0 1 -0
  outer loop
    vertex  3.236282533586 2 11.057875844329
    vertex  16.809613569194 2 22.19722074615
    vertex  3.80277925385 2 9.190386430806
  endloop
endfacet
facet normal  -0 1 -0
  outer loop
    vertex  3.80277925385 2 9.190386430806
    vertex  16.809613569194 2 22.19722074615
    vertex  4.722720009528 2 7.46929833029
  endloop
endfacet
facet normal  -0 1 -0
  outer loop
    vertex  4.722720009528 2 7.46929833029
    vertex  16.809613569194 2 22.19722074615
    vertex  5.960751993288 2 5.960751993288
  endloop
endfacet
facet normal  0 1 -0
  outer loop
    vertex  5.960751993288 2 5.960751993288
    vertex  16.809613569194 2 22.19722074615
    vertex  7.46929833029 2 4.722720009528
  endloop
endfacet
facet normal  -0 1 -0
  outer loop
    vertex  7.46929833029 2 4.722720009528
    vertex  16.809613569194 2 22.19722074615
    vertex  9.190386430806 2 3.80277925385
  endloop
endfacet
facet normal  -0 1 -0
  outer loop
    vertex  9.190386430806 2 3.80277925385
    vertex  16.809613569194 2 22.19722074615
    vertex  11.057875844329 2 3.236282533586
  endloop
endfacet
facet normal  -0 1 -0
  outer loop
    vertex  11.057875844329 2 3.236282533586
    vertex  16.809613569194 2 22.19722074615
    vertex  13 2 3.045
  endloop
endfacet
facet normal  0 1 -0
  outer loop
    vertex  13 2 3.045
    vertex  16.809613569194 2 22.19722074615
    vertex  14.942124155671 2 3.236282533586
  endloop
endfacet
facet normal  0 1 -0
  outer loop
    vertex  14.942124155671 2 3.236282533586
    vertex  16.809613569194 2 22.19722074615
    vertex  16.809613569194 2 3.80277925385
  endloop
endfacet
facet normal  0 1 -0
  outer loop
    vertex  16.809613569194 2 3.80277925385
    vertex  16.809613569194 2 22.19722074615
    vertex  18.53070166971 2 4.722720009528
  endloop
endfacet
facet normal  -0 1 -0
  outer loop
    vertex  18.53070166971 2 4.722720009528
    vertex  16.809613569194 2 22.19722074615
    vertex  20.039248006712 2 5.960751993288
  endloop
endfacet
facet normal  0 1 -0
  outer loop
    vertex  20.039248006712 2 5.960751993288
    vertex  16.809613569194 2 22.19722074615
    vertex  21.277279990472 2 7.46929833029
  endloop
endfacet
facet normal  0 1 -0
  outer loop
    vertex  21.277279990472 2 7.46929833029
    vertex  16.809613569194 2 22.19722074615
    vertex  22.19722074615 2 9.190386430806
  endloop
endfacet
facet normal  0 1 -0
  outer loop
    vertex  22.19722074615 2 9.190386430806
    vertex  16.809613569194 2 22.19722074615
    vertex  22.763717466414 2 11.057875844329
  endloop
endfacet
facet normal  0 1 -0
  outer loop
    vertex  22.763717466414 2 11.057875844329
    vertex  16.809613569194 2 22.19722074615
    vertex  22.955 2 13
  endloop
endfacet
facet normal  -0.993842041803 0.051928246684 -0.097884897413
  outer loop
    vertex  22.955 2 13
    vertex  23.686146022633 20 15.125606603527
    vertex  23.8955 20 13
  endloop
endfacet
facet normal  -0.771967521923 0.051928246684 0.633537372451
  outer loop
    vertex  20.039248006712 2 5.960751993288
    vertex  22.059277160842 20 6.946784526135
    vertex  20.704281934418 20 5.295718065582
  endloop
endfacet
facet normal  -0.880731392452 0.051928246684 -0.470760737047
  outer loop
    vertex  22.19722074615 2 16.809613569194
    vertex  22.059277160842 20 19.053215473865
    vertex  23.066129446477 20 17.169527337334
  endloop
endfacet
facet normal  0.470760737047 0.051928246684 0.880731392452
  outer loop
    vertex  6.946784526135 20 3.940722839158
    vertex  7.46929833029 2 4.722720009528
    vertex  8.830472662666 20 2.933870553523
  endloop
endfacet
facet normal  0.993842041803 0.051928246684 -0.097884897413
  outer loop
    vertex  2.313853977367 20 15.125606603527
    vertex  3.236282533586 2 14.942124155671
    vertex  2.1045 20 13
  endloop
endfacet
facet normal  -0.470760737047 0.051928246684 -0.880731392452
  outer loop
    vertex  18.53070166971 2 21.277279990472
    vertex  17.169527337334 20 23.066129446477
    vertex  19.053215473865 20 22.059277160842
  endloop
endfacet
facet normal  -0.289893030524 0.051928246684 -0.955649249489
  outer loop
    vertex  16.809613569194 2 22.19722074615
    vertex  15.125606603527 20 23.686146022633
    vertex  17.169527337334 20 23.066129446477
  endloop
endfacet
facet normal  -0.097884897413 0.051928246684 -0.993842041803
  outer loop
    vertex  14.942124155671 2 22.763717466414
    vertex  13 20 23.8955
    vertex  15.125606603527 20 23.686146022633
  endloop
endfacet
facet normal  0.097884897413 0.051928246684 -0.993842041803
  outer loop
    vertex  13 2 22.955
    vertex  10.874393396473 20 23.686146022633
    vertex  13 20 23.8955
  endloop
endfacet
facet normal  0.289893030524 0.051928246684 -0.955649249489
  outer loop
    vertex  11.057875844329 2 22.763717466414
    vertex  8.830472662666 20 23.066129446477
    vertex  10.874393396473 20 23.686146022633
  endloop
endfacet
facet normal  0.470760737047 0.051928246684 -0.880731392452
  outer loop
    vertex  9.190386430806 2 22.19722074615
    vertex  6.946784526135 20 22.059277160842
    vertex  8.830472662666 20 23.066129446477
  endloop
endfacet
facet normal  0.633537372451 0.051928246684 -0.771967521923
  outer loop
    vertex  7.46929833029 2 21.277279990472
    vertex  5.295718065582 20 20.704281934418
    vertex  6.946784526135 20 22.059277160842
  endloop
endfacet
facet normal  -0.955649249489 0.051928246684 0.289893030524
  outer loop
    vertex  22.19722074615 2 9.190386430806
    vertex  23.686146022633 20 10.874393396473
    vertex  23.066129446477 20 8.830472662666
  endloop
endfacet
facet normal  0.880731392452 0.051928246684 -0.470760737047
  outer loop
    vertex  4.722720009528 2 18.53070166971
    vertex  2.933870553523 20 17.169527337334
    vertex  3.940722839158 20 19.053215473865
  endloop
endfacet
facet normal  0.955649249489 0.051928246684 -0.289893030524
  outer loop
    vertex  3.80277925385 2 16.809613569194
    vertex  2.313853977367 20 15.125606603527
    vertex  2.933870553523 20 17.169527337334
  endloop
endfacet
facet normal  0.771967521923 0.051928246684 -0.633537372451
  outer loop
    vertex  5.295718065582 20 20.704281934418
    vertex  5.960751993288 2 20.039248006712
    vertex  3.940722839158 20 19.053215473865
  endloop
endfacet
facet normal  0.993842041803 0.051928246684 0.097884897413
  outer loop
    vertex  3.045 2 13
    vertex  2.313853977367 20 10.874393396473
    vertex  2.1045 20 13
  endloop
endfacet
facet normal  0.955649249489 0.051928246684 0.289893030524
  outer loop
    vertex  3.236282533586 2 11.057875844329
    vertex  2.933870553523 20 8.830472662666
    vertex  2.313853977367 20 10.874393396473
  endloop
endfacet
facet normal  0.880731392452 0.051928246684 0.470760737047
  outer loop
    vertex  3.80277925385 2 9.190386430806
    vertex  3.940722839158 20 6.946784526135
    vertex  2.933870553523 20 8.830472662666
  endloop
endfacet
facet normal  0.771967521923 0.051928246684 0.633537372451
  outer loop
    vertex  4.722720009528 2 7.46929833029
    vertex  5.295718065582 20 5.295718065582
    vertex  3.940722839158 20 6.946784526135
  endloop
endfacet
facet normal  0.633537372451 0.051928246684 0.771967521923
  outer loop
    vertex  5.960751993288 2 5.960751993288
    vertex  6.946784526135 20 3.940722839158
    vertex  5.295718065582 20 5.295718065582
  endloop
endfacet
facet normal  -0.955649249489 0.051928246684 -0.289893030524
  outer loop
    vertex  23.686146022633 20 15.125606603527
    vertex  22.763717466414 2 14.942124155671
    vertex  23.066129446477 20 17.169527337334
  endloop
endfacet
facet normal  0.289893030524 0.051928246684 0.955649249489
  outer loop
    vertex  8.830472662666 20 2.933870553523
    vertex  9.190386430806 2 3.80277925385
    vertex  10.874393396473 20 2.313853977367
  endloop
endfacet
facet normal  0.097884897413 0.051928246684 0.993842041803
  outer loop
    vertex  11.057875844329 2 3.236282533586
    vertex  13 20 2.1045
    vertex  10.874393396473 20 2.313853977367
  endloop
endfacet
facet normal  -0.771967521923 0.051928246684 -0.633537372451
  outer loop
    vertex  22.059277160842 20 19.053215473865
    vertex  21.277279990472 2 18.53070166971
    vertex  20.704281934418 20 20.704281934418
  endloop
endfacet
facet normal  -0.289893030524 0.051928246684 0.955649249489
  outer loop
    vertex  14.942124155671 2 3.236282533586
    vertex  17.169527337334 20 2.933870553523
    vertex  15.125606603527 20 2.313853977367
  endloop
endfacet
facet normal  -0.470760737047 0.051928246684 0.880731392452
  outer loop
    vertex  16.809613569194 2 3.80277925385
    vertex  19.053215473865 20 3.940722839158
    vertex  17.169527337334 20 2.933870553523
  endloop
endfacet
facet normal  -0.633537372451 0.051928246684 0.771967521923
  outer loop
    vertex  18.53070166971 2 4.722720009528
    vertex  20.704281934418 20 5.295718065582
    vertex  19.053215473865 20 3.940722839158
  endloop
endfacet
endsolid
